<svg width="82" height="81" viewBox="0 0 82 81" fill="none" xmlns="http://www.w3.org/2000/svg">
<g filter="url(#filter0_d_576_1716)">
<path d="M71.0797 43.8304C69.5969 49.6767 66.3832 54.9596 61.8451 59.011C57.3069 63.0625 51.648 65.7005 45.5842 66.5915C39.5203 67.4824 33.3237 66.5864 27.7781 64.0166C22.2324 61.4468 17.5868 57.3187 14.4287 52.1543C11.2705 46.9899 9.74175 41.0212 10.0356 35.003C10.3295 28.9848 12.4329 23.1874 16.0798 18.3439C19.7266 13.5004 24.7531 9.82843 30.5237 7.79227C36.2943 5.75611 42.5497 5.44725 48.4989 6.90474C56.4761 8.85906 63.3366 13.8473 67.5713 20.7721C71.8059 27.6969 73.068 35.9912 71.0797 43.8304Z" fill="url(#paint0_linear_576_1716)"/>
<path d="M55.7642 32.6657C56.3696 28.6195 53.2451 26.4294 48.9329 24.9768L50.3384 19.4781L46.9467 18.6466L45.5907 24.0027C44.695 23.7887 43.7745 23.5747 42.854 23.3834L44.21 18.0029L40.8182 17.1697L39.4375 22.6441C38.6869 22.4771 37.9599 22.3107 37.2566 22.1448V22.1257L32.5567 20.9828L31.6609 24.5541C31.6609 24.5541 34.1799 25.1247 34.1392 25.149C34.6113 25.2031 35.0422 25.439 35.3376 25.8049C35.6329 26.1708 35.7685 26.6368 35.7147 27.1008L34.1215 33.3632C34.2469 33.3881 34.3688 33.4278 34.4844 33.4815C34.3607 33.4608 34.2392 33.4288 34.1215 33.3859L31.8928 42.1463C31.7921 42.4518 31.5726 42.7059 31.2822 42.8531C30.9918 43.0004 30.6539 43.029 30.3421 42.9326C30.3669 42.9795 27.8638 42.3376 27.8638 42.3376L26.168 46.1647L30.5935 47.2589C31.4166 47.4728 32.2168 47.6642 33.0151 47.8781L31.6096 53.4239L35.0013 54.2571L36.4069 48.7584C37.3274 48.9967 38.2479 49.235 39.1206 49.4542L37.7399 54.9286L41.1316 55.7618L42.546 50.2092C48.3593 51.2807 52.7194 50.8511 54.5374 45.6863C56.0155 41.5444 54.4648 39.1403 51.413 37.5695C52.5905 37.3437 53.6581 36.7392 54.4475 35.8513C55.2369 34.9635 55.7033 33.8427 55.773 32.6657H55.7642ZM47.9876 43.3779C46.9467 47.5198 39.8234 45.2827 37.5221 44.7104L39.3879 37.3555C41.6892 37.9261 49.1011 39.0464 47.9876 43.3779ZM49.0497 32.5926C48.0814 36.3779 42.1707 34.4487 40.2571 33.9738L41.953 27.3078C43.8666 27.7845 50.0446 28.6647 49.0515 32.5926H49.0497Z" fill="#EBEBEB"/>
</g>
<defs>
<filter id="filter0_d_576_1716" x="0" y="0" width="82" height="80.9265" filterUnits="userSpaceOnUse" color-interpolation-filters="sRGB">
<feFlood flood-opacity="0" result="BackgroundImageFix"/>
<feColorMatrix in="SourceAlpha" type="matrix" values="0 0 0 0 0 0 0 0 0 0 0 0 0 0 0 0 0 0 127 0" result="hardAlpha"/>
<feOffset dy="4"/>
<feGaussianBlur stdDeviation="5"/>
<feComposite in2="hardAlpha" operator="out"/>
<feColorMatrix type="matrix" values="0 0 0 0 0 0 0 0 0 0 0 0 0 0 0 0 0 0 0.25 0"/>
<feBlend mode="normal" in2="BackgroundImageFix" result="effect1_dropShadow_576_1716"/>
<feBlend mode="normal" in="SourceGraphic" in2="effect1_dropShadow_576_1716" result="shape"/>
</filter>
<linearGradient id="paint0_linear_576_1716" x1="41" y1="6" x2="41" y2="66.9264" gradientUnits="userSpaceOnUse">
<stop stop-color="#F9AA4B"/>
<stop offset="1" stop-color="#F7931A"/>
</linearGradient>
</defs>
</svg>
