<svg width="8" height="8" viewBox="0 0 8 8" fill="none" xmlns="http://www.w3.org/2000/svg">
<g clip-path="url(#clip0_582_183)">
<path d="M4.6377 3.57696L6.9377 1.27696C7.01268 1.20863 7.07301 1.1258 7.11505 1.03347C7.15709 0.94115 7.17997 0.841258 7.18229 0.739841C7.18461 0.638424 7.16634 0.537589 7.12857 0.443437C7.09081 0.349285 7.03433 0.263774 6.96257 0.192076C6.8908 0.120378 6.80524 0.0639843 6.71105 0.0263063C6.61686 -0.0113716 6.51601 -0.0295504 6.41459 -0.0271303C6.31318 -0.0247102 6.21331 -0.00174141 6.12103 0.0403863C6.02874 0.0825141 5.94597 0.142925 5.8777 0.217965L3.5777 2.51796L1.2777 0.217965C1.13553 0.0854846 0.94748 0.0133614 0.753179 0.0167896C0.558878 0.0202179 0.373493 0.0989298 0.23608 0.236343C0.0986668 0.373756 0.0199548 0.559141 0.0165266 0.753442C0.0130984 0.947743 0.0852216 1.13579 0.217702 1.27796L2.5177 3.57796L0.217702 5.87796C0.0782213 6.0191 0 6.20953 0 6.40796C0 6.6064 0.0782213 6.79683 0.217702 6.93796C0.287199 7.00775 0.369794 7.06312 0.460746 7.1009C0.551697 7.13869 0.649215 7.15814 0.747702 7.15814C0.846189 7.15814 0.943706 7.13869 1.03466 7.1009C1.12561 7.06312 1.2082 7.00775 1.2777 6.93796L3.5777 4.63796L5.8777 6.93796C5.9472 7.00775 6.02979 7.06312 6.12075 7.1009C6.2117 7.13869 6.30921 7.15814 6.4077 7.15814C6.50619 7.15814 6.60371 7.13869 6.69466 7.1009C6.78561 7.06312 6.8682 7.00775 6.9377 6.93796C7.07718 6.79683 7.1554 6.6064 7.1554 6.40796C7.1554 6.20953 7.07718 6.0191 6.9377 5.87796L4.6377 3.57696Z" fill="#EB0020"/>
</g>
<defs>
<clipPath id="clip0_582_183">
<rect width="7.155" height="7.158" fill="white"/>
</clipPath>
</defs>
</svg>
