<svg width="10" height="8" viewBox="0 0 10 8" fill="none" xmlns="http://www.w3.org/2000/svg">
<g clip-path="url(#clip0_456_165)">
<path d="M3.57799 7.16789C3.47952 7.16786 3.38202 7.14841 3.29108 7.11066C3.20014 7.07291 3.11753 7.0176 3.04799 6.94789L0.217985 4.11689C0.0855049 3.97472 0.0133817 3.78667 0.01681 3.59237C0.0202382 3.39807 0.0989502 3.21268 0.236363 3.07527C0.373776 2.93786 0.559161 2.85915 0.753462 2.85572C0.947764 2.85229 1.13581 2.92441 1.27798 3.05689L3.57799 5.35689L8.71799 0.217893C8.86016 0.0854134 9.04821 0.0132902 9.24251 0.0167184C9.43681 0.0201466 9.62219 0.0988586 9.75961 0.236272C9.89702 0.373685 9.97573 0.55907 9.97916 0.753371C9.98259 0.947672 9.91046 1.13572 9.77798 1.27789L4.10798 6.94789C4.03844 7.0176 3.95583 7.07291 3.86489 7.11066C3.77395 7.14841 3.67645 7.16786 3.57799 7.16789Z" fill="#358535"/>
</g>
<defs>
<clipPath id="clip0_456_165">
<rect width="9.995" height="7.168" fill="white"/>
</clipPath>
</defs>
</svg>
