<svg width="24" height="24" viewBox="0 0 24 24" fill="none" xmlns="http://www.w3.org/2000/svg">
<path opacity="0.4" d="M22 14.25C22.1989 14.25 22.3896 14.329 22.5303 14.4697C22.6709 14.6103 22.75 14.8011 22.75 15C22.7506 16.0179 22.5506 17.026 22.1614 17.9666C21.7721 18.9071 21.2013 19.7618 20.4815 20.4815C19.7617 21.2013 18.9071 21.7722 17.9665 22.1614C17.026 22.5506 16.0179 22.7507 15 22.75C14.8672 22.75 14.7369 22.7148 14.6222 22.6479C14.5075 22.581 14.4127 22.485 14.3473 22.3694C14.2819 22.2539 14.2484 22.1231 14.2501 21.9904C14.2518 21.8577 14.2886 21.7278 14.357 21.614L15.407 19.864C15.4571 19.7785 15.5237 19.7038 15.603 19.6443C15.6822 19.5847 15.7724 19.5414 15.8684 19.5169C15.9645 19.4924 16.0644 19.4872 16.1625 19.5016C16.2606 19.5159 16.3548 19.5496 16.4398 19.6006C16.5248 19.6516 16.5988 19.719 16.6576 19.7988C16.7164 19.8786 16.7588 19.9692 16.7823 20.0655C16.8059 20.1618 16.8101 20.2618 16.7947 20.3597C16.7794 20.4576 16.7448 20.5515 16.693 20.636L16.422 21.088C17.796 20.7677 19.0212 19.9916 19.8978 18.8861C20.7745 17.7806 21.2511 16.4109 21.25 15C21.25 14.8011 21.329 14.6103 21.4696 14.4697C21.6103 14.329 21.801 14.25 22 14.25V14.25Z" fill="#15AB89"/>
<path opacity="0.4" d="M7.578 2.912C6.20394 3.23231 4.97879 4.00841 4.10211 5.11388C3.22543 6.21936 2.74885 7.5891 2.75 9C2.75 9.19891 2.67098 9.38968 2.53033 9.53033C2.38968 9.67098 2.19891 9.75 2 9.75C1.80109 9.75 1.61032 9.67098 1.46967 9.53033C1.32902 9.38968 1.25 9.19891 1.25 9C1.24934 7.98207 1.44936 6.974 1.8386 6.03343C2.22784 5.09286 2.79867 4.23824 3.51846 3.51846C4.23824 2.79867 5.09286 2.22784 6.03343 1.8386C6.974 1.44936 7.98207 1.24934 9 1.25C9.13273 1.25001 9.26309 1.28524 9.37775 1.3521C9.49241 1.41896 9.58727 1.51505 9.65266 1.63056C9.71804 1.74607 9.75159 1.87687 9.7499 2.00959C9.7482 2.14231 9.71131 2.2722 9.643 2.386L8.593 4.136C8.54283 4.22148 8.47621 4.29617 8.397 4.35575C8.31779 4.41532 8.22756 4.45861 8.13152 4.4831C8.03547 4.50759 7.93553 4.51281 7.83746 4.49844C7.73939 4.48407 7.64514 4.45041 7.56017 4.39939C7.47519 4.34838 7.40116 4.28103 7.34237 4.20123C7.28358 4.12143 7.24119 4.03077 7.21765 3.9345C7.1941 3.83822 7.18988 3.73823 7.20522 3.6403C7.22056 3.54238 7.25515 3.44847 7.307 3.364L7.578 2.912Z" fill="#15AB89"/>
<path opacity="0.4" d="M12 15.7V16.31H2V15.7C2 13.94 2.44 13.5 4.22 13.5H9.78C11.56 13.5 12 13.94 12 15.7Z" fill="#15AB89"/>
<path d="M2 16.3101V19.8001C2 21.5601 2.44 22.0001 4.22 22.0001H9.78C11.56 22.0001 12 21.5601 12 19.8001V16.3101H2Z" fill="#15AB89"/>
<path opacity="0.4" d="M22 4.2V4.81H12V4.2C12 2.44 12.44 2 14.22 2H19.78C21.56 2 22 2.44 22 4.2Z" fill="#15AB89"/>
<path d="M12 4.81006V8.30006C12 10.0601 12.44 10.5001 14.22 10.5001H19.78C21.56 10.5001 22 10.0601 22 8.30006V4.81006H12Z" fill="#15AB89"/>
</svg>
