<svg width="24" height="24" viewBox="0 0 24 24" fill="none" xmlns="http://www.w3.org/2000/svg">
<path d="M21.25 22H2.75C2.55149 21.9987 2.36149 21.9193 2.22112 21.7789C2.08075 21.6385 2.00131 21.4485 2 21.25C2.00131 21.0515 2.08075 20.8615 2.22112 20.7211C2.36149 20.5807 2.55149 20.5013 2.75 20.5H21.25C21.4485 20.5013 21.6385 20.5807 21.7789 20.7211C21.9193 20.8615 21.9987 21.0515 22 21.25C21.9987 21.4485 21.9193 21.6385 21.7789 21.7789C21.6385 21.9193 21.4485 21.9987 21.25 22Z" fill="#15AB89"/>
<path opacity="0.4" d="M20.59 13.7L13.36 20.93C13.0246 21.2671 12.6261 21.5348 12.1872 21.7178C11.7483 21.9008 11.2776 21.9954 10.8021 21.9963C10.3266 21.9973 9.85551 21.9045 9.41589 21.7232C8.97626 21.5419 8.57669 21.2758 8.24001 20.94L3.63 16.33L15.99 3.96997L20.6 8.57997C20.9358 8.91665 21.202 9.31623 21.3832 9.75585C21.5645 10.1955 21.6573 10.6665 21.6564 11.142C21.6555 11.6176 21.5608 12.0882 21.3778 12.5272C21.1948 12.9661 20.9271 13.3646 20.59 13.7Z" fill="#15AB89"/>
<path d="M15.99 3.97005L3.61995 16.33L2.70995 15.42C2.37414 15.0834 2.10799 14.6838 1.92673 14.2442C1.74546 13.8045 1.65264 13.3335 1.65357 12.858C1.6545 12.3825 1.74916 11.9118 1.93214 11.4729C2.11512 11.034 2.38283 10.6354 2.71995 10.3L9.95395 3.07005C10.2893 2.73292 10.6879 2.46522 11.1268 2.28224C11.5657 2.09926 12.0364 2.0046 12.5119 2.00367C12.9874 2.00274 13.4584 2.09556 13.8981 2.27682C14.3377 2.45809 14.7373 2.72424 15.074 3.06005L15.99 3.97005Z" fill="#15AB89"/>
<path d="M12.89 17.6L11.54 18.95C11.4737 19.0164 11.3949 19.069 11.3083 19.1049C11.2216 19.1407 11.1288 19.1592 11.035 19.1592C10.8456 19.1592 10.6639 19.084 10.53 18.95C10.396 18.8161 10.3208 18.6344 10.3208 18.445C10.3208 18.2556 10.396 18.074 10.53 17.94L11.88 16.59C12.0139 16.4561 12.1956 16.3809 12.385 16.3809C12.5744 16.3809 12.756 16.4561 12.89 16.59C13.0239 16.724 13.0992 16.9056 13.0992 17.095C13.0992 17.2844 13.0239 17.4661 12.89 17.6Z" fill="#15AB89"/>
<path d="M17.27 13.2201L14.58 15.9101C14.4461 16.044 14.2644 16.1193 14.075 16.1193C13.8856 16.1193 13.704 16.044 13.57 15.9101C13.4361 15.7762 13.3608 15.5945 13.3608 15.4051C13.3608 15.2157 13.4361 15.034 13.57 14.9001L16.26 12.2101C16.3262 12.1435 16.4049 12.0907 16.4915 12.0546C16.5782 12.0186 16.6711 12 16.765 12C16.8589 12 16.9518 12.0186 17.0385 12.0546C17.1252 12.0907 17.2038 12.1435 17.27 12.2101C17.4 12.3461 17.4725 12.527 17.4725 12.7151C17.4725 12.9032 17.4 13.0841 17.27 13.2201Z" fill="#15AB89"/>
</svg>
