<svg width="24" height="24" viewBox="0 0 24 24" fill="none" xmlns="http://www.w3.org/2000/svg">
<path opacity="0.4" d="M22 14V17C22 17.7956 21.6839 18.5587 21.1213 19.1213C20.5587 19.6839 19.7956 20 19 20H18C18 19.4696 17.7893 18.9609 17.4142 18.5858C17.0391 18.2107 16.5304 18 16 18C15.4696 18 14.9609 18.2107 14.5858 18.5858C14.2107 18.9609 14 19.4696 14 20H10C10 19.4696 9.78929 18.9609 9.41421 18.5858C9.03914 18.2107 8.53043 18 8 18C7.46957 18 6.96086 18.2107 6.58579 18.5858C6.21071 18.9609 6 19.4696 6 20H5C4.20435 20 3.44129 19.6839 2.87868 19.1213C2.31607 18.5587 2 17.7956 2 17V14H13C13.5299 13.9984 14.0377 13.7872 14.4125 13.4125C14.7872 13.0377 14.9984 12.5299 15 12V5H16.84C17.1931 5.00124 17.5396 5.09518 17.845 5.27243C18.1504 5.44968 18.4038 5.70402 18.58 6.01L20.29 9H19C18.7348 9 18.4804 9.10536 18.2929 9.29289C18.1054 9.48043 18 9.73478 18 10V13C18 13.2652 18.1054 13.5196 18.2929 13.7071C18.4804 13.8946 18.7348 14 19 14H22Z" fill="#15AB89"/>
<path d="M10 20C10 20.3956 9.8827 20.7822 9.66294 21.1111C9.44318 21.44 9.13082 21.6964 8.76537 21.8478C8.39992 21.9991 7.99778 22.0387 7.60982 21.9616C7.22186 21.8844 6.86549 21.6939 6.58579 21.4142C6.30608 21.1345 6.1156 20.7781 6.03843 20.3902C5.96126 20.0022 6.00087 19.6001 6.15224 19.2346C6.30362 18.8692 6.55996 18.5568 6.88886 18.3371C7.21776 18.1173 7.60444 18 8 18C8.53043 18 9.03914 18.2107 9.41421 18.5858C9.78929 18.9609 10 19.4696 10 20Z" fill="#15AB89"/>
<path d="M18 20C18 20.3956 17.8827 20.7822 17.6629 21.1111C17.4432 21.44 17.1308 21.6964 16.7654 21.8478C16.3999 21.9991 15.9978 22.0387 15.6098 21.9616C15.2219 21.8844 14.8655 21.6939 14.5858 21.4142C14.3061 21.1345 14.1156 20.7781 14.0384 20.3902C13.9613 20.0022 14.0009 19.6001 14.1522 19.2346C14.3036 18.8692 14.56 18.5568 14.8889 18.3371C15.2178 18.1173 15.6044 18 16 18C16.5304 18 17.0391 18.2107 17.4142 18.5858C17.7893 18.9609 18 19.4696 18 20Z" fill="#15AB89"/>
<path d="M22 12.53V14H19C18.7348 14 18.4804 13.8946 18.2929 13.7071C18.1054 13.5196 18 13.2652 18 13V10C18 9.73478 18.1054 9.48043 18.2929 9.29289C18.4804 9.10536 18.7348 9 19 9H20.29L21.74 11.54C21.9109 11.8419 22.0004 12.1831 22 12.53V12.53Z" fill="#15AB89"/>
<path d="M14 2H6C5.07046 2.00076 4.17031 2.3258 3.45473 2.91907C2.73914 3.51235 2.25296 4.3367 2.08 5.25H7C7.19891 5.25 7.38968 5.32902 7.53033 5.46967C7.67098 5.61032 7.75 5.80109 7.75 6C7.75 6.19891 7.67098 6.38968 7.53033 6.53033C7.38968 6.67098 7.19891 6.75 7 6.75H2V8.25H5C5.19891 8.25 5.38968 8.32902 5.53033 8.46967C5.67098 8.61032 5.75 8.80109 5.75 9C5.75 9.19891 5.67098 9.38968 5.53033 9.53033C5.38968 9.67098 5.19891 9.75 5 9.75H2V11.25H3C3.19891 11.25 3.38968 11.329 3.53033 11.4697C3.67098 11.6103 3.75 11.8011 3.75 12C3.75 12.1989 3.67098 12.3897 3.53033 12.5303C3.38968 12.671 3.19891 12.75 3 12.75H2V14H13C13.5299 13.9984 14.0377 13.7872 14.4125 13.4125C14.7872 13.0377 14.9984 12.5299 15 12V3C15 2.73478 14.8946 2.48043 14.7071 2.29289C14.5196 2.10536 14.2652 2 14 2V2Z" fill="#15AB89"/>
<path d="M2.08 5.25H1C0.801492 5.25131 0.611487 5.33075 0.471118 5.47112C0.330749 5.61149 0.25131 5.80149 0.25 6C0.25131 6.19851 0.330749 6.38851 0.471118 6.52888C0.611487 6.66925 0.801492 6.74869 1 6.75H2V6C2.00082 5.74791 2.02763 5.49659 2.08 5.25V5.25Z" fill="#15AB89"/>
<path d="M1 8.25C0.801492 8.25131 0.611487 8.33075 0.471118 8.47112C0.330749 8.61149 0.25131 8.80149 0.25 9C0.25131 9.19851 0.330749 9.38851 0.471118 9.52888C0.611487 9.66925 0.801492 9.74869 1 9.75H2V8.25H1Z" fill="#15AB89"/>
<path d="M1 11.25C0.801492 11.2513 0.611487 11.3307 0.471118 11.4711C0.330749 11.6115 0.25131 11.8015 0.25 12C0.25131 12.1985 0.330749 12.3885 0.471118 12.5289C0.611487 12.6693 0.801492 12.7487 1 12.75H2V11.25H1Z" fill="#15AB89"/>
</svg>
