<svg width="24" height="24" viewBox="0 0 24 24" fill="none" xmlns="http://www.w3.org/2000/svg">
<path opacity="0.4" d="M17.0002 7.75006C16.9017 7.75041 16.8041 7.73114 16.7131 7.69337C16.6221 7.65559 16.5395 7.60008 16.4702 7.53006C16.3307 7.38892 16.2525 7.19849 16.2525 7.00006C16.2525 6.80163 16.3307 6.61119 16.4702 6.47006L18.5202 4.42006C16.5588 2.73288 14.0198 1.87156 11.4366 2.01706C8.85351 2.16256 6.4273 3.30356 4.66775 5.20033C2.90819 7.0971 1.95226 9.60201 2.00078 12.1888C2.04931 14.7756 3.09851 17.2429 4.92796 19.0723C6.75741 20.9018 9.2247 21.951 11.8115 21.9995C14.3983 22.048 16.9032 21.0921 18.7999 19.3325C20.6967 17.573 21.8377 15.1468 21.9832 12.5636C22.1287 9.98048 21.2674 7.44148 19.5802 5.48006L17.5302 7.53006C17.4609 7.60008 17.3783 7.65559 17.2873 7.69337C17.1963 7.73114 17.0987 7.75041 17.0002 7.75006Z" fill="#15AB89"/>
<path d="M13.7504 11.82L12.7504 11.47V9.25H12.8304C13.0848 9.26117 13.3244 9.37266 13.4968 9.56007C13.6692 9.74747 13.7604 9.99554 13.7504 10.25C13.7504 10.4489 13.8294 10.6397 13.97 10.7803C14.1107 10.921 14.3015 11 14.5004 11C14.6993 11 14.89 10.921 15.0307 10.7803C15.1713 10.6397 15.2504 10.4489 15.2504 10.25C15.2558 9.9269 15.1975 9.6059 15.0788 9.30535C14.9601 9.0048 14.7833 8.7306 14.5585 8.49842C14.3338 8.26624 14.0655 8.08063 13.7689 7.95221C13.4724 7.82379 13.1535 7.75508 12.8304 7.75H12.7504V7.5C12.7504 7.30109 12.6713 7.11032 12.5307 6.96967C12.39 6.82902 12.1993 6.75 12.0004 6.75C11.8015 6.75 11.6107 6.82902 11.47 6.96967C11.3294 7.11032 11.2504 7.30109 11.2504 7.5V7.75H10.9504C10.3566 7.76157 9.79162 8.00804 9.37925 8.43541C8.96687 8.86278 8.74073 9.43619 8.75037 10.03C8.70748 10.5088 8.8342 10.9874 9.10838 11.3822C9.38256 11.777 9.78677 12.063 10.2504 12.19L11.2504 12.54V14.76H11.1704C10.916 14.7488 10.6763 14.6373 10.5039 14.4499C10.3315 14.2625 10.2403 14.0145 10.2504 13.76C10.2491 13.5615 10.1696 13.3715 10.0292 13.2311C9.88888 13.0907 9.69887 13.0113 9.50037 13.01C9.30186 13.0113 9.11185 13.0907 8.97148 13.2311C8.83111 13.3715 8.75168 13.5615 8.75037 13.76C8.74494 14.0831 8.80325 14.4041 8.92196 14.7046C9.04067 15.0052 9.21745 15.2794 9.4422 15.5116C9.66696 15.7438 9.93527 15.9294 10.2318 16.0578C10.5283 16.1862 10.8473 16.2549 11.1704 16.26H11.2504V16.51C11.2504 16.7089 11.3294 16.8997 11.47 17.0403C11.6107 17.181 11.8015 17.26 12.0004 17.26C12.1993 17.26 12.39 17.181 12.5307 17.0403C12.6713 16.8997 12.7504 16.7089 12.7504 16.51V16.26H13.0504C13.6441 16.2484 14.2091 16.002 14.6215 15.5746C15.0339 15.1472 15.26 14.5738 15.2504 13.98C15.2967 13.5006 15.1713 13.0204 14.8966 12.6248C14.6219 12.2292 14.2157 11.944 13.7504 11.82ZM10.7404 10.76C10.4004 10.64 10.2504 10.57 10.2504 10.02C10.2416 9.8242 10.31 9.63278 10.4409 9.48691C10.5718 9.34104 10.7548 9.25238 10.9504 9.24H11.2504V10.93L10.7404 10.76ZM13.0504 14.75H12.7504V13.06L13.2604 13.24C13.6004 13.36 13.7504 13.43 13.7504 13.98C13.7572 14.1743 13.6879 14.3636 13.5571 14.5075C13.4263 14.6513 13.2444 14.7384 13.0504 14.75Z" fill="#15AB89"/>
<path d="M22.6902 1.71C22.6112 1.52584 22.4644 1.37907 22.2802 1.3C22.1888 1.26003 22.09 1.2396 21.9902 1.24H17.9902C17.7917 1.24131 17.6017 1.32074 17.4614 1.46111C17.321 1.60148 17.2415 1.79149 17.2402 1.99C17.2415 2.1885 17.321 2.37851 17.4614 2.51888C17.6017 2.65925 17.7917 2.73869 17.9902 2.74H20.1802L18.5102 4.41C18.8881 4.73789 19.2423 5.09211 19.5702 5.47L21.2402 3.8V6C21.2402 6.19891 21.3193 6.38967 21.4599 6.53033C21.6006 6.67098 21.7913 6.75 21.9902 6.75C22.1891 6.75 22.3799 6.67098 22.5206 6.53033C22.6612 6.38967 22.7402 6.19891 22.7402 6V2C22.7479 1.90068 22.7307 1.80101 22.6902 1.71Z" fill="#15AB89"/>
</svg>
