<svg width="24" height="24" viewBox="0 0 24 24" fill="none" xmlns="http://www.w3.org/2000/svg">
<path d="M20.97 8H18.03C17.7571 8.02526 17.482 7.99009 17.2242 7.897C16.9665 7.80391 16.7324 7.65519 16.5386 7.4614C16.3448 7.26762 16.1961 7.03352 16.103 6.77576C16.0099 6.518 15.9748 6.24289 16 5.97V3.03C15.9748 2.75711 16.0099 2.48201 16.103 2.22425C16.1961 1.96649 16.3448 1.73239 16.5386 1.5386C16.7324 1.34482 16.9665 1.19609 17.2242 1.10301C17.482 1.00992 17.7571 0.974752 18.03 1H20.97C21.2429 0.974752 21.518 1.00992 21.7758 1.10301C22.0335 1.19609 22.2676 1.34482 22.4614 1.5386C22.6552 1.73239 22.8039 1.96649 22.897 2.22425C22.9901 2.48201 23.0253 2.75711 23 3.03V5.97C23.0253 6.24289 22.9901 6.518 22.897 6.77576C22.8039 7.03352 22.6552 7.26762 22.4614 7.4614C22.2676 7.65519 22.0335 7.80391 21.7758 7.897C21.518 7.99009 21.2429 8.02526 20.97 8ZM21.19 4.69C21.0726 4.5747 20.9146 4.51009 20.75 4.51009C20.5854 4.51009 20.4274 4.5747 20.31 4.69L20.13 4.87V2.63C20.13 2.46292 20.0636 2.30267 19.9455 2.18453C19.8273 2.06638 19.6671 2 19.5 2C19.3329 2 19.1727 2.06638 19.0545 2.18453C18.9364 2.30267 18.87 2.46292 18.87 2.63V4.87L18.69 4.69C18.5733 4.57331 18.415 4.50775 18.25 4.50775C18.085 4.50775 17.9267 4.57331 17.81 4.69C17.6933 4.8067 17.6277 4.96497 17.6277 5.13C17.6277 5.29504 17.6933 5.45331 17.81 5.57L19.06 6.82C19.1154 6.87133 19.1798 6.91201 19.25 6.94C19.27 6.95 19.29 6.95 19.31 6.96C19.3608 6.98047 19.4152 6.99067 19.47 6.99H19.53C19.5988 6.99125 19.667 6.9776 19.73 6.95H19.75C19.8171 6.92193 19.8783 6.88119 19.93 6.83C19.94 6.82 19.94 6.82 19.95 6.82L21.2 5.57C21.2575 5.51178 21.3029 5.44273 21.3336 5.36685C21.3643 5.29097 21.3796 5.20976 21.3786 5.12792C21.3777 5.04608 21.3606 4.96524 21.3282 4.89007C21.2958 4.8149 21.2488 4.7469 21.19 4.69Z" fill="#15AB89"/>
<path opacity="0.4" d="M22 7.77003V9.00003H2V7.54003C2.00052 6.99566 2.1083 6.45673 2.31716 5.95403C2.52603 5.45133 2.8319 4.9947 3.21728 4.61024C3.60267 4.22578 4.06004 3.92102 4.56324 3.71337C5.06645 3.50571 5.60563 3.39924 6.15 3.40003H16V5.97003C15.9747 6.24292 16.0099 6.51802 16.103 6.77578C16.1961 7.03355 16.3448 7.26764 16.5386 7.46143C16.7324 7.65522 16.9665 7.80394 17.2242 7.89703C17.482 7.99011 17.7571 8.02528 18.03 8.00003H20.97C21.3274 8.01274 21.682 7.93355 22 7.77003Z" fill="#15AB89"/>
<path d="M2 9V16.46C2.00052 17.0044 2.1083 17.5433 2.31716 18.046C2.52603 18.5487 2.8319 19.0053 3.21728 19.3898C3.60267 19.7743 4.06004 20.079 4.56324 20.2867C5.06645 20.4943 5.60563 20.6008 6.15 20.6H17.85C18.3944 20.6008 18.9336 20.4943 19.4368 20.2867C19.94 20.079 20.3973 19.7743 20.7827 19.3898C21.1681 19.0053 21.474 18.5487 21.6828 18.046C21.8917 17.5433 21.9995 17.0044 22 16.46V9H2ZM8 17.25H6C5.80109 17.25 5.61032 17.171 5.46967 17.0303C5.32902 16.8897 5.25 16.6989 5.25 16.5C5.25 16.3011 5.32902 16.1103 5.46967 15.9697C5.61032 15.829 5.80109 15.75 6 15.75H8C8.19891 15.75 8.38968 15.829 8.53033 15.9697C8.67098 16.1103 8.75 16.3011 8.75 16.5C8.75 16.6989 8.67098 16.8897 8.53033 17.0303C8.38968 17.171 8.19891 17.25 8 17.25ZM14.5 17.25H10.5C10.3011 17.25 10.1103 17.171 9.96967 17.0303C9.82902 16.8897 9.75 16.6989 9.75 16.5C9.75 16.3011 9.82902 16.1103 9.96967 15.9697C10.1103 15.829 10.3011 15.75 10.5 15.75H14.5C14.6989 15.75 14.8897 15.829 15.0303 15.9697C15.171 16.1103 15.25 16.3011 15.25 16.5C15.25 16.6989 15.171 16.8897 15.0303 17.0303C14.8897 17.171 14.6989 17.25 14.5 17.25Z" fill="#15AB89"/>
</svg>
