<svg width="24" height="24" viewBox="0 0 24 24" fill="none" xmlns="http://www.w3.org/2000/svg">
<path opacity="0.4" d="M16.19 2H7.82001C4.18001 2 2.01001 4.17 2.01001 7.81V16.18C2.01001 19.82 4.18001 21.99 7.82001 21.99H16.19C19.83 21.99 22 19.82 22 16.18V7.81C22 4.17 19.83 2 16.19 2Z" fill="#15AB89"/>
<path d="M16 9.24H18C18.2652 9.24 18.5196 9.13464 18.7071 8.94711C18.8946 8.75957 19 8.50522 19 8.24V8C19 7.20435 18.6839 6.44129 18.1213 5.87868C17.5587 5.31607 16.7956 5 16 5H8C7.20435 5 6.44129 5.31607 5.87868 5.87868C5.31607 6.44129 5 7.20435 5 8V8.5C5 8.76522 5.10536 9.01957 5.29289 9.20711C5.48043 9.39464 5.73478 9.5 6 9.5H7.34C7.97813 9.48684 8.5988 9.70887 9.08379 10.1238C9.56879 10.5387 9.88422 11.1175 9.97 11.75C10.0065 12.0986 9.96919 12.451 9.86062 12.7843C9.75204 13.1176 9.57459 13.4244 9.33978 13.6846C9.10498 13.9449 8.81806 14.1529 8.49766 14.2951C8.17726 14.4373 7.83054 14.5105 7.48 14.51H6C5.73478 14.51 5.48043 14.6154 5.29289 14.8029C5.10536 14.9904 5 15.2448 5 15.51V16.01C5 16.8056 5.31607 17.5687 5.87868 18.1313C6.44129 18.6939 7.20435 19.01 8 19.01H16C16.7956 19.01 17.5587 18.6939 18.1213 18.1313C18.6839 17.5687 19 16.8056 19 16.01V15.76C19 15.4948 18.8946 15.2404 18.7071 15.0529C18.5196 14.8654 18.2652 14.76 18 14.76H16C15.8011 14.76 15.6103 14.681 15.4697 14.5403C15.329 14.3997 15.25 14.2089 15.25 14.01C15.25 13.8111 15.329 13.6203 15.4697 13.4797C15.6103 13.339 15.8011 13.26 16 13.26H18C18.2652 13.26 18.5196 13.1546 18.7071 12.9671C18.8946 12.7796 19 12.5252 19 12.26V11.75C19 11.4848 18.8946 11.2304 18.7071 11.0429C18.5196 10.8554 18.2652 10.75 18 10.75H16C15.9015 10.7501 15.8039 10.7308 15.7128 10.6932C15.6218 10.6555 15.539 10.6003 15.4694 10.5306C15.3997 10.461 15.3445 10.3782 15.3068 10.2872C15.2692 10.1961 15.2499 10.0985 15.25 10C15.2495 9.8 15.328 9.60789 15.4685 9.46553C15.609 9.32318 15.8 9.24211 16 9.24Z" fill="#15AB89"/>
<path d="M7 13H6C5.73478 13 5.48043 12.8946 5.29289 12.7071C5.10536 12.5196 5 12.2652 5 12C5 11.7348 5.10536 11.4804 5.29289 11.2929C5.48043 11.1054 5.73478 11 6 11H7C7.26522 11 7.51957 11.1054 7.70711 11.2929C7.89464 11.4804 8 11.7348 8 12C8 12.2652 7.89464 12.5196 7.70711 12.7071C7.51957 12.8946 7.26522 13 7 13Z" fill="#15AB89"/>
</svg>
