<svg width="24" height="24" viewBox="0 0 24 24" fill="none" xmlns="http://www.w3.org/2000/svg">
<path d="M16.42 7.95004C17.2943 8.82424 17.8897 9.93807 18.1309 11.1507C18.3721 12.3632 18.2483 13.6201 17.7752 14.7624C17.3021 15.9046 16.5009 16.8809 15.4729 17.5678C14.445 18.2547 13.2364 18.6213 12 18.6213C10.7637 18.6213 9.5551 18.2547 8.52712 17.5678C7.49914 16.8809 6.69793 15.9046 6.22482 14.7624C5.75171 13.6201 5.62794 12.3632 5.86916 11.1507C6.11039 9.93807 6.70577 8.82424 7.58003 7.95004C8.75257 6.77832 10.3424 6.12012 12 6.12012C13.6577 6.12012 15.2475 6.77832 16.42 7.95004Z" fill="#15AB89"/>
<path opacity="0.4" d="M8.24697 22.3899C8.15161 22.3879 8.05714 22.371 7.96697 22.3399C5.73602 21.451 3.87155 19.8332 2.67697 17.7499C1.49748 15.7168 1.02717 13.3494 1.33997 11.0199C1.36715 10.8232 1.47031 10.645 1.62734 10.5235C1.78437 10.402 1.98276 10.3468 2.17997 10.3699C2.37734 10.3956 2.5565 10.4984 2.6783 10.6558C2.8001 10.8132 2.85464 11.0124 2.82997 11.2099C2.5672 13.2106 2.9714 15.2421 3.97997 16.9899C5.00332 18.7796 6.60403 20.1687 8.51997 20.9299C8.7039 21.0063 8.85074 21.1515 8.92919 21.3345C9.00764 21.5176 9.01151 21.724 8.93997 21.9099C8.88705 22.0509 8.79234 22.1724 8.66851 22.2582C8.54467 22.344 8.39761 22.3899 8.24697 22.3899Z" fill="#15AB89"/>
<path opacity="0.4" d="M5.84997 5.23007C5.7361 5.22949 5.62385 5.20309 5.52165 5.15286C5.41946 5.10263 5.32999 5.02988 5.25997 4.94007C5.19826 4.86314 5.15259 4.77461 5.12567 4.67972C5.09875 4.58483 5.09113 4.48551 5.10325 4.38762C5.11537 4.28974 5.14699 4.19527 5.19623 4.10982C5.24548 4.02436 5.31136 3.94964 5.38997 3.89007C7.25757 2.42712 9.55798 1.62552 11.9303 1.61104C14.3026 1.59656 16.6127 2.37002 18.498 3.81007C18.5761 3.86983 18.6417 3.94438 18.691 4.02949C18.7404 4.11459 18.7724 4.20858 18.7854 4.30608C18.7984 4.40358 18.7921 4.50269 18.7668 4.59774C18.7415 4.6928 18.6977 4.78194 18.638 4.86007C18.5782 4.93821 18.5037 5.00381 18.4186 5.05314C18.3335 5.10246 18.2395 5.13454 18.142 5.14754C18.0445 5.16054 17.9454 5.15421 17.8503 5.1289C17.7553 5.1036 17.6661 5.05983 17.588 5.00007C15.9649 3.76229 13.9772 3.09769 11.936 3.11036C9.89488 3.12303 7.91555 3.81224 6.30797 5.07007C6.17778 5.17364 6.01634 5.23004 5.84997 5.23007Z" fill="#15AB89"/>
<path opacity="0.4" d="M15.75 22.3901C15.5746 22.3913 15.4043 22.3312 15.2686 22.22C15.1329 22.1088 15.0404 21.9537 15.0072 21.7815C14.9739 21.6092 15.002 21.4308 15.0865 21.2771C15.1711 21.1234 15.3067 21.0042 15.47 20.9401C17.3838 20.1754 18.9834 18.7871 20.01 17.0001C21.0279 15.2558 21.4327 13.2211 21.16 11.2201C21.1475 11.1222 21.1544 11.0229 21.1803 10.9277C21.2063 10.8326 21.2507 10.7434 21.311 10.6654C21.3714 10.5874 21.4465 10.5221 21.5321 10.4731C21.6177 10.4242 21.7122 10.3925 21.81 10.3801C21.9078 10.3676 22.0072 10.3745 22.1023 10.4004C22.1975 10.4263 22.2866 10.4707 22.3646 10.5311C22.4426 10.5914 22.508 10.6666 22.5569 10.7522C22.6059 10.8378 22.6375 10.9322 22.65 11.0301C22.956 13.3597 22.485 15.7253 21.31 17.7601C20.115 19.8431 18.2507 21.4607 16.02 22.3501C15.932 22.3745 15.8413 22.388 15.75 22.3901Z" fill="#15AB89"/>
</svg>
