<svg width="24" height="24" viewBox="0 0 24 24" fill="none" xmlns="http://www.w3.org/2000/svg">
<path d="M22 8.5C22 10.2239 21.3152 11.8772 20.0962 13.0962C18.8772 14.3152 17.2239 15 15.5 15C15.33 15 15.15 14.99 14.98 14.98C14.8549 13.4411 14.1867 11.9968 13.095 10.905C12.0032 9.81326 10.5589 9.14515 9.02 9.02C9.01 8.85 9 8.67 9 8.5C9 6.77609 9.68482 5.12279 10.9038 3.90381C12.1228 2.68482 13.7761 2 15.5 2C17.2239 2 18.8772 2.68482 20.0962 3.90381C21.3152 5.12279 22 6.77609 22 8.5Z" fill="#15AB89"/>
<path opacity="0.4" d="M15 15.5C15 16.7856 14.6188 18.0423 13.9046 19.1112C13.1903 20.1801 12.1752 21.0132 10.9874 21.5052C9.79973 21.9972 8.49279 22.1259 7.23192 21.8751C5.97104 21.6243 4.81285 21.0052 3.90381 20.0962C2.99477 19.1872 2.3757 18.029 2.1249 16.7681C1.87409 15.5072 2.00282 14.2003 2.49479 13.0126C2.98676 11.8248 3.81988 10.8097 4.8888 10.0954C5.95772 9.38122 7.21442 9 8.5 9C8.67 9 8.85 9.01 9.02 9.02C10.5589 9.14515 12.0032 9.81326 13.095 10.905C14.1867 11.9968 14.8549 13.4411 14.98 14.98C14.99 15.15 15 15.33 15 15.5Z" fill="#15AB89"/>
<path d="M7.62 14.62L8.5 13L9.38 14.62L11 15.5L9.38 16.38L8.5 18L7.62 16.38L6 15.5L7.62 14.62Z" fill="#15AB89"/>
</svg>
