<svg width="24" height="24" viewBox="0 0 24 24" fill="none" xmlns="http://www.w3.org/2000/svg">
<path opacity="0.4" d="M18.8096 6.24998H20.1696C19.9796 5.97998 19.7796 5.72998 19.5696 5.47998L18.8096 6.24998Z" fill="#15AB89"/>
<path opacity="0.4" d="M18.52 4.41995C18.27 4.20995 18.02 4.00995 17.75 3.81995V5.17995L18.52 4.41995Z" fill="#15AB89"/>
<path opacity="0.4" d="M16.9995 7.74996C16.8998 7.74936 16.8013 7.72896 16.7095 7.68996C16.5254 7.61089 16.3786 7.46412 16.2995 7.27996C16.2596 7.18853 16.2391 7.08975 16.2395 6.98996V2.98996C16.2395 2.97996 16.2495 2.96996 16.2495 2.94996C14.1128 1.94131 11.6886 1.71915 9.40413 2.32263C7.11965 2.92611 5.12146 4.31651 3.76163 6.24884C2.40181 8.18118 1.7676 10.5314 1.97076 12.8855C2.17393 15.2396 3.20142 17.4465 4.87221 19.1173C6.54299 20.7881 8.74985 21.8156 11.1039 22.0187C13.458 22.2219 15.8083 21.5877 17.7406 20.2279C19.673 18.868 21.0634 16.8698 21.6669 14.5854C22.2703 12.3009 22.0482 9.8767 21.0395 7.73996C21.0295 7.73996 21.0195 7.74996 20.9995 7.74996H16.9995Z" fill="#15AB89"/>
<path d="M19.5795 5.48107L22.5295 2.53107C22.662 2.38889 22.7341 2.20085 22.7307 2.00654C22.7273 1.81224 22.6486 1.62686 22.5112 1.48945C22.3737 1.35203 22.1884 1.27332 21.9941 1.26989C21.7998 1.26646 21.6117 1.33859 21.4695 1.47107L18.5195 4.42007C18.895 4.75086 19.2491 5.10525 19.5795 5.48107Z" fill="#15AB89"/>
<path d="M17.7498 3C17.7485 2.80149 17.669 2.61149 17.5286 2.47112C17.3883 2.33075 17.1983 2.25131 16.9998 2.25C16.809 2.25131 16.6261 2.32563 16.4884 2.45768C16.3508 2.58973 16.269 2.76949 16.2598 2.96C16.7792 3.20536 17.2775 3.49299 17.7498 3.82V3Z" fill="#15AB89"/>
<path d="M21.7499 7C21.7486 6.80149 21.6692 6.61149 21.5288 6.47112C21.3884 6.33075 21.1984 6.25131 20.9999 6.25H20.1699C20.5006 6.71993 20.7884 7.2186 21.0299 7.74C21.222 7.73281 21.404 7.65193 21.5381 7.51414C21.6721 7.37636 21.748 7.19224 21.7499 7Z" fill="#15AB89"/>
<path d="M13.7504 11.82L12.7504 11.47V9.25H12.8304C13.0848 9.26117 13.3244 9.37266 13.4968 9.56007C13.6692 9.74747 13.7604 9.99554 13.7504 10.25C13.7504 10.4489 13.8294 10.6397 13.97 10.7803C14.1107 10.921 14.3015 11 14.5004 11C14.6993 11 14.89 10.921 15.0307 10.7803C15.1713 10.6397 15.2504 10.4489 15.2504 10.25C15.2558 9.9269 15.1975 9.6059 15.0788 9.30535C14.9601 9.0048 14.7833 8.7306 14.5585 8.49842C14.3338 8.26624 14.0655 8.08063 13.7689 7.95221C13.4724 7.82379 13.1535 7.75508 12.8304 7.75H12.7504V7.5C12.7504 7.30109 12.6713 7.11032 12.5307 6.96967C12.39 6.82902 12.1993 6.75 12.0004 6.75C11.8015 6.75 11.6107 6.82902 11.47 6.96967C11.3294 7.11032 11.2504 7.30109 11.2504 7.5V7.75H10.9504C10.3566 7.76157 9.79162 8.00804 9.37925 8.43541C8.96687 8.86278 8.74073 9.43619 8.75037 10.03C8.70748 10.5088 8.8342 10.9874 9.10838 11.3822C9.38256 11.777 9.78677 12.063 10.2504 12.19L11.2504 12.54V14.76H11.1704C10.916 14.7488 10.6763 14.6373 10.5039 14.4499C10.3315 14.2625 10.2403 14.0145 10.2504 13.76C10.2491 13.5615 10.1696 13.3715 10.0292 13.2311C9.88888 13.0907 9.69887 13.0113 9.50037 13.01C9.30186 13.0113 9.11185 13.0907 8.97148 13.2311C8.83111 13.3715 8.75168 13.5615 8.75037 13.76C8.74494 14.0831 8.80325 14.4041 8.92196 14.7046C9.04067 15.0052 9.21745 15.2794 9.4422 15.5116C9.66696 15.7438 9.93527 15.9294 10.2318 16.0578C10.5283 16.1862 10.8473 16.2549 11.1704 16.26H11.2504V16.51C11.2504 16.7089 11.3294 16.8997 11.47 17.0403C11.6107 17.181 11.8015 17.26 12.0004 17.26C12.1993 17.26 12.39 17.181 12.5307 17.0403C12.6713 16.8997 12.7504 16.7089 12.7504 16.51V16.26H13.0504C13.6441 16.2484 14.2091 16.002 14.6215 15.5746C15.0339 15.1472 15.26 14.5738 15.2504 13.98C15.2967 13.5006 15.1713 13.0204 14.8966 12.6248C14.6219 12.2292 14.2157 11.944 13.7504 11.82ZM10.7404 10.76C10.4004 10.64 10.2504 10.57 10.2504 10.02C10.2416 9.8242 10.31 9.63278 10.4409 9.48691C10.5718 9.34104 10.7548 9.25238 10.9504 9.24H11.2504V10.93L10.7404 10.76ZM13.0504 14.75H12.7504V13.06L13.2604 13.24C13.6004 13.36 13.7504 13.43 13.7504 13.98C13.7572 14.1743 13.6879 14.3636 13.5571 14.5075C13.4263 14.6513 13.2444 14.7384 13.0504 14.75Z" fill="#15AB89"/>
</svg>
