<svg width="24" height="24" viewBox="0 0 24 24" fill="none" xmlns="http://www.w3.org/2000/svg">
<path d="M6 20.75C6 21.0961 6.10263 21.4345 6.29493 21.7222C6.48722 22.01 6.76053 22.2343 7.0803 22.3668C7.40007 22.4992 7.75194 22.5339 8.09141 22.4664C8.43087 22.3988 8.74269 22.2322 8.98744 21.9874C9.23218 21.7427 9.39885 21.4309 9.46637 21.0914C9.5339 20.7519 9.49924 20.4001 9.36679 20.0803C9.23434 19.7605 9.01003 19.4872 8.72225 19.2949C8.43446 19.1026 8.09612 19 7.75 19C7.28587 19 6.84075 19.1844 6.51256 19.5126C6.18437 19.8408 6 20.2859 6 20.75Z" fill="#15AB89"/>
<path d="M14 20.75C14 21.0961 14.1026 21.4345 14.2949 21.7222C14.4872 22.01 14.7605 22.2343 15.0803 22.3668C15.4001 22.4992 15.7519 22.5339 16.0914 22.4664C16.4309 22.3988 16.7427 22.2322 16.9874 21.9874C17.2322 21.7427 17.3988 21.4309 17.4664 21.0914C17.5339 20.7519 17.4992 20.4001 17.3668 20.0803C17.2343 19.7605 17.01 19.4872 16.7222 19.2949C16.4345 19.1026 16.0961 19 15.75 19C15.2859 19 14.8408 19.1844 14.5126 19.5126C14.1844 19.8408 14 20.2859 14 20.75Z" fill="#15AB89"/>
<path opacity="0.4" d="M19.16 3.94L19.36 6.39C19.3694 6.50022 19.3555 6.61118 19.3195 6.71575C19.2834 6.82032 19.2258 6.91618 19.1505 6.99718C19.0751 7.07817 18.9837 7.14251 18.882 7.18605C18.7803 7.22959 18.6706 7.25137 18.56 7.25H3.25C3.04782 7.25057 2.85293 7.17457 2.70451 7.03728C2.5561 6.9 2.46516 6.71161 2.45 6.51C2.41459 6.09815 2.46592 5.68345 2.60068 5.29267C2.73544 4.90189 2.95064 4.5437 3.23238 4.24122C3.51413 3.93875 3.85616 3.6987 4.23641 3.53658C4.61666 3.37446 5.02668 3.29387 5.44 3.3H17.71C17.8083 2.85177 18.0181 2.43559 18.32 2.09C18.5638 1.82662 18.8592 1.61616 19.1878 1.47166C19.5163 1.32716 19.8711 1.25172 20.23 1.25L22 1.25C22.1985 1.25131 22.3885 1.33075 22.5289 1.47112C22.6693 1.61149 22.7487 1.80149 22.75 2C22.7487 2.19851 22.6693 2.38851 22.5289 2.52888C22.3885 2.66925 22.1985 2.74869 22 2.75H20.26C20.1077 2.74949 19.9569 2.78063 19.8172 2.84145C19.6775 2.90227 19.552 2.99145 19.4485 3.10332C19.3451 3.2152 19.2661 3.34734 19.2164 3.49136C19.1667 3.63539 19.1475 3.78816 19.16 3.94Z" fill="#15AB89"/>
<path d="M3.48998 8.75008H18.83C19.0306 8.74931 19.2241 8.82392 19.3723 8.95912C19.5205 9.09433 19.6124 9.28026 19.63 9.48008L19.99 13.8301C20.0234 14.2329 19.973 14.6383 19.8421 15.0208C19.7111 15.4032 19.5023 15.7544 19.229 16.0521C18.9556 16.3499 18.6235 16.5879 18.2537 16.751C17.8838 16.9142 17.4842 16.999 17.08 17.0001H5.95998C5.22109 16.9858 4.51347 16.6993 3.97277 16.1955C3.43207 15.6918 3.09636 15.0061 3.02998 14.2701L2.69998 9.60008C2.69046 9.49114 2.7039 9.38141 2.73942 9.27798C2.77494 9.17456 2.83176 9.07973 2.90621 8.99963C2.98066 8.91953 3.07108 8.85593 3.17163 8.81294C3.27218 8.76996 3.38063 8.74854 3.48998 8.75008Z" fill="#15AB89"/>
</svg>
