<svg width="24" height="24" viewBox="0 0 24 24" fill="none" xmlns="http://www.w3.org/2000/svg">
<path opacity="0.8" d="M12.9002 2.52009L12.8702 2.59009L9.9702 9.32009H7.1202C6.46012 9.31604 5.80638 9.44883 5.2002 9.71009L6.9502 5.53009L6.9902 5.44009L7.0502 5.28009C7.07311 5.21849 7.09982 5.15837 7.1302 5.10009C8.4402 2.07009 9.9202 1.38009 12.9002 2.52009Z" fill="#15AB89"/>
<path d="M18.2902 9.52002C17.832 9.38718 17.3573 9.31984 16.8802 9.32002H9.97021L12.8702 2.59002L12.9002 2.52002C13.0402 2.57002 13.1902 2.64002 13.3402 2.69002L15.5502 3.62002C16.5447 3.96374 17.4429 4.53967 18.1702 5.30002C18.2602 5.42002 18.3402 5.53002 18.4202 5.66002C18.5089 5.79202 18.5764 5.93712 18.6202 6.09002C18.6591 6.17336 18.6892 6.26049 18.7102 6.35002C18.9345 7.42371 18.7864 8.54179 18.2902 9.52002Z" fill="#15AB89"/>
<path opacity="0.4" d="M21.7602 14.1999V16.1499C21.7602 16.3499 21.7502 16.5499 21.7402 16.7399C21.5502 20.2399 19.6002 21.9999 15.9002 21.9999H8.10023C7.86273 21.9989 7.62554 21.9822 7.39023 21.9499C4.21023 21.7399 2.51023 20.0432 2.29023 16.8599C2.25866 16.6245 2.24196 16.3874 2.24023 16.1499L2.24023 14.1999C2.24134 13.2442 2.52222 12.3098 3.04823 11.5119C3.57424 10.714 4.32234 10.0876 5.20023 9.70991C5.80642 9.44866 6.46016 9.31587 7.12023 9.31991H16.8802C17.3573 9.31974 17.832 9.38707 18.2902 9.51991C19.2933 9.82597 20.1717 10.4458 20.7963 11.2882C21.4209 12.1306 21.7588 13.1512 21.7602 14.1999Z" fill="#15AB89"/>
<path opacity="0.6" d="M6.95024 5.53003L5.20024 9.71003C4.32235 10.0877 3.57424 10.7141 3.04823 11.512C2.52223 12.3099 2.24134 13.2444 2.24024 14.2V11.27C2.23955 9.91596 2.70869 8.60359 3.56763 7.55682C4.42657 6.51004 5.62209 5.79371 6.95024 5.53003V5.53003Z" fill="#15AB89"/>
<path opacity="0.6" d="M21.76 11.2701V14.2001C21.7586 13.1514 21.4207 12.1308 20.7961 11.2884C20.1715 10.4459 19.2931 9.82614 18.29 9.52009C18.7862 8.54186 18.9344 7.42378 18.71 6.35009C18.6891 6.26056 18.6589 6.17343 18.62 6.09009C19.567 6.58385 20.3605 7.32785 20.9141 8.24116C21.4678 9.15446 21.7603 10.2021 21.76 11.2701Z" fill="#15AB89"/>
<path opacity="0.4" d="M10.3333 13.23H13.6633C13.8726 13.2408 14.0759 13.3044 14.2542 13.4147C14.4325 13.525 14.5801 13.6785 14.6833 13.861L15.5643 15.63C15.6644 15.8542 15.6938 16.1036 15.6486 16.345C15.6034 16.5863 15.4858 16.8082 15.3113 16.981L12.7683 19.29C12.5561 19.4744 12.2844 19.576 12.0033 19.576C11.7221 19.576 11.4504 19.4744 11.2383 19.29L8.69427 16.981C8.51863 16.8089 8.40008 16.5871 8.35465 16.3455C8.30922 16.1038 8.33911 15.8541 8.44027 15.63L9.32127 13.861C9.42296 13.6789 9.5691 13.5256 9.74606 13.4152C9.92301 13.3049 10.125 13.2412 10.3333 13.23Z" fill="#15AB89"/>
<path d="M13.4683 14.844H10.5323C10.4596 14.8445 10.3899 14.8737 10.3384 14.9251C10.287 14.9766 10.2578 15.0462 10.2573 15.119C10.2576 15.1919 10.2866 15.2618 10.3381 15.3135C10.3896 15.3652 10.4594 15.3945 10.5323 15.395H11.7253V17.321C11.7253 17.3941 11.7544 17.4641 11.806 17.5158C11.8577 17.5675 11.9278 17.5965 12.0008 17.5965C12.0739 17.5965 12.144 17.5675 12.1956 17.5158C12.2473 17.4641 12.2763 17.3941 12.2763 17.321V15.395H13.4683C13.5414 15.3947 13.6115 15.3656 13.6632 15.3139C13.7149 15.2622 13.7441 15.1921 13.7443 15.119C13.7438 15.046 13.7145 14.9763 13.6628 14.9248C13.6112 14.8733 13.5413 14.8443 13.4683 14.844V14.844Z" fill="#15AB89"/>
</svg>
