<svg width="24" height="24" viewBox="0 0 24 24" fill="none" xmlns="http://www.w3.org/2000/svg">
<path d="M20.9701 1H18.0301C17.7572 0.974752 17.4821 1.00992 17.2244 1.10301C16.9666 1.19609 16.7325 1.34482 16.5387 1.5386C16.3449 1.73239 16.1962 1.96649 16.1031 2.22425C16.01 2.48201 15.9749 2.75711 16.0001 3.03V5.97C15.9749 6.24289 16.01 6.518 16.1031 6.77576C16.1962 7.03352 16.3449 7.26762 16.5387 7.4614C16.7325 7.65519 16.9666 7.80391 17.2244 7.897C17.4821 7.99009 17.7572 8.02526 18.0301 8H20.9701C21.243 8.02526 21.5181 7.99009 21.7759 7.897C22.0336 7.80391 22.2677 7.65519 22.4615 7.4614C22.6553 7.26762 22.804 7.03352 22.8971 6.77576C22.9902 6.518 23.0254 6.24289 23.0001 5.97V3.03C23.0254 2.75711 22.9902 2.48201 22.8971 2.22425C22.804 1.96649 22.6553 1.73239 22.4615 1.5386C22.2677 1.34482 22.0336 1.19609 21.7759 1.10301C21.5181 1.00992 21.243 0.974752 20.9701 1ZM21.1901 4.31C21.0727 4.42531 20.9147 4.48991 20.7501 4.48991C20.5856 4.48991 20.4276 4.42531 20.3101 4.31L20.1301 4.13V6.37C20.1301 6.53709 20.0638 6.69733 19.9456 6.81548C19.8275 6.93363 19.6672 7 19.5001 7C19.333 7 19.1728 6.93363 19.0546 6.81548C18.9365 6.69733 18.8701 6.53709 18.8701 6.37V4.13L18.6901 4.31C18.5734 4.4267 18.4152 4.49226 18.2501 4.49226C18.0851 4.49226 17.9268 4.4267 17.8101 4.31C17.6934 4.19331 17.6279 4.03504 17.6279 3.87C17.6279 3.70497 17.6934 3.5467 17.8101 3.43L19.0601 2.18C19.1156 2.12867 19.18 2.088 19.2501 2.06C19.2701 2.05 19.2901 2.05 19.3101 2.04C19.361 2.01954 19.4153 2.00934 19.4701 2.01H19.5301C19.5989 2.00876 19.6671 2.02241 19.7301 2.05H19.7501C19.8173 2.07808 19.8784 2.11882 19.9301 2.17C19.9401 2.18 19.9401 2.18 19.9501 2.18L21.2001 3.43C21.2576 3.48822 21.3031 3.55727 21.3337 3.63316C21.3644 3.70904 21.3797 3.79025 21.3788 3.87209C21.3778 3.95393 21.3607 4.03477 21.3283 4.10994C21.2959 4.18511 21.249 4.25311 21.1901 4.31Z" fill="#15AB89"/>
<path opacity="0.4" d="M22 7.77003V9.00003H2V7.54003C2.00052 6.99566 2.1083 6.45673 2.31716 5.95403C2.52603 5.45133 2.8319 4.9947 3.21728 4.61024C3.60267 4.22578 4.06004 3.92102 4.56324 3.71337C5.06645 3.50571 5.60563 3.39924 6.15 3.40003H16V5.97003C15.9747 6.24292 16.0099 6.51802 16.103 6.77578C16.1961 7.03355 16.3448 7.26764 16.5386 7.46143C16.7324 7.65522 16.9665 7.80394 17.2242 7.89703C17.482 7.99011 17.7571 8.02528 18.03 8.00003H20.97C21.3274 8.01274 21.682 7.93355 22 7.77003Z" fill="#15AB89"/>
<path d="M2 9V16.46C2.00052 17.0044 2.1083 17.5433 2.31716 18.046C2.52603 18.5487 2.8319 19.0053 3.21728 19.3898C3.60267 19.7742 4.06004 20.079 4.56324 20.2867C5.06645 20.4943 5.60563 20.6008 6.15 20.6H17.85C18.3944 20.6008 18.9336 20.4943 19.4368 20.2867C19.94 20.079 20.3973 19.7742 20.7827 19.3898C21.1681 19.0053 21.474 18.5487 21.6828 18.046C21.8917 17.5433 21.9995 17.0044 22 16.46V9H2ZM8 17.25H6C5.80109 17.25 5.61032 17.171 5.46967 17.0303C5.32902 16.8897 5.25 16.6989 5.25 16.5C5.25 16.3011 5.32902 16.1103 5.46967 15.9697C5.61032 15.829 5.80109 15.75 6 15.75H8C8.19891 15.75 8.38968 15.829 8.53033 15.9697C8.67098 16.1103 8.75 16.3011 8.75 16.5C8.75 16.6989 8.67098 16.8897 8.53033 17.0303C8.38968 17.171 8.19891 17.25 8 17.25ZM14.5 17.25H10.5C10.3011 17.25 10.1103 17.171 9.96967 17.0303C9.82902 16.8897 9.75 16.6989 9.75 16.5C9.75 16.3011 9.82902 16.1103 9.96967 15.9697C10.1103 15.829 10.3011 15.75 10.5 15.75H14.5C14.6989 15.75 14.8897 15.829 15.0303 15.9697C15.171 16.1103 15.25 16.3011 15.25 16.5C15.25 16.6989 15.171 16.8897 15.0303 17.0303C14.8897 17.171 14.6989 17.25 14.5 17.25Z" fill="#15AB89"/>
</svg>
