<svg width="50" height="48" viewBox="0 0 50 48" fill="none" xmlns="http://www.w3.org/2000/svg">
<path d="M48.9974 29.8041C47.8174 34.41 45.26 38.5721 41.6485 41.7639C38.0371 44.9558 33.5338 47.0341 28.7082 47.7361C23.8826 48.438 18.9515 47.7321 14.5383 45.7075C10.1251 43.6829 6.42814 40.4306 3.91492 36.3619C1.40171 32.2933 0.185112 27.5909 0.418989 22.8496C0.652867 18.1082 2.32671 13.5408 5.22885 9.72495C8.13099 5.9091 12.1311 3.01617 16.7232 1.41201C21.3154 -0.192144 26.2934 -0.435478 31.0278 0.712783C37.3759 2.25247 42.8355 6.18235 46.2054 11.638C49.5753 17.0936 50.5796 23.6281 48.9974 29.8041Z" fill="url(#paint0_linear_271_107)"/>
<path d="M36.809 21.0083C37.2908 17.8206 34.8044 16.0951 31.3728 14.9508L32.4913 10.6187L29.7922 9.96359L28.7131 14.1833C28.0003 14.0148 27.2677 13.8462 26.5352 13.6954L27.6143 9.45651L24.9152 8.80005L23.8164 13.113C23.2191 12.9814 22.6406 12.8503 22.0808 12.7196V12.7046L18.3407 11.8042L17.6279 14.6178C17.6279 14.6178 19.6325 15.0673 19.6001 15.0865C19.9757 15.1291 20.3187 15.3149 20.5537 15.6032C20.7887 15.8914 20.8967 16.2586 20.8538 16.6242L19.586 21.5579C19.6858 21.5775 19.7827 21.6088 19.8748 21.6511C19.7763 21.6348 19.6796 21.6095 19.586 21.5757L17.8124 28.4775C17.7322 28.7182 17.5576 28.9184 17.3265 29.0344C17.0953 29.1504 16.8265 29.1729 16.5784 29.097C16.5981 29.134 14.6061 28.6282 14.6061 28.6282L13.2566 31.6433L16.7784 32.5054C17.4335 32.6739 18.0702 32.8247 18.7055 32.9932L17.587 37.3624L20.2861 38.0188L21.4046 33.6867C22.1372 33.8745 22.8697 34.0622 23.5642 34.2349L22.4654 38.5478L25.1645 39.2043L26.2901 34.8297C30.9163 35.6739 34.386 35.3354 35.8328 31.2664C37.0091 28.0033 35.775 26.1093 33.3464 24.8717C34.2835 24.6938 35.1331 24.2176 35.7613 23.5181C36.3895 22.8186 36.7606 21.9356 36.8161 21.0083H36.809ZM30.6205 29.4478C29.7922 32.7109 24.1235 30.9485 22.2921 30.4976L23.7769 24.7032C25.6083 25.1527 31.5066 26.0353 30.6205 29.4478ZM31.4657 20.9508C30.6952 23.933 25.9914 22.4131 24.4686 22.0389L25.8182 16.7872C27.341 17.1628 32.2574 17.8562 31.4671 20.9508H31.4657Z" fill="#EBEBEB"/>
<defs>
<linearGradient id="paint0_linear_271_107" x1="25.0602" y1="0" x2="25.0602" y2="47.9999" gradientUnits="userSpaceOnUse">
<stop stop-color="#F9AA4B"/>
<stop offset="1" stop-color="#F7931A"/>
</linearGradient>
</defs>
</svg>
