<svg width="50" height="48" viewBox="0 0 50 48" fill="none" xmlns="http://www.w3.org/2000/svg">
<path d="M25.1508 48C38.7754 48 49.8203 37.2548 49.8203 24C49.8203 10.7452 38.7754 0 25.1508 0C11.5261 0 0.481201 10.7452 0.481201 24C0.481201 37.2548 11.5261 48 25.1508 48Z" fill="#D2D2D2"/>
<path fill-rule="evenodd" clip-rule="evenodd" d="M24.997 10.6343C27.691 10.6286 30.3262 11.4006 32.5691 12.8525C34.8119 14.3044 36.5615 16.3711 37.5965 18.7909C38.6316 21.2106 38.9054 23.8747 38.3834 26.4459C37.8615 29.0171 36.5671 31.3798 34.6642 33.2351C32.7613 35.0904 30.3355 36.3548 27.6937 36.8682C25.0519 37.3817 22.3128 37.1209 19.8233 36.1192C17.3338 35.1176 15.2058 33.42 13.7084 31.2412C12.2111 29.0624 11.4119 26.5004 11.4119 23.8795C11.4119 20.3716 12.8422 17.0071 15.3891 14.5239C17.9359 12.0408 21.3913 10.6419 24.997 10.6343ZM17.6568 23.3543L24.4543 16.7276C24.5235 16.6545 24.6075 16.596 24.701 16.5561C24.7946 16.5162 24.8956 16.4957 24.9977 16.4957C25.0999 16.4957 25.2009 16.5162 25.2945 16.5561C25.388 16.596 25.472 16.6545 25.5412 16.7276L32.3345 23.3502C32.4095 23.4188 32.4692 23.5018 32.5097 23.5939C32.5502 23.686 32.5707 23.7853 32.5699 23.8855C32.5692 23.9857 32.5471 24.0847 32.5051 24.1762C32.4631 24.2677 32.4022 24.3498 32.326 24.4172L25.5454 31.0288C25.4745 31.1024 25.3886 31.161 25.2933 31.2007C25.1979 31.2404 25.0951 31.2605 24.9914 31.2596C24.8876 31.2587 24.7852 31.2369 24.6906 31.1955C24.596 31.1541 24.5112 31.0941 24.4416 31.0192L17.661 24.4089C17.5861 24.3419 17.5261 24.2606 17.485 24.17C17.4439 24.0794 17.4225 23.9816 17.4221 23.8825C17.4217 23.7835 17.4423 23.6855 17.4827 23.5946C17.5231 23.5037 17.5824 23.4219 17.6568 23.3543Z" fill="#4048E9"/>
<path fill-rule="evenodd" clip-rule="evenodd" d="M24.997 10.6343C27.691 10.6286 30.3262 11.4006 32.5691 12.8525C34.8119 14.3044 36.5615 16.3711 37.5966 18.7909C38.6316 21.2106 38.9054 23.8747 38.3834 26.4459C37.8615 29.0171 36.5671 31.3798 34.6642 33.2351C32.7613 35.0904 30.3355 36.3548 27.6937 36.8682C25.0519 37.3817 22.3129 37.1209 19.8234 36.1192C17.3338 35.1176 15.2058 33.42 13.7084 31.2412C12.2111 29.0624 11.4119 26.5004 11.4119 23.8795C11.4119 20.3716 12.8422 17.0071 15.3891 14.5239C17.9359 12.0408 21.3913 10.6419 24.997 10.6343ZM17.6568 23.3543L24.4543 16.7276C27.4992 13.8585 30.8402 11.2639 32.8772 13.0248C35.4548 14.9825 37.3519 17.6635 38.3116 20.7047C39.2673 24.3116 38.0621 29.8755 35.8658 31.8312C38.2524 27.7937 32.8772 23.8837 32.8772 23.8837C32.8772 23.8837 26.1234 30.6366 23.0954 33.1559C19.9941 35.7397 17.8471 35.8892 16.5742 34.7455C15.9905 34.2216 13.5856 32.0959 13.5856 32.0959C13.2796 31.1534 13.2188 30.1516 13.4084 29.1806C13.5981 28.2095 14.0324 27.2996 14.6725 26.532C16.2231 24.8314 17.1042 23.8933 17.6568 23.3543Z" fill="#3B6EF9"/>
</svg>
