<svg width="24" height="24" viewBox="0 0 24 24" fill="none" xmlns="http://www.w3.org/2000/svg">
<path opacity="0.4" d="M5.33012 19.42C5.21551 19.4185 5.10272 19.3911 5.00012 19.34L2.78012 18.23C2.65724 18.1663 2.5541 18.0702 2.48185 17.9521C2.40959 17.834 2.37096 17.6985 2.37012 17.56V14.78C2.37143 14.5815 2.45087 14.3915 2.59124 14.2511C2.7316 14.1108 2.92161 14.0313 3.12012 14.03C3.31862 14.0313 3.50863 14.1108 3.649 14.2511C3.78937 14.3915 3.86881 14.5815 3.87012 14.78V17.09L5.68012 17.99C5.85737 18.0807 5.99214 18.2371 6.05567 18.4258C6.11919 18.6145 6.10643 18.8206 6.02012 19C5.95271 19.125 5.85328 19.2297 5.73202 19.3035C5.61076 19.3773 5.47205 19.4175 5.33012 19.42Z" fill="#15AB89"/>
<path d="M11.9998 22.75C11.9427 22.7488 11.8857 22.7421 11.8298 22.73C11.7668 22.7155 11.7061 22.6919 11.6498 22.66L9.43984 21.56C9.26259 21.4693 9.12781 21.3129 9.06429 21.1242C9.00076 20.9355 9.01352 20.7294 9.09984 20.55C9.19054 20.3727 9.34694 20.2379 9.53564 20.1744C9.72435 20.1109 9.93041 20.1237 10.1098 20.21L11.2498 20.78V19.22C11.2498 19.0211 11.3289 18.8303 11.4695 18.6896C11.6102 18.549 11.8009 18.47 11.9998 18.47C12.1987 18.47 12.3895 18.549 12.5302 18.6896C12.6708 18.8303 12.7498 19.0211 12.7498 19.22V20.78L13.8898 20.21C14.0693 20.1237 14.2753 20.1109 14.464 20.1744C14.6527 20.2379 14.8091 20.3727 14.8998 20.55C14.945 20.6384 14.972 20.7349 14.9793 20.834C14.9867 20.933 14.9741 21.0324 14.9424 21.1265C14.9108 21.2206 14.8606 21.3075 14.7949 21.3819C14.7292 21.4563 14.6493 21.5169 14.5598 21.56L12.3498 22.66C12.2916 22.6876 12.2314 22.711 12.1698 22.73C12.1139 22.7416 12.057 22.7483 11.9998 22.75Z" fill="#15AB89"/>
<path opacity="0.4" d="M18.6699 19.42C18.5007 19.4204 18.3364 19.3633 18.2038 19.2582C18.0712 19.1531 17.9781 19.0062 17.9398 18.8414C17.9015 18.6765 17.9202 18.5036 17.9929 18.3508C18.0656 18.198 18.1879 18.0744 18.3399 18L20.1499 17.1V14.79C20.1499 14.5911 20.2289 14.4004 20.3696 14.2597C20.5102 14.1191 20.701 14.04 20.8999 14.04C21.0988 14.04 21.2896 14.1191 21.4302 14.2597C21.5709 14.4004 21.6499 14.5911 21.6499 14.79V17.57C21.6491 17.7085 21.6104 17.844 21.5382 17.9621C21.4659 18.0802 21.3628 18.1763 21.2399 18.24L19.0179 19.35C18.906 19.3904 18.7887 19.414 18.6699 19.42Z" fill="#15AB89"/>
<path d="M11.9998 14.42C11.8013 14.4187 11.6113 14.3393 11.471 14.1989C11.3306 14.0585 11.2511 13.8685 11.2498 13.67V11.36L9.43984 10.46C9.26259 10.3693 9.12781 10.2129 9.06429 10.0242C9.00076 9.83551 9.01352 9.62945 9.09984 9.45002C9.19054 9.27277 9.34694 9.138 9.53564 9.07448C9.72435 9.01095 9.93041 9.02371 10.1098 9.11002L11.9998 10.05L13.8898 9.11002C14.0689 9.0213 14.2758 9.00727 14.4652 9.07102C14.6546 9.13477 14.8109 9.27109 14.8998 9.45002C14.945 9.53844 14.972 9.63499 14.9793 9.73401C14.9867 9.83302 14.9741 9.9325 14.9424 10.0266C14.9108 10.1207 14.8606 10.2075 14.7949 10.2819C14.7292 10.3564 14.6493 10.4169 14.5598 10.46L12.7498 11.36V13.67C12.7485 13.8685 12.6691 14.0585 12.5287 14.1989C12.3884 14.3393 12.1983 14.4187 11.9998 14.42Z" fill="#15AB89"/>
<path opacity="0.4" d="M3.10986 9.96997C2.91136 9.96866 2.72135 9.88922 2.58098 9.74885C2.44061 9.60848 2.36117 9.41848 2.35986 9.21997V6.44997C2.361 6.39279 2.36769 6.33585 2.37986 6.27997C2.3994 6.20278 2.4297 6.12872 2.46986 6.05997C2.4975 6.01254 2.53111 5.96885 2.56986 5.92997C2.61203 5.88791 2.65902 5.85099 2.70986 5.81997C2.72986 5.80997 2.75986 5.78997 2.77986 5.77997L4.98986 4.67997C5.1689 4.59124 5.37584 4.57722 5.56522 4.64097C5.7546 4.70472 5.91093 4.84103 5.99986 5.01997C6.04503 5.10839 6.07206 5.20494 6.07938 5.30395C6.08669 5.40297 6.07414 5.50245 6.04247 5.59654C6.01079 5.69064 5.96063 5.77745 5.89492 5.85188C5.82922 5.92632 5.7493 5.98686 5.65986 6.02997L4.77986 6.46997L5.65986 6.90997C5.75199 6.95183 5.83475 7.0118 5.90321 7.08631C5.97167 7.16083 6.02443 7.24836 6.05835 7.34369C6.09227 7.43903 6.10666 7.54021 6.10065 7.64122C6.09464 7.74223 6.06836 7.841 6.02338 7.93164C5.97839 8.02228 5.91562 8.10294 5.83881 8.16881C5.762 8.23468 5.67271 8.28442 5.57627 8.31505C5.47983 8.34569 5.37821 8.3566 5.27747 8.34714C5.17672 8.33768 5.07891 8.30803 4.98986 8.25997L3.84986 7.68997V9.24997C3.84963 9.34615 3.83018 9.44131 3.79265 9.52987C3.75513 9.61843 3.70029 9.6986 3.63136 9.76567C3.56242 9.83274 3.48078 9.88537 3.39123 9.92045C3.30167 9.95553 3.20601 9.97237 3.10986 9.96997Z" fill="#15AB89"/>
<path d="M14.2182 3.859C14.1036 3.85743 13.9908 3.83009 13.8882 3.779L12.0002 2.837L10.1102 3.777C10.0211 3.82506 9.92331 3.85471 9.82256 3.86417C9.72181 3.87363 9.6202 3.86272 9.52376 3.83208C9.42732 3.80145 9.33803 3.75171 9.26122 3.68584C9.1844 3.61997 9.12164 3.53931 9.07665 3.44867C9.03167 3.35803 9.00539 3.25926 8.99938 3.15825C8.99337 3.05724 9.00775 2.95606 9.04167 2.86072C9.07559 2.76539 9.12836 2.67786 9.19682 2.60334C9.26528 2.52883 9.34804 2.46886 9.44016 2.427L11.6602 1.319C11.7635 1.26478 11.8785 1.23645 11.9952 1.23645C12.1119 1.23645 12.2268 1.26478 12.3302 1.319L14.5502 2.429C14.7274 2.51971 14.8622 2.6761 14.9257 2.86481C14.9892 3.05351 14.9765 3.25957 14.8902 3.439C14.8302 3.56605 14.735 3.67318 14.6158 3.74764C14.4967 3.8221 14.3586 3.86076 14.2182 3.859Z" fill="#15AB89"/>
<path opacity="0.4" d="M20.8898 9.97401C20.6913 9.9727 20.5013 9.89326 20.3609 9.75289C20.2206 9.61252 20.1411 9.42252 20.1398 9.22401V7.66001L18.9998 8.23001C18.9108 8.27807 18.813 8.30772 18.7122 8.31718C18.6115 8.32664 18.5098 8.31573 18.4134 8.28509C18.317 8.25446 18.2277 8.20472 18.1509 8.13885C18.0741 8.07298 18.0113 7.99232 17.9663 7.90168C17.9213 7.81104 17.895 7.71227 17.889 7.61126C17.883 7.51025 17.8974 7.40907 17.9313 7.31373C17.9652 7.2184 18.018 7.13087 18.0865 7.05635C18.1549 6.98184 18.2377 6.92187 18.3298 6.88001L19.2098 6.44001L18.3298 6.00001C18.1526 5.90931 18.0178 5.75291 17.9543 5.56421C17.8907 5.3755 17.9035 5.16944 17.9898 4.99001C18.0799 4.8122 18.2363 4.67692 18.4252 4.61333C18.6142 4.54973 18.8205 4.5629 18.9998 4.65001L21.2098 5.75001C21.2351 5.75949 21.2588 5.77299 21.2798 5.79001C21.3397 5.8246 21.3937 5.86848 21.4398 5.92001L21.5298 6.04001C21.57 6.10876 21.6003 6.18282 21.6198 6.26001C21.6308 6.31608 21.6375 6.37292 21.6398 6.43001V9.20001C21.6425 9.30036 21.6251 9.40024 21.5886 9.49377C21.5522 9.58731 21.4974 9.67262 21.4276 9.74472C21.3577 9.81681 21.2742 9.87423 21.1818 9.9136C21.0895 9.95298 20.9902 9.97351 20.8898 9.97401Z" fill="#15AB89"/>
</svg>
