<svg width="138" height="37" viewBox="0 0 138 37" fill="none" xmlns="http://www.w3.org/2000/svg">
<path d="M21.7422 17.0282C21.7588 15.8017 22.0845 14.5991 22.6893 13.532C23.2941 12.4648 24.1584 11.5675 25.2022 10.9232C24.5357 9.97669 23.659 9.19733 22.641 8.64615C21.623 8.09498 20.4912 7.78695 19.3342 7.7462C16.8692 7.4862 14.4722 9.2272 13.2172 9.2272C11.9392 9.2272 9.99523 7.7802 7.91723 7.8142C6.56861 7.85793 5.25441 8.25077 4.10302 8.95433C2.95164 9.65788 2.00246 10.6481 1.34823 11.8282C-1.48977 16.7462 0.624227 23.9822 3.34823 27.9622C4.71623 29.9072 6.29923 32.0892 8.39123 32.0102C10.4262 31.9312 11.1912 30.7102 13.6482 30.7102C16.1052 30.7102 16.8022 32.0102 18.9282 31.9652C21.1212 31.9312 22.4902 30.0092 23.8122 28.0422C24.7918 26.6554 25.5436 25.1211 26.0392 23.4972C24.7682 22.9585 23.6832 22.0585 22.9188 20.9089C22.1544 19.7594 21.7443 18.4107 21.7392 17.0302" fill="white"/>
<path d="M17.7282 5.133C18.9212 3.70017 19.5094 1.85912 19.3682 0C17.5449 0.190687 15.8609 1.06287 14.6532 2.442C13.464 3.80357 12.8587 5.57856 12.9682 7.383C13.8802 7.39261 14.7824 7.1951 15.6069 6.80535C16.4315 6.41561 17.1568 5.84379 17.7282 5.133Z" fill="white"/>
<path d="M51.274 31.7249H48.425L46.865 26.8179H41.437L39.956 31.7249H37.186L42.557 15.0249H45.881L51.274 31.7249ZM46.401 24.7599L44.986 20.4069C44.839 19.9549 44.556 18.9149 44.149 17.2639H44.094C43.924 17.9759 43.664 19.0279 43.303 20.4069L41.912 24.7599H46.401Z" fill="white"/>
<path d="M65.078 25.5629C65.177 27.3362 64.5763 29.0776 63.405 30.4129C62.9357 30.926 62.3619 31.3327 61.7224 31.6057C61.0828 31.8788 60.3922 32.0118 59.697 31.9959C59.023 32.0512 58.3467 31.9215 57.741 31.6207C57.1353 31.3199 56.6232 30.8594 56.26 30.2889V36.6089H53.578V23.6409C53.578 22.3519 53.544 21.0409 53.478 19.6839H55.83L55.977 21.5949H56.022C56.4258 20.9737 56.9694 20.4556 57.6093 20.0821C58.2492 19.7085 58.9676 19.49 59.7071 19.4438C60.4466 19.3976 61.1866 19.5252 61.8679 19.8162C62.5493 20.1072 63.1531 20.5537 63.631 21.1199C64.6432 22.3726 65.1583 23.9543 65.078 25.5629ZM62.353 25.6529C62.3974 24.6293 62.1209 23.6175 61.562 22.7589C61.3034 22.3827 60.9549 22.077 60.5482 21.8697C60.1415 21.6624 59.6894 21.56 59.233 21.5719C58.5752 21.5755 57.939 21.8074 57.433 22.2279C56.8967 22.6641 56.5259 23.2707 56.382 23.9469C56.3102 24.2127 56.2686 24.4857 56.258 24.7609V26.7739C56.2369 27.5868 56.5225 28.3779 57.058 28.9899C57.3189 29.2847 57.6417 29.5183 58.0033 29.6739C58.365 29.8295 58.7566 29.9032 59.15 29.8899C59.608 29.9062 60.0628 29.8082 60.4734 29.6048C60.884 29.4015 61.2375 29.099 61.502 28.7249C62.1065 27.818 62.405 26.7415 62.354 25.6529H62.353Z" fill="white"/>
<path d="M78.9169 25.5629C79.0158 27.3362 78.4151 29.0776 77.2439 30.4129C76.7745 30.926 76.2008 31.3327 75.5612 31.6057C74.9217 31.8788 74.2311 32.0118 73.5359 31.9959C72.8619 32.0512 72.1855 31.9215 71.5798 31.6207C70.9741 31.3199 70.4621 30.8594 70.0989 30.2889V36.6089H67.4169V23.6409C67.4169 22.3519 67.3829 21.0409 67.3169 19.6839H69.6689L69.8159 21.5949H69.8609C70.2647 20.9737 70.8083 20.4556 71.4482 20.0821C72.0881 19.7085 72.8064 19.49 73.5459 19.4438C74.2854 19.3976 75.0255 19.5252 75.7068 19.8162C76.3882 20.1072 76.992 20.5537 77.4699 21.1199C78.4821 22.3726 78.9972 23.9543 78.9169 25.5629ZM76.1919 25.6529C76.2363 24.6293 75.9597 23.6175 75.4009 22.7589C75.1423 22.3827 74.7938 22.077 74.3871 21.8697C73.9804 21.6624 73.5283 21.56 73.0719 21.5719C72.4141 21.5756 71.7779 21.8075 71.2719 22.2279C70.7393 22.6673 70.3692 23.2725 70.2209 23.9469C70.1491 24.2127 70.1075 24.4857 70.0969 24.7609V26.7739C70.0757 27.5868 70.3614 28.3779 70.8969 28.9899C71.1578 29.2847 71.4806 29.5183 71.8422 29.6739C72.2039 29.8295 72.5954 29.9032 72.9889 29.8899C73.447 29.9075 73.9023 29.8101 74.3131 29.6066C74.7239 29.4031 75.0773 29.1 75.3409 28.7249C75.9504 27.8203 76.2494 26.7422 76.1929 25.6529H76.1919Z" fill="white"/>
<path d="M94.407 27.044C94.4281 27.6955 94.3065 28.3438 94.0507 28.9434C93.7948 29.543 93.411 30.0794 92.926 30.515C91.6473 31.5536 90.0253 32.0743 88.381 31.974C86.8718 32.0446 85.3737 31.6839 84.062 30.934L84.684 28.707C85.8551 29.3973 87.1917 29.7567 88.551 29.747C89.3898 29.7991 90.2207 29.5596 90.903 29.069C91.1777 28.8538 91.3976 28.5768 91.545 28.2605C91.6923 27.9443 91.7629 27.5977 91.751 27.249C91.7565 26.9327 91.6983 26.6185 91.5797 26.3253C91.4612 26.032 91.2848 25.7656 91.061 25.542C90.3894 24.958 89.6043 24.5191 88.755 24.253C85.804 23.153 84.346 21.562 84.346 19.47C84.3323 18.8278 84.4646 18.1909 84.7329 17.6073C85.0012 17.0237 85.3986 16.5086 85.895 16.101C87.0594 15.1825 88.5167 14.7161 89.998 14.788C91.3062 14.7405 92.6062 15.0119 93.786 15.579L93.108 17.75C92.119 17.2287 91.0149 16.9643 89.897 16.981C89.0995 16.9379 88.3131 17.1828 87.681 17.671C87.4684 17.8615 87.299 18.0952 87.184 18.3565C87.0689 18.6177 87.011 18.9005 87.014 19.186C87.0083 19.4982 87.0748 19.8075 87.2082 20.0899C87.3415 20.3723 87.5383 20.6201 87.783 20.814C88.5192 21.371 89.3399 21.8062 90.214 22.103C91.4137 22.525 92.4979 23.2219 93.38 24.138C94.0763 24.9427 94.4438 25.9804 94.409 27.044" fill="white"/>
<path d="M103.272 21.6958H100.321V27.5408C100.321 29.0218 100.841 29.7678 101.881 29.7678C102.28 29.7744 102.679 29.7327 103.068 29.6438L103.147 31.6788C102.475 31.8944 101.772 31.9938 101.067 31.9728C100.609 31.9978 100.15 31.924 99.7231 31.7563C99.2959 31.5885 98.9097 31.3309 98.5908 31.0008C97.9045 30.0656 97.5867 28.9105 97.6979 27.7558V21.6868H95.9448V19.6868H97.6968V17.4868L100.32 16.6958V19.6958H103.271V21.7088" fill="white"/>
<path d="M116.545 25.608C116.61 27.2718 116.044 28.8987 114.962 30.164C114.405 30.7718 113.721 31.2506 112.96 31.567C112.198 31.8834 111.377 32.0298 110.553 31.996C109.763 32.0297 108.975 31.8904 108.245 31.5878C107.514 31.2852 106.859 30.8265 106.324 30.244C105.254 29.0215 104.691 27.4358 104.752 25.812C104.686 24.1351 105.265 22.4967 106.369 21.233C106.926 20.6364 107.605 20.1677 108.361 19.8592C109.116 19.5507 109.93 19.4097 110.745 19.446C111.541 19.4139 112.334 19.5551 113.07 19.8596C113.806 20.1642 114.467 20.6249 115.007 21.21C116.064 22.4248 116.615 23.9991 116.545 25.608ZM113.775 25.665C113.803 24.6715 113.557 23.6895 113.063 22.827C112.823 22.3921 112.471 22.0295 112.044 21.777C111.616 21.5245 111.129 21.3913 110.632 21.3913C110.136 21.3913 109.648 21.5245 109.22 21.777C108.793 22.0295 108.441 22.3921 108.201 22.827C107.733 23.7099 107.489 24.6939 107.489 25.693C107.489 26.6922 107.733 27.6761 108.201 28.559C108.438 28.9953 108.789 29.3593 109.216 29.6121C109.643 29.865 110.131 29.9972 110.628 29.9949C111.124 29.9925 111.611 29.8556 112.035 29.5987C112.46 29.3418 112.807 28.9746 113.04 28.536C113.544 27.6644 113.799 26.6707 113.775 25.664V25.665Z" fill="white"/>
<path d="M125.251 22.0351C124.971 21.9882 124.687 21.9654 124.403 21.9671C123.979 21.9466 123.557 22.0333 123.176 22.2191C122.794 22.4049 122.466 22.6838 122.221 23.0301C121.756 23.7324 121.523 24.5625 121.554 25.4041V31.7241H118.874V23.4711C118.874 22.0801 118.851 20.8141 118.795 19.6831H121.124L121.224 21.9891H121.303C121.553 21.2365 122.017 20.5726 122.637 20.0781C123.196 19.6621 123.873 19.4364 124.57 19.4341C124.793 19.4359 125.016 19.4509 125.237 19.4791L125.248 22.0341" fill="white"/>
<path d="M137.213 25.1331C137.22 25.5387 137.186 25.9441 137.113 26.3431H129.086C129.068 26.855 129.164 27.3645 129.365 27.8354C129.566 28.3063 129.869 28.7272 130.251 29.0681C130.999 29.648 131.928 29.9445 132.874 29.9051C133.981 29.9178 135.081 29.7263 136.119 29.3401L136.537 31.1941C135.257 31.7178 133.883 31.9718 132.501 31.9401C131.693 31.9842 130.885 31.8602 130.128 31.576C129.371 31.2918 128.68 30.8536 128.101 30.2891C127.556 29.6944 127.134 28.9973 126.861 28.2384C126.587 27.4795 126.467 26.6738 126.507 25.8681C126.45 24.2275 126.979 22.6201 127.999 21.3341C128.499 20.7043 129.141 20.2011 129.872 19.8652C130.603 19.5294 131.402 19.3704 132.206 19.4011C132.973 19.358 133.738 19.5132 134.427 19.8518C135.116 20.1904 135.707 20.7009 136.141 21.3341C136.882 22.4598 137.257 23.787 137.215 25.1341L137.213 25.1331ZM134.658 24.4431C134.696 23.7204 134.514 23.0032 134.138 22.3851C133.918 22.0234 133.605 21.7281 133.23 21.531C132.856 21.3339 132.435 21.2424 132.012 21.2661C131.596 21.259 131.184 21.3542 130.814 21.5434C130.443 21.7326 130.125 22.01 129.886 22.3511C129.432 22.9562 129.158 23.6772 129.095 24.4311L134.658 24.4431Z" fill="white"/>
<path d="M45.1122 9.05614H43.7122L42.9412 6.64814H40.2732L39.5382 9.05614H38.1812L40.8152 0.848145H42.4432L45.1122 9.05614ZM42.7042 5.63114L42.0142 3.48314C41.9462 3.26814 41.8142 2.74814 41.5962 1.93414H41.5732C41.4832 2.28414 41.3732 2.79314 41.1732 3.48314L40.4992 5.63114H42.7042Z" fill="white"/>
<path d="M51.7153 3.13184L49.4763 9.05684H48.1993L46.0283 3.13184H47.4413L48.4473 6.26384C48.6173 6.78384 48.7643 7.28183 48.8773 7.75583H48.9113C49.0113 7.32583 49.1603 6.82884 49.3413 6.26384L50.3363 3.13184H51.7153Z" fill="white"/>
<path d="M56.4862 9.0561L56.3862 8.3781H56.3522C56.1526 8.64511 55.8904 8.85898 55.5887 9.00092C55.2871 9.14286 54.9552 9.20851 54.6222 9.1921C54.387 9.20475 54.1518 9.16889 53.9311 9.08676C53.7105 9.00464 53.509 8.878 53.3394 8.71471C53.1697 8.55142 53.0354 8.35499 52.9449 8.1376C52.8544 7.92022 52.8096 7.68655 52.8132 7.4511C52.8132 5.9921 54.0792 5.2351 56.2732 5.2351V5.1221C56.2732 4.3421 55.8552 3.9571 55.0412 3.9571C54.4925 3.94689 53.9532 4.10043 53.4922 4.3981L53.2212 3.5391C53.8383 3.18186 54.5435 3.00547 55.2562 3.0301C56.8052 3.0301 57.5852 3.8441 57.5852 5.4831V7.6651C57.5727 8.13785 57.6029 8.61075 57.6752 9.0781L56.4882 9.0551L56.4862 9.0561ZM56.3052 6.1051C54.8462 6.1051 54.1122 6.4551 54.1122 7.3051C54.0987 7.4278 54.1124 7.55197 54.1525 7.66873C54.1926 7.78549 54.2579 7.89195 54.3439 7.98052C54.4299 8.06909 54.5344 8.13756 54.6499 8.18105C54.7654 8.22454 54.8891 8.24198 55.0122 8.2321C55.343 8.24049 55.6638 8.1182 55.9051 7.89171C56.1464 7.66522 56.2887 7.35279 56.3012 7.0221L56.3052 6.1051Z" fill="white"/>
<path d="M60.5109 2.16016C60.3025 2.15751 60.1036 2.07216 59.9581 1.92288C59.8125 1.7736 59.7323 1.57262 59.7349 1.36416C59.7376 1.1557 59.8229 0.956835 59.9722 0.811307C60.1215 0.665778 60.3225 0.585511 60.5309 0.588164C60.6355 0.583497 60.74 0.600326 60.8378 0.637611C60.9357 0.674897 61.0248 0.731848 61.0998 0.804946C61.1748 0.878044 61.234 0.965737 61.2737 1.06261C61.3135 1.15948 61.3329 1.26347 61.3309 1.36816C61.3344 1.47551 61.3153 1.58238 61.2749 1.68191C61.2346 1.78143 61.1738 1.8714 61.0966 1.94601C61.0193 2.02062 60.9273 2.07823 60.8264 2.11511C60.7256 2.15199 60.6181 2.16734 60.5109 2.16016ZM59.8779 3.13216H61.1899V9.04516H59.8779V3.13216Z" fill="white"/>
<path d="M63.5303 0.417969H64.8423V9.04497H63.5303V0.417969Z" fill="white"/>
<path d="M70.4271 9.05599L70.3271 8.37799H70.2931C70.0935 8.645 69.8313 8.85887 69.5297 9.00081C69.228 9.14275 68.8961 9.2084 68.5631 9.19199C68.328 9.20463 68.0928 9.16878 67.8721 9.08665C67.6514 9.00452 67.4499 8.87788 67.2803 8.7146C67.1106 8.55131 66.9764 8.35487 66.8858 8.13749C66.7953 7.92011 66.7505 7.68643 66.7541 7.45099C66.7541 5.99199 68.0201 5.23499 70.2141 5.23499V5.11799C70.2141 4.33799 69.7961 3.95299 68.9821 3.95299C68.4334 3.94278 67.8941 4.09631 67.4331 4.39399L67.1621 3.52299C67.7793 3.16575 68.4845 2.98936 69.1971 3.01399C70.7461 3.01399 71.5261 3.82799 71.5261 5.46699V7.64899C71.5167 8.12131 71.5431 8.59366 71.6051 9.06199H70.4291L70.4271 9.05599ZM70.2461 6.10499C68.7871 6.10499 68.0531 6.45499 68.0531 7.30499C68.0396 7.42769 68.0534 7.55185 68.0934 7.66861C68.1335 7.78537 68.1989 7.89184 68.2848 7.98041C68.3708 8.06897 68.4753 8.13745 68.5908 8.18094C68.7064 8.22443 68.8301 8.24186 68.9531 8.23199C69.2839 8.24038 69.6047 8.11808 69.846 7.89159C70.0873 7.66511 70.2296 7.35267 70.2421 7.02199L70.2461 6.10499Z" fill="white"/>
<path d="M76.86 9.19197C76.4816 9.21001 76.1057 9.12096 75.7757 8.93505C75.4456 8.74915 75.1747 8.47392 74.994 8.14097H74.973L74.894 9.05697H73.7729C73.8069 8.58197 73.818 8.05097 73.818 7.46297V0.417969H75.141V4.00197H75.1639C75.357 3.67954 75.6357 3.41691 75.9689 3.24322C76.3022 3.06952 76.6771 2.99156 77.0519 3.01797C78.4769 3.01797 79.472 4.23897 79.472 6.01797C79.473 7.84597 78.363 9.19197 76.86 9.19197ZM76.589 4.04797C76.3908 4.05595 76.1961 4.10289 76.0161 4.18612C75.8361 4.26934 75.6742 4.38722 75.5397 4.53301C75.4053 4.67881 75.3008 4.84966 75.2324 5.03582C75.164 5.22198 75.1329 5.4198 75.141 5.61797V6.65797C75.1363 6.84903 75.1696 7.03912 75.2389 7.21724C75.3081 7.39536 75.412 7.55798 75.5445 7.6957C75.677 7.83342 75.8355 7.94351 76.0109 8.01959C76.1862 8.09567 76.3748 8.13625 76.5659 8.13897C77.5499 8.13897 78.1379 7.33897 78.1379 6.05897C78.1369 4.86097 77.527 4.04697 76.588 4.04697L76.589 4.04797Z" fill="white"/>
<path d="M81.416 0.417969H82.728V9.04497H81.416V0.417969Z" fill="white"/>
<path d="M89.8851 6.41109H85.9391C85.9305 6.65335 85.9738 6.89465 86.0661 7.11879C86.1585 7.34293 86.2976 7.54474 86.4744 7.71067C86.6511 7.87659 86.8613 8.00281 87.0908 8.08084C87.3203 8.15887 87.5638 8.18692 87.8051 8.16309C88.3493 8.16706 88.8895 8.07114 89.3991 7.88009L89.5991 8.79609C88.9724 9.0552 88.2979 9.17858 87.6201 9.15809C87.2216 9.18939 86.8212 9.13336 86.4466 8.99393C86.0721 8.85449 85.7325 8.63501 85.4515 8.35079C85.1705 8.06657 84.9549 7.72447 84.8198 7.34835C84.6847 6.97222 84.6332 6.57114 84.6691 6.17309C84.6296 5.77766 84.6721 5.37835 84.7939 5.00007C84.9157 4.6218 85.1142 4.2727 85.3769 3.97457C85.6397 3.67644 85.9611 3.43568 86.321 3.26732C86.681 3.09897 87.0718 3.00664 87.4691 2.99609C88.9691 2.99609 89.9341 4.11509 89.9341 5.81109C89.9416 6.01273 89.9224 6.21448 89.8771 6.41109H89.8851ZM88.6851 5.47309C88.6851 4.55709 88.2211 3.91309 87.3851 3.91309C86.9932 3.94434 86.6275 4.12239 86.3613 4.41163C86.095 4.70087 85.9478 5.07997 85.9491 5.47309H88.6851Z" fill="white"/>
<path d="M97.8561 9.19074C97.4638 9.1969 97.0745 9.12093 96.7132 8.9677C96.3519 8.81448 96.0267 8.58738 95.7584 8.301C95.4901 8.01462 95.2847 7.67529 95.1553 7.30481C95.0259 6.93433 94.9754 6.54088 95.0071 6.14974C94.9716 5.74488 95.0221 5.33707 95.1553 4.95311C95.2886 4.56915 95.5015 4.21772 95.7803 3.92192C96.059 3.62611 96.3971 3.39262 96.7725 3.23679C97.1478 3.08096 97.5519 3.00631 97.9582 3.01774C98.3505 3.00845 98.7403 3.08192 99.1023 3.23337C99.4643 3.38482 99.7903 3.61085 100.059 3.89672C100.328 4.18259 100.533 4.5219 100.662 4.89252C100.791 5.26314 100.841 5.65677 100.807 6.04774C100.841 6.45283 100.79 6.86058 100.656 7.24453C100.523 7.62847 100.31 7.98004 100.032 8.27641C99.7533 8.57277 99.4159 8.80733 99.0411 8.96485C98.6663 9.12237 98.2626 9.19933 97.8561 9.19074ZM97.9132 3.97874C96.9632 3.97874 96.3532 4.87174 96.3532 6.10474C96.3532 7.33774 96.9752 8.20474 97.9022 8.20474C98.8292 8.20474 99.4511 7.25474 99.4511 6.06774C99.4511 4.88074 98.8402 3.97574 97.9132 3.97574V3.97874Z" fill="white"/>
<path d="M107.873 9.05597H106.561V5.65597C106.561 4.60497 106.154 4.08397 105.361 4.08397C105.179 4.09002 105 4.13259 104.835 4.20916C104.67 4.28573 104.521 4.39473 104.399 4.5297C104.277 4.66467 104.183 4.82284 104.123 4.99485C104.062 5.16685 104.038 5.34916 104.049 5.53097V9.04697H102.737V4.82697C102.737 4.30697 102.726 3.74197 102.692 3.12697H103.845L103.902 4.04297H103.936C104.129 3.71894 104.404 3.45192 104.734 3.26919C105.064 3.08646 105.436 2.99459 105.813 3.00297C107.057 3.00297 107.871 3.95297 107.871 5.50297V9.05297" fill="white"/>
<path d="M116.477 4.12711H115.03V6.99911C115.03 7.73411 115.29 8.09911 115.799 8.09911C115.997 8.10033 116.194 8.08123 116.387 8.04211L116.421 9.03711C116.093 9.14744 115.749 9.19725 115.403 9.18411C114.363 9.18411 113.752 8.60711 113.752 7.11511V4.12711H112.893V3.14311H113.752V2.06211L115.041 1.66211V3.13211H116.493V4.12711" fill="white"/>
<path d="M123.442 9.05597H122.13V5.67497C122.13 4.61197 121.723 4.08097 120.93 4.08097C120.749 4.07706 120.569 4.11131 120.403 4.18148C120.236 4.25166 120.085 4.35618 119.962 4.48825C119.838 4.62032 119.743 4.77697 119.684 4.94801C119.625 5.11905 119.602 5.30065 119.618 5.48097V9.04497H118.309V0.417969H119.621V3.96797H119.644C119.827 3.66399 120.088 3.41457 120.401 3.24558C120.713 3.0766 121.064 2.99421 121.419 3.00697C122.674 3.00697 123.443 3.97897 123.443 5.52797V9.05597" fill="white"/>
<path d="M130.158 6.41109H126.212C126.203 6.65335 126.247 6.89465 126.339 7.11879C126.431 7.34293 126.571 7.54474 126.747 7.71067C126.924 7.87659 127.134 8.00281 127.364 8.08084C127.593 8.15887 127.837 8.18692 128.078 8.16309C128.622 8.16709 129.162 8.07116 129.672 7.88009L129.872 8.79609C129.245 9.0552 128.571 9.17858 127.893 9.15809C127.495 9.18939 127.094 9.13336 126.72 8.99393C126.345 8.85449 126.005 8.63501 125.724 8.35079C125.443 8.06657 125.228 7.72447 125.093 7.34835C124.958 6.97222 124.906 6.57114 124.942 6.17309C124.903 5.77766 124.945 5.37835 125.067 5.00007C125.189 4.6218 125.387 4.2727 125.65 3.97457C125.913 3.67644 126.234 3.43568 126.594 3.26732C126.954 3.09897 127.345 3.00664 127.742 2.99609C129.242 2.99609 130.207 4.11509 130.207 5.81109C130.215 6.01273 130.195 6.21448 130.15 6.41109H130.158ZM128.958 5.47309C128.958 4.55709 128.494 3.91309 127.658 3.91309C127.265 3.94227 126.899 4.1197 126.632 4.4094C126.365 4.69909 126.219 5.07936 126.222 5.47309H128.958Z" fill="white"/>
</svg>
