<svg width="291" height="290" viewBox="0 0 291 290" fill="none" xmlns="http://www.w3.org/2000/svg">
<rect x="1.14844" y="0.5" width="289" height="289" rx="4.5" fill="#010E17" stroke="#15AB89"/>
<g opacity="0.5">
<path d="M67.4444 275.89H85.888L15.0778 205.36V285.158L1.24512 267.571V189.108H17.7126L119.152 289.216H67.4444V275.89Z" fill="url(#paint0_linear_263_2)"/>
<path d="M155.381 189.108V289.216H138.584L36.8145 189.108H88.8516V202.759H70.0789L141.548 272.965V189.108H155.381Z" fill="url(#paint1_linear_263_2)"/>
</g>
<path opacity="0.4" d="M232.333 80.6668H261.667C266.529 80.6668 271.192 78.7353 274.63 75.2971C278.068 71.859 280 67.1958 280 62.3335V25.6668C280 20.8045 278.068 16.1414 274.63 12.7032C271.192 9.26504 266.529 7.3335 261.667 7.3335L232.333 7.3335C227.471 7.3335 222.808 9.26504 219.37 12.7032C215.932 16.1414 214 20.8045 214 25.6668V62.3335C214 67.1958 215.932 71.859 219.37 75.2971C222.808 78.7353 227.471 80.6668 232.333 80.6668Z" fill="url(#paint2_linear_263_2)" fill-opacity="0.3"/>
<path d="M258.001 20.9365H236.001C234.174 20.9404 232.423 21.6679 231.131 22.9598C229.839 24.2517 229.111 26.0028 229.107 27.8299V31.4965C229.111 33.3236 229.839 35.0747 231.131 36.3666C232.423 37.6585 234.174 38.386 236.001 38.3899H258.001C259.828 38.386 261.579 37.6585 262.871 36.3666C264.163 35.0747 264.89 33.3236 264.894 31.4965V27.8299C264.895 26.9243 264.717 26.0275 264.371 25.1908C264.025 24.354 263.518 23.5937 262.877 22.9534C262.237 22.3131 261.477 21.8054 260.64 21.4593C259.803 21.1132 258.906 20.9356 258.001 20.9365Z" fill="url(#paint3_linear_263_2)" fill-opacity="0.3"/>
<path d="M232.921 54.7027C232.43 54.7012 231.943 54.6014 231.491 54.4094C231.054 54.2316 230.655 53.9701 230.318 53.6394C229.971 53.2998 229.696 52.8948 229.507 52.4479C229.318 52.0011 229.22 51.5212 229.218 51.036C229.224 50.5581 229.324 50.086 229.511 49.6464C229.688 49.1887 229.963 48.7756 230.318 48.4364C230.745 48.0136 231.269 47.7023 231.844 47.5296C232.42 47.357 233.029 47.3284 233.618 47.4464C233.859 47.4861 234.094 47.5602 234.314 47.6664C234.54 47.7393 234.751 47.851 234.938 47.9964C235.143 48.113 235.329 48.2615 235.488 48.4364C235.83 48.7854 236.104 49.1959 236.294 49.6464C236.471 50.0882 236.558 50.5604 236.551 51.036C236.556 51.5158 236.466 51.9918 236.285 52.4364C236.105 52.8811 235.839 53.2856 235.501 53.6266C235.163 53.9675 234.762 54.2382 234.319 54.4229C233.876 54.6076 233.401 54.7027 232.921 54.7027Z" fill="url(#paint4_linear_263_2)" fill-opacity="0.3"/>
<path d="M247.551 54.7073C247.075 54.7095 246.603 54.6172 246.162 54.436C245.722 54.2547 245.322 53.9881 244.985 53.6513C244.637 53.3109 244.361 52.9047 244.172 52.4565C243.984 52.0083 243.886 51.527 243.885 51.0407C243.896 50.0622 244.291 49.1272 244.985 48.4373C245.687 47.7832 246.61 47.4194 247.57 47.4194C248.529 47.4194 249.453 47.7832 250.155 48.4373C250.497 48.7863 250.771 49.1968 250.961 49.6473C251.138 50.0903 251.225 50.5638 251.218 51.0407C251.223 51.5235 251.132 52.0025 250.949 52.4496C250.766 52.8967 250.497 53.3028 250.155 53.6443C249.814 53.9858 249.407 54.2557 248.96 54.4382C248.513 54.6207 248.034 54.7122 247.551 54.7073Z" fill="url(#paint5_linear_263_2)" fill-opacity="0.3"/>
<path d="M262.217 54.7073C261.741 54.7095 261.269 54.6172 260.829 54.436C260.388 54.2547 259.988 53.9881 259.651 53.6513C259.303 53.3109 259.027 52.9047 258.838 52.4565C258.65 52.0083 258.552 51.527 258.551 51.0407C258.562 50.0622 258.957 49.1272 259.651 48.4373C260.353 47.7832 261.276 47.4194 262.236 47.4194C263.195 47.4194 264.119 47.7832 264.821 48.4373C265.515 49.1272 265.91 50.0622 265.921 51.0407C265.915 51.5198 265.815 51.9932 265.627 52.434C265.442 52.8871 265.168 53.2986 264.821 53.644C264.479 53.9855 264.073 54.2554 263.626 54.438C263.179 54.6206 262.7 54.7121 262.217 54.7073Z" fill="url(#paint6_linear_263_2)" fill-opacity="0.3"/>
<path d="M232.921 69.3909C232.436 69.3909 231.955 69.2936 231.508 69.1046C231.061 68.9157 230.656 68.639 230.318 68.2909C229.627 67.6139 229.232 66.6913 229.218 65.7242C229.224 64.7393 229.619 63.7969 230.318 63.1025C230.655 62.7718 231.054 62.5103 231.491 62.3325C232.397 61.966 233.409 61.966 234.314 62.3325C234.54 62.4055 234.751 62.5171 234.938 62.6625C235.143 62.7792 235.329 62.9277 235.488 63.1025C236.182 63.7924 236.577 64.7274 236.588 65.7059C236.586 66.191 236.487 66.6709 236.299 67.1178C236.11 67.5646 235.834 67.9696 235.488 68.3092C235.153 68.6506 234.754 68.922 234.313 69.1077C233.872 69.2934 233.399 69.3896 232.921 69.3909Z" fill="url(#paint7_linear_263_2)" fill-opacity="0.3"/>
<path d="M247.551 69.3733C247.074 69.3726 246.601 69.2769 246.16 69.0918C245.719 68.9068 245.32 68.636 244.985 68.2953C244.64 67.9575 244.365 67.5549 244.177 67.1107C243.988 66.6664 243.889 66.1893 243.885 65.7067C243.891 65.4607 243.916 65.2156 243.958 64.9733L244.178 64.3133L244.508 63.6533C244.656 63.4611 244.816 63.2774 244.985 63.1033C245.322 62.7726 245.721 62.5111 246.158 62.3333C246.827 62.0606 247.561 61.9883 248.271 62.125C248.98 62.2617 249.635 62.6016 250.155 63.1033C250.839 63.7969 251.221 64.7326 251.218 65.7067C251.23 66.4292 251.023 67.1385 250.624 67.7408C250.224 68.3431 249.652 68.81 248.981 69.08C248.529 69.2721 248.043 69.3718 247.551 69.3733Z" fill="url(#paint8_linear_263_2)" fill-opacity="0.3"/>
<path d="M262.217 69.3733C261.738 69.3675 261.265 69.2678 260.824 69.0799C260.154 68.81 259.581 68.343 259.182 67.7407C258.782 67.1384 258.575 66.4292 258.587 65.7066C258.585 64.7325 258.967 63.7968 259.651 63.1033C260.17 62.6003 260.825 62.2596 261.534 62.1228C262.244 61.986 262.979 62.0592 263.647 62.3333C264.085 62.511 264.484 62.7726 264.821 63.1033C265.505 63.7968 265.887 64.7325 265.884 65.7066C265.889 66.1895 265.798 66.6685 265.615 67.1156C265.432 67.5626 265.163 67.9688 264.821 68.3103C264.48 68.6517 264.073 68.9216 263.626 69.1041C263.179 69.2867 262.7 69.3782 262.217 69.3733Z" fill="url(#paint9_linear_263_2)" fill-opacity="0.3"/>
<defs>
<linearGradient id="paint0_linear_263_2" x1="60.1988" y1="189.108" x2="60.1988" y2="289.216" gradientUnits="userSpaceOnUse">
<stop stop-color="#15AB89" stop-opacity="0.29"/>
<stop offset="1" stop-color="#010E17" stop-opacity="0"/>
</linearGradient>
<linearGradient id="paint1_linear_263_2" x1="96.0975" y1="189.108" x2="96.0975" y2="289.216" gradientUnits="userSpaceOnUse">
<stop stop-color="#15AB89" stop-opacity="0.29"/>
<stop offset="1" stop-color="#010E17" stop-opacity="0"/>
</linearGradient>
<linearGradient id="paint2_linear_263_2" x1="247" y1="7.3335" x2="247" y2="80.6668" gradientUnits="userSpaceOnUse">
<stop stop-color="#15AB89"/>
<stop offset="1" stop-color="#292D32" stop-opacity="0"/>
</linearGradient>
<linearGradient id="paint3_linear_263_2" x1="247.001" y1="20.9365" x2="247.001" y2="38.3899" gradientUnits="userSpaceOnUse">
<stop stop-color="#15AB89"/>
<stop offset="1" stop-color="#292D32" stop-opacity="0"/>
</linearGradient>
<linearGradient id="paint4_linear_263_2" x1="232.885" y1="47.375" x2="232.885" y2="54.7027" gradientUnits="userSpaceOnUse">
<stop stop-color="#15AB89"/>
<stop offset="1" stop-color="#292D32" stop-opacity="0"/>
</linearGradient>
<linearGradient id="paint5_linear_263_2" x1="247.552" y1="47.4194" x2="247.552" y2="54.7075" gradientUnits="userSpaceOnUse">
<stop stop-color="#15AB89"/>
<stop offset="1" stop-color="#292D32" stop-opacity="0"/>
</linearGradient>
<linearGradient id="paint6_linear_263_2" x1="262.236" y1="47.4194" x2="262.236" y2="54.7075" gradientUnits="userSpaceOnUse">
<stop stop-color="#15AB89"/>
<stop offset="1" stop-color="#292D32" stop-opacity="0"/>
</linearGradient>
<linearGradient id="paint7_linear_263_2" x1="232.903" y1="62.0576" x2="232.903" y2="69.3909" gradientUnits="userSpaceOnUse">
<stop stop-color="#15AB89"/>
<stop offset="1" stop-color="#292D32" stop-opacity="0"/>
</linearGradient>
<linearGradient id="paint8_linear_263_2" x1="247.552" y1="62.0576" x2="247.552" y2="69.3733" gradientUnits="userSpaceOnUse">
<stop stop-color="#15AB89"/>
<stop offset="1" stop-color="#292D32" stop-opacity="0"/>
</linearGradient>
<linearGradient id="paint9_linear_263_2" x1="262.236" y1="62.0557" x2="262.236" y2="69.3735" gradientUnits="userSpaceOnUse">
<stop stop-color="#15AB89"/>
<stop offset="1" stop-color="#292D32" stop-opacity="0"/>
</linearGradient>
</defs>
</svg>
