<svg width="194" height="194" viewBox="0 0 194 194" fill="none" xmlns="http://www.w3.org/2000/svg">
<path d="M165.709 42.4378H151.563V28.292C151.563 26.6841 150.924 25.1421 149.787 24.0052C148.65 22.8682 147.108 22.2295 145.5 22.2295C143.892 22.2295 142.35 22.8682 141.213 24.0052C140.077 25.1421 139.438 26.6841 139.438 28.292V42.4378H125.292C123.684 42.4378 122.142 43.0765 121.005 44.2135C119.868 45.3504 119.229 46.8924 119.229 48.5003C119.229 50.1082 119.868 51.6502 121.005 52.7872C122.142 53.9241 123.684 54.5628 125.292 54.5628H139.438V68.7087C139.438 70.3165 140.077 71.8585 141.213 72.9955C142.35 74.1324 143.892 74.7711 145.5 74.7711C147.108 74.7711 148.65 74.1324 149.787 72.9955C150.924 71.8585 151.563 70.3165 151.563 68.7087V54.5628H165.709C167.317 54.5628 168.859 53.9241 169.996 52.7872C171.132 51.6502 171.771 50.1082 171.771 48.5003C171.771 46.8924 171.132 45.3504 169.996 44.2135C168.859 43.0765 167.317 42.4378 165.709 42.4378Z" fill="#15AB89"/>
<path opacity="0.4" d="M95.3027 114.865L68.8702 141.297C65.9602 138.71 63.1311 136.043 60.3827 133.295C52.2086 125.066 44.6695 116.23 37.8302 106.862C31.5487 98.2865 26.2352 89.0422 21.9869 79.2979C18.2976 70.9654 16.3185 61.977 16.1669 52.8654C16.1321 47.5271 17.1199 42.2315 19.0769 37.2646C21.1329 32.1295 24.3086 27.5177 28.3727 23.7654C30.5243 21.4384 33.121 19.5669 36.0091 18.2617C38.8971 16.9565 42.0177 16.2443 45.1861 16.1671C47.4497 16.1581 49.6868 16.6553 51.7336 17.6221C53.9169 18.6104 55.7894 20.1754 57.1494 22.1488L75.9027 48.5813C77.1997 50.3334 78.285 52.2327 79.1361 54.2396C79.8381 55.7914 80.2228 57.4678 80.2677 59.1704C80.2448 61.2039 79.6571 63.1909 78.5702 64.9096C77.3236 67.0157 75.8013 68.9458 74.0436 70.6488L67.9002 77.0346C67.4723 77.4545 67.1364 77.9587 66.9137 78.5153C66.6911 79.072 66.5866 79.6688 66.6069 80.2679C66.6079 80.8955 66.6894 81.5203 66.8494 82.1271C67.0919 82.7738 67.3344 83.2588 67.4961 83.7438C69.6667 87.4242 72.184 90.8888 75.0136 94.0904C78.6511 98.2938 82.5311 102.578 86.7344 106.862C89.6444 109.691 92.4736 112.44 95.3027 114.865Z" fill="#15AB89"/>
<path d="M177.591 148.168C177.582 150.51 177.172 152.834 176.379 155.039C176.144 155.699 175.874 156.347 175.571 156.979C174.159 159.985 172.306 162.764 170.074 165.224C166.434 169.365 161.901 172.626 156.817 174.762C156.736 174.762 156.656 174.843 156.575 174.843C151.646 176.841 146.373 177.857 141.055 177.834C131.963 177.665 122.999 175.658 114.703 171.933C104.859 167.666 95.5308 162.296 86.8964 155.928C83.7439 153.584 80.5914 151.239 77.6006 148.734L104.033 122.301C105.922 123.749 107.922 125.047 110.015 126.181C110.419 126.343 110.904 126.585 111.47 126.828C112.118 127.059 112.803 127.169 113.491 127.151C114.108 127.165 114.722 127.05 115.292 126.813C115.863 126.577 116.378 126.224 116.805 125.777L122.948 119.714C124.652 117.924 126.613 116.398 128.768 115.188C130.482 114.091 132.472 113.502 134.507 113.49C136.204 113.514 137.879 113.871 139.438 114.541C141.428 115.393 143.325 116.45 145.096 117.694L171.852 136.689C173.794 137.959 175.335 139.753 176.298 141.863C177.137 143.86 177.576 146.002 177.591 148.168Z" fill="#15AB89"/>
</svg>
