<svg width="291" height="290" viewBox="0 0 291 290" fill="none" xmlns="http://www.w3.org/2000/svg">
<rect x="0.5" y="0.5" width="289" height="289" rx="4.5" fill="#010E17" stroke="#15AB89"/>
<g opacity="0.5">
<path d="M66.6494 276.209H85.113L14.2257 205.602V285.487L0.37793 267.881V189.333H16.8634L118.414 289.549H66.6494V276.209Z" fill="url(#paint0_linear_263_2)"/>
<path d="M154.682 189.333V289.549H137.867L35.9863 189.333H88.0802V202.998H69.287L140.834 273.28V189.333H154.682Z" fill="url(#paint1_linear_263_2)"/>
</g>
<path d="M271.75 29.3335V37.0335C269.925 36.8052 268.089 36.6827 266.25 36.6668V29.3335C266.25 17.7835 262.987 10.0835 247 10.0835C231.013 10.0835 227.75 17.7835 227.75 29.3335V36.6668C225.911 36.6827 224.075 36.8052 222.25 37.0335L222.25 29.3335C222.25 18.7002 224.817 4.5835 247 4.5835C269.183 4.5835 271.75 18.7002 271.75 29.3335Z" fill="url(#paint2_linear_263_2)" fill-opacity="0.3"/>
<path opacity="0.4" d="M283.666 54.9998V62.3332C283.666 76.9998 280 80.6665 265.333 80.6665H228.666C214 80.6665 210.333 76.9998 210.333 62.3332V54.9998C210.333 42.7532 212.9 38.1698 222.25 37.0332C224.074 36.8048 225.911 36.6824 227.75 36.6665L266.25 36.6665C268.089 36.6824 269.925 36.8048 271.75 37.0332C281.1 38.1698 283.666 42.7532 283.666 54.9998Z" fill="url(#paint3_linear_263_2)" fill-opacity="0.3"/>
<path d="M232.334 62.3372C231.855 62.3314 231.381 62.2318 230.94 62.0439C230.492 61.8667 230.081 61.6053 229.73 61.2739C229.061 60.5708 228.681 59.6412 228.667 58.6705C228.672 58.1901 228.772 57.7155 228.96 57.2735C229.146 56.8293 229.407 56.4201 229.73 56.0635C230.081 55.7321 230.492 55.4707 230.94 55.2935C231.608 55.0127 232.344 54.936 233.055 55.0731C233.767 55.2101 234.421 55.5547 234.937 56.0635C235.261 56.4201 235.521 56.8293 235.707 57.2735C235.895 57.7155 235.995 58.1901 236 58.6705C235.986 59.6412 235.606 60.5708 234.937 61.2739C234.234 61.9433 233.304 62.323 232.334 62.3372Z" fill="url(#paint4_linear_263_2)" fill-opacity="0.3"/>
<path d="M247 62.3374C246.029 62.3321 245.097 61.9541 244.396 61.2814C244.073 60.9247 243.812 60.5155 243.626 60.0714C243.438 59.6283 243.338 59.1523 243.333 58.6707C243.34 57.6986 243.721 56.7665 244.396 56.0674C245.105 55.4131 246.035 55.0498 247 55.0498C247.964 55.0498 248.894 55.4131 249.603 56.0674C250.278 56.7665 250.659 57.6986 250.666 58.6707C250.661 59.1498 250.561 59.6232 250.373 60.064C250.187 60.5082 249.927 60.9174 249.603 61.274C248.9 61.9434 247.97 62.3231 247 62.3374Z" fill="url(#paint5_linear_263_2)" fill-opacity="0.3"/>
<path d="M261.667 62.3374C260.697 62.3251 259.768 61.9481 259.063 61.2814C258.386 60.5804 258.005 59.6453 258 58.6707C258.007 57.6986 258.388 56.7665 259.063 56.0674C259.772 55.4131 260.702 55.0498 261.667 55.0498C262.631 55.0498 263.561 55.4131 264.27 56.0674C264.417 56.2507 264.563 56.434 264.71 56.654C264.855 56.841 264.967 57.052 265.04 57.2774C265.146 57.4851 265.22 57.7076 265.26 57.9374C265.301 58.1799 265.325 58.4249 265.333 58.6707C265.319 59.6414 264.939 60.571 264.27 61.274C263.567 61.9434 262.637 62.3231 261.667 62.3374Z" fill="url(#paint6_linear_263_2)" fill-opacity="0.3"/>
<defs>
<linearGradient id="paint0_linear_263_2" x1="59.3958" y1="189.333" x2="59.3958" y2="289.549" gradientUnits="userSpaceOnUse">
<stop stop-color="#15AB89" stop-opacity="0.29"/>
<stop offset="1" stop-color="#010E17" stop-opacity="0"/>
</linearGradient>
<linearGradient id="paint1_linear_263_2" x1="95.334" y1="189.333" x2="95.334" y2="289.549" gradientUnits="userSpaceOnUse">
<stop stop-color="#15AB89" stop-opacity="0.29"/>
<stop offset="1" stop-color="#010E17" stop-opacity="0"/>
</linearGradient>
<linearGradient id="paint2_linear_263_2" x1="247" y1="4.5835" x2="247" y2="37.0335" gradientUnits="userSpaceOnUse">
<stop stop-color="#15AB89"/>
<stop offset="1" stop-color="#292D32" stop-opacity="0"/>
</linearGradient>
<linearGradient id="paint3_linear_263_2" x1="247" y1="36.6665" x2="247" y2="80.6665" gradientUnits="userSpaceOnUse">
<stop stop-color="#15AB89"/>
<stop offset="1" stop-color="#292D32" stop-opacity="0"/>
</linearGradient>
<linearGradient id="paint4_linear_263_2" x1="232.334" y1="55.0068" x2="232.334" y2="62.3372" gradientUnits="userSpaceOnUse">
<stop stop-color="#15AB89"/>
<stop offset="1" stop-color="#292D32" stop-opacity="0"/>
</linearGradient>
<linearGradient id="paint5_linear_263_2" x1="247" y1="55.0498" x2="247" y2="62.3374" gradientUnits="userSpaceOnUse">
<stop stop-color="#15AB89"/>
<stop offset="1" stop-color="#292D32" stop-opacity="0"/>
</linearGradient>
<linearGradient id="paint6_linear_263_2" x1="261.667" y1="55.0498" x2="261.667" y2="62.3374" gradientUnits="userSpaceOnUse">
<stop stop-color="#15AB89"/>
<stop offset="1" stop-color="#292D32" stop-opacity="0"/>
</linearGradient>
</defs>
</svg>
