<svg width="135" height="157" viewBox="0 0 135 157" fill="none" xmlns="http://www.w3.org/2000/svg">
<path opacity="0.4" d="M58.505 13.5271L25.7282 25.7905C21.8123 27.4839 18.4499 30.2418 16.0231 33.7507C13.5963 37.2597 12.2025 41.379 12 45.6406L12 94.4446C12.2557 98.7862 13.3956 103.03 15.3496 106.915C17.3036 110.801 20.0306 114.246 23.3635 117.04L51.6081 138.125C56.5806 141.527 62.4646 143.346 68.4892 143.346C74.5137 143.346 80.3977 141.527 85.3702 138.125L113.615 117.04C116.948 114.246 119.675 110.801 121.629 106.915C123.583 103.03 124.723 98.7862 124.978 94.4446V45.6406C124.776 41.379 123.382 37.2597 120.955 33.7507C118.528 30.2418 115.166 27.4839 111.25 25.7905L78.4733 13.5271C71.9729 11.491 65.0054 11.491 58.505 13.5271Z" fill="#15AB89" fill-opacity="0.5"/>
<path opacity="0.4" d="M55.5698 1.8248L16.4041 16.4786C11.7249 18.502 7.70708 21.7975 4.80728 25.9904C1.90749 30.1833 0.24197 35.1055 0 40.1978L0 98.5146C0.305579 103.702 1.66757 108.773 4.00247 113.416C6.33738 118.059 9.59598 122.176 13.5785 125.515L47.3285 150.709C53.2702 154.774 60.3012 156.948 67.5 156.948C74.6988 156.948 81.7298 154.774 87.6715 150.709L121.422 125.515C125.404 122.176 128.663 118.059 130.998 113.416C133.332 108.773 134.694 103.702 135 98.5146V40.1978C134.758 35.1055 133.093 30.1833 130.193 25.9904C127.293 21.7975 123.275 18.502 118.596 16.4786L79.4302 1.8248C71.6628 -0.608266 63.3372 -0.608266 55.5698 1.8248Z" fill="#010E17"/>
<path opacity="0.4" d="M59.9475 25.8935L33.3342 35.8509C30.1546 37.2258 27.4245 39.4651 25.4541 42.3142C23.4836 45.1633 22.3519 48.508 22.1875 51.9682L22.1875 91.5949C22.3951 95.12 23.3206 98.5657 24.9072 101.721C26.4938 104.875 28.708 107.673 31.4142 109.942L54.3475 127.062C58.3849 129.823 63.1625 131.301 68.0542 131.301C72.9458 131.301 77.7234 129.823 81.7608 127.062L104.694 109.942C107.4 107.673 109.615 104.875 111.201 101.721C112.788 98.5657 113.713 95.12 113.921 91.5949V51.9682C113.756 48.508 112.625 45.1633 110.654 42.3142C108.684 39.4651 105.954 37.2258 102.774 35.8509L76.1608 25.8935C70.8828 24.2402 65.2255 24.2402 59.9475 25.8935Z" fill="#15AB89"/>
<path d="M67.4678 74.2671H68.0012C70.2345 74.1792 72.3926 73.4363 74.2068 72.1309C76.021 70.8255 77.4111 69.0153 78.2041 66.9257C78.997 64.8361 79.1578 62.5593 78.6663 60.379C78.1749 58.1987 77.0529 56.2111 75.4401 54.6637C73.8274 53.1163 71.7951 52.0775 69.5963 51.6767C67.3975 51.2758 65.1294 51.5306 63.0743 52.4093C61.0193 53.288 59.2681 54.7518 58.0389 56.6185C56.8096 58.4851 56.1566 60.6721 56.1612 62.9071C56.2049 65.8972 57.4085 68.7533 59.518 70.8728C61.6276 72.9923 64.478 74.2094 67.4678 74.2671Z" fill="#15AB89"/>
<path d="M79.6805 85.5201C76.1349 83.4252 72.0921 82.3201 67.9738 82.3201C63.8556 82.3201 59.8128 83.4252 56.2672 85.5201C54.8899 86.3463 53.7367 87.4982 52.909 88.8745C52.0814 90.2509 51.6045 91.8096 51.5205 93.4134C51.5881 95.0141 52.0586 96.5718 52.8883 97.9422C53.718 99.3127 54.8802 100.452 56.2672 101.253C59.7703 103.43 63.8232 104.559 67.9472 104.507C72.0754 104.592 76.1374 103.46 79.6272 101.253C81.0044 100.427 82.1576 99.2753 82.9853 97.899C83.813 96.5226 84.2898 94.964 84.3738 93.3601C84.3292 91.7606 83.8741 90.1994 83.0522 88.8265C82.2303 87.4535 81.0693 86.315 79.6805 85.5201Z" fill="#15AB89"/>
</svg>
