<svg width="87" height="84" viewBox="0 0 87 84" fill="none" xmlns="http://www.w3.org/2000/svg">
<path d="M85.062 52.1572C82.997 60.2176 78.5215 67.5012 72.2014 73.087C65.8814 78.6727 58.0007 82.3098 49.5559 83.5382C41.1111 84.7666 32.4815 83.5312 24.7584 79.9882C17.0353 76.4452 10.5657 70.7537 6.16753 63.6335C1.76939 56.5133 -0.359648 48.2842 0.0496376 39.9868C0.458923 31.6894 3.38815 23.6965 8.4669 17.0187C13.5456 10.3409 20.5458 5.2783 28.5821 2.47102C36.6184 -0.336252 45.33 -0.762087 53.615 1.24737C64.7244 3.94182 74.2786 10.8191 80.176 20.3665C86.0733 29.9138 87.8309 41.3493 85.062 52.1572Z" fill="url(#paint0_linear_513_229)"/>
<path d="M63.7329 36.7647C64.576 31.1861 60.2248 28.1666 54.2194 26.164L56.1769 18.5828L51.4534 17.4363L49.565 24.8209C48.3176 24.5259 47.0357 24.2309 45.7537 23.9671L47.6421 16.549L42.9187 15.4001L40.9958 22.9478C39.9505 22.7175 38.9381 22.4881 37.9585 22.2594V22.2331L31.4133 20.6573L30.1658 25.5812C30.1658 25.5812 33.6739 26.3678 33.6172 26.4014C34.2746 26.476 34.8747 26.8012 35.286 27.3056C35.6973 27.8101 35.8862 28.4526 35.8113 29.0924L33.5925 37.7264C33.7672 37.7607 33.9369 37.8154 34.0979 37.8895C33.9256 37.8609 33.7564 37.8168 33.5925 37.7576L30.4888 49.8357C30.3485 50.2569 30.0429 50.6072 29.6384 50.8103C29.2339 51.0133 28.7634 51.0527 28.3292 50.9198C28.3637 50.9845 24.8778 50.0995 24.8778 50.0995L22.5161 55.3759L28.6793 56.8845C29.8256 57.1795 30.9399 57.4433 32.0518 57.7383L30.0943 65.3842L34.8178 66.5331L36.7752 58.9519C38.0571 59.2804 39.3391 59.609 40.5545 59.9112L38.6316 67.4588L43.355 68.6076L45.3248 60.9521C53.4207 62.4295 59.4926 61.8371 62.0245 54.7164C64.083 49.0059 61.9234 45.6914 57.6733 43.5257C59.3132 43.2143 60.8 42.3808 61.8993 41.1567C62.9987 39.9326 63.6481 38.3875 63.7452 36.7647H63.7329ZM52.903 51.5337C51.4534 57.2442 41.5332 54.16 38.3283 53.3709L40.9267 43.2306C44.1316 44.0173 54.4536 45.5618 52.903 51.5337ZM54.3822 36.664C53.0336 41.8828 44.8021 39.223 42.1372 38.5682L44.4989 29.3778C47.1638 30.0349 55.7676 31.2485 54.3846 36.664H54.3822Z" fill="#EBEBEB"/>
<defs>
<linearGradient id="paint0_linear_513_229" x1="43.1718" y1="0" x2="43.1718" y2="84" gradientUnits="userSpaceOnUse">
<stop stop-color="#F9AA4B"/>
<stop offset="1" stop-color="#F7931A"/>
</linearGradient>
</defs>
</svg>
