<svg width="31" height="31" viewBox="0 0 31 31" fill="none" xmlns="http://www.w3.org/2000/svg">
<path opacity="0.4" d="M20.0211 16.9853H17.2182C16.6702 16.9855 16.1276 16.8777 15.6214 16.6681C15.1151 16.4585 14.6551 16.1512 14.2677 15.7637C13.8802 15.3763 13.5729 14.9163 13.3633 14.41C13.1537 13.9038 13.0459 13.3612 13.0461 12.8132V10.0103C13.0462 9.88306 13.0213 9.75701 12.9727 9.6394C12.924 9.52179 12.8527 9.41493 12.7627 9.32494C12.6727 9.23495 12.5659 9.1636 12.4482 9.11497C12.3306 9.06635 12.2046 9.04141 12.0773 9.04158H7.98273C7.26291 9.00034 6.5425 9.11175 5.86876 9.3685C5.19502 9.62524 4.58317 10.0215 4.07334 10.5314C3.56352 11.0412 3.16724 11.653 2.91049 12.3268C2.65374 13.0005 2.54233 13.7209 2.58357 14.4407V23.0174C2.54233 23.7372 2.65374 24.4576 2.91049 25.1314C3.16724 25.8051 3.56352 26.417 4.07334 26.9268C4.58317 27.4366 5.19502 27.8329 5.86876 28.0897C6.5425 28.3464 7.26291 28.4578 7.98273 28.4166H15.5907C16.3105 28.4578 17.0309 28.3464 17.7046 28.0897C18.3784 27.8329 18.9902 27.4366 19.5 26.9268C20.0099 26.417 20.4062 25.8051 20.6629 25.1314C20.9196 24.4576 21.0311 23.7372 20.9898 23.0174V17.9541C20.99 17.8268 20.965 17.7008 20.9164 17.5831C20.8678 17.4655 20.7964 17.3587 20.7065 17.2687C20.6165 17.1787 20.5096 17.1073 20.392 17.0587C20.2744 17.0101 20.1483 16.9852 20.0211 16.9853Z" fill="#15AB89"/>
<path d="M23.0174 2.58357H15.4095C14.7092 2.54364 14.0082 2.64868 13.3504 2.89213C12.6926 3.13557 12.0921 3.51217 11.5865 3.99836C11.0809 4.48455 10.6811 5.06987 10.4121 5.71767C10.1431 6.36548 10.0108 7.06183 10.0233 7.76315C10.1008 7.76315 10.1654 7.75023 10.2429 7.75023H17.8508C18.5706 7.709 19.291 7.82041 19.9647 8.07715C20.6385 8.3339 21.2503 8.73018 21.7602 9.24001C22.27 9.74984 22.6663 10.3617 22.923 11.0354C23.1798 11.7092 23.2912 12.4296 23.2499 13.1494V21.739C23.2499 21.8165 23.237 21.8811 23.237 21.9456C23.9379 21.9607 24.6344 21.8306 25.2825 21.5633C25.9306 21.296 26.5164 20.8975 27.003 20.3927C27.4895 19.888 27.8663 19.288 28.1096 18.6305C28.3529 17.973 28.4574 17.2722 28.4166 16.5723V7.98273C28.4578 7.26291 28.3464 6.5425 28.0897 5.86876C27.8329 5.19502 27.4367 4.58317 26.9268 4.07334C26.417 3.56352 25.8052 3.16723 25.1314 2.91049C24.4577 2.65374 23.7373 2.54233 23.0174 2.58357Z" fill="#15AB89"/>
<path d="M15.4742 9.23545C15.3874 9.14597 15.2762 9.08415 15.1544 9.05777C15.0326 9.03139 14.9057 9.04163 14.7897 9.0872C14.6737 9.13276 14.5738 9.21163 14.5025 9.31385C14.4312 9.41608 14.3918 9.53711 14.3892 9.6617V13.0485C14.4031 13.745 14.6921 14.4076 15.1931 14.8917C15.6941 15.3757 16.3663 15.6418 17.0629 15.6318C17.98 15.6447 19.2587 15.6447 20.3567 15.6447C20.4781 15.6487 20.5979 15.6163 20.7006 15.5515C20.8034 15.4867 20.8843 15.3926 20.933 15.2813C20.9817 15.17 20.9959 15.0467 20.9737 14.9273C20.9516 14.8078 20.8941 14.6978 20.8087 14.6114C19.4008 13.2009 16.895 10.6821 15.4742 9.23545Z" fill="#15AB89"/>
</svg>
