<svg width="100" height="100" viewBox="0 0 100 100" fill="none" xmlns="http://www.w3.org/2000/svg">
<path opacity="0.4" d="M91.6671 44.8344C91.6671 43.884 91.2896 42.9726 90.6176 42.3006C89.9456 41.6286 89.0341 41.2511 88.0838 41.2511H11.9171C11.4456 41.2477 10.9781 41.3382 10.5419 41.5171C10.1056 41.696 9.70929 41.9598 9.37588 42.2932C9.04247 42.6266 8.77865 43.0229 8.59975 43.4592C8.42085 43.8954 8.33043 44.3629 8.33376 44.8344C8.0755 50.3747 8.97648 55.9079 10.9791 61.0801C12.9816 66.2522 16.0417 70.9494 19.9635 74.8713C23.8854 78.7931 28.5826 81.8532 33.7548 83.8558C38.9269 85.8583 44.4601 86.7593 50.0004 86.5011C55.5397 86.7555 61.0712 85.8518 66.2416 83.8479C71.4121 81.8439 76.1077 78.7837 80.0287 74.8627C83.9498 70.9417 87.01 66.246 89.0139 61.0756C91.0178 55.9052 91.9215 50.3737 91.6671 44.8344V44.8344Z" fill="#15AB89"/>
<path d="M51.9169 66.251L63.7919 54.4176C64.3439 53.8252 64.6444 53.0417 64.6301 52.2321C64.6158 51.4225 64.2879 50.6501 63.7153 50.0776C63.1428 49.505 62.3703 49.177 61.5607 49.1627C60.7511 49.1485 59.9676 49.449 59.3752 50.001L52.8752 56.501V16.626C52.8752 15.7972 52.546 15.0023 51.9599 14.4163C51.3739 13.8302 50.579 13.501 49.7502 13.501C48.9214 13.501 48.1266 13.8302 47.5405 14.4163C46.9545 15.0023 46.6252 15.7972 46.6252 16.626V56.501L40.0836 50.001C39.4955 49.4198 38.702 49.0939 37.8752 49.0939C37.0484 49.0939 36.255 49.4198 35.6669 50.001C35.3761 50.2906 35.1454 50.6347 34.988 51.0137C34.8306 51.3926 34.7495 51.7989 34.7495 52.2093C34.7495 52.6197 34.8306 53.026 34.988 53.405C35.1454 53.7839 35.3761 54.1281 35.6669 54.4176L47.5419 66.251C47.824 66.5472 48.1634 66.7831 48.5394 66.9442C48.9154 67.1054 49.3203 67.1885 49.7294 67.1885C50.1385 67.1885 50.5433 67.1054 50.9194 66.9442C51.2954 66.7831 51.6347 66.5472 51.9169 66.251V66.251Z" fill="#15AB89"/>
</svg>
