<svg width="24" height="24" viewBox="0 0 24 24" fill="none" xmlns="http://www.w3.org/2000/svg">
<path opacity="0.4" d="M9.41977 2.15996L3.91977 4.21996C3.37541 4.45573 2.90796 4.83924 2.57039 5.32704C2.23281 5.81485 2.0386 6.38745 2.00977 6.97996V15.08C2.03471 15.5331 2.15229 15.9763 2.35525 16.3822C2.5582 16.7881 2.84222 17.1481 3.18977 17.44L8.68977 21.55C9.20929 21.9065 9.82464 22.0974 10.4548 22.0974C11.0849 22.0974 11.7002 21.9065 12.2198 21.55L17.7198 17.44C18.0665 17.1474 18.3499 16.7872 18.5528 16.3815C18.7556 15.9757 18.8737 15.5329 18.8998 15.08V6.97996C18.8709 6.38745 18.6767 5.81485 18.3391 5.32704C18.0016 4.83924 17.5341 4.45573 16.9898 4.21996L11.4898 2.15996C10.8157 1.94993 10.0938 1.94993 9.41977 2.15996Z" fill="#15AB89"/>
<path d="M19.2602 6.76001H12.4102C12.2102 6.76001 12.0202 6.77001 11.8402 6.77001C10.1202 6.87001 9.66016 7.50001 9.66016 9.46001V10.6H22.0002V9.46001C22.0002 7.30001 21.4502 6.76001 19.2602 6.76001Z" fill="#15AB89"/>
<path d="M9.66992 11.7V14.54C9.66992 16.7 10.2199 17.25 12.4099 17.25H19.2599C21.4099 17.25 21.9799 16.73 21.9999 14.66V11.7H9.66992ZM13.2699 15.47H12.0199C11.8767 15.47 11.7394 15.4131 11.6381 15.3118C11.5368 15.2105 11.4799 15.0732 11.4799 14.93C11.4799 14.7867 11.5368 14.6494 11.6381 14.5481C11.7394 14.4468 11.8767 14.39 12.0199 14.39H13.2699C13.4131 14.39 13.5505 14.4468 13.6518 14.5481C13.753 14.6494 13.8099 14.7867 13.8099 14.93C13.8099 15.0732 13.753 15.2105 13.6518 15.3118C13.5505 15.4131 13.4131 15.47 13.2699 15.47ZM17.3199 15.47H14.8299C14.6867 15.47 14.5494 15.4131 14.4481 15.3118C14.3468 15.2105 14.2899 15.0732 14.2899 14.93C14.2899 14.7867 14.3468 14.6494 14.4481 14.5481C14.5494 14.4468 14.6867 14.39 14.8299 14.39H17.3199C17.3909 14.3897 17.4612 14.4035 17.5269 14.4305C17.5925 14.4576 17.6522 14.4973 17.7023 14.5475C17.7525 14.5977 17.7923 14.6574 17.8194 14.723C17.8464 14.7886 17.8602 14.859 17.8599 14.93C17.861 15.0012 17.8478 15.0719 17.821 15.1379C17.7943 15.2039 17.7545 15.2638 17.7042 15.3142C17.6538 15.3646 17.5938 15.4043 17.5278 15.431C17.4618 15.4578 17.3911 15.471 17.3199 15.47Z" fill="#15AB89"/>
</svg>
