<svg width="122" height="49" viewBox="0 0 122 49" fill="none" xmlns="http://www.w3.org/2000/svg">
<path d="M121.034 15.9308C119.578 15.0181 117.963 14.389 116.274 14.0768C115.474 13.8868 114.565 13.7048 113.524 13.5418C112.213 13.3278 110.692 13.1418 108.936 12.9798L108.689 12.9578C108.334 12.1098 107.964 11.2428 107.575 10.3308C107.368 9.84182 107.169 9.34982 106.959 8.83082C106.935 8.76882 106.909 8.70482 106.882 8.64282C106.171 6.62725 105.165 4.72826 103.897 3.00782C103.252 2.07958 102.393 1.32116 101.391 0.797369C100.39 0.273582 99.2769 0 98.1468 0C97.0168 0 95.9035 0.273582 94.9022 0.797369C93.9009 1.32116 93.0413 2.07958 92.3968 3.00782C91.1264 4.72455 90.1218 6.62284 89.4169 8.63882L89.3368 8.83182C89.1298 9.35382 88.9308 9.84582 88.7218 10.3318C88.3308 11.2448 87.9648 12.1108 87.6068 12.9588L87.3627 12.9808C85.6007 13.1388 84.0798 13.3288 82.7628 13.5448C81.7228 13.7108 80.8148 13.8948 80.0218 14.0798C78.3324 14.393 76.7172 15.022 75.2608 15.9338C75.1353 16.0263 75.0369 16.151 74.9767 16.2948C74.9161 16.439 74.8956 16.5969 74.9169 16.7518L75.1478 18.4828C75.4978 21.0728 75.8717 24.1138 76.4877 27.2498C76.9404 29.6628 77.5757 32.038 78.3878 34.3548C78.7138 35.2668 79.0777 36.1628 79.4877 37.0298C81.2186 40.5534 83.9053 43.5195 87.2408 45.5898C90.5643 47.6524 94.404 48.7311 98.3153 48.701C102.227 48.6709 106.049 47.5333 109.341 45.4198C112.644 43.298 115.285 40.2907 116.963 36.7408C117.276 36.0408 117.563 35.3338 117.831 34.6008C119.726 29.4648 120.456 23.7958 121.058 19.2938L121.392 16.7288C121.408 16.5753 121.383 16.4203 121.319 16.2798C121.255 16.1398 121.155 16.0196 121.029 15.9318L121.034 15.9308ZM98.1337 12.5548C95.9737 12.5548 94.0078 12.5948 92.2218 12.6668C92.3218 12.4398 92.4157 12.2118 92.5157 11.9768C92.7411 11.4435 92.9588 10.9085 93.1688 10.3718C93.6049 9.20648 94.1163 8.07075 94.6998 6.97182C94.9651 6.49496 95.2688 6.04046 95.6078 5.61282C95.8642 5.16953 96.2327 4.80149 96.6764 4.54562C97.12 4.28975 97.623 4.15506 98.1351 4.15506C98.6472 4.15506 99.1505 4.28975 99.5941 4.54562C100.038 4.80149 100.406 5.16953 100.663 5.61282C101.001 6.04047 101.305 6.49497 101.57 6.97182C102.152 8.07143 102.663 9.20707 103.101 10.3718C103.311 10.9068 103.526 11.4418 103.754 11.9768C103.854 12.2118 103.954 12.4398 104.054 12.6668C102.267 12.5948 100.301 12.5548 98.1378 12.5548H98.1337Z" fill="url(#paint0_linear_651_39)"/>
<path d="M23.4565 26.7889V6.63885C23.4565 3.64585 27.7046 1.58785 30.3016 4.37185C30.9979 5.17715 31.364 6.21592 31.3265 7.27986V26.0569C31.3591 26.6228 31.2786 27.1895 31.0898 27.724C30.9009 28.2585 30.6075 28.75 30.2266 29.1699C27.8896 31.8409 23.4565 29.9029 23.4565 26.7889ZM46.8936 31.0969V10.4969H46.9066C46.9296 9.97163 47.0722 9.4586 47.3235 8.99685C47.5874 8.52489 47.9447 8.11167 48.3736 7.78246C48.8025 7.45325 49.294 7.21496 49.8182 7.08215C50.3423 6.94934 50.888 6.9248 51.4219 7.01003C51.9559 7.09526 52.4668 7.28847 52.9236 7.57786C54.8236 8.81685 54.7996 10.6939 54.7736 12.9029C54.7736 13.1629 54.7676 13.4279 54.7676 13.6969C54.7676 13.8969 54.7676 14.4499 54.7606 15.2309V15.2379C54.7396 19.2159 54.6866 29.1439 54.8256 29.5679C54.8822 29.7261 54.9729 29.87 55.0913 29.9894C55.2097 30.1088 55.3528 30.2008 55.5106 30.2589C56.5398 30.4209 57.5851 30.4545 58.6226 30.3589C60.7426 30.2999 63.2906 30.2309 64.2526 30.7669C65.0513 31.1644 65.6916 31.8211 66.0686 32.6298C66.4456 33.4384 66.5371 34.351 66.3281 35.2184C66.119 36.0858 65.6218 36.8566 64.9178 37.4047C64.2139 37.9528 63.3447 38.2458 62.4526 38.2359H54.4725C53.4208 38.198 52.3861 37.9587 51.4246 37.5308C50.6291 37.1454 49.893 36.648 49.2386 36.0539C49.0857 35.9011 48.9459 35.7359 48.8206 35.5599C48.6727 35.4057 48.5334 35.2435 48.4036 35.0738C47.5359 33.9156 47.0113 32.5369 46.8896 31.0949L46.8936 31.0969Z" fill="#EEEEEE"/>
<path d="M24.8555 41.2307C24.3635 40.8303 23.9782 40.3144 23.7339 39.7291C23.4897 39.1437 23.394 38.507 23.4555 37.8756C23.4928 37.3186 23.6525 36.7767 23.9234 36.2885C24.1943 35.8004 24.5696 35.3781 25.0225 35.0517C26.0325 34.2967 26.6905 34.3006 28.1855 34.3076H28.6755H30.1475C31.1235 34.3076 32.0975 34.3076 33.0695 34.3076C34.8325 34.3186 35.1695 33.8677 35.1695 32.1077C35.1625 30.1767 35.1695 28.2446 35.1695 26.3076C35.1695 25.341 35.1695 24.3743 35.1695 23.4077V23.1877C35.1695 21.7547 35.1695 20.9647 36.3235 19.8007C36.7038 19.4222 37.158 19.1262 37.6577 18.9311C38.1575 18.7359 38.6921 18.6458 39.2282 18.6664C39.7643 18.6869 40.2904 18.8177 40.7737 19.0505C41.2571 19.2833 41.6873 19.6132 42.0375 20.0197C42.4081 20.4602 42.6878 20.9698 42.8605 21.5191C43.0331 22.0683 43.0953 22.6463 43.0435 23.2197V33.6516C43.0435 38.7896 39.6535 42.1656 34.5295 42.1656H28.0305C26.8913 42.2519 25.7602 41.9163 24.8525 41.2227L24.8555 41.2307ZM0.0204869 30.0016C-0.0618408 30.804 0.105221 31.6123 0.498908 32.3163C0.892595 33.0202 1.49376 33.5857 2.22049 33.9356C2.7034 34.1775 3.23639 34.3026 3.77649 34.3007H12.1995C15.9795 34.3007 19.6135 30.7007 19.6135 26.4267V14.8957C19.6216 13.8691 19.2379 12.878 18.5405 12.1247C18.1641 11.7156 17.7049 11.3914 17.1934 11.1736C16.682 10.9557 16.1301 10.8493 15.5743 10.8613C15.0185 10.8733 14.4717 11.0035 13.9702 11.2433C13.4686 11.483 13.0239 11.8267 12.6655 12.2516C11.8075 13.3386 11.7395 13.7517 11.7395 15.6277V24.3277C11.7395 24.4277 11.7395 24.5276 11.7395 24.6176C11.7455 25.2856 11.7495 25.6267 11.3535 26.0497C10.9575 26.4727 10.6535 26.4686 10.0605 26.4496C9.90749 26.4436 9.73649 26.4366 9.53749 26.4366H5.14649C3.11649 26.4366 1.62949 26.6446 0.573487 28.3626C0.270483 28.8637 0.0816681 29.4253 0.0204869 30.0077V30.0016ZM42.9565 41.9016C42.9254 42.4431 43.0076 42.9851 43.1979 43.493C43.3882 44.0009 43.6823 44.4636 44.0614 44.8514C44.4406 45.2392 44.8965 45.5437 45.3999 45.7454C45.9034 45.947 46.4434 46.0415 46.9855 46.0226C51.2205 46.0226 52.1515 40.1497 48.5955 38.5517C48.0106 38.2717 47.3657 38.1405 46.7179 38.1697C46.0702 38.1989 45.4397 38.3876 44.8824 38.7191C44.3251 39.0505 43.8583 39.5144 43.5233 40.0696C43.1884 40.6248 42.9958 41.2541 42.9625 41.9016H42.9565ZM36.2925 13.6866C35.8985 13.2985 35.5942 12.8288 35.4011 12.3105C35.2079 11.7923 35.1306 11.238 35.1745 10.6866C35.2295 9.6772 35.6673 8.72672 36.3989 8.02899C37.1305 7.33126 38.1006 6.9388 39.1115 6.93164C40.1428 6.96257 41.123 7.38772 41.8504 8.11954C42.5778 8.85135 42.9969 9.83416 43.0215 10.8657C43.017 11.6431 42.7841 12.402 42.3518 13.0481C41.9194 13.6942 41.3067 14.1989 40.5897 14.4995C39.8728 14.8001 39.0833 14.8834 38.3194 14.7388C37.5556 14.5943 36.8511 14.2284 36.2935 13.6866H36.2925Z" fill="#EEEEEE"/>
<defs>
<linearGradient id="paint0_linear_651_39" x1="98.1526" y1="0" x2="98.1526" y2="48.6529" gradientUnits="userSpaceOnUse">
<stop stop-color="#97D700"/>
<stop offset="0.631" stop-color="#50BC25"/>
<stop offset="1" stop-color="#009F64"/>
</linearGradient>
</defs>
</svg>
