<svg width="175" height="175" viewBox="0 0 175 175" fill="none" xmlns="http://www.w3.org/2000/svg">
<path opacity="0.4" d="M85.9692 103.615L62.1255 127.458C59.5005 125.125 56.9484 122.719 54.4692 120.24C47.0957 112.817 40.295 104.846 34.1255 96.3959C28.4591 88.6601 23.6661 80.3212 19.8338 71.5313C16.5058 64.0148 14.7205 55.9067 14.5838 47.6875C14.5525 42.872 15.4435 38.095 17.2088 33.6146C19.0634 28.9824 21.9281 24.8223 25.5942 21.4375C27.5351 19.3384 29.8775 17.6502 32.4827 16.4728C35.0879 15.2955 37.9029 14.653 40.7609 14.5834C42.8028 14.5753 44.8208 15.0237 46.6671 15.8959C48.6367 16.7873 50.3258 18.1991 51.5526 19.9792L68.4692 43.8229C69.6392 45.4035 70.6182 47.1167 71.3859 48.9271C72.0192 50.3269 72.3662 51.8392 72.4067 53.375C72.3861 55.2093 71.8559 57.0017 70.8755 58.5521C69.7509 60.4519 68.3777 62.193 66.7921 63.7292L61.2505 69.4896C60.8645 69.8684 60.5614 70.3232 60.3606 70.8253C60.1597 71.3274 60.0655 71.8658 60.0838 72.4063C60.0847 72.9724 60.1582 73.536 60.3026 74.0834C60.5213 74.6667 60.7401 75.1042 60.8859 75.5417C62.8439 78.8616 65.1147 81.9869 67.6671 84.875C70.9484 88.6667 74.4484 92.5313 78.2401 96.3959C80.8651 98.9479 83.4171 101.427 85.9692 103.615Z" fill="#15AB89"/>
<path d="M160.198 133.656C160.19 135.77 159.82 137.866 159.105 139.854C158.893 140.45 158.649 141.034 158.375 141.604C157.102 144.317 155.431 146.823 153.417 149.042C150.133 152.778 146.045 155.72 141.459 157.646C141.386 157.646 141.313 157.719 141.24 157.719C136.794 159.521 132.038 160.438 127.24 160.417C119.038 160.265 110.952 158.455 103.469 155.094C94.5895 151.245 86.1746 146.401 78.3859 140.656C75.5422 138.542 72.6984 136.427 70.0005 134.167L93.8442 110.323C95.5483 111.629 97.3525 112.8 99.2401 113.823C99.6047 113.969 100.042 114.188 100.553 114.406C101.137 114.615 101.755 114.714 102.375 114.698C102.933 114.711 103.486 114.607 104.001 114.393C104.516 114.18 104.98 113.862 105.365 113.459L110.907 107.99C112.444 106.375 114.213 104.998 116.157 103.906C117.703 102.917 119.498 102.386 121.334 102.375C122.864 102.396 124.376 102.718 125.782 103.323C127.577 104.092 129.288 105.045 130.886 106.167L155.021 123.302C156.773 124.447 158.163 126.065 159.032 127.969C159.788 129.77 160.185 131.703 160.198 133.656Z" fill="#15AB89"/>
</svg>
