<svg width="51" height="48" viewBox="0 0 51 48" fill="none" xmlns="http://www.w3.org/2000/svg">
<path d="M22.6416 26.1751H28.1139L7.10421 4.90172V30.1945H3V0H7.88598L37.9836 30.1945H22.6416V26.1751Z" fill="#15AB89"/>
<path d="M48.7326 0V30.1945H43.7489L13.5536 0H28.9932V4.11743H23.4233L44.6283 25.2928V0H48.7326Z" fill="#15AB89"/>
<path d="M7.5 47H6.408L2.016 40.34V47H0.924V38.624H2.016L6.408 45.272V38.624H7.5V47ZM12.2295 47.108C11.6135 47.108 11.0535 46.968 10.5495 46.688C10.0535 46.408 9.6615 46.012 9.3735 45.5C9.0935 44.98 8.9535 44.38 8.9535 43.7C8.9535 43.028 9.0975 42.436 9.3855 41.924C9.6815 41.404 10.0815 41.008 10.5855 40.736C11.0895 40.456 11.6535 40.316 12.2775 40.316C12.9015 40.316 13.4655 40.456 13.9695 40.736C14.4735 41.008 14.8695 41.4 15.1575 41.912C15.4535 42.424 15.6015 43.02 15.6015 43.7C15.6015 44.38 15.4495 44.98 15.1455 45.5C14.8495 46.012 14.4455 46.408 13.9335 46.688C13.4215 46.968 12.8535 47.108 12.2295 47.108ZM12.2295 46.148C12.6215 46.148 12.9895 46.056 13.3335 45.872C13.6775 45.688 13.9535 45.412 14.1615 45.044C14.3775 44.676 14.4855 44.228 14.4855 43.7C14.4855 43.172 14.3815 42.724 14.1735 42.356C13.9655 41.988 13.6935 41.716 13.3575 41.54C13.0215 41.356 12.6575 41.264 12.2655 41.264C11.8655 41.264 11.4975 41.356 11.1615 41.54C10.8335 41.716 10.5695 41.988 10.3695 42.356C10.1695 42.724 10.0695 43.172 10.0695 43.7C10.0695 44.236 10.1655 44.688 10.3575 45.056C10.5575 45.424 10.8215 45.7 11.1495 45.884C11.4775 46.06 11.8375 46.148 12.2295 46.148ZM19.4853 45.992L21.5253 40.424H22.6893L20.1093 47H18.8373L16.2573 40.424H17.4333L19.4853 45.992ZM24.3278 39.356C24.1198 39.356 23.9438 39.284 23.7998 39.14C23.6558 38.996 23.5838 38.82 23.5838 38.612C23.5838 38.404 23.6558 38.228 23.7998 38.084C23.9438 37.94 24.1198 37.868 24.3278 37.868C24.5278 37.868 24.6958 37.94 24.8318 38.084C24.9758 38.228 25.0478 38.404 25.0478 38.612C25.0478 38.82 24.9758 38.996 24.8318 39.14C24.6958 39.284 24.5278 39.356 24.3278 39.356ZM24.8558 40.424V47H23.7638V40.424H24.8558ZM29.921 40.304C30.721 40.304 31.369 40.548 31.865 41.036C32.361 41.516 32.609 42.212 32.609 43.124V47H31.529V43.28C31.529 42.624 31.365 42.124 31.037 41.78C30.709 41.428 30.261 41.252 29.693 41.252C29.117 41.252 28.657 41.432 28.313 41.792C27.977 42.152 27.809 42.676 27.809 43.364V47H26.717V40.424H27.809V41.36C28.025 41.024 28.317 40.764 28.685 40.58C29.061 40.396 29.473 40.304 29.921 40.304ZM35.7248 41.324V45.2C35.7248 45.52 35.7928 45.748 35.9288 45.884C36.0648 46.012 36.3008 46.076 36.6367 46.076H37.4408V47H36.4568C35.8488 47 35.3928 46.86 35.0888 46.58C34.7848 46.3 34.6328 45.84 34.6328 45.2V41.324H33.7808V40.424H34.6328V38.768H35.7248V40.424H37.4408V41.324H35.7248ZM44.7638 43.46C44.7638 43.668 44.7518 43.888 44.7278 44.12H39.4718C39.5118 44.768 39.7318 45.276 40.1318 45.644C40.5398 46.004 41.0318 46.184 41.6078 46.184C42.0798 46.184 42.4718 46.076 42.7838 45.86C43.1038 45.636 43.3278 45.34 43.4558 44.972H44.6318C44.4558 45.604 44.1038 46.12 43.5758 46.52C43.0478 46.912 42.3918 47.108 41.6078 47.108C40.9838 47.108 40.4238 46.968 39.9278 46.688C39.4398 46.408 39.0558 46.012 38.7758 45.5C38.4958 44.98 38.3558 44.38 38.3558 43.7C38.3558 43.02 38.4918 42.424 38.7638 41.912C39.0358 41.4 39.4158 41.008 39.9038 40.736C40.3998 40.456 40.9678 40.316 41.6078 40.316C42.2318 40.316 42.7838 40.452 43.2638 40.724C43.7438 40.996 44.1118 41.372 44.3678 41.852C44.6318 42.324 44.7638 42.86 44.7638 43.46ZM43.6358 43.232C43.6358 42.816 43.5438 42.46 43.3598 42.164C43.1758 41.86 42.9238 41.632 42.6038 41.48C42.2918 41.32 41.9438 41.24 41.5598 41.24C41.0078 41.24 40.5358 41.416 40.1438 41.768C39.7598 42.12 39.5398 42.608 39.4838 43.232H43.6358ZM49.6373 47L48.0773 44.552L46.5773 47H45.4373L47.5613 43.736L45.4373 40.424H46.6733L48.2333 42.86L49.7213 40.424H50.8613L48.7493 43.676L50.8733 47H49.6373Z" fill="black"/>
</svg>
