<svg width="38" height="38" viewBox="0 0 38 38" fill="none" xmlns="http://www.w3.org/2000/svg">
<path opacity="0.4" d="M30.0832 16.2767V27.5975C30.0357 32.11 28.8007 33.25 24.0982 33.25H9.1515C4.36984 33.25 3.1665 32.0625 3.1665 27.3442V16.2767C3.1665 12.0017 4.164 10.6242 7.9165 10.4025C8.2965 10.3867 8.70817 10.3708 9.1515 10.3708H24.0982C28.8798 10.3708 30.0832 11.5583 30.0832 16.2767Z" fill="#15AB89"/>
<path d="M34.8332 10.6558V21.7233C34.8332 25.9983 33.8357 27.3758 30.0832 27.5975V16.2767C30.0832 11.5583 28.8798 10.3708 24.0982 10.3708H9.1515C8.70817 10.3708 8.2965 10.3867 7.9165 10.4025C7.964 5.89 9.199 4.75 13.9015 4.75H28.8482C33.6298 4.75 34.8332 5.9375 34.8332 10.6558Z" fill="#15AB89"/>
<path d="M11.0202 29.3867H8.29687C7.98257 29.3846 7.68173 29.2589 7.45948 29.0366C7.23723 28.8144 7.11145 28.5135 7.10938 28.1992C7.11145 27.8849 7.23723 27.5841 7.45948 27.3618C7.68173 27.1396 7.98257 27.0138 8.29687 27.0117H11.0202C11.3352 27.0117 11.6372 27.1368 11.8599 27.3595C12.0826 27.5822 12.2077 27.8843 12.2077 28.1992C12.2077 28.5142 12.0826 28.8162 11.8599 29.0389C11.6372 29.2616 11.3352 29.3867 11.0202 29.3867Z" fill="#15AB89"/>
<path d="M19.871 29.3867H14.4243C14.11 29.3846 13.8092 29.2589 13.5869 29.0366C13.3647 28.8144 13.2389 28.5135 13.2368 28.1992C13.2389 27.8849 13.3647 27.5841 13.5869 27.3618C13.8092 27.1396 14.11 27.0138 14.4243 27.0117H19.871C20.1859 27.0117 20.488 27.1368 20.7107 27.3595C20.9334 27.5822 21.0585 27.8843 21.0585 28.1992C21.0585 28.5142 20.9334 28.8162 20.7107 29.0389C20.488 29.2616 20.1859 29.3867 19.871 29.3867Z" fill="#15AB89"/>
<path d="M3.1665 18.7783H30.0832V21.1533H3.1665V18.7783Z" fill="#15AB89"/>
</svg>
