<svg width="24" height="24" viewBox="0 0 24 24" fill="none" xmlns="http://www.w3.org/2000/svg">
<path d="M12 23.5844C18.6274 23.5844 24 18.3049 24 11.7922C24 5.27955 18.6274 0 12 0C5.37258 0 0 5.27955 0 11.7922C0 18.3049 5.37258 23.5844 12 23.5844Z" fill="#3468D1"/>
<path fill-rule="evenodd" clip-rule="evenodd" d="M10.5179 8.06456C10.7492 8.06469 10.9752 8.13219 11.1675 8.25856C11.3598 8.38493 11.5096 8.56448 11.5981 8.77451C11.6865 8.98454 11.7096 9.21563 11.6645 9.43856C11.6193 9.6615 11.5079 9.86625 11.3444 10.027C11.1808 10.1877 10.9724 10.2972 10.7456 10.3416C10.5187 10.3859 10.2835 10.3633 10.0698 10.2763C9.85608 10.1894 9.67337 10.0422 9.54478 9.85322C9.41618 9.66427 9.34747 9.44209 9.34734 9.21479C9.34725 9.06371 9.37746 8.91411 9.43625 8.77451C9.49505 8.63492 9.58126 8.5081 9.68997 8.40128C9.79869 8.29445 9.92775 8.20969 10.0698 8.15192C10.2119 8.09414 10.3641 8.06447 10.5179 8.06456ZM13.343 8.06456C13.5743 8.06469 13.8004 8.13219 13.9927 8.25856C14.1849 8.38493 14.3348 8.56448 14.4232 8.77451C14.5117 8.98454 14.5348 9.21563 14.4896 9.43856C14.4445 9.6615 14.3331 9.86625 14.1695 10.027C14.0059 10.1877 13.7976 10.2972 13.5707 10.3416C13.3438 10.3859 13.1087 10.3633 12.8949 10.2763C12.6812 10.1894 12.4985 10.0422 12.3699 9.85322C12.2413 9.66427 12.1726 9.44209 12.1725 9.21479C12.1724 9.06371 12.2026 8.91411 12.2614 8.77451C12.3202 8.63492 12.4064 8.5081 12.5151 8.40128C12.6238 8.29445 12.7529 8.20969 12.8949 8.15192C13.037 8.09414 13.1893 8.06447 13.343 8.06456ZM13.343 12.9021C13.5743 12.9022 13.8004 12.9697 13.9927 13.0961C14.1849 13.2224 14.3348 13.402 14.4232 13.612C14.5117 13.8221 14.5348 14.0531 14.4896 14.2761C14.4445 14.499 14.3331 14.7038 14.1695 14.8645C14.0059 15.0252 13.7976 15.1347 13.5707 15.1791C13.3438 15.2235 13.1087 15.2007 12.8949 15.1138C12.6812 15.0269 12.4985 14.8797 12.3699 14.6907C12.2413 14.5018 12.1726 14.2796 12.1725 14.0523C12.1724 13.9012 12.2026 13.7516 12.2614 13.612C12.3202 13.4724 12.4064 13.3456 12.5151 13.2387C12.6238 13.1319 12.7529 13.0472 12.8949 12.9894C13.037 12.9317 13.1893 12.902 13.343 12.9021ZM10.5179 12.9021C10.7492 12.9022 10.9752 12.9697 11.1675 13.0961C11.3598 13.2224 11.5096 13.402 11.5981 13.612C11.6865 13.8221 11.7096 14.0531 11.6645 14.2761C11.6193 14.499 11.5079 14.7038 11.3444 14.8645C11.1808 15.0252 10.9724 15.1347 10.7456 15.1791C10.5187 15.2235 10.2835 15.2007 10.0698 15.1138C9.85608 15.0269 9.67337 14.8797 9.54478 14.6907C9.41618 14.5018 9.34747 14.2796 9.34734 14.0523C9.34725 13.9012 9.37746 13.7516 9.43625 13.612C9.49505 13.4724 9.58126 13.3456 9.68997 13.2387C9.79869 13.1319 9.92775 13.0472 10.0698 12.9894C10.2119 12.9317 10.3641 12.902 10.5179 12.9021ZM9.06482 10.5227C9.29616 10.5229 9.52228 10.5904 9.71456 10.7168C9.90685 10.8432 10.0567 11.0228 10.1451 11.2329C10.2335 11.4429 10.2566 11.674 10.2114 11.897C10.1662 12.1199 10.0547 12.3247 9.89109 12.4854C9.72746 12.6461 9.51902 12.7555 9.29211 12.7998C9.06521 12.8441 8.83003 12.8213 8.61631 12.7343C8.40259 12.6473 8.21992 12.4999 8.09141 12.3109C7.9629 12.1219 7.89431 11.8996 7.89431 11.6723C7.89431 11.5213 7.92459 11.3718 7.98342 11.2322C8.04225 11.0927 8.12848 10.966 8.23718 10.8592C8.34589 10.7524 8.47493 10.6678 8.61693 10.6101C8.75894 10.5523 8.91114 10.5226 9.06482 10.5227ZM14.7953 10.5227C15.0267 10.5229 15.2527 10.5904 15.445 10.7167C15.6373 10.8431 15.7871 11.0227 15.8756 11.2327C15.964 11.4427 15.9871 11.6738 15.942 11.8967C15.8968 12.1197 15.7854 12.3244 15.6218 12.4852C15.4583 12.6459 15.2499 12.7554 15.023 12.7997C14.7962 12.8441 14.561 12.8214 14.3473 12.7345C14.1336 12.6476 13.9509 12.5003 13.8223 12.3114C13.6937 12.1225 13.625 11.9003 13.6248 11.673C13.6247 11.5219 13.655 11.3723 13.7137 11.2327C13.7725 11.0931 13.8587 10.9662 13.9675 10.8594C14.0762 10.7526 14.2052 10.6679 14.3473 10.6101C14.4894 10.5523 14.6416 10.5226 14.7953 10.5227ZM16.127 8.54029C16.2706 8.54029 16.411 8.58214 16.5304 8.66055C16.6498 8.73896 16.7429 8.85042 16.7979 8.98081C16.8529 9.1112 16.8672 9.25469 16.8392 9.39312C16.8112 9.53154 16.742 9.65866 16.6405 9.75846C16.5389 9.85826 16.4095 9.92624 16.2687 9.95377C16.1278 9.98131 15.9818 9.96719 15.8491 9.91318C15.7164 9.85917 15.603 9.76768 15.5232 9.65033C15.4434 9.53298 15.4008 9.39504 15.4008 9.2539C15.4008 9.06464 15.4773 8.88313 15.6135 8.7493C15.7497 8.61548 15.9344 8.54029 16.127 8.54029ZM16.127 13.2983C16.2706 13.2983 16.411 13.3401 16.5304 13.4186C16.6498 13.497 16.7429 13.6084 16.7979 13.7388C16.8529 13.8692 16.8672 14.0127 16.8392 14.1511C16.8112 14.2895 16.742 14.4167 16.6405 14.5165C16.5389 14.6163 16.4095 14.6842 16.2687 14.7117C16.1278 14.7393 15.9818 14.7252 15.8491 14.6712C15.7164 14.6171 15.603 14.5257 15.5232 14.4083C15.4434 14.291 15.4008 14.153 15.4008 14.0119C15.4008 13.8226 15.4773 13.6411 15.6135 13.5073C15.7497 13.3734 15.9344 13.2983 16.127 13.2983ZM7.73248 13.2983C7.87611 13.2983 8.0165 13.3401 8.13592 13.4186C8.25534 13.497 8.34841 13.6084 8.40337 13.7388C8.45833 13.8692 8.47272 14.0127 8.4447 14.1511C8.41668 14.2895 8.34752 14.4167 8.24596 14.5165C8.14441 14.6163 8.01502 14.6842 7.87415 14.7117C7.73329 14.7393 7.58728 14.7252 7.45459 14.6712C7.3219 14.6171 7.20849 14.5257 7.1287 14.4083C7.0489 14.291 7.00631 14.153 7.00631 14.0119C7.00631 13.8226 7.08282 13.6411 7.219 13.5073C7.35519 13.3734 7.53989 13.2983 7.73248 13.2983ZM7.73248 8.54029C7.87611 8.54029 8.0165 8.58214 8.13592 8.66055C8.25534 8.73896 8.34841 8.85042 8.40337 8.98081C8.45833 9.1112 8.47272 9.25469 8.4447 9.39312C8.41668 9.53154 8.34752 9.65866 8.24596 9.75846C8.14441 9.85826 8.01502 9.92624 7.87415 9.95377C7.73329 9.98131 7.58728 9.96719 7.45459 9.91318C7.3219 9.85917 7.20849 9.76768 7.1287 9.65033C7.0489 9.53298 7.00631 9.39504 7.00631 9.2539C7.00631 9.06464 7.08282 8.88313 7.219 8.7493C7.35519 8.61548 7.53989 8.54029 7.73248 8.54029ZM11.9297 6.16095C12.0734 6.16095 12.2138 6.2028 12.3332 6.28121C12.4526 6.35962 12.5457 6.47108 12.6006 6.60148C12.6556 6.73187 12.67 6.87536 12.642 7.01378C12.6139 7.15221 12.5448 7.27932 12.4432 7.37912C12.3417 7.47892 12.2123 7.54691 12.0714 7.57444C11.9305 7.60197 11.7845 7.58786 11.6518 7.53385C11.5191 7.47984 11.4057 7.38835 11.3259 7.271C11.2462 7.15365 11.2036 7.0157 11.2036 6.87456C11.2036 6.68531 11.2801 6.50379 11.4163 6.36997C11.5524 6.23614 11.7371 6.16095 11.9297 6.16095ZM11.9297 15.6769C12.0734 15.6769 12.2138 15.7188 12.3332 15.7972C12.4526 15.8756 12.5457 15.9871 12.6006 16.1175C12.6556 16.2478 12.67 16.3913 12.642 16.5298C12.6139 16.6682 12.5448 16.7953 12.4432 16.8951C12.3417 16.9949 12.2123 17.0629 12.0714 17.0904C11.9305 17.118 11.7845 17.1038 11.6518 17.0498C11.5191 16.9958 11.4057 16.9043 11.3259 16.787C11.2462 16.6696 11.2036 16.5317 11.2036 16.3905C11.2036 16.2013 11.2801 16.0198 11.4163 15.8859C11.5524 15.7521 11.7371 15.6769 11.9297 15.6769ZM15.0374 16.3905C15.1572 16.3905 15.2742 16.4254 15.3738 16.4908C15.4734 16.5562 15.551 16.6491 15.5968 16.7578C15.6426 16.8665 15.6546 16.9862 15.6312 17.1016C15.6079 17.217 15.5502 17.323 15.4655 17.4062C15.3809 17.4895 15.273 17.5462 15.1555 17.5691C15.0381 17.5921 14.9163 17.5803 14.8057 17.5352C14.6951 17.4902 14.6005 17.4139 14.534 17.3161C14.4674 17.2182 14.4319 17.1032 14.4319 16.9855C14.4319 16.9074 14.4476 16.83 14.478 16.7578C14.5084 16.6856 14.553 16.6201 14.6093 16.5648C14.6655 16.5096 14.7322 16.4657 14.8057 16.4358C14.8792 16.4059 14.9579 16.3905 15.0374 16.3905ZM8.82208 16.3905C8.94183 16.3905 9.0589 16.4254 9.15847 16.4908C9.25804 16.5562 9.33565 16.6491 9.38148 16.7578C9.42731 16.8665 9.4393 16.9862 9.41593 17.1016C9.39257 17.217 9.3349 17.323 9.25022 17.4062C9.16554 17.4895 9.05766 17.5462 8.94021 17.5691C8.82275 17.5921 8.70101 17.5803 8.59037 17.5352C8.47973 17.4902 8.38517 17.4139 8.31864 17.3161C8.25211 17.2182 8.21659 17.1032 8.21659 16.9855C8.21659 16.9074 8.23225 16.83 8.26268 16.7578C8.29311 16.6856 8.33771 16.6201 8.39393 16.5648C8.45016 16.5096 8.51691 16.4657 8.59037 16.4358C8.66383 16.4059 8.74256 16.3905 8.82208 16.3905ZM8.82208 5.68523C8.94183 5.68523 9.0589 5.72012 9.15847 5.7855C9.25804 5.85088 9.33565 5.94382 9.38148 6.05254C9.42731 6.16126 9.4393 6.28087 9.41593 6.39629C9.39257 6.51171 9.3349 6.61775 9.25022 6.70096C9.16554 6.78418 9.05766 6.84083 8.94021 6.86379C8.82275 6.88675 8.70101 6.87497 8.59037 6.82994C8.47973 6.78491 8.38517 6.70866 8.31864 6.61081C8.25211 6.51296 8.21659 6.3979 8.21659 6.28022C8.21659 6.12242 8.28038 5.97107 8.39393 5.85949C8.50748 5.7479 8.66149 5.68523 8.82208 5.68523ZM15.0374 5.68523C15.1572 5.68523 15.2742 5.72012 15.3738 5.7855C15.4734 5.85088 15.551 5.94382 15.5968 6.05254C15.6426 6.16126 15.6546 6.28087 15.6312 6.39629C15.6079 6.51171 15.5502 6.61775 15.4655 6.70096C15.3809 6.78418 15.273 6.84083 15.1555 6.86379C15.0381 6.88675 14.9163 6.87497 14.8057 6.82994C14.6951 6.78491 14.6005 6.70866 14.534 6.61081C14.4674 6.51296 14.4319 6.3979 14.4319 6.28022C14.4319 6.12242 14.4957 5.97107 14.6093 5.85949C14.7228 5.7479 14.8768 5.68523 15.0374 5.68523ZM18.1855 10.9985C18.3053 10.9985 18.4223 11.0334 18.5219 11.0987C18.6215 11.1641 18.6991 11.2571 18.7449 11.3658C18.7907 11.4745 18.8027 11.5941 18.7794 11.7095C18.756 11.8249 18.6983 11.931 18.6137 12.0142C18.529 12.0974 18.4211 12.1541 18.3036 12.177C18.1862 12.2 18.0644 12.1882 17.9538 12.1432C17.8432 12.0981 17.7486 12.0219 17.6821 11.924C17.6155 11.8262 17.58 11.7111 17.58 11.5935C17.58 11.4357 17.6438 11.2843 17.7574 11.1727C17.8709 11.0611 18.0249 10.9985 18.1855 10.9985ZM5.67465 10.9985C5.7944 10.9985 5.91147 11.0334 6.01104 11.0987C6.11061 11.1641 6.18823 11.2571 6.23405 11.3658C6.27988 11.4745 6.29187 11.5941 6.26851 11.7095C6.24515 11.8249 6.18747 11.931 6.10279 12.0142C6.01811 12.0974 5.91023 12.1541 5.79278 12.177C5.67533 12.2 5.55358 12.1882 5.44294 12.1432C5.3323 12.0981 5.23774 12.0219 5.1712 11.924C5.10467 11.8262 5.06917 11.7111 5.06917 11.5935C5.06917 11.4357 5.13296 11.2843 5.24651 11.1727C5.36006 11.0611 5.51407 10.9985 5.67465 10.9985ZM5.23099 7.35029C5.32674 7.35029 5.42034 7.37818 5.49996 7.43045C5.57957 7.48272 5.64162 7.55702 5.67826 7.64395C5.7149 7.73087 5.72449 7.82656 5.70581 7.91884C5.68713 8.01113 5.64102 8.09587 5.57331 8.1624C5.50561 8.22894 5.41935 8.27426 5.32544 8.29262C5.23153 8.31097 5.13419 8.30156 5.04573 8.26555C4.95727 8.22955 4.88167 8.16854 4.82847 8.09031C4.77528 8.01207 4.74688 7.92011 4.74688 7.82602C4.74688 7.69985 4.79789 7.57885 4.88868 7.48963C4.97947 7.40042 5.1026 7.35029 5.23099 7.35029ZM5.23099 14.9647C5.32674 14.9647 5.42034 14.9926 5.49996 15.0448C5.57957 15.0971 5.64162 15.1714 5.67826 15.2584C5.7149 15.3453 5.72449 15.441 5.70581 15.5332C5.68713 15.6255 5.64102 15.7103 5.57331 15.7768C5.50561 15.8433 5.41935 15.8886 5.32544 15.907C5.23153 15.9254 5.13419 15.9159 5.04573 15.8799C4.95727 15.8439 4.88167 15.7829 4.82847 15.7047C4.77528 15.6265 4.74688 15.5345 4.74688 15.4404C4.74688 15.3142 4.79789 15.1932 4.88868 15.104C4.97947 15.0148 5.1026 14.9647 5.23099 14.9647ZM18.6299 14.9647C18.7256 14.9647 18.8192 14.9926 18.8988 15.0448C18.9784 15.0971 19.0405 15.1714 19.0771 15.2584C19.1138 15.3453 19.1233 15.441 19.1047 15.5332C19.086 15.6255 19.0399 15.7103 18.9722 15.7768C18.9045 15.8433 18.8182 15.8886 18.7243 15.907C18.6304 15.9254 18.5331 15.9159 18.4446 15.8799C18.3561 15.8439 18.2805 15.7829 18.2273 15.7047C18.1741 15.6265 18.1457 15.5345 18.1457 15.4404C18.1457 15.3142 18.1967 15.1932 18.2875 15.104C18.3783 15.0148 18.5015 14.9647 18.6299 14.9647ZM18.6299 7.35029C18.7256 7.35029 18.8192 7.37818 18.8988 7.43045C18.9784 7.48272 19.0405 7.55702 19.0771 7.64395C19.1138 7.73087 19.1233 7.82656 19.1047 7.91884C19.086 8.01113 19.0399 8.09587 18.9722 8.1624C18.9045 8.22894 18.8182 8.27426 18.7243 8.29262C18.6304 8.31097 18.5331 8.30156 18.4446 8.26555C18.3561 8.22955 18.2805 8.16854 18.2273 8.09031C18.1741 8.01207 18.1457 7.92011 18.1457 7.82602C18.1457 7.69985 18.1967 7.57885 18.2875 7.48963C18.3783 7.40042 18.5015 7.35029 18.6299 7.35029ZM11.9304 3.54443C12.0262 3.54443 12.1198 3.57232 12.1994 3.62459C12.279 3.67687 12.341 3.7512 12.3777 3.83813C12.4143 3.92506 12.4239 4.0207 12.4052 4.11299C12.3866 4.20527 12.3405 4.29001 12.2727 4.35655C12.205 4.42308 12.1188 4.4684 12.0249 4.48676C11.931 4.50511 11.8336 4.4957 11.7452 4.4597C11.6567 4.42369 11.5811 4.36268 11.5279 4.28445C11.4747 4.20622 11.4463 4.11425 11.4463 4.02016C11.4463 3.89399 11.4973 3.77299 11.5881 3.68378C11.6789 3.59456 11.802 3.54443 11.9304 3.54443ZM11.9304 18.7732C12.0262 18.7732 12.1198 18.8011 12.1994 18.8534C12.279 18.9057 12.341 18.98 12.3777 19.0669C12.4143 19.1538 12.4239 19.2495 12.4052 19.3418C12.3866 19.434 12.3405 19.5188 12.2727 19.5854C12.205 19.6519 12.1188 19.6972 12.0249 19.7155C11.931 19.7339 11.8336 19.7245 11.7452 19.6885C11.6567 19.6525 11.5811 19.5915 11.5279 19.5133C11.4747 19.435 11.4463 19.3431 11.4463 19.249C11.4463 19.1228 11.4973 19.0018 11.5881 18.9126C11.6789 18.8233 11.802 18.7732 11.9304 18.7732ZM16.2079 18.4559C16.2877 18.4559 16.3656 18.4791 16.4319 18.5226C16.4982 18.5662 16.5499 18.6281 16.5804 18.7005C16.6109 18.7729 16.6189 18.8525 16.6034 18.9294C16.5878 19.0062 16.5494 19.0768 16.493 19.1322C16.4366 19.1876 16.3648 19.2254 16.2866 19.2407C16.2084 19.256 16.1273 19.2481 16.0536 19.2181C15.9799 19.1881 15.917 19.1374 15.8727 19.0722C15.8284 19.0071 15.8047 18.9304 15.8047 18.8521C15.8044 18.7998 15.8145 18.748 15.8346 18.6996C15.8547 18.6513 15.8844 18.6072 15.9218 18.5702C15.9593 18.5331 16.0039 18.5037 16.053 18.4836C16.1021 18.4635 16.1547 18.4532 16.2079 18.4532V18.4559ZM7.65225 18.4559C7.732 18.4559 7.80995 18.4791 7.87626 18.5226C7.94256 18.5662 7.99424 18.6281 8.02476 18.7005C8.05528 18.7729 8.06326 18.8525 8.04771 18.9294C8.03215 19.0062 7.99375 19.0768 7.93736 19.1322C7.88097 19.1876 7.80913 19.2254 7.73091 19.2407C7.6527 19.256 7.57163 19.2481 7.49795 19.2181C7.42428 19.1881 7.36131 19.1374 7.317 19.0722C7.2727 19.0071 7.24905 18.9304 7.24905 18.8521C7.24869 18.7998 7.25886 18.748 7.27896 18.6996C7.29906 18.6513 7.32869 18.6072 7.36617 18.5702C7.40364 18.5331 7.44822 18.5037 7.49731 18.4836C7.54641 18.4635 7.59907 18.4532 7.65225 18.4532V18.4559ZM7.65225 4.02353C7.73197 4.02353 7.80989 4.04674 7.87618 4.09024C7.94248 4.13375 7.99416 4.1956 8.0247 4.26796C8.05524 4.34032 8.06325 4.41995 8.04775 4.49679C8.03225 4.57363 7.99392 4.64424 7.9376 4.69968C7.88128 4.75512 7.8095 4.79289 7.73133 4.80825C7.65316 4.82362 7.57212 4.81589 7.49843 4.786C7.42475 4.75612 7.36172 4.70544 7.31734 4.64037C7.27295 4.5753 7.24919 4.49875 7.24905 4.42042C7.24905 4.31527 7.29151 4.21442 7.36711 4.14001C7.4427 4.0656 7.54525 4.02371 7.65225 4.02353ZM16.2079 4.02353C16.2876 4.02353 16.3656 4.04674 16.4318 4.09024C16.4981 4.13375 16.5498 4.1956 16.5803 4.26796C16.6109 4.34032 16.6189 4.41995 16.6034 4.49679C16.5879 4.57363 16.5496 4.64424 16.4933 4.69968C16.4369 4.75512 16.3652 4.79289 16.287 4.80825C16.2088 4.82362 16.1278 4.81589 16.0541 4.786C15.9804 4.75612 15.9174 4.70544 15.873 4.64037C15.8286 4.5753 15.8048 4.49875 15.8047 4.42042C15.8047 4.31527 15.8472 4.21442 15.9228 4.14001C15.9984 4.0656 16.1009 4.02371 16.2079 4.02353ZM20.4052 11.2397C20.4849 11.2397 20.5629 11.2629 20.6292 11.3065C20.6955 11.35 20.7472 11.4119 20.7777 11.4843C20.8082 11.5567 20.8162 11.6364 20.8006 11.7132C20.7851 11.7901 20.7467 11.8607 20.6903 11.9161C20.6339 11.9715 20.562 12.0092 20.4838 12.0245C20.4056 12.0398 20.3245 12.032 20.2509 12.002C20.1772 11.972 20.1142 11.9212 20.0699 11.856C20.0256 11.7909 20.002 11.7143 20.002 11.6359C20.002 11.5308 20.0444 11.43 20.1201 11.3557C20.1957 11.2814 20.2982 11.2397 20.4052 11.2397ZM3.45499 11.2397C3.53497 11.2397 3.61314 11.2631 3.67956 11.3068C3.74598 11.3506 3.79765 11.4128 3.82799 11.4855C3.85834 11.5583 3.86601 11.6382 3.85 11.7152C3.83399 11.7922 3.79504 11.8628 3.73811 11.918C3.68117 11.9732 3.60881 12.0105 3.53023 12.0251C3.45166 12.0398 3.37043 12.0312 3.29685 12.0004C3.22328 11.9696 3.1607 11.9179 3.11706 11.8521C3.07343 11.7862 3.05071 11.7091 3.0518 11.6305C3.0518 11.5254 3.09428 11.4247 3.16989 11.3504C3.24551 11.2761 3.34806 11.2343 3.45499 11.2343V11.2397Z" fill="#EBEBEB"/>
</svg>
