<svg width="38" height="31" viewBox="0 0 38 31" fill="none" xmlns="http://www.w3.org/2000/svg">
<path fill-rule="evenodd" clip-rule="evenodd" d="M3.15183 0.0494659C3.32977 0.0484787 3.50673 0.0196013 3.68467 0.0181204C13.8024 0.0196013 23.9199 0.0181204 34.0377 0.018614C34.219 0.0215758 34.4031 0.00479236 34.5838 0.0371252C35.5006 0.0536618 36.3885 0.486576 37.007 1.15865C37.6356 1.83123 37.9949 2.7474 37.9888 3.67C37.9868 4.21818 37.9883 4.76611 37.9878 5.31478C31.9031 5.31428 25.8179 5.31527 19.7333 5.31428C19.403 5.27677 19.0707 5.29676 18.7402 5.28343C18.5074 5.23826 18.2694 5.28294 18.0356 5.25258C17.8438 5.2279 17.6502 5.24345 17.4577 5.23209C16.6891 5.18322 15.917 5.14521 15.1489 5.07364C14.2777 5.01292 13.4298 4.78733 12.5662 4.66787C11.5884 4.50967 10.5943 4.52398 9.61232 4.6274C9.16267 4.68244 8.67241 4.76117 8.33204 5.08746C8.16911 5.2274 8.1162 5.47743 8.20603 5.67167C8.37609 5.94588 8.68792 6.08879 8.99138 6.15864C9.19393 6.21985 9.40829 6.16234 9.61331 6.20899C9.88822 6.22602 10.1656 6.19665 10.44 6.23367C11.3797 6.26551 12.3238 6.21837 13.2523 6.06608C13.2989 6.06238 13.3461 6.05893 13.3934 6.05572C13.7035 6.00191 14.0158 5.96069 14.3269 5.9138C15.5355 5.75386 16.7573 5.72202 17.9711 5.65464C18.4734 5.64699 18.9755 5.62428 19.4768 5.59713C25.6471 5.59812 31.8175 5.59713 37.9878 5.59763C37.9878 6.11174 37.9878 6.62611 37.9878 7.14022C31.4862 7.13776 24.9848 7.14541 18.4833 7.13677C18.3951 7.11924 18.3058 7.11036 18.2177 7.09555C18.0147 7.07951 17.8131 7.05186 17.611 7.03014C16.3497 6.87021 15.0906 6.66041 13.8179 6.62043C13.4163 6.56588 13.0082 6.63425 12.6068 6.57773C10.9497 6.57107 9.29287 6.57625 7.63578 6.57526C7.17628 6.62857 6.71236 6.57107 6.25286 6.62561C5.76064 6.62907 5.21771 6.59254 4.79415 6.89094C4.55985 7.03582 4.37723 7.3399 4.4902 7.61534C4.60661 7.89819 4.91105 8.02259 5.18498 8.09811C5.73356 8.23559 6.30356 8.1845 6.86298 8.19388C7.49476 8.24472 8.12998 8.20918 8.76323 8.22004C9.46367 8.23041 10.1656 8.19437 10.8645 8.2462C12.0038 8.24176 13.1441 8.2699 14.2799 8.17586C14.5019 8.16549 14.7244 8.15118 14.9454 8.12502C15.4423 8.08577 15.937 8.02826 16.4319 7.97125C16.5682 7.95619 16.7051 7.93941 16.8414 7.91917C17.1333 7.89054 17.4235 7.8508 17.7141 7.81551C17.7602 7.81082 17.8064 7.80662 17.8532 7.80194C18.611 7.67359 19.3801 7.7738 20.1413 7.70592C23.3209 7.70543 26.5009 7.70642 29.6809 7.70543C29.8173 7.70272 29.9527 7.67705 30.09 7.67976C32.7224 7.68124 35.3554 7.67976 37.9878 7.68026C37.9878 8.18573 37.9878 8.6917 37.9878 9.19694C32.5014 9.19694 27.0153 9.19694 21.5289 9.19694C21.2269 9.20582 20.9254 9.18682 20.6259 9.15325C19.7062 9.09056 18.7884 8.99504 17.868 8.93284C17.1173 8.86546 16.3652 8.81388 15.6123 8.77957C14.4248 8.70454 13.2344 8.67147 12.0432 8.68381C11.3275 8.63197 10.6081 8.66752 9.89068 8.65715C8.69505 8.65666 7.49894 8.65863 6.30258 8.65616C6.22259 8.65567 6.14261 8.66085 6.06434 8.67714C5.74882 8.6922 5.43306 8.67517 5.11779 8.68553C4.61621 8.74551 4.08854 8.64283 3.60862 8.84127C3.3118 8.95012 3.02976 9.19397 3.02163 9.53334C3.04772 9.7076 3.14838 9.87222 3.3027 9.96157C3.64972 10.1798 4.07377 10.2269 4.47518 10.2316C4.94452 10.2763 5.41928 10.24 5.89034 10.2501C6.74362 10.3004 7.59985 10.2671 8.4546 10.2768C9.2749 10.2768 10.0954 10.2763 10.9157 10.2768C11.8042 10.3473 12.6949 10.2666 13.5841 10.2511C15.5427 10.1546 17.5008 10.0151 19.4574 9.87222C20.1133 9.83372 20.7684 9.79546 21.4238 9.76214C24.2957 9.76313 27.1674 9.76214 30.0393 9.76264C30.3989 9.75844 30.7587 9.77769 31.1165 9.73795C33.4069 9.73549 35.6975 9.73795 37.9878 9.73697C37.9878 10.2254 37.9878 10.7139 37.9878 11.2023C32.5696 11.203 27.1516 11.2018 21.7334 11.203C21.2786 11.2184 20.8312 11.1228 20.3788 11.092C20.2255 11.0698 20.0717 11.055 19.9179 11.0404C19.7645 11.0189 19.6107 11.0034 19.4564 10.9891C19.3031 10.9668 19.1487 10.952 18.9949 10.9382C18.6545 10.895 18.3125 10.862 17.9701 10.8348C17.1183 10.7514 16.2626 10.7015 15.4073 10.683C15.0793 10.6297 14.7438 10.6919 14.4147 10.6455C13.8804 10.6156 13.3437 10.6655 12.8103 10.6117C10.6236 10.6107 8.43713 10.6117 6.2504 10.6107C6.18789 10.6122 6.12587 10.6188 6.06434 10.6312C5.5443 10.6517 5.02279 10.6127 4.50447 10.663C4.14564 10.645 3.78926 10.6924 3.43092 10.6892C3.07898 10.7124 2.70685 10.8101 2.46123 11.0801C2.27665 11.2544 2.22989 11.5794 2.40167 11.7769C2.64065 12.0617 3.03025 12.1397 3.38096 12.1809C3.73856 12.2328 4.10084 12.1785 4.45894 12.2256C5.0378 12.2483 5.61912 12.2019 6.197 12.256C6.81228 12.2587 7.42707 12.254 8.04236 12.2574C8.38323 12.2957 8.7268 12.2792 9.06939 12.2821C9.71913 12.2816 10.3691 12.2829 11.0194 12.2811C11.736 12.331 12.4572 12.3014 13.1758 12.3053C13.559 12.254 13.9466 12.308 14.3306 12.2663C15.9037 12.2133 17.4766 12.1106 19.0473 11.981C19.5401 11.9516 20.0318 11.9008 20.5245 11.8625C20.6466 11.8458 20.7706 11.8448 20.8932 11.8277C21.6495 11.7352 22.4112 11.7762 23.1717 11.768C25.6498 11.7685 28.1277 11.767 30.6058 11.769C31.4412 11.7162 32.2799 11.7537 33.1172 11.7423C34.7406 11.7423 36.3644 11.7423 37.9878 11.7423C37.9878 12.2051 37.9878 12.6679 37.9878 13.1307C32.8265 13.1312 27.6653 13.1297 22.5035 13.1317C22.22 13.1393 21.9426 13.0719 21.6618 13.0453C21.5247 13.0258 21.3884 13.0087 21.2515 12.9944C20.9449 12.9507 20.6363 12.9261 20.3286 12.8915C20.1583 12.8668 19.987 12.851 19.8165 12.8402C19.2046 12.779 18.592 12.7387 17.9787 12.7121C17.6932 12.6721 17.4033 12.7163 17.1183 12.6751C16.7799 12.6514 16.4395 12.6906 16.1021 12.6462C15.3473 12.6252 14.5895 12.6721 13.8364 12.6161C11.0676 12.6175 8.2993 12.6161 5.53101 12.6166C5.36636 12.6185 5.20024 12.603 5.03878 12.6366C4.63934 12.6556 4.23842 12.6205 3.84046 12.6669C3.36521 12.6647 2.85034 12.6385 2.43195 12.9048C2.19961 13.0278 2.03004 13.2891 2.07262 13.5579C2.11003 13.7828 2.31775 13.9158 2.50381 14.0125C2.84935 14.1626 3.23132 14.1895 3.6032 14.1905C4.08706 14.247 4.57831 14.174 5.0629 14.2327C5.52683 14.2423 5.99149 14.2322 6.45542 14.2362C7.23831 14.3035 8.02759 14.2209 8.81097 14.287C9.73489 14.2998 10.6605 14.2599 11.5834 14.3144C12.5074 14.3097 13.4323 14.3191 14.3567 14.3097C14.7096 14.2594 15.0674 14.3122 15.4211 14.2727C16.8697 14.228 18.3196 14.1592 19.765 14.0372C20.0532 14.0311 20.339 13.9893 20.6264 13.9713C20.8137 13.9476 21.0022 13.9333 21.191 13.9205C21.3443 13.8978 21.4986 13.8825 21.653 13.8687C21.9345 13.8371 22.2156 13.7924 22.4981 13.7739C25.3026 13.7724 28.1068 13.7739 30.9115 13.7729C31.4047 13.7267 31.9011 13.7554 32.3958 13.7477C34.2601 13.7477 36.124 13.7477 37.9878 13.7477C37.9873 14.2362 37.9883 14.7251 37.9873 15.2138C32.5354 15.2126 27.0835 15.2138 21.6311 15.2131C21.4834 15.2106 21.3372 15.1891 21.191 15.1694C20.9715 15.1479 20.7522 15.1242 20.5326 15.1027C20.3793 15.081 20.2255 15.0657 20.0717 15.0511C19.9183 15.0297 19.764 15.0141 19.6102 14.9998C19.2861 14.9608 18.9617 14.9268 18.6366 14.8969C18.4493 14.8712 18.2618 14.8552 18.0735 14.846C17.5963 14.7972 17.1173 14.7634 16.6379 14.7436C16.2461 14.7118 15.8518 14.6999 15.4585 14.6933C15.13 14.6404 14.7945 14.7026 14.4654 14.6562C14.0281 14.6321 13.5893 14.6609 13.1512 14.6419C13.0232 14.6145 12.8918 14.6207 12.7621 14.6214C10.5559 14.6244 8.34951 14.6182 6.1431 14.6244C5.61912 14.6836 5.08998 14.6131 4.566 14.6686C4.31373 14.6898 4.05777 14.6476 3.80821 14.6938C3.42772 14.6903 3.02483 14.698 2.69036 14.9045C2.48831 15.0331 2.27615 15.2343 2.29929 15.4964C2.28378 15.6724 2.40783 15.8178 2.53876 15.9177C2.81761 16.1162 3.16635 16.1808 3.50156 16.1988C3.83135 16.2425 4.16606 16.1887 4.49635 16.2373C4.96077 16.2477 5.42543 16.2386 5.88985 16.241C6.58881 16.2936 7.29171 16.2571 7.99265 16.2662C9.20426 16.3361 10.4215 16.2487 11.6332 16.3198C12.1303 16.3156 12.6277 16.3232 13.1251 16.3161C13.525 16.2638 13.9301 16.3198 14.3306 16.2771C15.7155 16.2307 17.1003 16.1495 18.4833 16.0436C18.9277 16.0137 19.3722 15.9804 19.8165 15.9407C20.0215 15.9264 20.2265 15.914 20.4312 15.8893C20.8649 15.86 21.2971 15.8128 21.731 15.7793C24.5869 15.7783 27.4428 15.7783 30.2987 15.7793C30.9972 15.7284 31.6986 15.763 32.3985 15.7531C34.2616 15.7531 36.1245 15.7531 37.9878 15.7531C37.9878 16.2159 37.9878 16.6786 37.9878 17.1414C32.4158 17.1419 26.844 17.1409 21.272 17.1419C21.0935 17.1399 20.9173 17.1135 20.7394 17.1081C20.6163 17.0901 20.492 17.0896 20.3697 17.0721C17.9817 16.8966 15.5924 16.7167 13.2004 16.6436C12.8084 16.6009 12.4124 16.6498 12.0203 16.6169C11.8406 16.5932 11.6593 16.6021 11.4793 16.6014C9.87296 16.6014 8.26632 16.6014 6.66043 16.6014C6.14728 16.5908 5.6366 16.6458 5.12296 16.6278C4.64402 16.6868 4.1481 16.5928 3.68368 16.7552C3.40631 16.8556 3.10113 17.0385 3.04206 17.3527C2.96724 17.6099 3.17447 17.8439 3.38662 17.9564C3.70042 18.1077 4.05285 18.1714 4.39938 18.1704C4.98144 18.2166 5.56596 18.1884 6.14925 18.1946C7.06923 18.2479 7.99215 18.2099 8.9136 18.2212C9.80208 18.2321 10.6928 18.1951 11.5798 18.2479C12.4284 18.2402 13.2799 18.2701 14.1256 18.2008C14.4674 18.1914 14.8105 18.179 15.1509 18.1509C15.4073 18.1373 15.6643 18.1277 15.9195 18.0993C16.3989 18.0773 16.8774 18.0356 17.3558 17.9976C18.4946 17.9179 19.6319 17.8103 20.7716 17.7419C21.4162 17.6896 22.0627 17.7106 22.7088 17.7071C25.0328 17.7071 27.3571 17.7071 29.6814 17.7071C29.8456 17.7049 30.0117 17.72 30.1742 17.6869C32.7783 17.6731 35.3832 17.6854 37.9873 17.6807C37.9883 18.1694 37.9873 18.6584 37.9878 19.1468C31.5263 19.1468 25.0643 19.1468 18.6026 19.1468C18.0976 19.1638 17.5987 19.0619 17.0984 19.0106C16.8906 18.9817 16.6824 18.9565 16.4759 18.9232C16.3071 18.9005 16.139 18.8728 15.9692 18.8563C15.5274 18.7926 15.0827 18.7376 14.6377 18.7015C14.1649 18.6584 13.6907 18.626 13.2159 18.63C12.9272 18.5944 12.6361 18.609 12.3457 18.6068C10.8429 18.6068 9.34061 18.6068 7.83784 18.6068C7.65005 18.6075 7.46252 18.5986 7.27571 18.6223C6.94149 18.6574 6.60259 18.6018 6.26985 18.6527C5.86327 18.668 5.44167 18.6203 5.05527 18.7776C4.78455 18.8738 4.52293 19.0836 4.46042 19.3771C4.41685 19.5879 4.55985 19.7843 4.72081 19.9048C5.06856 20.1222 5.4904 20.174 5.89255 20.1782C6.59078 20.239 7.29417 20.1612 7.99215 20.2261C9.53086 20.2271 11.0696 20.2261 12.6083 20.2266C12.9425 20.2148 13.2804 20.2518 13.6127 20.2066C13.9036 20.2024 14.1947 20.1926 14.4834 20.1568C14.9975 20.1254 15.51 20.0647 16.0216 20.003C16.158 19.9884 16.2948 19.9712 16.4307 19.9514C16.5677 19.9376 16.7046 19.9196 16.8409 19.9001C17.1326 19.8717 17.423 19.8307 17.7137 19.7972C17.868 19.7828 18.0223 19.7685 18.1756 19.7429C18.8832 19.7202 19.5927 19.7675 20.2988 19.712C23.3403 19.713 26.3825 19.7125 29.424 19.7125C29.7639 19.7088 30.1055 19.7273 30.4444 19.6878C32.9584 19.6846 35.4727 19.6883 37.9868 19.6856C37.9888 20.2086 37.9873 20.7321 37.9878 21.2551C32.5529 21.2551 27.1172 21.2551 21.6822 21.2551C20.7182 21.2509 19.7537 21.2719 18.7914 21.2242C18.3996 21.1917 18.0053 21.1825 17.612 21.1722C16.585 21.1127 15.5535 21.0633 14.5299 20.9382C13.9651 20.8508 13.4015 20.7521 12.8354 20.6714C12.6499 20.6457 12.4648 20.6215 12.2787 20.604C12.0124 20.567 11.7444 20.5583 11.4761 20.5578C11.0157 20.4914 10.5552 20.585 10.0937 20.5603C9.74473 20.5944 9.39402 20.5764 9.04577 20.6158C8.72114 20.7003 8.36182 20.8412 8.20332 21.1598C8.07017 21.4052 8.17157 21.7208 8.38224 21.8874C8.72237 22.1713 9.17202 22.2767 9.60321 22.3174C9.7723 22.344 9.9431 22.3611 10.1149 22.3682C11.0245 22.4531 11.947 22.4033 12.8431 22.2243C13.4128 22.1162 13.9818 22.0062 14.5501 21.8916C15.2781 21.8043 16.0103 21.7554 16.7405 21.6981C17.8244 21.6364 18.9083 21.5979 19.9927 21.5631C25.9907 21.5646 31.9893 21.5631 37.9878 21.5636C37.9723 22.2737 38.0215 22.9863 37.9565 23.6939C37.7995 24.9001 37.0043 26.0093 35.8943 26.5091C35.5163 26.705 35.0935 26.782 34.6756 26.8294C24.312 26.8413 13.9486 26.8299 3.58524 26.8351C2.84074 26.8336 2.09772 26.5935 1.50188 26.144C0.613409 25.4986 0.0662974 24.4286 0.0251964 23.3318C0.011414 16.7954 0.0242119 10.2577 0.0190435 3.72084C0.0227353 2.84045 0.312411 1.95142 0.896932 1.28552C1.45832 0.607762 2.27812 0.156337 3.15183 0.0494659Z" fill="#2C2E35"/>
</svg>
