<svg width="24" height="24" viewBox="0 0 24 24" fill="none" xmlns="http://www.w3.org/2000/svg">
<path opacity="0.4" d="M21.2496 9.15004C20.7719 8.39837 20.2263 7.69208 19.6196 7.04004L15.8496 10.81C15.975 11.1943 16.0391 11.5959 16.0396 12C16.0403 12.5308 15.9362 13.0564 15.7334 13.5469C15.5306 14.0373 15.2331 14.4829 14.8578 14.8582C14.4825 15.2335 14.0369 15.5311 13.5464 15.7339C13.056 15.9366 12.5303 16.0407 11.9996 16.04C11.5954 16.0395 11.1939 15.9754 10.8096 15.85L7.34961 19.31C8.7658 20.1209 10.3677 20.5516 11.9996 20.56C13.8019 20.5468 15.5647 20.0308 17.0896 19.07C18.7759 17.9898 20.1977 16.5441 21.2496 14.84C21.7412 13.9724 21.9996 12.9922 21.9996 11.995C21.9996 10.9978 21.7412 10.0176 21.2496 9.15004Z" fill="#09736A"/>
<path d="M14.0196 9.98014L9.97965 14.0201C9.44667 13.4823 9.1452 12.7573 9.13965 12.0001C9.14123 11.2421 9.44306 10.5156 9.97907 9.97956C10.5151 9.44355 11.2416 9.14172 11.9996 9.14014C12.7568 9.14569 13.4818 9.44716 14.0196 9.98014Z" fill="#09736A"/>
<path opacity="0.4" d="M18.25 5.75018L14.86 9.14018C14.486 8.7628 14.0403 8.46401 13.5492 8.26137C13.058 8.05873 12.5313 7.95632 12 7.96018C11.2011 7.96126 10.4204 8.1989 9.75632 8.64313C9.09229 9.08736 8.57467 9.71829 8.26876 10.4563C7.96285 11.1944 7.88234 12.0065 8.03739 12.7902C8.19244 13.5739 8.57611 14.2942 9.14 14.8602L5.76 18.2502H5.75C4.57452 17.2808 3.56172 16.1296 2.75 14.8402C2.2584 13.9726 2 12.9924 2 11.9952C2 10.998 2.2584 10.0178 2.75 9.15018C3.80195 7.44609 5.2237 6.00041 6.91 4.92018C8.43691 3.96388 10.1984 3.44823 12 3.43018C14.2883 3.46065 16.496 4.28014 18.25 5.75018Z" fill="#09736A"/>
<path d="M14.8601 12.0001C14.8585 12.7581 14.5567 13.4846 14.0207 14.0207C13.4846 14.5567 12.7581 14.8585 12.0001 14.8601C11.9427 14.8632 11.8852 14.8565 11.8301 14.8401L14.8401 11.8301C14.8565 11.8852 14.8632 11.9427 14.8601 12.0001Z" fill="#09736A"/>
<path d="M21.7697 2.23019C21.6249 2.0862 21.4289 2.00537 21.2247 2.00537C21.0205 2.00537 20.8245 2.0862 20.6797 2.23019L2.2297 20.6902C2.08571 20.835 2.00488 21.031 2.00488 21.2352C2.00488 21.4394 2.08571 21.6354 2.2297 21.7802C2.37512 21.9196 2.56825 21.9983 2.7697 22.0002C2.87048 21.9997 2.97014 21.9791 3.06287 21.9396C3.15559 21.9001 3.2395 21.8425 3.3097 21.7702L21.7697 3.30519C21.8424 3.23581 21.9003 3.1524 21.9398 3.06001C21.9793 2.96763 21.9997 2.86818 21.9997 2.76769C21.9997 2.6672 21.9793 2.56775 21.9398 2.47536C21.9003 2.38298 21.8424 2.29957 21.7697 2.23019Z" fill="#09736A"/>
</svg>
