<svg width="24" height="24" viewBox="0 0 24 24" fill="none" xmlns="http://www.w3.org/2000/svg">
<path opacity="0.4" d="M21 7V17C21 20 19.5 22 16 22H8C4.5 22 3 20 3 17V7C3 4 4.5 2 8 2H16C19.5 2 21 4 21 7Z" fill="#15AB89"/>
<path d="M18.5 9.25H16.5C16.1388 9.25026 15.7811 9.17931 15.4473 9.0412C15.1135 8.9031 14.8103 8.70054 14.5549 8.44513C14.2995 8.18972 14.0969 7.88645 13.9588 7.55269C13.8207 7.21893 13.7497 6.86121 13.75 6.5V4.5C13.7513 4.30149 13.8307 4.11149 13.9711 3.97112C14.1115 3.83075 14.3015 3.75131 14.5 3.75C14.6985 3.75131 14.8885 3.83075 15.0289 3.97112C15.1693 4.11149 15.2487 4.30149 15.25 4.5V6.5C15.25 6.83152 15.3817 7.14946 15.6161 7.38388C15.8505 7.6183 16.1685 7.75 16.5 7.75H18.5C18.6989 7.75 18.8897 7.82902 19.0303 7.96967C19.171 8.11032 19.25 8.30109 19.25 8.5C19.25 8.69891 19.171 8.88968 19.0303 9.03033C18.8897 9.17098 18.6989 9.25 18.5 9.25Z" fill="#15AB89"/>
<path d="M12 13.75H8C7.80149 13.7487 7.61149 13.6693 7.47112 13.5289C7.33075 13.3885 7.25131 13.1985 7.25 13C7.25131 12.8015 7.33075 12.6115 7.47112 12.4711C7.61149 12.3307 7.80149 12.2513 8 12.25H12C12.1985 12.2513 12.3885 12.3307 12.5289 12.4711C12.6693 12.6115 12.7487 12.8015 12.75 13C12.7487 13.1985 12.6693 13.3885 12.5289 13.5289C12.3885 13.6693 12.1985 13.7487 12 13.75Z" fill="#15AB89"/>
<path d="M16 17.75H8C7.80149 17.7487 7.61149 17.6693 7.47112 17.5289C7.33075 17.3885 7.25131 17.1985 7.25 17C7.25131 16.8015 7.33075 16.6115 7.47112 16.4711C7.61149 16.3307 7.80149 16.2513 8 16.25H16C16.1985 16.2513 16.3885 16.3307 16.5289 16.4711C16.6693 16.6115 16.7487 16.8015 16.75 17C16.7487 17.1985 16.6693 17.3885 16.5289 17.5289C16.3885 17.6693 16.1985 17.7487 16 17.75Z" fill="#15AB89"/>
</svg>
