<svg width="24" height="24" viewBox="0 0 24 24" fill="none" xmlns="http://www.w3.org/2000/svg">
<path opacity="0.4" d="M15.4996 13.1499H13.3296C12.9054 13.15 12.4854 13.0666 12.0934 12.9043C11.7015 12.742 11.3454 12.5041 11.0454 12.2041C10.7454 11.9042 10.5075 11.5481 10.3452 11.1561C10.183 10.7642 10.0995 10.3441 10.0996 9.91989V7.74989C10.0998 7.65136 10.0805 7.55378 10.0428 7.46272C10.0052 7.37167 9.94994 7.28894 9.88027 7.21927C9.8106 7.1496 9.72787 7.09436 9.63681 7.05671C9.54576 7.01907 9.44817 6.99976 9.34965 6.99989H6.17965C5.62236 6.96797 5.06463 7.05422 4.54302 7.25299C4.02142 7.45176 3.54773 7.75856 3.15302 8.15327C2.75832 8.54797 2.45152 9.02166 2.25275 9.54327C2.05397 10.0649 1.96772 10.6226 1.99965 11.1799V17.8199C1.96772 18.3772 2.05397 18.9349 2.25275 19.4565C2.45152 19.9781 2.75832 20.4518 3.15302 20.8465C3.54773 21.2412 4.02142 21.548 4.54302 21.7468C5.06463 21.9456 5.62236 22.0318 6.17965 21.9999H12.0696C12.6269 22.0318 13.1847 21.9456 13.7063 21.7468C14.2279 21.548 14.7016 21.2412 15.0963 20.8465C15.491 20.4518 15.7978 19.9781 15.9965 19.4565C16.1953 18.9349 16.2816 18.3772 16.2496 17.8199V13.8999C16.2498 13.8014 16.2305 13.7038 16.1928 13.6127C16.1552 13.5217 16.0999 13.4389 16.0303 13.3693C15.9606 13.2996 15.8779 13.2444 15.7868 13.2067C15.6958 13.1691 15.5982 13.1498 15.4996 13.1499Z" fill="#15AB89"/>
<path d="M17.8204 1.99989H11.9304C11.3882 1.96898 10.8455 2.0503 10.3362 2.23877C9.82695 2.42725 9.36205 2.71881 8.97062 3.09522C8.5792 3.47162 8.26968 3.92477 8.06143 4.4263C7.85319 4.92782 7.75071 5.46693 7.76039 6.00989C7.82039 6.00989 7.87039 5.99989 7.93039 5.99989H13.8204C14.3777 5.96797 14.9354 6.05422 15.457 6.25299C15.9786 6.45176 16.4523 6.75856 16.847 7.15327C17.2417 7.54797 17.5485 8.02166 17.7473 8.54327C17.9461 9.06487 18.0323 9.62261 18.0004 10.1799V16.8299C18.0004 16.8899 17.9904 16.9399 17.9904 16.9899C18.533 17.0016 19.0722 16.9008 19.574 16.6939C20.0758 16.487 20.5293 16.1784 20.906 15.7876C21.2827 15.3969 21.5744 14.9323 21.7627 14.4233C21.9511 13.9143 22.032 13.3717 22.0004 12.8299V6.17989C22.0323 5.62261 21.9461 5.06487 21.7473 4.54327C21.5485 4.02166 21.2417 3.54797 20.847 3.15327C20.4523 2.75856 19.9786 2.45176 19.457 2.25299C18.9354 2.05422 18.3777 1.96797 17.8204 1.99989Z" fill="#15AB89"/>
<path d="M11.9796 7.15011C11.9125 7.08083 11.8264 7.03297 11.7321 7.01255C11.6378 6.99212 11.5395 7.00005 11.4497 7.03533C11.3599 7.07061 11.2826 7.13166 11.2274 7.21081C11.1722 7.28995 11.1417 7.38365 11.1396 7.48011V10.1021C11.1504 10.6413 11.3742 11.1544 11.7621 11.5291C12.1499 11.9039 12.6704 12.1099 13.2096 12.1021C13.9196 12.1121 14.9096 12.1121 15.7596 12.1121C15.8536 12.1152 15.9464 12.0901 16.0259 12.0399C16.1055 11.9898 16.1681 11.9169 16.2058 11.8308C16.2435 11.7446 16.2545 11.6491 16.2374 11.5567C16.2202 11.4642 16.1757 11.379 16.1096 11.3121C15.0196 10.2201 13.0796 8.27011 11.9796 7.15011Z" fill="#15AB89"/>
</svg>
