<svg width="16" height="16" viewBox="0 0 16 16" fill="none" xmlns="http://www.w3.org/2000/svg">
<path opacity="0.4" d="M10.3205 8.82004L7.79387 5.45337H4.05387C3.91175 5.45338 3.77283 5.49557 3.65471 5.57459C3.53659 5.65361 3.44457 5.76591 3.39032 5.89727C3.33606 6.02862 3.32201 6.17312 3.34994 6.31246C3.37787 6.45181 3.44652 6.57974 3.5472 6.68004L7.0012 10.1334C7.26753 10.399 7.62835 10.5482 8.00453 10.5482C8.38072 10.5482 8.74154 10.399 9.00787 10.1334L10.3205 8.82004Z" fill="#15AB89"/>
<path d="M11.9463 5.45337H7.79297L10.3196 8.82004L12.4596 6.68004C12.5591 6.57872 12.6265 6.4503 12.6533 6.31088C12.6801 6.17145 12.6651 6.02721 12.6103 5.89624C12.5555 5.76526 12.4633 5.65338 12.3451 5.5746C12.227 5.49582 12.0883 5.45365 11.9463 5.45337Z" fill="#15AB89"/>
</svg>
