<svg width="9" height="6" viewBox="0 0 9 6" fill="none" xmlns="http://www.w3.org/2000/svg">
<g clip-path="url(#clip0_421_259)">
<path d="M4.27797 5.02802C4.17945 5.02837 4.08184 5.0091 3.99084 4.97132C3.89984 4.93355 3.81728 4.87804 3.74797 4.80802L0.21797 1.27802C0.0880679 1.13549 0.0180564 0.948406 0.0224749 0.755616C0.0268935 0.562825 0.105403 0.379144 0.241698 0.242721C0.377993 0.106297 0.561599 0.0276145 0.754385 0.0230139C0.947172 0.0184133 1.13432 0.0882483 1.27697 0.218015L4.27697 3.21802L7.27697 0.218015C7.41914 0.0855355 7.60719 0.0134123 7.80149 0.0168405C7.99579 0.0202687 8.18118 0.0989807 8.31859 0.236394C8.456 0.373807 8.53472 0.559192 8.53814 0.753493C8.54157 0.947794 8.46945 1.13584 8.33697 1.27802L4.80697 4.80802C4.73778 4.87792 4.65538 4.93336 4.56456 4.97113C4.47374 5.0089 4.37633 5.02824 4.27797 5.02802Z" fill="#15AB89"/>
</g>
<defs>
<clipPath id="clip0_421_259">
<rect width="8.555" height="5.027" fill="white"/>
</clipPath>
</defs>
</svg>
