<svg width="24" height="24" viewBox="0 0 24 24" fill="none" xmlns="http://www.w3.org/2000/svg">
<path opacity="0.4" d="M19.48 12.95H21.5V11.51C21.4979 10.5134 21.1011 9.55829 20.3964 8.85361C19.6917 8.14893 18.7366 7.75211 17.74 7.75H6.26C5.26344 7.75211 4.30829 8.14893 3.60361 8.85361C2.89893 9.55829 2.50211 10.5134 2.5 11.51V15.16C3.3205 14.413 4.39038 13.9993 5.5 14C6.69347 14 7.83807 14.4741 8.68198 15.318C9.52589 16.1619 10 17.3065 10 18.5C10.0016 19.0113 9.91358 19.519 9.74 20C9.46392 20.7816 8.97988 21.4731 8.34 22H17.74C18.7366 21.9979 19.6917 21.6011 20.3964 20.8964C21.1011 20.1917 21.4979 19.2366 21.5 18.24V17.05H19.6C19.0724 17.0609 18.5594 16.8758 18.1604 16.5303C17.7614 16.1849 17.5047 15.7038 17.44 15.18C17.4166 14.8972 17.4518 14.6126 17.5436 14.3441C17.6353 14.0756 17.7815 13.8289 17.973 13.6195C18.1646 13.4101 18.3973 13.2426 18.6566 13.1274C18.9159 13.0122 19.1962 12.9518 19.48 12.95Z" fill="#15AB89"/>
<path d="M5.50003 14C4.39042 13.9993 3.32053 14.413 2.50003 15.16C2.31841 15.3183 2.1511 15.4923 2.00003 15.68C1.34959 16.4755 0.996064 17.4724 1.00003 18.5C1.00182 19.3501 1.24388 20.1824 1.6983 20.9008C2.15272 21.6193 2.80098 22.1946 3.5683 22.5605C4.33562 22.9264 5.19075 23.0679 6.03504 22.9687C6.87933 22.8696 7.67838 22.5337 8.34003 22C8.97991 21.4731 9.46395 20.7816 9.74003 20C9.91361 19.519 10.0016 19.0113 10 18.5C10 17.3065 9.52593 16.1619 8.68201 15.318C7.8381 14.4741 6.69351 14 5.50003 14ZM8.20003 17.63C8.20003 17.7759 8.14209 17.9158 8.03894 18.0189C7.9358 18.1221 7.7959 18.18 7.65003 18.18C7.50416 18.18 7.36427 18.1221 7.26112 18.0189C7.15798 17.9158 7.10003 17.7759 7.10003 17.63V17.52C7.10083 17.4917 7.09602 17.4636 7.08587 17.4372C7.07572 17.4108 7.06044 17.3867 7.04092 17.3662C7.02139 17.3457 6.998 17.3294 6.9721 17.318C6.9462 17.3066 6.91831 17.3005 6.89003 17.3H4.63003C4.69443 17.4147 4.71508 17.5488 4.68818 17.6776C4.66127 17.8063 4.58863 17.921 4.48369 18.0003C4.37876 18.0796 4.24864 18.1182 4.11743 18.109C3.98622 18.0997 3.86281 18.0432 3.77003 17.95L2.96003 17.14C2.90885 17.0883 2.86811 17.0271 2.84003 16.96C2.79006 16.8245 2.79006 16.6755 2.84003 16.54C2.87056 16.4742 2.91104 16.4135 2.96003 16.36L3.77003 15.56C3.86161 15.4666 3.98391 15.4096 4.11429 15.3995C4.24467 15.3893 4.37431 15.4268 4.47922 15.5048C4.58413 15.5829 4.65721 15.6963 4.68494 15.8242C4.71267 15.952 4.69316 16.0855 4.63003 16.2H6.89003C7.23863 16.2019 7.57227 16.3418 7.81783 16.5893C8.06339 16.8367 8.20083 17.1714 8.20003 17.52V17.63ZM6.85003 21.6C6.7774 21.6025 6.70507 21.5895 6.63784 21.5619C6.5706 21.5343 6.51 21.4928 6.46003 21.44C6.37685 21.358 6.32297 21.2509 6.30671 21.1352C6.29044 21.0196 6.3127 20.9018 6.37003 20.8H4.11003C3.76144 20.7981 3.42779 20.6582 3.18224 20.4107C2.93668 20.1633 2.79923 19.8286 2.80003 19.48V19.37C2.80003 19.2241 2.85798 19.0842 2.96112 18.9811C3.06427 18.8779 3.20416 18.82 3.35003 18.82C3.4959 18.82 3.6358 18.8779 3.73894 18.9811C3.84209 19.0842 3.90003 19.2241 3.90003 19.37V19.48C3.89924 19.5083 3.90405 19.5364 3.9142 19.5628C3.92434 19.5892 3.93962 19.6133 3.95915 19.6338C3.97868 19.6543 4.00207 19.6706 4.02796 19.682C4.05386 19.6934 4.08176 19.6995 4.11003 19.7H6.37003C6.30564 19.5853 6.28498 19.4512 6.31189 19.3224C6.33879 19.1937 6.41144 19.079 6.51637 18.9997C6.62131 18.9204 6.75143 18.8818 6.88264 18.891C7.01385 18.9003 7.13726 18.9568 7.23003 19.05L8.04003 19.86C8.09121 19.9117 8.13196 19.9729 8.16003 20.04C8.21001 20.1755 8.21001 20.3245 8.16003 20.46C8.1295 20.5258 8.08903 20.5865 8.04003 20.64L7.23003 21.44C7.18143 21.4918 7.12249 21.5328 7.05703 21.5604C6.99157 21.5879 6.92105 21.6014 6.85003 21.6Z" fill="#15AB89"/>
<path d="M14.85 3.9489V7.7489H6.26001C5.26327 7.75102 4.30798 8.14798 3.60327 8.85287C2.89856 9.55777 2.50186 10.5132 2.50001 11.5099V7.8399C2.49872 7.26053 2.67416 6.69454 3.00292 6.21748C3.33169 5.74041 3.79813 5.37496 4.34001 5.1699L12.28 2.1699C12.5676 2.06152 12.8772 2.02453 13.1823 2.0621C13.4873 2.09967 13.7787 2.21069 14.0314 2.38562C14.2841 2.56055 14.4906 2.79418 14.6332 3.06646C14.7758 3.33875 14.8502 3.64155 14.85 3.9489Z" fill="#15AB89"/>
<path d="M22.5601 13.97V16.03C22.5584 16.2966 22.4531 16.552 22.2665 16.7423C22.0799 16.9327 21.8266 17.043 21.5601 17.05H19.6001C19.0725 17.0609 18.5596 16.8758 18.1606 16.5303C17.7616 16.1849 17.5049 15.7038 17.4401 15.18C17.4117 14.8807 17.4509 14.5789 17.5548 14.2968C17.6586 14.0147 17.8245 13.7595 18.0401 13.55C18.2275 13.3583 18.4516 13.2064 18.699 13.1033C18.9464 13.0002 19.2121 12.948 19.4801 12.95H21.5601C21.8266 12.957 22.0799 13.0673 22.2665 13.2577C22.4531 13.448 22.5584 13.7035 22.5601 13.97Z" fill="#15AB89"/>
<path d="M14 12.75H7C6.80149 12.7487 6.61149 12.6693 6.47112 12.5289C6.33075 12.3885 6.25131 12.1985 6.25 12C6.25131 11.8015 6.33075 11.6115 6.47112 11.4711C6.61149 11.3307 6.80149 11.2513 7 11.25H14C14.1985 11.2513 14.3885 11.3307 14.5289 11.4711C14.6693 11.6115 14.7487 11.8015 14.75 12C14.7487 12.1985 14.6693 12.3885 14.5289 12.5289C14.3885 12.6693 14.1985 12.7487 14 12.75Z" fill="#15AB89"/>
</svg>
