<svg width="182" height="182" viewBox="0 0 182 182" fill="none" xmlns="http://www.w3.org/2000/svg">
<path opacity="0.4" d="M166.834 91.0003C166.834 105.999 162.386 120.66 154.053 133.131C145.721 145.602 133.877 155.322 120.021 161.061C106.164 166.801 90.9162 168.303 76.206 165.377C61.4958 162.451 47.9836 155.228 37.3781 144.623C26.7726 134.017 19.5502 120.505 16.6241 105.795C13.6981 91.0844 15.1998 75.8369 20.9395 61.9802C26.6791 48.1234 36.3989 36.2799 48.8696 27.9472C61.3403 19.6145 76.0019 15.167 91.0004 15.167C111.113 15.167 130.401 23.1566 144.623 37.3781C158.844 51.5996 166.834 70.8881 166.834 91.0003Z" fill="#15AB89"/>
<path d="M119.438 81.3688V75.833C119.438 68.7805 119.438 47.3955 91.0005 47.3955C62.563 47.3955 62.563 68.7805 62.563 75.833V81.3688C53.3113 83.4163 50.2021 89.4072 50.2021 102.375V109.958C50.2021 126.641 55.3588 131.798 72.0422 131.798H109.959C126.642 131.798 131.799 126.641 131.799 109.958V102.375C131.799 89.4072 128.69 83.4163 119.438 81.3688ZM91.0005 114.508C89.3507 114.508 87.7379 114.019 86.3661 113.102C84.9943 112.186 83.9251 110.883 83.2938 109.359C82.6624 107.834 82.4972 106.157 82.8191 104.539C83.141 102.921 83.9354 101.435 85.102 100.268C86.2686 99.1013 87.755 98.3068 89.3731 97.985C90.9912 97.6631 92.6685 97.8283 94.1927 98.4597C95.7169 99.091 97.0197 100.16 97.9363 101.532C98.8529 102.904 99.3421 104.517 99.3421 106.166C99.3421 108.379 98.4633 110.5 96.8989 112.065C95.3346 113.629 93.2128 114.508 91.0005 114.508ZM108.063 80.5347H73.938V75.833C73.938 64.7613 76.668 58.7705 91.0005 58.7705C105.333 58.7705 108.063 64.7613 108.063 75.833V80.5347Z" fill="#15AB89"/>
</svg>
