<svg width="20" height="21" viewBox="0 0 20 21" fill="none" xmlns="http://www.w3.org/2000/svg">
<path d="M9.99541 3.87069C9.92858 3.86878 9.86171 3.87212 9.79541 3.88069V0.0106926C9.86173 0.00237558 9.92859 -0.000967081 9.99541 0.000692563C12.0762 -0.0243157 14.1085 0.628566 15.7854 1.86069C15.9017 1.94712 15.9978 2.05779 16.0671 2.18502C16.1363 2.31225 16.1771 2.45302 16.1867 2.59758C16.1962 2.74215 16.1742 2.88705 16.1221 3.02226C16.0701 3.15748 15.9894 3.27977 15.8854 3.38069L14.4954 4.74069C14.3335 4.90284 14.1201 5.00352 13.892 5.02541C13.6639 5.04731 13.4352 4.98907 13.2454 4.86069C12.2907 4.2021 11.1551 3.85618 9.99541 3.87069V3.87069Z" fill="#15AB89"/>
<path d="M19.5954 10.2207C19.6406 11.5876 19.3988 12.9488 18.8855 14.2165C18.3722 15.4843 17.5989 16.6303 16.6154 17.5807C14.7992 19.2038 12.4303 20.0698 9.99541 20.0007C9.92859 20.0023 9.86173 19.999 9.79541 19.9907V16.1207C9.86173 16.129 9.92859 16.1323 9.99541 16.1307C11.2279 16.1661 12.4408 15.8165 13.4654 15.1307C14.0064 14.7562 14.4661 14.2761 14.8167 13.7192C15.1672 13.1624 15.4015 12.5404 15.5054 11.8907H10.9954C10.7302 11.8907 10.4758 11.7853 10.2883 11.5978C10.1008 11.4103 9.99541 11.1559 9.99541 10.8907V9.18068C9.99541 8.91547 10.1008 8.66111 10.2883 8.47358C10.4758 8.28604 10.7302 8.18068 10.9954 8.18068H18.5454C18.7916 8.1792 19.0295 8.26959 19.2126 8.43418C19.3957 8.59877 19.5108 8.82573 19.5354 9.07068C19.5775 9.45254 19.5975 9.83651 19.5954 10.2207V10.2207Z" fill="#15AB89"/>
<path opacity="0.4" d="M4.2956 8.02074C4.0866 8.66008 3.97863 9.32812 3.9756 10.0007C3.97784 10.6742 4.08928 11.3429 4.3056 11.9807C4.68795 13.1492 5.41914 14.1724 6.40071 14.9126C7.38228 15.6528 8.5671 16.0744 9.7956 16.1207V19.9907C7.97857 19.9572 6.20538 19.4269 4.66825 18.4573C3.13112 17.4878 1.88868 16.1161 1.0756 14.4907H1.0656C0.306829 12.9822 -0.0572692 11.306 0.00731144 9.61867C0.0718921 7.93131 0.563045 6.28784 1.4349 4.84173C2.30676 3.39563 3.53088 2.19406 4.99295 1.34925C6.45501 0.504437 8.10733 0.0439325 9.7956 0.0107422V3.88074C8.664 3.92051 7.56675 4.27966 6.63065 4.9167C5.69455 5.55375 4.95782 6.44267 4.5056 7.48074C4.4256 7.66074 4.3556 7.84074 4.2956 8.02074Z" fill="#15AB89"/>
</svg>
