<svg width="66" height="66" viewBox="0 0 66 66" fill="none" xmlns="http://www.w3.org/2000/svg">
<path d="M33 66C51.2254 66 66 51.2254 66 33C66 14.7746 51.2254 0 33 0C14.7746 0 0 14.7746 0 33C0 51.2254 14.7746 66 33 66Z" fill="#616161"/>
<path d="M32.9702 53.9509C29.5201 53.9508 26.1232 53.0998 23.0806 51.4734C20.0379 49.8469 17.4433 47.4952 15.5266 44.6266C13.6098 41.7579 12.4301 38.4608 12.092 35.0273C11.7538 31.5938 12.2676 28.1299 13.5879 24.9425C14.9081 21.755 16.9941 18.9423 19.661 16.7535C22.3279 14.5647 25.4934 13.0674 28.8772 12.3942C32.261 11.721 35.7586 11.8927 39.0602 12.894C42.3617 13.8954 45.3654 15.6955 47.8052 18.1349L56.2831 9.65693C51.6722 5.04701 45.7979 1.90785 39.4029 0.636365C33.0079 -0.635116 26.3795 0.0181906 20.3559 2.51368C14.3322 5.00916 9.1837 9.23476 5.56146 14.6562C1.93921 20.0776 0.00585938 26.4513 0.00585938 32.9714C0.00585938 39.4916 1.93921 45.8653 5.56146 51.2867C9.1837 56.7081 14.3322 60.9337 20.3559 63.4292C26.3795 65.9247 33.0079 66.578 39.4029 65.3065C45.7979 64.035 51.6722 60.8959 56.2831 56.2859L47.8052 47.8079C45.858 49.7574 43.5454 51.3035 40.9997 52.3576C38.4541 53.4117 35.7254 53.9532 32.9702 53.9509V53.9509Z" fill="#9E9E9E"/>
<path d="M53.951 32.9699H43.459C43.4596 31.2532 43.0388 29.5627 42.2337 28.0466C41.4286 26.5305 40.2637 25.2351 38.8412 24.2742C37.4188 23.3132 35.7822 22.7161 34.0752 22.535C32.3681 22.354 30.6427 22.5947 29.0503 23.236C27.458 23.8772 26.0474 24.8995 24.9422 26.213C23.837 27.5266 23.0711 29.0912 22.7116 30.7698C22.3521 32.4484 22.4101 34.1895 22.8804 35.8405C23.3507 37.4914 24.219 39.0017 25.409 40.2388L25.401 40.2468L38.39 53.2359C42.8525 52.041 46.796 49.407 49.609 45.7424C52.422 42.0779 53.9471 37.5876 53.948 32.9678L53.951 32.9699Z" fill="#424242"/>
<path d="M65.9381 32.9702H53.9481C53.9468 37.5894 52.4218 42.079 49.6095 45.7434C46.7972 49.4078 42.8547 52.0421 38.3931 53.2382L47.6521 62.4972C53.1457 59.7645 57.7677 55.5531 60.9982 50.3367C64.2287 45.1203 65.9395 39.1059 65.9381 32.9702Z" fill="#616161"/>
<path d="M32.97 65.5642C24.2583 65.5644 15.9006 62.1166 9.72291 55.9741C3.54521 49.8316 0.0496755 41.4938 0 32.7822C0 32.8462 0 32.9072 0 32.9712C0 41.7154 3.47361 50.1015 9.65669 56.2845C15.8398 62.4676 24.2258 65.9412 32.97 65.9412C41.7142 65.9412 50.1002 62.4676 56.2833 56.2845C62.4664 50.1015 65.94 41.7154 65.94 32.9712C65.94 32.9072 65.94 32.8462 65.94 32.7822C65.8898 41.4933 62.3944 49.8305 56.2172 55.9728C50.0401 62.1151 41.6832 65.5633 32.972 65.5642H32.97Z" fill="#212121" fill-opacity="0.1"/>
<path d="M38.395 53.2382L38.687 53.5303C43.0814 52.2852 46.9496 49.6403 49.7042 45.9972C52.4589 42.3541 53.9496 37.9116 53.9501 33.3442V32.9702C53.9487 37.5894 52.4237 42.079 49.6115 45.7434C46.7992 49.4078 42.8566 52.0421 38.395 53.2382V53.2382Z" fill="white" fill-opacity="0.05"/>
<path d="M59.9448 29.9722H32.9719C32.2002 30.0067 31.4716 30.3375 30.9377 30.8958C30.4039 31.4541 30.106 32.1967 30.106 32.9692C30.106 33.7416 30.4039 34.4843 30.9377 35.0425C31.4716 35.6008 32.2002 35.9316 32.9719 35.9661H59.9459C60.7175 35.9316 61.4461 35.6008 61.9799 35.0425C62.5138 34.4843 62.8117 33.7416 62.8117 32.9692C62.8117 32.1967 62.5138 31.4541 61.9799 30.8958C61.4461 30.3375 60.7175 30.0067 59.9459 29.9722H59.9448Z" fill="#9E9E9E"/>
<path opacity="0.5" d="M59.9448 29.9722H32.9719C32.2002 30.0067 31.4716 30.3375 30.9377 30.8958C30.4039 31.4541 30.106 32.1967 30.106 32.9692C30.106 33.7416 30.4039 34.4843 30.9377 35.0425C31.4716 35.6008 32.2002 35.9316 32.9719 35.9661H59.9459C60.7175 35.9316 61.4461 35.6008 61.9799 35.0425C62.5138 34.4843 62.8117 33.7416 62.8117 32.9692C62.8117 32.1967 62.5138 31.4541 61.9799 30.8958C61.4461 30.3375 60.7175 30.0067 59.9459 29.9722H59.9448Z" fill="#BDBDBD"/>
<path d="M5.99409 35.2191C7.23563 35.2191 8.24209 34.2127 8.24209 32.9711C8.24209 31.7296 7.23563 30.7231 5.99409 30.7231C4.75256 30.7231 3.74609 31.7296 3.74609 32.9711C3.74609 34.2127 4.75256 35.2191 5.99409 35.2191Z" fill="#BDBDBD"/>
<path d="M32.9711 8.24209C34.2127 8.24209 35.2191 7.23563 35.2191 5.99409C35.2191 4.75256 34.2127 3.74609 32.9711 3.74609C31.7296 3.74609 30.7231 4.75256 30.7231 5.99409C30.7231 7.23563 31.7296 8.24209 32.9711 8.24209Z" fill="#BDBDBD"/>
<path d="M32.9711 62.1933C34.2127 62.1933 35.2191 61.1868 35.2191 59.9453C35.2191 58.7037 34.2127 57.6973 32.9711 57.6973C31.7296 57.6973 30.7231 58.7037 30.7231 59.9453C30.7231 61.1868 31.7296 62.1933 32.9711 62.1933Z" fill="#BDBDBD"/>
<path d="M13.8632 16.143C15.1048 16.143 16.1112 15.1365 16.1112 13.895C16.1112 12.6534 15.1048 11.647 13.8632 11.647C12.6217 11.647 11.6152 12.6534 11.6152 13.895C11.6152 15.1365 12.6217 16.143 13.8632 16.143Z" fill="#BDBDBD"/>
<path d="M13.8632 54.3261C15.1048 54.3261 16.1112 53.3196 16.1112 52.0781C16.1112 50.8365 15.1048 49.8301 13.8632 49.8301C12.6217 49.8301 11.6152 50.8365 11.6152 52.0781C11.6152 53.3196 12.6217 54.3261 13.8632 54.3261Z" fill="#BDBDBD"/>
<path d="M52.0781 54.3261C53.3196 54.3261 54.3261 53.3196 54.3261 52.0781C54.3261 50.8365 53.3196 49.8301 52.0781 49.8301C50.8365 49.8301 49.8301 50.8365 49.8301 52.0781C49.8301 53.3196 50.8365 54.3261 52.0781 54.3261Z" fill="#757575"/>
<path d="M32.9732 30.3481H59.9472C60.7093 30.3483 61.4427 30.6392 61.9976 31.1616C62.5525 31.684 62.8871 32.3985 62.9332 33.1592C62.9332 33.0952 62.9442 33.0342 62.9442 32.9702C62.9442 32.1746 62.6282 31.4115 62.0656 30.8489C61.503 30.2863 60.7399 29.9702 59.9442 29.9702H32.9732C32.1775 29.9702 31.4146 30.2863 30.8519 30.8489C30.2893 31.4115 29.9732 32.1746 29.9732 32.9702C29.9728 33.0334 29.9766 33.0965 29.9843 33.1592C30.0299 32.3978 30.3648 31.6826 30.9204 31.16C31.4761 30.6375 32.2104 30.347 32.9732 30.3481V30.3481Z" fill="white" fill-opacity="0.2"/>
<path d="M62.9301 33.1558C62.8821 33.9158 62.5469 34.6291 61.9924 35.1511C61.4379 35.6731 60.7056 35.9648 59.9441 35.9668H32.973C32.2109 35.9667 31.4776 35.6757 30.9227 35.1533C30.3678 34.6309 30.0332 33.9165 29.9871 33.1558C29.9795 33.2175 29.9759 33.2796 29.9761 33.3418C29.9761 34.1374 30.2921 34.9005 30.8547 35.4631C31.4174 36.0257 32.1804 36.3418 32.9761 36.3418H59.9501C60.7457 36.3418 61.5088 36.0257 62.0714 35.4631C62.634 34.9005 62.9501 34.1374 62.9501 33.3418C62.9474 33.2794 62.9407 33.2173 62.9301 33.1558V33.1558Z" fill="#212121" fill-opacity="0.2"/>
<path d="M32.9698 12.3648C35.7253 12.3617 38.4544 12.903 41.0002 13.9575C43.546 15.0121 45.8585 16.5591 47.8047 18.5098L56.4658 9.84378L56.2798 9.65479L47.8047 18.1328C44.8706 15.1987 41.1324 13.2006 37.0627 12.3911C32.993 11.5816 28.7747 11.9971 24.9411 13.585C21.1075 15.1729 17.8309 17.8619 15.5256 21.312C13.2203 24.7621 11.9898 28.8184 11.9897 32.9678C11.9897 33.0318 11.9897 33.0928 11.9897 33.1568C12.0388 27.625 14.2709 22.3366 18.2002 18.4425C22.1294 14.5484 27.4378 12.364 32.9698 12.3648V12.3648Z" fill="#212121" fill-opacity="0.1"/>
<path d="M33 66C51.2254 66 66 51.2254 66 33C66 14.7746 51.2254 0 33 0C14.7746 0 0 14.7746 0 33C0 51.2254 14.7746 66 33 66Z" fill="url(#paint0_radial_651_58)"/>
<defs>
<radialGradient id="paint0_radial_651_58" cx="0" cy="0" r="1" gradientUnits="userSpaceOnUse" gradientTransform="translate(18.084 46.464) scale(0)">
<stop stop-color="white" stop-opacity="0.102"/>
<stop offset="1" stop-color="white" stop-opacity="0"/>
</radialGradient>
</defs>
</svg>
