<svg width="185" height="44" viewBox="0 0 185 44" fill="none" xmlns="http://www.w3.org/2000/svg">
<path fill-rule="evenodd" clip-rule="evenodd" d="M0.774675 0.664003C0.228242 1.32999 -0.0456649 2.17823 0.00807489 3.03803V40.2359C-0.0524983 41.0938 0.229552 41.9407 0.7924 42.5911L0.924229 42.7018L21.7676 21.8596V21.391L0.906504 0.553223L0.774675 0.664003Z" fill="url(#paint0_linear_651_45)"/>
<path fill-rule="evenodd" clip-rule="evenodd" d="M28.7016 28.8329L21.749 21.8781V21.3918L28.7038 14.437L28.8534 14.53L37.0788 19.2039C39.434 20.5332 39.434 22.7189 37.0788 24.0649L28.8534 28.7387L28.7016 28.8329Z" fill="url(#paint1_linear_651_45)"/>
<path fill-rule="evenodd" clip-rule="evenodd" d="M28.8517 28.7405L21.7496 21.6362L0.774414 42.6113C1.54101 43.4344 2.82939 43.5275 4.27064 42.7222L28.8506 28.7405" fill="url(#paint2_linear_651_45)"/>
<path fill-rule="evenodd" clip-rule="evenodd" d="M28.8517 14.5336L4.27064 0.569706C2.8305 -0.253392 1.53991 -0.141504 0.774414 0.680486L21.7462 21.6346L28.8517 14.5336Z" fill="url(#paint3_linear_651_45)"/>
<path opacity="0.2" fill-rule="evenodd" clip-rule="evenodd" d="M28.7009 28.5908L4.28822 42.4605C3.80715 42.8324 3.21706 43.0356 2.60902 43.0388C2.00098 43.042 1.40879 42.845 0.92382 42.4783L0.791992 42.6101L0.92382 42.7209C1.40923 43.0866 2.00125 43.283 2.60901 43.2798C3.21677 43.2766 3.80669 43.074 4.28822 42.7031L28.8682 28.7448L28.7009 28.5908Z" fill="black"/>
<path opacity="0.12" fill-rule="evenodd" clip-rule="evenodd" d="M37.0763 23.8231L28.6826 28.5866L28.8322 28.7362L37.0575 24.0624C37.5413 23.8517 37.9597 23.515 38.2689 23.0875C38.5782 22.6599 38.767 22.1572 38.8157 21.6318C38.7223 22.1096 38.5156 22.5581 38.2129 22.9394C37.9103 23.3207 37.5205 23.6237 37.0763 23.8231V23.8231Z" fill="black"/>
<path opacity="0.25" fill-rule="evenodd" clip-rule="evenodd" d="M4.27211 0.814166L37.0775 19.4519C37.5224 19.6514 37.9137 19.9537 38.2191 20.3339C38.5245 20.714 38.7354 21.1612 38.8345 21.6387C38.7855 21.1135 38.5967 20.611 38.2877 20.1836C37.9787 19.7561 37.5608 19.4193 37.0775 19.2081L4.27211 0.570449C1.91692 -0.775533 0.00927734 0.345565 0.00927734 3.03753V3.28124C0.00927734 0.589281 1.91692 -0.514091 4.27211 0.814166Z" fill="white"/>
<path fill-rule="evenodd" clip-rule="evenodd" d="M46.8371 20.4567C46.8767 17.5748 48.0497 14.8244 50.1024 12.8012C52.1551 10.778 54.9221 9.64467 57.8043 9.64669C59.1748 9.62595 60.5359 9.87863 61.8076 10.3899C63.0794 10.9012 64.2363 11.6609 65.2111 12.6245L63.1285 14.7072C61.7 13.3308 59.7856 12.5743 57.8021 12.6023C55.7344 12.6269 53.7598 13.4655 52.3064 14.9363C50.8529 16.4071 50.0377 18.3916 50.0377 20.4594C50.0377 22.5272 50.8529 24.5117 52.3064 25.9825C53.7598 27.4534 55.7344 28.292 57.8021 28.3165C58.8124 28.3579 59.82 28.1866 60.7599 27.8137C61.6997 27.4408 62.551 26.8746 63.2581 26.1519C64.1973 25.1292 64.7642 23.8198 64.8676 22.4352H57.8043V19.4884H67.7437C68.0139 21.0339 67.9386 22.6201 67.5235 24.1332C67.1085 25.6462 66.3637 27.0487 65.3428 28.2401C64.3726 29.2512 63.1988 30.0445 61.8988 30.5675C60.5987 31.0904 59.2022 31.331 57.8021 31.2732C54.9198 31.2758 52.1525 30.1427 50.0997 28.1194C48.0469 26.096 46.874 23.3454 46.835 20.4633L46.8371 20.4567ZM75.937 17.3471C74.5616 17.3523 73.2185 17.765 72.0775 18.533C70.9365 19.3009 70.0489 20.3898 69.5263 21.662C69.0037 22.9342 68.8697 24.3327 69.1414 25.681C69.4131 27.0292 70.0782 28.2668 71.0528 29.2373C72.0273 30.2078 73.2675 30.8678 74.6169 31.1339C75.9662 31.4 77.3642 31.2604 78.6343 30.7325C79.9043 30.2047 80.9894 29.3124 81.7527 28.1682C82.5159 27.0241 82.9231 25.6794 82.9227 24.3041C82.9347 23.3851 82.762 22.473 82.415 21.6219C82.0681 20.7709 81.5542 19.9981 80.9032 19.3493C80.2522 18.7006 79.4774 18.1891 78.6251 17.8452C77.7728 17.5012 76.8603 17.3319 75.9413 17.3471H75.937ZM75.937 28.5281C75.0894 28.5893 74.2429 28.3938 73.508 27.9672C72.7731 27.5406 72.1839 26.9025 71.8168 26.1362C71.4497 25.3698 71.3217 24.5107 71.4498 23.6707C71.5779 22.8306 71.956 22.0486 72.5349 21.4265C73.1137 20.8044 73.8664 20.371 74.695 20.1828C75.5237 19.9946 76.3898 20.0602 77.1806 20.3712C77.9714 20.6822 78.6503 21.2241 79.1287 21.9264C79.6071 22.6287 79.863 23.4587 79.863 24.3085C79.8885 24.8444 79.8066 25.3801 79.6223 25.884C79.438 26.3878 79.1548 26.8498 78.7895 27.2428C78.4242 27.6358 77.9842 27.9518 77.4951 28.1723C77.006 28.3929 76.4777 28.5134 75.9413 28.527L75.937 28.5281ZM91.1801 17.3471C89.8048 17.3523 88.4619 17.765 87.3209 18.533C86.1799 19.3009 85.2923 20.3898 84.7697 21.662C84.2471 22.9342 84.1131 24.3327 84.3848 25.681C84.6565 27.0292 85.3216 28.2668 86.2961 29.2373C87.2707 30.2078 88.5109 30.8678 89.8603 31.1339C91.2096 31.4 92.6076 31.2604 93.8777 30.7325C95.1477 30.2047 96.2328 29.3124 96.9961 28.1682C97.7593 27.0241 98.1665 25.6794 98.1661 24.3041C98.1791 23.3848 98.0074 22.4723 97.6609 21.6207C97.3143 20.7691 96.8 19.9959 96.1487 19.3469C95.4975 18.698 94.7226 18.1865 93.8698 17.843C93.0171 17.4994 92.1039 17.3308 91.1847 17.3471H91.1801ZM91.1801 28.5281C90.3326 28.5888 89.4865 28.393 88.7519 27.9661C88.0173 27.5392 87.4283 26.9009 87.0615 26.1345C86.6948 25.3681 86.5673 24.509 86.6956 23.6691C86.824 22.8292 87.2023 22.0474 87.7812 21.4255C88.3602 20.8036 89.1131 20.3704 89.9417 20.1824C90.7703 19.9944 91.6363 20.0602 92.4269 20.3713C93.2176 20.6824 93.8962 21.2243 94.3745 21.9266C94.8528 22.6288 95.1086 23.4588 95.1085 24.3085C95.1341 24.8446 95.0523 25.3804 94.8678 25.8845C94.6834 26.3885 94.4001 26.8506 94.0345 27.2436C93.669 27.6366 93.2284 27.9526 92.739 28.173C92.2497 28.3934 91.7213 28.5137 91.1847 28.527L91.1801 28.5281ZM109.888 17.7702V18.9024H109.784C109.32 18.3963 108.753 17.9954 108.121 17.7268C107.489 17.4581 106.807 17.3279 106.121 17.3448C104.323 17.4166 102.622 18.1815 101.375 19.4794C100.127 20.7773 99.4308 22.5074 99.4308 24.3074C99.4308 26.1073 100.127 27.8375 101.375 29.1354C102.622 30.4332 104.323 31.1982 106.121 31.2699C106.81 31.2885 107.494 31.1568 108.127 30.884C108.759 30.6112 109.325 30.2038 109.784 29.6902H109.888V30.6872C109.888 33.3459 108.464 34.775 106.171 34.775C105.407 34.7566 104.665 34.5114 104.04 34.0706C103.416 33.6297 102.936 33.0131 102.663 32.2991L99.9985 33.4069C100.501 34.6286 101.357 35.6725 102.456 36.4051C103.555 37.1377 104.848 37.5255 106.169 37.519C109.751 37.519 112.785 35.4076 112.785 30.2662V17.7669L109.888 17.7702ZM106.382 28.5281C105.323 28.4406 104.336 27.9582 103.616 27.1767C102.897 26.3953 102.498 25.3719 102.498 24.3096C102.498 23.2474 102.897 22.2239 103.616 21.4425C104.336 20.661 105.323 20.1786 106.382 20.0911C107.409 20.2203 108.354 20.7203 109.039 21.497C109.725 22.2737 110.103 23.2739 110.103 24.3096C110.103 25.3454 109.725 26.3455 109.039 27.1222C108.354 27.899 107.409 28.3989 106.382 28.5281V28.5281ZM114.896 10.3856H117.958V30.8468H114.898L114.896 10.3856ZM126.343 28.5281C125.635 28.5554 124.935 28.3694 124.334 27.9941C123.733 27.6188 123.258 27.0715 122.972 26.4233L132.278 22.5703L131.956 21.7794C131.538 20.5182 130.742 19.4163 129.676 18.6235C128.61 17.8307 127.326 17.3854 125.997 17.3482C125.103 17.3537 124.219 17.5405 123.399 17.8974C122.578 18.2542 121.839 18.7738 121.226 19.4245C120.612 20.0752 120.136 20.8436 119.828 21.6832C119.52 22.5229 119.385 23.4163 119.432 24.3096C119.412 25.2247 119.577 26.1344 119.916 26.9844C120.256 27.8343 120.763 28.6071 121.408 29.2567C122.053 29.9062 122.822 30.4192 123.67 30.7649C124.517 31.1106 125.425 31.282 126.341 31.2688C127.488 31.2761 128.619 30.9979 129.631 30.4593C130.644 29.9207 131.507 29.1387 132.142 28.1836L129.77 26.6039C129.414 27.1931 128.912 27.6801 128.312 28.0172C127.713 28.3543 127.036 28.5299 126.347 28.527L126.343 28.5281ZM126.104 20.0368C126.631 20.0026 127.158 20.1242 127.617 20.3866C128.076 20.6489 128.448 21.0404 128.686 21.5124L122.461 24.0969C122.429 23.5897 122.498 23.0812 122.665 22.601C122.832 22.1209 123.092 21.6789 123.432 21.3008C123.772 20.9227 124.183 20.6162 124.643 20.3991C125.102 20.1821 125.6 20.0589 126.108 20.0368H126.104Z" fill="#808285"/>
<path fill-rule="evenodd" clip-rule="evenodd" d="M145.704 10.3856H138.393V30.8467H141.444V23.0921H145.711C146.573 23.1377 147.436 23.0071 148.247 22.7084C149.058 22.4096 149.799 21.9489 150.425 21.3544C151.052 20.7598 151.551 20.0439 151.892 19.2502C152.233 18.4565 152.409 17.6016 152.409 16.7377C152.409 15.8738 152.233 15.019 151.892 14.2253C151.551 13.4315 151.052 12.7156 150.425 12.1211C149.799 11.5265 149.058 11.0659 148.247 10.7671C147.436 10.4684 146.573 10.3378 145.711 10.3834L145.704 10.3856ZM145.783 20.2451H141.44V13.2293H145.783C146.249 13.221 146.711 13.3056 147.144 13.4782C147.577 13.6508 147.971 13.9079 148.304 14.2344C148.636 14.561 148.9 14.9505 149.08 15.3802C149.26 15.8099 149.353 16.2712 149.353 16.7372C149.353 17.2032 149.26 17.6645 149.08 18.0942C148.9 18.5239 148.636 18.9134 148.304 19.24C147.971 19.5665 147.577 19.8236 147.144 19.9961C146.711 20.1687 146.249 20.2533 145.783 20.2451ZM157.154 30.8434V10.3856H154.101V30.8467L157.154 30.8434ZM170.87 30.8069V22.9636C170.87 19.3311 168.156 17.3049 164.653 17.3049C163.539 17.2407 162.43 17.5029 161.463 18.0594C160.496 18.6159 159.713 19.4424 159.208 20.4378L161.918 21.5678C162.187 21.0735 162.595 20.6684 163.091 20.4021C163.587 20.1357 164.15 20.0195 164.71 20.0678C165.094 20.0299 165.483 20.0679 165.852 20.1798C166.221 20.2918 166.564 20.4753 166.863 20.72C167.161 20.9648 167.408 21.2659 167.59 21.6062C167.772 21.9465 167.885 22.3193 167.923 22.7033V22.9148C166.943 22.393 165.849 22.1213 164.738 22.1239C161.817 22.1239 158.843 23.7291 158.843 26.7301C158.843 29.4697 161.239 31.2311 163.923 31.2311C164.691 31.2775 165.458 31.1169 166.143 30.7662C166.828 30.4155 167.407 29.8874 167.818 29.2371H167.929V30.8168H170.879L170.87 30.8069ZM164.289 28.5192C163.292 28.5192 161.892 28.0196 161.892 26.7844C161.892 25.2047 163.631 24.5954 165.131 24.5954C166.107 24.5693 167.071 24.8057 167.924 25.28C167.811 26.1676 167.381 26.9843 166.712 27.5796C166.044 28.1748 165.183 28.5086 164.289 28.5192V28.5192ZM181.608 17.7525L178.106 26.6216H178.001L174.368 17.7525H171.078L176.525 30.1521L173.418 37.0471H176.603L185 17.7525H181.608Z" fill="#808285"/>
<defs>
<linearGradient id="paint0_linear_651_45" x1="65.7598" y1="34.1878" x2="63.2041" y2="33.8461" gradientUnits="userSpaceOnUse">
<stop stop-color="#00A0FF"/>
<stop offset="0.007" stop-color="#00A1FF"/>
<stop offset="0.26" stop-color="#00BEFF"/>
<stop offset="0.512" stop-color="#00D2FF"/>
<stop offset="0.76" stop-color="#00DFFF"/>
<stop offset="1" stop-color="#00E3FF"/>
</linearGradient>
<linearGradient id="paint1_linear_651_45" x1="66.7462" y1="32.3455" x2="62.2841" y2="32.3455" gradientUnits="userSpaceOnUse">
<stop stop-color="#FFE000"/>
<stop offset="0.409" stop-color="#FFBD00"/>
<stop offset="0.775" stop-color="#FFA500"/>
<stop offset="1" stop-color="#FF9C00"/>
</linearGradient>
<linearGradient id="paint2_linear_651_45" x1="67.0368" y1="32.5446" x2="65.3604" y2="28.8475" gradientUnits="userSpaceOnUse">
<stop stop-color="#FF3A44"/>
<stop offset="1" stop-color="#C31162"/>
</linearGradient>
<linearGradient id="paint3_linear_651_45" x1="65.0714" y1="35.7368" x2="65.8356" y2="34.0673" gradientUnits="userSpaceOnUse">
<stop stop-color="#32A071"/>
<stop offset="0.069" stop-color="#2DA771"/>
<stop offset="0.476" stop-color="#15CF74"/>
<stop offset="0.801" stop-color="#06E775"/>
<stop offset="1" stop-color="#00F076"/>
</linearGradient>
</defs>
</svg>
