<svg width="131" height="32" viewBox="0 0 131 32" fill="none" xmlns="http://www.w3.org/2000/svg">
<path d="M17.2688 25.198H22.08L3.6084 6.79938V28.6742H0V2.56006H4.29572L30.7574 28.6742H17.2688V25.198Z" fill="#15AB89"/>
<path d="M40.2078 2.56006V28.6742H35.8262L9.27863 2.56006H22.8531V6.12108H17.956L36.5994 24.4349V2.56006H40.2078Z" fill="#15AB89"/>
<path d="M59.5107 18.0762C59.5107 20.1087 58.9826 21.6949 57.9261 22.8349C56.8698 23.975 55.3993 24.545 53.5145 24.545C52.3366 24.545 51.2953 24.2824 50.391 23.7574C49.4866 23.2324 48.7913 22.4786 48.3049 21.4961C47.8185 20.5137 47.5753 19.3736 47.5753 18.0762C47.5753 16.0587 48.0997 14.4836 49.1485 13.3512C50.1973 12.2187 51.6754 11.6524 53.5829 11.6524C55.4069 11.6524 56.8508 12.2337 57.9149 13.3962C58.9788 14.5512 59.5107 16.1112 59.5107 18.0762ZM50.334 18.0762C50.334 20.9487 51.4093 22.385 53.5601 22.385C55.6881 22.385 56.7521 20.9487 56.7521 18.0762C56.7521 15.2337 55.6805 13.8124 53.5374 13.8124C52.4126 13.8124 51.5956 14.1799 51.0864 14.9149C50.5848 15.65 50.334 16.7037 50.334 18.0762ZM65.4728 24.3199L60.6849 11.8774H63.5121L66.0769 19.1112C66.5178 20.3262 66.7837 21.3087 66.875 22.0587H66.9662C67.0345 21.5186 67.3006 20.5361 67.7641 19.1112L70.329 11.8774H73.1789L68.3683 24.3199H65.4728ZM77.773 24.3199H75.0941V11.8774H77.773V24.3199ZM74.9345 8.58118C74.9345 8.10868 75.0637 7.74493 75.3222 7.48992C75.5881 7.23492 75.9643 7.10742 76.4507 7.10742C76.9219 7.10742 77.2866 7.23492 77.545 7.48992C77.811 7.74493 77.944 8.10868 77.944 8.58118C77.944 9.03117 77.811 9.38742 77.545 9.64992C77.2866 9.90493 76.9219 10.0324 76.4507 10.0324C75.9643 10.0324 75.5881 9.90493 75.3222 9.64992C75.0637 9.38742 74.9345 9.03117 74.9345 8.58118ZM92.7066 24.3199H90.0163V16.6699C90.0163 15.7099 89.8187 14.9937 89.4235 14.5211C89.0359 14.0487 88.4166 13.8124 87.5653 13.8124C86.433 13.8124 85.6046 14.1424 85.0802 14.8025C84.5558 15.4625 84.2936 16.5686 84.2936 18.1211V24.3199H81.6147V11.8774H83.7123L84.0884 13.5087H84.2252C84.6053 12.9162 85.1448 12.4587 85.8441 12.1362C86.5432 11.8137 87.3184 11.6524 88.1695 11.6524C91.1943 11.6524 92.7066 13.1711 92.7066 16.2087V24.3199ZM101.131 22.4075C101.785 22.4075 102.438 22.3062 103.092 22.1037V24.0949C102.795 24.2224 102.412 24.3275 101.94 24.4099C101.477 24.4999 100.994 24.545 100.493 24.545C97.9543 24.545 96.6852 23.2249 96.6852 20.5849V13.88H94.9637V12.7099L96.8104 11.7424L97.7225 9.10993H99.3755V11.8774H102.966V13.88H99.3755V20.54C99.3755 21.1774 99.535 21.65 99.8542 21.9574C100.181 22.2575 100.607 22.4075 101.131 22.4075ZM111.128 24.545C109.168 24.545 107.633 23.9824 106.523 22.8574C105.421 21.725 104.87 20.1686 104.87 18.1887C104.87 16.1562 105.383 14.5586 106.409 13.3962C107.435 12.2337 108.845 11.6524 110.638 11.6524C112.303 11.6524 113.617 12.1512 114.583 13.1487C115.548 14.1462 116.03 15.5186 116.03 17.2662V18.695H107.629C107.667 19.9024 107.997 20.8324 108.621 21.485C109.244 22.13 110.121 22.4524 111.254 22.4524C111.999 22.4524 112.69 22.3849 113.329 22.2499C113.975 22.1074 114.666 21.8749 115.403 21.5524V23.7012C114.75 24.0086 114.089 24.2262 113.42 24.3537C112.751 24.4812 111.987 24.545 111.128 24.545ZM110.638 13.655C109.787 13.655 109.103 13.9212 108.586 14.4537C108.077 14.9862 107.773 15.7625 107.674 16.7824H113.397C113.382 15.7549 113.131 14.9786 112.645 14.4537C112.158 13.9212 111.489 13.655 110.638 13.655ZM121.878 17.9637L117.649 11.8774H120.704L123.577 16.2312L126.472 11.8774H129.505L125.264 17.9637L129.721 24.3199H126.689L123.577 19.6624L120.476 24.3199H117.444L121.878 17.9637Z" fill="white"/>
</svg>
