<svg width="24" height="24" viewBox="0 0 24 24" fill="none" xmlns="http://www.w3.org/2000/svg">
<path opacity="0.4" d="M16.19 2H7.81C4.17 2 2 4.17 2 7.81V16.18C2 19.83 4.17 22 7.81 22H16.18C19.82 22 21.99 19.83 21.99 16.19V7.81C22 4.17 19.83 2 16.19 2Z" fill="#09736A"/>
<path d="M21.3 12.23H17.82C17.3435 12.2278 16.876 12.3599 16.471 12.611C16.066 12.8621 15.7399 13.2222 15.53 13.65L14.69 15.31C14.5945 15.5046 14.4465 15.6685 14.2627 15.7834C14.079 15.8982 13.8667 15.9594 13.65 15.96H10.37C10.1508 15.9719 9.9333 15.9159 9.74716 15.7995C9.56102 15.6832 9.41534 15.5122 9.33 15.31L8.49 13.66C8.2774 13.2343 7.95067 12.8761 7.54629 12.6254C7.14192 12.3746 6.67581 12.2412 6.2 12.24H2.7C2.51435 12.24 2.3363 12.3138 2.20503 12.445C2.07375 12.5763 2 12.7544 2 12.94V16.2C2 19.83 4.18 22 7.82 22H16.2C19.63 22 21.74 20.12 22 16.78V12.93C22 12.7444 21.9263 12.5663 21.795 12.435C21.6637 12.3038 21.4857 12.23 21.3 12.23Z" fill="#09736A"/>
</svg>
