<svg width="88" height="88" viewBox="0 0 88 88" fill="none" xmlns="http://www.w3.org/2000/svg">
<g clip-path="url(#clip0_567_1223)" filter="url(#filter0_d_567_1223)">
<path d="M78 28.6592H10V51.3405H78V28.6592Z" fill="#F5F5F5"/>
<path d="M63.1254 6H24.8746C20.9296 6 17.1462 7.56714 14.3567 10.3567C11.5671 13.1462 10 16.9296 10 20.8746L10 28.6814H78V20.8746C78 16.9296 76.4329 13.1462 73.6433 10.3567C70.8538 7.56714 67.0704 6 63.1254 6Z" fill="#73AF00"/>
<path d="M10 59.1254C10 63.0704 11.5671 66.8538 14.3567 69.6433C17.1462 72.4328 20.9296 74 24.8746 74H63.1254C67.0704 74 70.8538 72.4328 73.6433 69.6433C76.4329 66.8538 78 63.0704 78 59.1254V51.3186H10V59.1254Z" fill="#FF4B55"/>
<path d="M11.2186 24.8156V24.7852C11.2186 24.7121 11.1896 24.642 11.1379 24.5903C11.0862 24.5386 11.0161 24.5095 10.9429 24.5095H10V25.1037H10.936C10.9739 25.1047 11.0115 25.0978 11.0466 25.0836C11.0817 25.0694 11.1135 25.0481 11.14 25.0211C11.1666 24.9941 11.1872 24.9619 11.2007 24.9265C11.2143 24.8912 11.2204 24.8534 11.2186 24.8156Z" fill="#F5F5F5"/>
<path d="M11.2186 27.1772V27.1607C11.2186 27.0876 11.1896 27.0174 11.1379 26.9657C11.0862 26.914 11.0161 26.885 10.9429 26.885H10.3419C10.2688 26.885 10.1986 26.8559 10.1469 26.8042C10.0952 26.7525 10.0662 26.6824 10.0662 26.6093V26.5789C10.0662 26.5058 10.0952 26.4357 10.1469 26.384C10.1986 26.3323 10.2688 26.3032 10.3419 26.3032H11.5095C11.5826 26.3032 11.6528 26.3323 11.7045 26.384C11.7562 26.4357 11.7852 26.5058 11.7852 26.5789V27.1896C11.7852 27.2627 11.8143 27.3329 11.866 27.3846C11.9177 27.4363 11.9878 27.4654 12.0609 27.4654H14.4045C14.4407 27.4654 14.4765 27.4582 14.51 27.4444C14.5434 27.4305 14.5738 27.4102 14.5994 27.3846C14.625 27.359 14.6454 27.3286 14.6592 27.2951C14.6731 27.2617 14.6802 27.2258 14.6802 27.1896V24.7965C14.6802 24.7603 14.6731 24.7244 14.6592 24.6909C14.6454 24.6575 14.625 24.6271 14.5994 24.6015C14.5738 24.5759 14.5434 24.5556 14.51 24.5417C14.4765 24.5279 14.4407 24.5208 14.4045 24.5208C14.3683 24.5208 14.3324 24.5279 14.299 24.5417C14.2655 24.5556 14.2351 24.5759 14.2095 24.6015C14.1839 24.6271 14.1636 24.6575 14.1498 24.6909C14.1359 24.7244 14.1288 24.7603 14.1288 24.7965V26.6093C14.1288 26.6824 14.0997 26.7525 14.048 26.8042C13.9963 26.8559 13.9262 26.885 13.8531 26.885H13.8172C13.7441 26.885 13.674 26.8559 13.6223 26.8042C13.5706 26.7525 13.5415 26.6824 13.5415 26.6093V24.7965C13.5415 24.7233 13.5125 24.6532 13.4608 24.6015C13.409 24.5498 13.3389 24.5208 13.2658 24.5208H13.2451C13.172 24.5208 13.1019 24.5498 13.0502 24.6015C12.9985 24.6532 12.9694 24.7233 12.9694 24.7965V26.6093C12.9694 26.6824 12.9404 26.7525 12.8887 26.8042C12.8369 26.8559 12.7668 26.885 12.6937 26.885H12.6592C12.5861 26.885 12.516 26.8559 12.4643 26.8042C12.4126 26.7525 12.3835 26.6824 12.3835 26.6093V24.7965C12.3835 24.7233 12.3545 24.6532 12.3028 24.6015C12.2511 24.5498 12.1809 24.5208 12.1078 24.5208H12.0678C11.9947 24.5208 11.9246 24.5498 11.8729 24.6015C11.8212 24.6532 11.7921 24.7233 11.7921 24.7965V25.4209C11.7921 25.4941 11.7631 25.5642 11.7114 25.6159C11.6597 25.6676 11.5895 25.6967 11.5164 25.6967H10V27.4654H10.936C10.9739 27.4663 11.0115 27.4595 11.0466 27.4453C11.0817 27.4311 11.1135 27.4098 11.14 27.3828C11.1666 27.3558 11.1872 27.3236 11.2007 27.2882C11.2143 27.2528 11.2204 27.2151 11.2186 27.1772Z" fill="#F5F5F5"/>
<path d="M26.0213 24.5029H26.0061C25.933 24.5029 25.8628 24.532 25.8111 24.5837C25.7594 24.6354 25.7304 24.7055 25.7304 24.7786V26.5914C25.7304 26.6646 25.7013 26.7347 25.6496 26.7864C25.5979 26.8381 25.5278 26.8671 25.4547 26.8671H25.434C25.3609 26.8671 25.2907 26.8381 25.239 26.7864C25.1873 26.7347 25.1583 26.6646 25.1583 26.5914V24.7786C25.1583 24.7055 25.1292 24.6354 25.0775 24.5837C25.0258 24.532 24.9557 24.5029 24.8826 24.5029H24.8591C24.786 24.5029 24.7159 24.532 24.6642 24.5837C24.6125 24.6354 24.5834 24.7055 24.5834 24.7786V26.5914C24.5834 26.6646 24.5544 26.7347 24.5027 26.7864C24.451 26.8381 24.3808 26.8671 24.3077 26.8671H24.2843C24.2112 26.8671 24.141 26.8381 24.0893 26.7864C24.0376 26.7347 24.0086 26.6646 24.0086 26.5914V24.7786C24.0086 24.7055 23.9795 24.6354 23.9278 24.5837C23.8761 24.532 23.806 24.5029 23.7328 24.5029H23.7163C23.6432 24.5029 23.5731 24.532 23.5214 24.5837C23.4696 24.6354 23.4406 24.7055 23.4406 24.7786V25.4031C23.4406 25.4762 23.4116 25.5464 23.3598 25.5981C23.3081 25.6498 23.238 25.6788 23.1649 25.6788H21.3631C21.29 25.6788 21.2199 25.7079 21.1682 25.7596C21.1165 25.8113 21.0874 25.8814 21.0874 25.9545V27.1594C21.0874 27.2325 21.1165 27.3027 21.1682 27.3544C21.2199 27.4061 21.29 27.4351 21.3631 27.4351H22.539C22.6121 27.4351 22.6823 27.4061 22.734 27.3544C22.7857 27.3027 22.8147 27.2325 22.8147 27.1594V27.1429C22.8147 27.0697 22.7857 26.9996 22.734 26.9479C22.6823 26.8962 22.6121 26.8671 22.539 26.8671H21.9366C21.8635 26.8671 21.7933 26.8381 21.7416 26.7864C21.6899 26.7347 21.6609 26.6646 21.6609 26.5914V26.5611C21.6609 26.488 21.6899 26.4179 21.7416 26.3662C21.7933 26.3144 21.8635 26.2854 21.9366 26.2854H23.1111C23.1842 26.2854 23.2544 26.3144 23.3061 26.3662C23.3578 26.4179 23.3868 26.488 23.3868 26.5611V27.1718C23.3868 27.2449 23.4159 27.3151 23.4676 27.3668C23.5193 27.4185 23.5894 27.4475 23.6625 27.4475H26.0061C26.0792 27.4475 26.1493 27.4185 26.201 27.3668C26.2527 27.3151 26.2818 27.2449 26.2818 27.1718V24.7786C26.2819 24.7081 26.255 24.6401 26.2065 24.5889C26.158 24.5376 26.0917 24.5068 26.0213 24.5029Z" fill="#F5F5F5"/>
<path d="M16.7381 27.4586C16.8113 27.4586 16.8814 27.4295 16.9331 27.3778C16.9848 27.3261 17.0139 27.256 17.0139 27.1829V27.1663C17.0139 27.0932 16.9848 27.0231 16.9331 26.9714C16.8814 26.9197 16.8113 26.8906 16.7381 26.8906H16.723C16.6499 26.8906 16.5797 26.9197 16.528 26.9714C16.4763 27.0231 16.4473 27.0932 16.4473 27.1663V27.1829C16.4473 27.256 16.4763 27.3261 16.528 27.3778C16.5797 27.4295 16.6499 27.4586 16.723 27.4586H16.7381Z" fill="#F5F5F5"/>
<path d="M15.5623 25.0971H22.5461C22.6192 25.0971 22.6893 25.0681 22.7411 25.0164C22.7928 24.9647 22.8218 24.8945 22.8218 24.8214V24.7911C22.8218 24.718 22.7928 24.6478 22.7411 24.5961C22.6893 24.5444 22.6192 24.5154 22.5461 24.5154H15.5623C15.5261 24.5154 15.4903 24.5225 15.4568 24.5364C15.4234 24.5502 15.393 24.5705 15.3674 24.5961C15.3418 24.6217 15.3215 24.6521 15.3076 24.6856C15.2938 24.719 15.2866 24.7549 15.2866 24.7911V24.8214C15.2866 24.8945 15.3157 24.9647 15.3674 25.0164C15.4191 25.0681 15.4892 25.0971 15.5623 25.0971Z" fill="#F5F5F5"/>
<path d="M20.2205 25.6914H19.0501C18.977 25.6914 18.9068 25.7204 18.8551 25.7721C18.8034 25.8238 18.7744 25.8939 18.7744 25.9671V25.9974C18.7744 26.0705 18.8034 26.1407 18.8551 26.1924C18.9068 26.2441 18.977 26.2731 19.0501 26.2731H19.6456C19.7187 26.2731 19.7889 26.3022 19.8406 26.3539C19.8923 26.4056 19.9213 26.4757 19.9213 26.5488V26.5792C19.9213 26.6523 19.8923 26.7224 19.8406 26.7741C19.7889 26.8258 19.7187 26.8549 19.6456 26.8549H18.4628C18.4266 26.8549 18.3908 26.8477 18.3573 26.8339C18.3239 26.82 18.2935 26.7997 18.2679 26.7741C18.2423 26.7485 18.2219 26.7181 18.2081 26.6847C18.1942 26.6512 18.1871 26.6154 18.1871 26.5792V25.9547C18.1871 25.8816 18.1581 25.8114 18.1063 25.7597C18.0546 25.708 17.9845 25.679 17.9114 25.679H15.5623C15.4892 25.679 15.4191 25.708 15.3674 25.7597C15.3157 25.8114 15.2866 25.8816 15.2866 25.9547V27.1595C15.2866 27.1957 15.2938 27.2316 15.3076 27.265C15.3215 27.2985 15.3418 27.3289 15.3674 27.3545C15.393 27.3801 15.4234 27.4004 15.4568 27.4143C15.4903 27.4281 15.5261 27.4352 15.5623 27.4352H15.5775C15.6137 27.4352 15.6496 27.4281 15.683 27.4143C15.7165 27.4004 15.7469 27.3801 15.7725 27.3545C15.7981 27.3289 15.8184 27.2985 15.8322 27.265C15.8461 27.2316 15.8532 27.1957 15.8532 27.1595V26.5488C15.8532 26.4757 15.8823 26.4056 15.934 26.3539C15.9857 26.3022 16.0558 26.2731 16.1289 26.2731H17.3034C17.3766 26.2731 17.4467 26.3022 17.4984 26.3539C17.5501 26.4056 17.5792 26.4757 17.5792 26.5488V27.1595C17.5792 27.1957 17.5863 27.2316 17.6001 27.265C17.614 27.2985 17.6343 27.3289 17.6599 27.3545C17.6855 27.3801 17.7159 27.4004 17.7494 27.4143C17.7828 27.4281 17.8187 27.4352 17.8549 27.4352H20.1984C20.2715 27.4352 20.3417 27.4062 20.3934 27.3545C20.4451 27.3028 20.4741 27.2327 20.4741 27.1595V25.9547C20.4713 25.8874 20.4439 25.8234 20.3972 25.7749C20.3505 25.7264 20.2876 25.6967 20.2205 25.6914Z" fill="#F5F5F5"/>
<path d="M28.3407 27.4586C28.4138 27.4586 28.4839 27.4295 28.5356 27.3778C28.5873 27.3261 28.6164 27.256 28.6164 27.1829V27.1663C28.6164 27.0932 28.5873 27.0231 28.5356 26.9714C28.4839 26.9197 28.4138 26.8906 28.3407 26.8906H28.3255C28.2524 26.8906 28.1823 26.9197 28.1306 26.9714C28.0789 27.0231 28.0498 27.0932 28.0498 27.1663V27.1829C28.0498 27.256 28.0789 27.3261 28.1306 27.3778C28.1823 27.4295 28.2524 27.4586 28.3255 27.4586H28.3407Z" fill="#F5F5F5"/>
<path d="M27.1644 25.0971H34.1399C34.213 25.0971 34.2831 25.0681 34.3348 25.0164C34.3865 24.9647 34.4156 24.8945 34.4156 24.8214V24.7911C34.4156 24.718 34.3865 24.6478 34.3348 24.5961C34.2831 24.5444 34.213 24.5154 34.1399 24.5154H27.1644C27.0913 24.5154 27.0211 24.5444 26.9694 24.5961C26.9177 24.6478 26.8887 24.718 26.8887 24.7911V24.8214C26.8887 24.8945 26.9177 24.9647 26.9694 25.0164C27.0211 25.0681 27.0913 25.0971 27.1644 25.0971Z" fill="#F5F5F5"/>
<path d="M37.6245 24.5029H37.6094C37.5362 24.5029 37.4661 24.532 37.4144 24.5837C37.3627 24.6354 37.3336 24.7055 37.3336 24.7786V26.5914C37.3336 26.6646 37.3046 26.7347 37.2529 26.7864C37.2012 26.8381 37.131 26.8671 37.0579 26.8671H37.0303C36.9572 26.8671 36.8871 26.8381 36.8354 26.7864C36.7837 26.7347 36.7546 26.6646 36.7546 26.5914V24.7786C36.7546 24.7055 36.7256 24.6354 36.6739 24.5837C36.6222 24.532 36.5521 24.5029 36.4789 24.5029H36.4555C36.3824 24.5029 36.3122 24.532 36.2605 24.5837C36.2088 24.6354 36.1798 24.7055 36.1798 24.7786V26.5914C36.1798 26.6646 36.1507 26.7347 36.099 26.7864C36.0473 26.8381 35.9772 26.8671 35.9041 26.8671H35.8958C35.8227 26.8671 35.7525 26.8381 35.7008 26.7864C35.6491 26.7347 35.6201 26.6646 35.6201 26.5914V24.7786C35.6201 24.7055 35.591 24.6354 35.5393 24.5837C35.4876 24.532 35.4175 24.5029 35.3444 24.5029H35.3292C35.2561 24.5029 35.186 24.532 35.1343 24.5837C35.0826 24.6354 35.0535 24.7055 35.0535 24.7786V25.4031C35.0535 25.4762 35.0245 25.5464 34.9728 25.5981C34.921 25.6498 34.8509 25.6788 34.7778 25.6788H33.0091C32.936 25.6788 32.8659 25.7079 32.8142 25.7596C32.7624 25.8113 32.7334 25.8814 32.7334 25.9545V27.1594C32.7334 27.2325 32.7624 27.3026 32.8142 27.3544C32.8659 27.4061 32.936 27.4351 33.0091 27.4351H34.1919C34.265 27.4351 34.3352 27.4061 34.3869 27.3544C34.4386 27.3026 34.4676 27.2325 34.4676 27.1594V27.1428C34.4676 27.0697 34.4386 26.9996 34.3869 26.9479C34.3352 26.8962 34.265 26.8671 34.1919 26.8671H33.5964C33.5232 26.8671 33.4531 26.8381 33.4014 26.7864C33.3497 26.7347 33.3207 26.6646 33.3207 26.5914V26.5611C33.3207 26.488 33.3497 26.4178 33.4014 26.3661C33.4531 26.3144 33.5232 26.2854 33.5964 26.2854H34.7792C34.8523 26.2854 34.9224 26.3144 34.9741 26.3661C35.0258 26.4178 35.0549 26.488 35.0549 26.5611V27.1718C35.0549 27.2449 35.0839 27.3151 35.1356 27.3668C35.1873 27.4185 35.2575 27.4475 35.3306 27.4475H37.6645C37.7376 27.4475 37.8077 27.4185 37.8594 27.3668C37.9111 27.3151 37.9402 27.2449 37.9402 27.1718V24.7786C37.9406 24.7388 37.9324 24.6993 37.9161 24.663C37.8998 24.6266 37.8759 24.5942 37.8459 24.568C37.8159 24.5418 37.7805 24.5225 37.7423 24.5112C37.7041 24.5 37.6639 24.4971 37.6245 24.5029Z" fill="#F5F5F5"/>
<path d="M31.8227 25.6914H30.6399C30.5668 25.6914 30.4967 25.7204 30.445 25.7721C30.3933 25.8238 30.3642 25.8939 30.3642 25.9671V25.9974C30.3642 26.0705 30.3933 26.1407 30.445 26.1924C30.4967 26.2441 30.5668 26.2731 30.6399 26.2731H31.2355C31.3086 26.2731 31.3787 26.3022 31.4304 26.3539C31.4821 26.4056 31.5112 26.4757 31.5112 26.5488V26.5792C31.5112 26.6523 31.4821 26.7224 31.4304 26.7741C31.3787 26.8258 31.3086 26.8549 31.2355 26.8549H30.0609C29.9878 26.8549 29.9177 26.8258 29.866 26.7741C29.8143 26.7224 29.7852 26.6523 29.7852 26.5792V25.9547C29.7852 25.8816 29.7562 25.8114 29.7045 25.7597C29.6528 25.708 29.5826 25.679 29.5095 25.679H27.1756C27.1025 25.679 27.0324 25.708 26.9807 25.7597C26.929 25.8114 26.8999 25.8816 26.8999 25.9547V27.1595C26.8999 27.2327 26.929 27.3028 26.9807 27.3545C27.0324 27.4062 27.1025 27.4352 27.1756 27.4352H27.1908C27.227 27.4352 27.2628 27.4281 27.2963 27.4143C27.3297 27.4004 27.3601 27.3801 27.3857 27.3545C27.4113 27.3289 27.4316 27.2985 27.4455 27.265C27.4594 27.2316 27.4665 27.1957 27.4665 27.1595V26.5488C27.4665 26.4757 27.4955 26.4056 27.5472 26.3539C27.5989 26.3022 27.6691 26.2731 27.7422 26.2731H28.9167C28.9898 26.2731 29.06 26.3022 29.1117 26.3539C29.1634 26.4056 29.1924 26.4757 29.1924 26.5488V27.1595C29.1924 27.2327 29.2215 27.3028 29.2732 27.3545C29.3249 27.4062 29.395 27.4352 29.4681 27.4352H31.8117C31.8848 27.4352 31.9549 27.4062 32.0067 27.3545C32.0584 27.3028 32.0874 27.2327 32.0874 27.1595V25.9547C32.0843 25.8856 32.0554 25.8202 32.0064 25.7714C31.9574 25.7226 31.8918 25.6941 31.8227 25.6914Z" fill="#F5F5F5"/>
<path d="M49.2271 24.503H49.2105C49.1374 24.503 49.0673 24.532 49.0156 24.5837C48.9639 24.6354 48.9348 24.7056 48.9348 24.7787V26.5915C48.9348 26.6646 48.9058 26.7347 48.8541 26.7864C48.8024 26.8381 48.7322 26.8672 48.6591 26.8672H48.626C48.5529 26.8672 48.4828 26.8381 48.431 26.7864C48.3793 26.7347 48.3503 26.6646 48.3503 26.5915V24.7787C48.3503 24.7056 48.3212 24.6354 48.2695 24.5837C48.2178 24.532 48.1477 24.503 48.0746 24.503H48.0594C47.9863 24.503 47.9162 24.532 47.8645 24.5837C47.8128 24.6354 47.7837 24.7056 47.7837 24.7787V26.5915C47.7837 26.6646 47.7547 26.7347 47.703 26.7864C47.6513 26.8381 47.5812 26.8672 47.508 26.8672H47.4915C47.4183 26.8672 47.3482 26.8381 47.2965 26.7864C47.2448 26.7347 47.2158 26.6646 47.2158 26.5915V24.7787C47.2158 24.7056 47.1867 24.6354 47.135 24.5837C47.0833 24.532 47.0132 24.503 46.94 24.503H46.9249C46.8518 24.503 46.7816 24.532 46.7299 24.5837C46.6782 24.6354 46.6492 24.7056 46.6492 24.7787V25.4032C46.6492 25.4763 46.6201 25.5464 46.5684 25.5981C46.5167 25.6498 46.4466 25.6789 46.3734 25.6789H44.6117C44.5385 25.6789 44.4684 25.7079 44.4167 25.7596C44.365 25.8113 44.3359 25.8815 44.3359 25.9546V27.1594C44.3359 27.2326 44.365 27.3027 44.4167 27.3544C44.4684 27.4061 44.5385 27.4352 44.6117 27.4352H45.7945C45.8676 27.4352 45.9377 27.4061 45.9894 27.3544C46.0411 27.3027 46.0702 27.2326 46.0702 27.1594V27.1429C46.0702 27.0698 46.0411 26.9996 45.9894 26.9479C45.9377 26.8962 45.8676 26.8672 45.7945 26.8672H45.192C45.1189 26.8672 45.0488 26.8381 44.9971 26.7864C44.9454 26.7347 44.9163 26.6646 44.9163 26.5915V26.5611C44.9163 26.488 44.9454 26.4179 44.9971 26.3662C45.0488 26.3145 45.1189 26.2854 45.192 26.2854H46.3748C46.448 26.2854 46.5181 26.3145 46.5698 26.3662C46.6215 26.4179 46.6506 26.488 46.6506 26.5611V27.1718C46.6506 27.245 46.6796 27.3151 46.7313 27.3668C46.783 27.4185 46.8531 27.4476 46.9262 27.4476H49.2602C49.3333 27.4476 49.4034 27.4185 49.4551 27.3668C49.5068 27.3151 49.5359 27.245 49.5359 27.1718V24.7787C49.5361 24.7395 49.5281 24.7007 49.5122 24.6649C49.4963 24.6291 49.473 24.5971 49.4438 24.571C49.4146 24.5449 49.3801 24.5254 49.3428 24.5136C49.3054 24.5019 49.2659 24.4983 49.2271 24.503Z" fill="#F5F5F5"/>
<path d="M43.4261 25.6914H42.2433C42.1701 25.6914 42.1 25.7204 42.0483 25.7721C41.9966 25.8238 41.9676 25.8939 41.9676 25.9671V25.9974C41.9676 26.0705 41.9966 26.1407 42.0483 26.1924C42.1 26.2441 42.1701 26.2731 42.2433 26.2731H42.8457C42.9188 26.2731 42.9889 26.3022 43.0407 26.3539C43.0924 26.4056 43.1214 26.4757 43.1214 26.5488V26.5792C43.1214 26.6523 43.0924 26.7224 43.0407 26.7741C42.9889 26.8258 42.9188 26.8549 42.8457 26.8549H41.6712C41.598 26.8549 41.5279 26.8258 41.4762 26.7741C41.4245 26.7224 41.3955 26.6523 41.3955 26.5792V25.9547C41.3955 25.8816 41.3664 25.8114 41.3147 25.7597C41.263 25.708 41.1929 25.679 41.1197 25.679H38.7762C38.7031 25.679 38.6329 25.708 38.5812 25.7597C38.5295 25.8114 38.5005 25.8816 38.5005 25.9547V27.1595C38.5005 27.2327 38.5295 27.3028 38.5812 27.3545C38.6329 27.4062 38.7031 27.4352 38.7762 27.4352H38.7927C38.8659 27.4352 38.936 27.4062 38.9877 27.3545C39.0394 27.3028 39.0685 27.2327 39.0685 27.1595V26.5488C39.0685 26.4757 39.0975 26.4056 39.1492 26.3539C39.2009 26.3022 39.271 26.2731 39.3442 26.2731H40.5187C40.5918 26.2731 40.6619 26.3022 40.7137 26.3539C40.7654 26.4056 40.7944 26.4757 40.7944 26.5488V27.1595C40.7944 27.2327 40.8235 27.3028 40.8752 27.3545C40.9269 27.4062 40.997 27.4352 41.0701 27.4352H43.4136C43.4868 27.4352 43.5569 27.4062 43.6086 27.3545C43.6603 27.3028 43.6894 27.2327 43.6894 27.1595V25.9547C43.6863 25.8858 43.6576 25.8206 43.6089 25.7719C43.5601 25.7231 43.4949 25.6944 43.4261 25.6914Z" fill="#F5F5F5"/>
<path d="M38.7664 25.0971H45.7488C45.8219 25.0971 45.8921 25.0681 45.9438 25.0164C45.9955 24.9647 46.0245 24.8945 46.0245 24.8214V24.7911C46.0245 24.718 45.9955 24.6478 45.9438 24.5961C45.8921 24.5444 45.8219 24.5154 45.7488 24.5154H38.7664C38.6933 24.5154 38.6232 24.5444 38.5715 24.5961C38.5198 24.6478 38.4907 24.718 38.4907 24.7911V24.8214C38.4907 24.8945 38.5198 24.9647 38.5715 25.0164C38.6232 25.0681 38.6933 25.0971 38.7664 25.0971Z" fill="#F5F5F5"/>
<path d="M39.9422 27.4586C40.0153 27.4586 40.0854 27.4295 40.1371 27.3778C40.1889 27.3261 40.2179 27.256 40.2179 27.1829V27.1663C40.2179 27.0932 40.1889 27.0231 40.1371 26.9714C40.0854 26.9197 40.0153 26.8906 39.9422 26.8906H39.9339C39.8608 26.8906 39.7907 26.9197 39.739 26.9714C39.6873 27.0231 39.6582 27.0932 39.6582 27.1663V27.1829C39.6582 27.256 39.6873 27.3261 39.739 27.3778C39.7907 27.4295 39.8608 27.4586 39.9339 27.4586H39.9422Z" fill="#F5F5F5"/>
<path d="M55.0262 25.6914H53.8517C53.7786 25.6914 53.7085 25.7204 53.6568 25.7721C53.6051 25.8238 53.576 25.8939 53.576 25.9671V25.9974C53.576 26.0705 53.6051 26.1407 53.6568 26.1924C53.7085 26.2441 53.7786 26.2731 53.8517 26.2731H54.4404C54.5135 26.2731 54.5836 26.3022 54.6353 26.3539C54.687 26.4056 54.7161 26.4757 54.7161 26.5488V26.5792C54.7161 26.6523 54.687 26.7224 54.6353 26.7741C54.5836 26.8258 54.5135 26.8549 54.4404 26.8549H53.2727C53.1996 26.8549 53.1295 26.8258 53.0778 26.7741C53.0261 26.7224 52.997 26.6523 52.997 26.5792V25.9547C52.997 25.8816 52.968 25.8114 52.9163 25.7597C52.8645 25.708 52.7944 25.679 52.7213 25.679H50.3777C50.3046 25.679 50.2345 25.708 50.1828 25.7597C50.1311 25.8114 50.1021 25.8816 50.1021 25.9547V27.1595C50.1021 27.2327 50.1311 27.3028 50.1828 27.3545C50.2345 27.4062 50.3046 27.4352 50.3777 27.4352H50.3943C50.4674 27.4352 50.5376 27.4062 50.5893 27.3545C50.641 27.3028 50.67 27.2327 50.67 27.1595V26.5488C50.67 26.4757 50.6991 26.4056 50.7508 26.3539C50.8025 26.3022 50.8726 26.2731 50.9457 26.2731H52.1202C52.1934 26.2731 52.2635 26.3022 52.3152 26.3539C52.3669 26.4056 52.396 26.4757 52.396 26.5488V27.1595C52.396 27.2327 52.425 27.3028 52.4767 27.3545C52.5284 27.4062 52.5985 27.4352 52.6717 27.4352H55.0152C55.0883 27.4352 55.1585 27.4062 55.2102 27.3545C55.2619 27.3028 55.2909 27.2327 55.2909 27.1595V25.9547C55.2879 25.8856 55.2589 25.8202 55.2099 25.7714C55.1609 25.7226 55.0953 25.6941 55.0262 25.6914Z" fill="#F5F5F5"/>
<path d="M60.8272 24.503H60.8107C60.7376 24.503 60.6675 24.5321 60.6157 24.5838C60.564 24.6355 60.535 24.7056 60.535 24.7787V26.5916C60.535 26.6647 60.5059 26.7348 60.4542 26.7865C60.4025 26.8382 60.3324 26.8673 60.2593 26.8673H60.2441C60.171 26.8673 60.1009 26.8382 60.0491 26.7865C59.9974 26.7348 59.9684 26.6647 59.9684 26.5916V24.7787C59.9684 24.7056 59.9393 24.6355 59.8876 24.5838C59.8359 24.5321 59.7658 24.503 59.6927 24.503H59.6762C59.603 24.503 59.5329 24.5321 59.4812 24.5838C59.4295 24.6355 59.4004 24.7056 59.4004 24.7787V26.5916C59.4004 26.6647 59.3714 26.7348 59.3197 26.7865C59.268 26.8382 59.1979 26.8673 59.1247 26.8673H59.1096C59.0364 26.8673 58.9663 26.8382 58.9146 26.7865C58.8629 26.7348 58.8339 26.6647 58.8339 26.5916V24.7787C58.8339 24.7056 58.8048 24.6355 58.7531 24.5838C58.7014 24.5321 58.6313 24.503 58.5581 24.503H58.5416C58.4685 24.503 58.3984 24.5321 58.3467 24.5838C58.2949 24.6355 58.2659 24.7056 58.2659 24.7787V25.4032C58.2659 25.4764 58.2369 25.5465 58.1851 25.5982C58.1334 25.6499 58.0633 25.6789 57.9902 25.6789H56.2367C56.1635 25.6789 56.0934 25.708 56.0417 25.7597C55.99 25.8114 55.9609 25.8815 55.9609 25.9547V27.1595C55.9609 27.2326 55.99 27.3028 56.0417 27.3545C56.0934 27.4062 56.1635 27.4352 56.2367 27.4352H57.4112C57.4843 27.4352 57.5544 27.4062 57.6061 27.3545C57.6578 27.3028 57.6869 27.2326 57.6869 27.1595V27.143C57.6869 27.0698 57.6578 26.9997 57.6061 26.948C57.5544 26.8963 57.4843 26.8673 57.4112 26.8673H56.8087C56.7356 26.8673 56.6655 26.8382 56.6138 26.7865C56.5621 26.7348 56.533 26.6647 56.533 26.5916V26.5612C56.533 26.4881 56.5621 26.418 56.6138 26.3663C56.6655 26.3146 56.7356 26.2855 56.8087 26.2855H57.9902C58.0633 26.2855 58.1334 26.3146 58.1851 26.3663C58.2369 26.418 58.2659 26.4881 58.2659 26.5612V27.1719C58.2659 27.245 58.2949 27.3152 58.3467 27.3669C58.3984 27.4186 58.4685 27.4476 58.5416 27.4476H60.8755C60.9486 27.4476 61.0187 27.4186 61.0704 27.3669C61.1221 27.3152 61.1512 27.245 61.1512 27.1719V24.7787C61.1518 24.7381 61.1435 24.6978 61.1267 24.6608C61.1099 24.6237 61.0852 24.5909 61.0542 24.5645C61.0232 24.5382 60.9868 24.519 60.9476 24.5084C60.9084 24.4977 60.8673 24.4959 60.8272 24.503Z" fill="#F5F5F5"/>
<path d="M51.5442 27.4586C51.6174 27.4586 51.6875 27.4295 51.7392 27.3778C51.7909 27.3261 51.82 27.256 51.82 27.1829V27.1663C51.82 27.0932 51.7909 27.0231 51.7392 26.9714C51.6875 26.9197 51.6174 26.8906 51.5442 26.8906H51.5359C51.4628 26.8906 51.3927 26.9197 51.341 26.9714C51.2893 27.0231 51.2603 27.0932 51.2603 27.1663V27.1829C51.2603 27.256 51.2893 27.3261 51.341 27.3778C51.3927 27.4295 51.4628 27.4586 51.5359 27.4586H51.5442Z" fill="#F5F5F5"/>
<path d="M50.3685 25.0971H57.3522C57.4254 25.0971 57.4955 25.0681 57.5472 25.0164C57.5989 24.9647 57.6279 24.8945 57.6279 24.8214V24.7911C57.6279 24.718 57.5989 24.6478 57.5472 24.5961C57.4955 24.5444 57.4254 24.5154 57.3522 24.5154H50.3685C50.2953 24.5154 50.2252 24.5444 50.1735 24.5961C50.1218 24.6478 50.0928 24.718 50.0928 24.7911V24.8214C50.0928 24.8945 50.1218 24.9647 50.1735 25.0164C50.2252 25.0681 50.2953 25.0971 50.3685 25.0971Z" fill="#F5F5F5"/>
<path d="M63.1532 27.4586C63.2263 27.4586 63.2964 27.4295 63.3481 27.3778C63.3998 27.3261 63.4289 27.256 63.4289 27.1829V27.1663C63.4289 27.0932 63.3998 27.0231 63.3481 26.9714C63.2964 26.9197 63.2263 26.8906 63.1532 26.8906H63.1297C63.0566 26.8906 62.9864 26.9197 62.9347 26.9714C62.883 27.0231 62.854 27.0932 62.854 27.1663V27.1829C62.854 27.256 62.883 27.3261 62.9347 27.3778C62.9864 27.4295 63.0566 27.4586 63.1297 27.4586H63.1532Z" fill="#F5F5F5"/>
<path d="M61.9701 25.0971H68.9524C69.0256 25.0971 69.0957 25.0681 69.1474 25.0164C69.1991 24.9647 69.2281 24.8945 69.2281 24.8214V24.7911C69.2281 24.718 69.1991 24.6478 69.1474 24.5961C69.0957 24.5444 69.0256 24.5154 68.9524 24.5154H61.9701C61.8969 24.5154 61.8268 24.5444 61.7751 24.5961C61.7234 24.6478 61.6943 24.718 61.6943 24.7911V24.8214C61.6943 24.8945 61.7234 24.9647 61.7751 25.0164C61.8268 25.0681 61.8969 25.0971 61.9701 25.0971Z" fill="#F5F5F5"/>
<path d="M72.4322 24.5029H72.4239C72.3508 24.5029 72.2807 24.532 72.229 24.5837C72.1773 24.6354 72.1482 24.7055 72.1482 24.7786V26.5914C72.1482 26.6646 72.1192 26.7347 72.0675 26.7864C72.0158 26.8381 71.9456 26.8671 71.8725 26.8671H71.8491C71.776 26.8671 71.7058 26.8381 71.6541 26.7864C71.6024 26.7347 71.5734 26.6646 71.5734 26.5914V24.7786C71.5734 24.7055 71.5443 24.6354 71.4926 24.5837C71.4409 24.532 71.3708 24.5029 71.2977 24.5029H71.2811C71.208 24.5029 71.1379 24.532 71.0862 24.5837C71.0345 24.6354 71.0054 24.7055 71.0054 24.7786V26.5914C71.0054 26.6646 70.9764 26.7347 70.9247 26.7864C70.873 26.8381 70.8028 26.8671 70.7297 26.8671H70.7145C70.6414 26.8671 70.5713 26.8381 70.5196 26.7864C70.4679 26.7347 70.4388 26.6646 70.4388 26.5914V24.7786C70.4388 24.7055 70.4098 24.6354 70.3581 24.5837C70.3064 24.532 70.2362 24.5029 70.1631 24.5029H70.1466C70.0735 24.5029 70.0033 24.532 69.9516 24.5837C69.8999 24.6354 69.8709 24.7055 69.8709 24.7786V25.4031C69.8709 25.4762 69.8418 25.5464 69.7901 25.5981C69.7384 25.6498 69.6683 25.6788 69.5951 25.6788H67.8416C67.7685 25.6788 67.6984 25.7079 67.6467 25.7596C67.5949 25.8113 67.5659 25.8814 67.5659 25.9545V27.1594C67.5659 27.2325 67.5949 27.3027 67.6467 27.3544C67.6984 27.4061 67.7685 27.4351 67.8416 27.4351H69.0162C69.0893 27.4351 69.1594 27.4061 69.2111 27.3544C69.2628 27.3027 69.2918 27.2325 69.2918 27.1594V27.1429C69.2918 27.0697 69.2628 26.9996 69.2111 26.9479C69.1594 26.8962 69.0893 26.8671 69.0162 26.8671H68.4275C68.3544 26.8671 68.2843 26.8381 68.2326 26.7864C68.1809 26.7347 68.1518 26.6646 68.1518 26.5914V26.5611C68.1518 26.488 68.1809 26.4179 68.2326 26.3662C68.2843 26.3144 68.3544 26.2854 68.4275 26.2854H69.5951C69.6683 26.2854 69.7384 26.3144 69.7901 26.3662C69.8418 26.4179 69.8709 26.488 69.8709 26.5611V27.1718C69.8709 27.2449 69.8999 27.3151 69.9516 27.3668C70.0033 27.4185 70.0735 27.4475 70.1466 27.4475H72.4322C72.5053 27.4475 72.5755 27.4185 72.6272 27.3668C72.6789 27.3151 72.708 27.2449 72.708 27.1718V24.7786C72.708 24.7055 72.6789 24.6354 72.6272 24.5837C72.5755 24.532 72.5053 24.5029 72.4322 24.5029Z" fill="#F5F5F5"/>
<path d="M66.6282 25.6914H65.4536C65.3805 25.6914 65.3104 25.7204 65.2587 25.7721C65.207 25.8238 65.178 25.8939 65.178 25.9671V25.9974C65.178 26.0705 65.207 26.1407 65.2587 26.1924C65.3104 26.2441 65.3805 26.2731 65.4536 26.2731H66.0561C66.1292 26.2731 66.1993 26.3022 66.251 26.3539C66.3027 26.4056 66.3318 26.4757 66.3318 26.5488V26.5792C66.3318 26.6523 66.3027 26.7224 66.251 26.7741C66.1993 26.8258 66.1292 26.8549 66.0561 26.8549H64.8664C64.7933 26.8549 64.7231 26.8258 64.6714 26.7741C64.6197 26.7224 64.5907 26.6523 64.5907 26.5792V25.9547C64.5907 25.8816 64.5616 25.8114 64.5099 25.7597C64.4582 25.708 64.3881 25.679 64.315 25.679H61.9701C61.8969 25.679 61.8268 25.708 61.7751 25.7597C61.7234 25.8114 61.6943 25.8816 61.6943 25.9547V27.1595C61.6943 27.2327 61.7234 27.3028 61.7751 27.3545C61.8268 27.4062 61.8969 27.4352 61.9701 27.4352H61.9866C62.0597 27.4352 62.1298 27.4062 62.1816 27.3545C62.2333 27.3028 62.2623 27.2327 62.2623 27.1595V26.5488C62.2623 26.4757 62.2914 26.4056 62.3431 26.3539C62.3948 26.3022 62.4649 26.2731 62.538 26.2731H63.7194C63.7925 26.2731 63.8627 26.3022 63.9144 26.3539C63.9661 26.4056 63.9952 26.4757 63.9952 26.5488V27.1595C63.9952 27.2327 64.0242 27.3028 64.0759 27.3545C64.1276 27.4062 64.1977 27.4352 64.2708 27.4352H66.6048C66.6779 27.4352 66.748 27.4062 66.7997 27.3545C66.8514 27.3028 66.8804 27.2327 66.8804 27.1595V25.9547C66.8777 25.8876 66.8505 25.8238 66.804 25.7754C66.7576 25.7269 66.6951 25.697 66.6282 25.6914Z" fill="#F5F5F5"/>
<path d="M76.7813 25.9726V26.003C76.7813 26.0761 76.8104 26.1462 76.8621 26.1979C76.9138 26.2496 76.9839 26.2787 77.057 26.2787H77.6526C77.7257 26.2787 77.7958 26.3077 77.8475 26.3594C77.8992 26.4111 77.9282 26.4813 77.9282 26.5544V26.5847C77.9282 26.6578 77.8992 26.728 77.8475 26.7797C77.7958 26.8314 77.7257 26.8604 77.6526 26.8604H76.4739C76.4008 26.8604 76.3306 26.8314 76.2789 26.7797C76.2272 26.728 76.1982 26.6578 76.1982 26.5847V25.9602C76.1982 25.8871 76.1691 25.817 76.1174 25.7653C76.0657 25.7136 75.9956 25.6845 75.9225 25.6845H73.5789C73.5058 25.6845 73.4357 25.7136 73.384 25.7653C73.3322 25.817 73.3032 25.8871 73.3032 25.9602V27.1651C73.3032 27.2382 73.3322 27.3083 73.384 27.3601C73.4357 27.4118 73.5058 27.4408 73.5789 27.4408H73.5872C73.6603 27.4408 73.7304 27.4118 73.7821 27.3601C73.8339 27.3083 73.8629 27.2382 73.8629 27.1651V26.5544C73.8629 26.4813 73.8919 26.4111 73.9437 26.3594C73.9954 26.3077 74.0655 26.2787 74.1386 26.2787H75.3132C75.3863 26.2787 75.4564 26.3077 75.5081 26.3594C75.5598 26.4111 75.5888 26.4813 75.5888 26.5544V27.1651C75.5888 27.2382 75.6179 27.3083 75.6696 27.3601C75.7213 27.4118 75.7915 27.4408 75.8646 27.4408H77.9751V25.6721H77.0391C77.0022 25.6744 76.9662 25.684 76.9331 25.7004C76.9 25.7169 76.8706 25.7398 76.8466 25.7678C76.8225 25.7958 76.8044 25.8284 76.7931 25.8636C76.7819 25.8988 76.7779 25.9359 76.7813 25.9726Z" fill="#F5F5F5"/>
<path d="M73.3045 24.7842V24.8145C73.3045 24.8877 73.3335 24.9578 73.3852 25.0095C73.4369 25.0612 73.507 25.0903 73.5802 25.0903H78.0012V24.4961H73.5802C73.5429 24.4961 73.506 24.5036 73.4717 24.5182C73.4374 24.5328 73.4065 24.5542 73.3807 24.5812C73.3549 24.6081 73.3349 24.64 73.3218 24.6749C73.3087 24.7098 73.3028 24.747 73.3045 24.7842Z" fill="#F5F5F5"/>
<path d="M74.7381 27.4586H74.7547C74.8278 27.4586 74.8979 27.4295 74.9496 27.3778C75.0013 27.3261 75.0304 27.256 75.0304 27.1829V27.1663C75.0304 27.0932 75.0013 27.0231 74.9496 26.9714C74.8979 26.9197 74.8278 26.8906 74.7547 26.8906H74.7381C74.665 26.8906 74.5948 26.9197 74.5431 26.9714C74.4914 27.0231 74.4624 27.0932 74.4624 27.1663V27.1829C74.4624 27.256 74.4914 27.3261 74.5431 27.3778C74.5948 27.4295 74.665 27.4586 74.7381 27.4586Z" fill="#F5F5F5"/>
<path d="M14.7023 28.9749V28.3504C14.7023 28.2773 14.6732 28.2072 14.6215 28.1555C14.5698 28.1038 14.4997 28.0747 14.4265 28.0747H10V29.263H14.4196C14.4575 29.264 14.4951 29.2572 14.5302 29.243C14.5653 29.2288 14.5971 29.2075 14.6237 29.1805C14.6502 29.1534 14.6708 29.1212 14.6844 29.0859C14.6979 29.0505 14.704 29.0127 14.7023 28.9749Z" fill="#F5F5F5"/>
<path d="M20.2205 28.0679H15.5623C15.5261 28.0679 15.4903 28.075 15.4568 28.0888C15.4234 28.1027 15.393 28.123 15.3674 28.1486C15.3418 28.1742 15.3215 28.2046 15.3076 28.2381C15.2938 28.2715 15.2866 28.3074 15.2866 28.3436V28.9681C15.2866 29.0043 15.2938 29.0401 15.3076 29.0736C15.3215 29.107 15.3418 29.1374 15.3674 29.163C15.393 29.1886 15.4234 29.2089 15.4568 29.2228C15.4903 29.2366 15.5261 29.2438 15.5623 29.2438H20.2205C20.2567 29.2438 20.2925 29.2366 20.326 29.2228C20.3594 29.2089 20.3898 29.1886 20.4154 29.163C20.441 29.1374 20.4613 29.107 20.4752 29.0736C20.489 29.0401 20.4962 29.0043 20.4962 28.9681V28.3436C20.4962 28.3074 20.489 28.2715 20.4752 28.2381C20.4613 28.2046 20.441 28.1742 20.4154 28.1486C20.3898 28.123 20.3594 28.1027 20.326 28.0888C20.2925 28.075 20.2567 28.0679 20.2205 28.0679Z" fill="#F5F5F5"/>
<path d="M26.0213 28.0679H21.3631C21.29 28.0679 21.2199 28.0969 21.1682 28.1486C21.1165 28.2003 21.0874 28.2705 21.0874 28.3436V28.9681C21.0874 29.0412 21.1165 29.1113 21.1682 29.163C21.2199 29.2147 21.29 29.2438 21.3631 29.2438H26.0213C26.0944 29.2438 26.1645 29.2147 26.2162 29.163C26.2679 29.1113 26.297 29.0412 26.297 28.9681V28.3436C26.297 28.2705 26.2679 28.2003 26.2162 28.1486C26.1645 28.0969 26.0944 28.0679 26.0213 28.0679Z" fill="#F5F5F5"/>
<path d="M31.8171 28.0679H27.159C27.0859 28.0679 27.0158 28.0969 26.9641 28.1486C26.9123 28.2003 26.8833 28.2705 26.8833 28.3436V28.9681C26.8833 29.0412 26.9123 29.1113 26.9641 29.163C27.0158 29.2147 27.0859 29.2438 27.159 29.2438H31.8171C31.8903 29.2438 31.9604 29.2147 32.0121 29.163C32.0638 29.1113 32.0928 29.0412 32.0928 28.9681V28.3436C32.0928 28.2705 32.0638 28.2003 32.0121 28.1486C31.9604 28.0969 31.8903 28.0679 31.8171 28.0679Z" fill="#F5F5F5"/>
<path d="M37.6248 28.0679H32.9598C32.8867 28.0679 32.8165 28.0969 32.7648 28.1486C32.7131 28.2003 32.6841 28.2705 32.6841 28.3436V28.9681C32.6841 29.0412 32.7131 29.1113 32.7648 29.163C32.8165 29.2147 32.8867 29.2438 32.9598 29.2438H37.6248C37.6979 29.2438 37.7681 29.2147 37.8198 29.163C37.8715 29.1113 37.9006 29.0412 37.9006 28.9681V28.3436C37.9006 28.2705 37.8715 28.2003 37.8198 28.1486C37.7681 28.0969 37.6979 28.0679 37.6248 28.0679Z" fill="#F5F5F5"/>
<path d="M43.426 28.0679H38.7679C38.6948 28.0679 38.6246 28.0969 38.5729 28.1486C38.5212 28.2003 38.4922 28.2705 38.4922 28.3436V28.9681C38.4922 29.0412 38.5212 29.1113 38.5729 29.163C38.6246 29.2147 38.6948 29.2438 38.7679 29.2438H43.426C43.4992 29.2438 43.5693 29.2147 43.621 29.163C43.6727 29.1113 43.7017 29.0412 43.7017 28.9681V28.3436C43.7017 28.2705 43.6727 28.2003 43.621 28.1486C43.5693 28.0969 43.4992 28.0679 43.426 28.0679Z" fill="#F5F5F5"/>
<path d="M49.2268 28.0679H44.5687C44.4955 28.0679 44.4254 28.0969 44.3737 28.1486C44.322 28.2003 44.293 28.2705 44.293 28.3436V28.9681C44.293 29.0412 44.322 29.1113 44.3737 29.163C44.4254 29.2147 44.4955 29.2438 44.5687 29.2438H49.2268C49.2999 29.2438 49.37 29.2147 49.4217 29.163C49.4734 29.1113 49.5025 29.0412 49.5025 28.9681V28.3436C49.5025 28.2705 49.4734 28.2003 49.4217 28.1486C49.37 28.0969 49.2999 28.0679 49.2268 28.0679Z" fill="#F5F5F5"/>
<path d="M60.8288 28.0679H56.1776C56.1045 28.0679 56.0343 28.0969 55.9826 28.1486C55.9309 28.2003 55.9019 28.2705 55.9019 28.3436V28.9681C55.9019 29.0412 55.9309 29.1113 55.9826 29.163C56.0343 29.2147 56.1045 29.2438 56.1776 29.2438H60.8288C60.9019 29.2438 60.9721 29.2147 61.0238 29.163C61.0755 29.1113 61.1045 29.0412 61.1045 28.9681V28.3436C61.1045 28.2705 61.0755 28.2003 61.0238 28.1486C60.9721 28.0969 60.9019 28.0679 60.8288 28.0679Z" fill="#F5F5F5"/>
<path d="M55.0276 28.0679H50.3694C50.2963 28.0679 50.2262 28.0969 50.1745 28.1486C50.1228 28.2003 50.0938 28.2705 50.0938 28.3436V28.9681C50.0938 29.0412 50.1228 29.1113 50.1745 29.163C50.2262 29.2147 50.2963 29.2438 50.3694 29.2438H55.0276C55.1007 29.2438 55.1708 29.2147 55.2225 29.163C55.2742 29.1113 55.3033 29.0412 55.3033 28.9681V28.3436C55.3033 28.2705 55.2742 28.2003 55.2225 28.1486C55.1708 28.0969 55.1007 28.0679 55.0276 28.0679Z" fill="#F5F5F5"/>
<path d="M66.6297 28.0679H61.9715C61.8984 28.0679 61.8282 28.0969 61.7765 28.1486C61.7248 28.2003 61.6958 28.2705 61.6958 28.3436V28.9681C61.6958 29.0412 61.7248 29.1113 61.7765 29.163C61.8282 29.2147 61.8984 29.2438 61.9715 29.2438H66.6297C66.7028 29.2438 66.7729 29.2147 66.8246 29.163C66.8763 29.1113 66.9053 29.0412 66.9053 28.9681V28.3436C66.9053 28.2705 66.8763 28.2003 66.8246 28.1486C66.7729 28.0969 66.7028 28.0679 66.6297 28.0679Z" fill="#F5F5F5"/>
<path d="M72.4334 28.0679H67.7835C67.7104 28.0679 67.6403 28.0969 67.5885 28.1486C67.5368 28.2003 67.5078 28.2705 67.5078 28.3436V28.9681C67.5078 29.0412 67.5368 29.1113 67.5885 29.163C67.6403 29.2147 67.7104 29.2438 67.7835 29.2438H72.4334C72.5065 29.2438 72.5766 29.2147 72.6283 29.163C72.68 29.1113 72.7091 29.0412 72.7091 28.9681V28.3436C72.7091 28.2705 72.68 28.2003 72.6283 28.1486C72.5766 28.0969 72.5065 28.0679 72.4334 28.0679Z" fill="#F5F5F5"/>
<path d="M73.3045 28.3492V28.9736C73.3045 29.0468 73.3335 29.1169 73.3852 29.1686C73.4369 29.2203 73.507 29.2493 73.5802 29.2493H78.0012V28.061H73.5802C73.5429 28.061 73.506 28.0685 73.4717 28.0831C73.4374 28.0978 73.4065 28.1192 73.3807 28.1461C73.3549 28.1731 73.3349 28.2049 73.3218 28.2398C73.3087 28.2747 73.3028 28.3119 73.3045 28.3492Z" fill="#F5F5F5"/>
<path d="M76.7825 52.824V52.8405C76.7825 52.9136 76.8115 52.9838 76.8633 53.0355C76.915 53.0872 76.9851 53.1162 77.0582 53.1162H77.6537C77.7269 53.1162 77.797 53.1453 77.8487 53.197C77.9004 53.2487 77.9295 53.3189 77.9295 53.392V53.4223C77.9295 53.4954 77.9004 53.5656 77.8487 53.6173C77.797 53.669 77.7269 53.698 77.6537 53.698H76.4861C76.413 53.698 76.3429 53.669 76.2912 53.6173C76.2395 53.5656 76.2104 53.4954 76.2104 53.4223V52.8116C76.2104 52.7385 76.1814 52.6683 76.1297 52.6166C76.078 52.5649 76.0078 52.5359 75.9347 52.5359H73.5912C73.518 52.5359 73.4479 52.5649 73.3962 52.6166C73.3445 52.6683 73.3154 52.7385 73.3154 52.8116V55.2047C73.3154 55.2779 73.3445 55.348 73.3962 55.3997C73.4479 55.4514 73.518 55.4805 73.5912 55.4805H73.6063C73.6794 55.4805 73.7496 55.4514 73.8013 55.3997C73.853 55.348 73.882 55.2779 73.882 55.2047V53.392C73.882 53.3189 73.9111 53.2487 73.9628 53.197C74.0145 53.1453 74.0846 53.1162 74.1577 53.1162H74.1812C74.2543 53.1162 74.3244 53.1453 74.3761 53.197C74.4279 53.2487 74.4569 53.3189 74.4569 53.392V55.2047C74.4569 55.2779 74.4859 55.348 74.5377 55.3997C74.5894 55.4514 74.6595 55.4805 74.7326 55.4805H74.7409C74.814 55.4805 74.8841 55.4514 74.9358 55.3997C74.9875 55.348 75.0166 55.2779 75.0166 55.2047V53.392C75.0166 53.3189 75.0456 53.2487 75.0973 53.197C75.149 53.1453 75.2192 53.1162 75.2923 53.1162H75.3157C75.3889 53.1162 75.459 53.1453 75.5107 53.197C75.5624 53.2487 75.5914 53.3189 75.5914 53.392V55.2047C75.5914 55.2779 75.6205 55.348 75.6722 55.3997C75.7239 55.4514 75.794 55.4805 75.8672 55.4805H75.8906C75.9637 55.4805 76.0338 55.4514 76.0855 55.3997C76.1372 55.348 76.1663 55.2779 76.1663 55.2047V54.5803C76.1663 54.5072 76.1953 54.437 76.247 54.3853C76.2988 54.3336 76.3689 54.3046 76.442 54.3046H77.9501V52.5359H77.0141C76.9467 52.5467 76.8857 52.5822 76.8429 52.6354C76.8001 52.6886 76.7786 52.7558 76.7825 52.824Z" fill="#F5F5F5"/>
<path d="M76.783 55.1856V55.2159C76.783 55.289 76.8121 55.3591 76.8638 55.4108C76.9155 55.4626 76.9856 55.4916 77.0587 55.4916H77.9948V54.8975H77.0587C77.0214 54.8974 76.9846 54.9049 76.9503 54.9195C76.916 54.9342 76.885 54.9556 76.8592 54.9825C76.8335 55.0095 76.8134 55.0414 76.8003 55.0763C76.7872 55.1112 76.7813 55.1483 76.783 55.1856Z" fill="#F5F5F5"/>
<path d="M71.2782 53.1219C71.3513 53.1219 71.4214 53.0929 71.4731 53.0412C71.5248 52.9895 71.5539 52.9193 71.5539 52.8462V52.8296C71.5539 52.7565 71.5248 52.6864 71.4731 52.6347C71.4214 52.583 71.3513 52.554 71.2782 52.554H71.263C71.1899 52.554 71.1198 52.583 71.0681 52.6347C71.0164 52.6864 70.9873 52.7565 70.9873 52.8296V52.8462C70.9873 52.9193 71.0164 52.9895 71.0681 53.0412C71.1198 53.0929 71.1899 53.1219 71.263 53.1219H71.2782Z" fill="#F5F5F5"/>
<path d="M66.9191 54.0288V52.824C66.9191 52.7509 66.89 52.6807 66.8383 52.629C66.7866 52.5773 66.7165 52.5483 66.6434 52.5483H65.4605C65.3874 52.5483 65.3173 52.5773 65.2656 52.629C65.2139 52.6807 65.1849 52.7509 65.1849 52.824V52.8405C65.1849 52.9136 65.2139 52.9838 65.2656 53.0355C65.3173 53.0872 65.3874 53.1162 65.4605 53.1162H66.063C66.1361 53.1162 66.2062 53.1453 66.2579 53.197C66.3097 53.2487 66.3387 53.3189 66.3387 53.392V53.4223C66.3387 53.4954 66.3097 53.5656 66.2579 53.6173C66.2062 53.669 66.1361 53.698 66.063 53.698H64.8885C64.8154 53.698 64.7452 53.669 64.6935 53.6173C64.6418 53.5656 64.6127 53.4954 64.6127 53.4223V52.8116C64.6127 52.7385 64.5837 52.6683 64.532 52.6166C64.4803 52.5649 64.4101 52.5359 64.337 52.5359H61.9935C61.9204 52.5359 61.8503 52.5649 61.7985 52.6166C61.7468 52.6683 61.7178 52.7385 61.7178 52.8116V55.2047C61.7178 55.2779 61.7468 55.348 61.7985 55.3997C61.8503 55.4514 61.9204 55.4805 61.9935 55.4805H62.0086C62.0818 55.4805 62.1519 55.4514 62.2036 55.3997C62.2553 55.348 62.2844 55.2779 62.2844 55.2047V53.392C62.2844 53.3189 62.3134 53.2487 62.3651 53.197C62.4168 53.1453 62.4869 53.1162 62.5601 53.1162H62.5683C62.6415 53.1162 62.7116 53.1453 62.7633 53.197C62.815 53.2487 62.8441 53.3189 62.8441 53.392V55.2047C62.8441 55.2779 62.8731 55.348 62.9248 55.3997C62.9765 55.4514 63.0466 55.4805 63.1198 55.4805H63.1432C63.2163 55.4805 63.2864 55.4514 63.3381 55.3997C63.3899 55.348 63.4189 55.2779 63.4189 55.2047V53.392C63.4189 53.3189 63.448 53.2487 63.4997 53.197C63.5514 53.1453 63.6215 53.1162 63.6946 53.1162H63.7181C63.7912 53.1162 63.8613 53.1453 63.913 53.197C63.9647 53.2487 63.9938 53.3189 63.9938 53.392V55.2047C63.9938 55.2779 64.0228 55.348 64.0745 55.3997C64.1263 55.4514 64.1964 55.4805 64.2695 55.4805H64.286C64.3592 55.4805 64.4293 55.4514 64.481 55.3997C64.5327 55.348 64.5618 55.2779 64.5618 55.2047V54.5803C64.5618 54.5072 64.5908 54.437 64.6425 54.3853C64.6942 54.3336 64.7643 54.3046 64.8374 54.3046H66.591C66.6313 54.3124 66.6729 54.3111 66.7126 54.3008C66.7524 54.2905 66.7894 54.2714 66.8208 54.2449C66.8522 54.2185 66.8774 54.1854 66.8944 54.148C66.9114 54.1106 66.9198 54.0699 66.9191 54.0288Z" fill="#F5F5F5"/>
<path d="M72.4377 54.9043H65.454C65.3808 54.9043 65.3107 54.9333 65.259 54.985C65.2073 55.0367 65.1782 55.1069 65.1782 55.18V55.2103C65.1782 55.2834 65.2073 55.3536 65.259 55.4053C65.3107 55.457 65.3808 55.486 65.454 55.486H72.4377C72.5109 55.486 72.581 55.457 72.6327 55.4053C72.6844 55.3536 72.7134 55.2834 72.7134 55.2103V55.18C72.7134 55.1069 72.6844 55.0367 72.6327 54.985C72.581 54.9333 72.5109 54.9043 72.4377 54.9043Z" fill="#F5F5F5"/>
<path d="M72.4323 52.5427H72.4171C72.344 52.5427 72.2738 52.5718 72.2221 52.6235C72.1704 52.6752 72.1414 52.7453 72.1414 52.8185V53.4291C72.1414 53.5023 72.1123 53.5724 72.0606 53.6241C72.0089 53.6758 71.9388 53.7049 71.8657 53.7049H70.6912C70.618 53.7049 70.5479 53.6758 70.4962 53.6241C70.4445 53.5724 70.4154 53.5023 70.4154 53.4291V52.8185C70.4154 52.7453 70.3864 52.6752 70.3347 52.6235C70.283 52.5718 70.2129 52.5427 70.1398 52.5427H67.7962C67.7231 52.5427 67.6529 52.5718 67.6012 52.6235C67.5495 52.6752 67.5205 52.7453 67.5205 52.8185V54.0233C67.5205 54.0964 67.5495 54.1665 67.6012 54.2183C67.6529 54.27 67.7231 54.299 67.7962 54.299H68.9707C69.0439 54.299 69.114 54.27 69.1657 54.2183C69.2174 54.1665 69.2464 54.0964 69.2464 54.0233V53.993C69.2464 53.9198 69.2174 53.8497 69.1657 53.798C69.114 53.7463 69.0439 53.7173 68.9707 53.7173H68.3752C68.3021 53.7173 68.232 53.6882 68.1803 53.6365C68.1285 53.5848 68.0995 53.5147 68.0995 53.4416V53.4112C68.0995 53.3381 68.1285 53.268 68.1803 53.2163C68.232 53.1646 68.3021 53.1355 68.3752 53.1355H69.558C69.6311 53.1355 69.7013 53.1646 69.753 53.2163C69.8047 53.268 69.8337 53.3381 69.8337 53.4112V54.0357C69.8337 54.1088 69.8628 54.179 69.9145 54.2307C69.9662 54.2824 70.0363 54.3114 70.1094 54.3114H72.4323C72.5054 54.3114 72.5755 54.2824 72.6272 54.2307C72.6789 54.179 72.708 54.1088 72.708 54.0357V52.8309C72.7097 52.7936 72.7038 52.7564 72.6907 52.7215C72.6776 52.6866 72.6575 52.6548 72.6318 52.6278C72.606 52.6009 72.575 52.5795 72.5407 52.5649C72.5064 52.5502 72.4696 52.5427 72.4323 52.5427Z" fill="#F5F5F5"/>
<path d="M55.323 54.0288V52.824C55.323 52.7509 55.294 52.6807 55.2423 52.629C55.1905 52.5773 55.1204 52.5483 55.0473 52.5483H53.8645C53.7914 52.5483 53.7212 52.5773 53.6695 52.629C53.6178 52.6807 53.5888 52.7509 53.5888 52.824V52.8405C53.5888 52.9136 53.6178 52.9838 53.6695 53.0355C53.7212 53.0872 53.7914 53.1162 53.8645 53.1162H54.46C54.5331 53.1162 54.6033 53.1453 54.655 53.197C54.7067 53.2487 54.7357 53.3189 54.7357 53.392V53.4223C54.7357 53.4954 54.7067 53.5656 54.655 53.6173C54.6033 53.669 54.5331 53.698 54.46 53.698H53.2772C53.2041 53.698 53.1339 53.669 53.0822 53.6173C53.0305 53.5656 53.0015 53.4954 53.0015 53.4223V52.8116C53.0015 52.7385 52.9724 52.6683 52.9207 52.6166C52.869 52.5649 52.7989 52.5359 52.7258 52.5359H50.3919C50.3188 52.5359 50.2486 52.5649 50.1969 52.6166C50.1452 52.6683 50.1162 52.7385 50.1162 52.8116V55.2047C50.1162 55.2779 50.1452 55.348 50.1969 55.3997C50.2486 55.4514 50.3188 55.4805 50.3919 55.4805H50.4071C50.4802 55.4805 50.5503 55.4514 50.602 55.3997C50.6537 55.348 50.6828 55.2779 50.6828 55.2047V53.392C50.6828 53.3189 50.7118 53.2487 50.7635 53.197C50.8153 53.1453 50.8854 53.1162 50.9585 53.1162H50.975C51.0482 53.1162 51.1183 53.1453 51.17 53.197C51.2217 53.2487 51.2508 53.3189 51.2508 53.392V55.2047C51.2508 55.2779 51.2798 55.348 51.3315 55.3997C51.3832 55.4514 51.4533 55.4805 51.5264 55.4805H51.5499C51.623 55.4805 51.6931 55.4514 51.7448 55.3997C51.7965 55.348 51.8256 55.2779 51.8256 55.2047V53.392C51.8256 53.3189 51.8546 53.2487 51.9063 53.197C51.958 53.1453 52.0282 53.1162 52.1013 53.1162H52.1096C52.1827 53.1162 52.2528 53.1453 52.3045 53.197C52.3562 53.2487 52.3853 53.3189 52.3853 53.392V55.2047C52.3853 55.2779 52.4143 55.348 52.466 55.3997C52.5177 55.4514 52.5879 55.4805 52.661 55.4805H52.6762C52.7493 55.4805 52.8194 55.4514 52.8711 55.3997C52.9228 55.348 52.9519 55.2779 52.9519 55.2047V54.5803C52.9519 54.5072 52.9809 54.437 53.0326 54.3853C53.0843 54.3336 53.1545 54.3046 53.2276 54.3046H54.9963C55.0365 54.3121 55.0779 54.3106 55.1175 54.3002C55.1571 54.2898 55.1938 54.2707 55.2251 54.2443C55.2564 54.2179 55.2814 54.1849 55.2984 54.1476C55.3153 54.1104 55.3237 54.0698 55.323 54.0288Z" fill="#F5F5F5"/>
<path d="M60.8342 54.9043H53.8587C53.7856 54.9043 53.7155 54.9333 53.6638 54.985C53.6121 55.0367 53.583 55.1069 53.583 55.18V55.2103C53.583 55.2834 53.6121 55.3536 53.6638 55.4053C53.7155 55.457 53.7856 55.486 53.8587 55.486H60.8342C60.9074 55.486 60.9775 55.457 61.0292 55.4053C61.0809 55.3536 61.1099 55.2834 61.1099 55.2103V55.18C61.1099 55.1069 61.0809 55.0367 61.0292 54.985C60.9775 54.9333 60.9074 54.9043 60.8342 54.9043Z" fill="#F5F5F5"/>
<path d="M59.6763 53.1219C59.7494 53.1219 59.8196 53.0929 59.8713 53.0412C59.923 52.9895 59.9521 52.9193 59.9521 52.8462V52.8296C59.9521 52.7565 59.923 52.6864 59.8713 52.6347C59.8196 52.583 59.7494 52.554 59.6763 52.554H59.6639C59.5908 52.554 59.5207 52.583 59.469 52.6347C59.4173 52.6864 59.3882 52.7565 59.3882 52.8296V52.8462C59.3882 52.9193 59.4173 52.9895 59.469 53.0412C59.5207 53.0929 59.5908 53.1219 59.6639 53.1219H59.6763Z" fill="#F5F5F5"/>
<path d="M60.8356 52.5427H60.8205C60.7473 52.5427 60.6772 52.5718 60.6255 52.6235C60.5738 52.6752 60.5448 52.7453 60.5448 52.8185V53.4291C60.5448 53.5023 60.5157 53.5724 60.464 53.6241C60.4123 53.6758 60.3422 53.7049 60.269 53.7049H59.0945C59.0214 53.7049 58.9513 53.6758 58.8996 53.6241C58.8479 53.5724 58.8188 53.5023 58.8188 53.4291V52.8185C58.8188 52.7453 58.7898 52.6752 58.7381 52.6235C58.6864 52.5718 58.6162 52.5427 58.5431 52.5427H56.1996C56.1264 52.5427 56.0563 52.5718 56.0046 52.6235C55.9529 52.6752 55.9238 52.7453 55.9238 52.8185V54.0233C55.9238 54.0964 55.9529 54.1665 56.0046 54.2183C56.0563 54.27 56.1264 54.299 56.1996 54.299H57.3824C57.4555 54.299 57.5256 54.27 57.5773 54.2183C57.629 54.1665 57.658 54.0964 57.658 54.0233V53.993C57.658 53.9198 57.629 53.8497 57.5773 53.798C57.5256 53.7463 57.4555 53.7173 57.3824 53.7173H56.7717C56.6985 53.7173 56.6284 53.6882 56.5767 53.6365C56.525 53.5848 56.4959 53.5147 56.4959 53.4416V53.4112C56.4959 53.3381 56.525 53.268 56.5767 53.2163C56.6284 53.1646 56.6985 53.1355 56.7717 53.1355H57.9462C58.0193 53.1355 58.0894 53.1646 58.1411 53.2163C58.1928 53.268 58.2219 53.3381 58.2219 53.4112V54.0357C58.2219 54.1088 58.2509 54.179 58.3026 54.2307C58.3543 54.2824 58.4245 54.3114 58.4976 54.3114H60.8315C60.9046 54.3114 60.9747 54.2824 61.0264 54.2307C61.0781 54.179 61.1072 54.1088 61.1072 54.0357V52.8309C61.1089 52.794 61.1031 52.7571 61.0903 52.7225C61.0774 52.6879 61.0577 52.6562 61.0324 52.6293C61.0071 52.6024 60.9766 52.5809 60.9428 52.5661C60.909 52.5512 60.8726 52.5432 60.8356 52.5427Z" fill="#F5F5F5"/>
<path d="M43.7141 54.0288V52.824C43.7141 52.7509 43.685 52.6807 43.6333 52.629C43.5816 52.5773 43.5115 52.5483 43.4384 52.5483H42.2556C42.1824 52.5483 42.1123 52.5773 42.0606 52.629C42.0089 52.6807 41.9799 52.7509 41.9799 52.824V52.8405C41.9799 52.9136 42.0089 52.9838 42.0606 53.0355C42.1123 53.0872 42.1824 53.1162 42.2556 53.1162H42.858C42.9311 53.1162 43.0012 53.1453 43.0529 53.197C43.1046 53.2487 43.1337 53.3189 43.1337 53.392V53.4223C43.1337 53.4954 43.1046 53.5656 43.0529 53.6173C43.0012 53.669 42.9311 53.698 42.858 53.698H41.6752C41.6021 53.698 41.5319 53.669 41.4802 53.6173C41.4285 53.5656 41.3995 53.4954 41.3995 53.4223V52.8116C41.3995 52.7385 41.3704 52.6683 41.3187 52.6166C41.267 52.5649 41.1969 52.5359 41.1238 52.5359H38.7899C38.7167 52.5359 38.6466 52.5649 38.5949 52.6166C38.5432 52.6683 38.5142 52.7385 38.5142 52.8116V55.2047C38.5142 55.2779 38.5432 55.348 38.5949 55.3997C38.6466 55.4514 38.7167 55.4805 38.7899 55.4805H38.8064C38.8795 55.4805 38.9497 55.4514 39.0014 55.3997C39.0531 55.348 39.0821 55.2779 39.0821 55.2047V53.392C39.0821 53.3189 39.1112 53.2487 39.1629 53.197C39.2146 53.1453 39.2847 53.1162 39.3578 53.1162H39.373C39.4461 53.1162 39.5162 53.1453 39.568 53.197C39.6197 53.2487 39.6487 53.3189 39.6487 53.392V55.2047C39.6487 55.2779 39.6778 55.348 39.7295 55.3997C39.7812 55.4514 39.8513 55.4805 39.9244 55.4805H39.9396C40.0127 55.4805 40.0828 55.4514 40.1346 55.3997C40.1863 55.348 40.2153 55.2779 40.2153 55.2047V53.392C40.2153 53.3189 40.2444 53.2487 40.2961 53.197C40.3478 53.1453 40.4179 53.1162 40.491 53.1162H40.5075C40.5807 53.1162 40.6508 53.1453 40.7025 53.197C40.7542 53.2487 40.7833 53.3189 40.7833 53.392V55.2047C40.7833 55.2779 40.8123 55.348 40.864 55.3997C40.9157 55.4514 40.9859 55.4805 41.059 55.4805H41.0741C41.1473 55.4805 41.2174 55.4514 41.2691 55.3997C41.3208 55.348 41.3499 55.2779 41.3499 55.2047V54.5803C41.3499 54.5072 41.3789 54.437 41.4306 54.3853C41.4823 54.3336 41.5524 54.3046 41.6256 54.3046H43.3874C43.4276 54.3121 43.469 54.3106 43.5086 54.3002C43.5482 54.2898 43.5849 54.2707 43.6162 54.2443C43.6475 54.2179 43.6725 54.1849 43.6894 54.1476C43.7064 54.1104 43.7148 54.0698 43.7141 54.0288Z" fill="#F5F5F5"/>
<path d="M48.0662 53.1219C48.1394 53.1219 48.2095 53.0929 48.2612 53.0412C48.3129 52.9895 48.3419 52.9193 48.3419 52.8462V52.8296C48.3419 52.7565 48.3129 52.6864 48.2612 52.6347C48.2095 52.583 48.1394 52.554 48.0662 52.554H48.058C47.9848 52.554 47.9147 52.583 47.863 52.6347C47.8113 52.6864 47.7822 52.7565 47.7822 52.8296V52.8462C47.7822 52.9193 47.8113 52.9895 47.863 53.0412C47.9147 53.0929 47.9848 53.1219 48.058 53.1219H48.0662Z" fill="#F5F5F5"/>
<path d="M49.234 52.5428H49.2174C49.1443 52.5428 49.0742 52.5718 49.0225 52.6235C48.9708 52.6753 48.9417 52.7454 48.9417 52.8185V53.4292C48.9417 53.5023 48.9127 53.5724 48.861 53.6241C48.8093 53.6758 48.7391 53.7049 48.666 53.7049H47.4915C47.4183 53.7049 47.3482 53.6758 47.2965 53.6241C47.2448 53.5724 47.2158 53.5023 47.2158 53.4292V52.8185C47.2158 52.7454 47.1867 52.6753 47.135 52.6235C47.0833 52.5718 47.0132 52.5428 46.94 52.5428H44.5965C44.5234 52.5428 44.4532 52.5718 44.4015 52.6235C44.3498 52.6753 44.3208 52.7454 44.3208 52.8185V54.0233C44.3208 54.0965 44.3498 54.1666 44.4015 54.2183C44.4532 54.27 44.5234 54.2991 44.5965 54.2991H45.7793C45.8524 54.2991 45.9226 54.27 45.9743 54.2183C46.026 54.1666 46.055 54.0965 46.055 54.0233V53.993C46.055 53.9199 46.026 53.8498 45.9743 53.7981C45.9226 53.7464 45.8524 53.7173 45.7793 53.7173H45.1769C45.1038 53.7173 45.0336 53.6883 44.9819 53.6366C44.9302 53.5848 44.9012 53.5147 44.9012 53.4416V53.4113C44.9012 53.3381 44.9302 53.268 44.9819 53.2163C45.0336 53.1646 45.1038 53.1356 45.1769 53.1356H46.3514C46.4245 53.1356 46.4946 53.1646 46.5464 53.2163C46.5981 53.268 46.6271 53.3381 46.6271 53.4113V54.0358C46.6271 54.1089 46.6562 54.179 46.7079 54.2307C46.7596 54.2824 46.8297 54.3115 46.9028 54.3115H49.2464C49.3195 54.3115 49.3896 54.2824 49.4413 54.2307C49.493 54.179 49.5221 54.1089 49.5221 54.0358V52.8309C49.5239 52.7926 49.5176 52.7543 49.5038 52.7186C49.4899 52.6828 49.4687 52.6504 49.4416 52.6233C49.4145 52.5961 49.382 52.575 49.3463 52.5611C49.3105 52.5473 49.2723 52.541 49.234 52.5428Z" fill="#F5F5F5"/>
<path d="M49.2336 54.9043H42.2498C42.1767 54.9043 42.1066 54.9333 42.0549 54.985C42.0032 55.0367 41.9741 55.1069 41.9741 55.18V55.2103C41.9741 55.2834 42.0032 55.3536 42.0549 55.4053C42.1066 55.457 42.1767 55.486 42.2498 55.486H49.2336C49.3067 55.486 49.3769 55.457 49.4286 55.4053C49.4803 55.3536 49.5093 55.2834 49.5093 55.2103V55.18C49.5093 55.1069 49.4803 55.0367 49.4286 54.985C49.3769 54.9333 49.3067 54.9043 49.2336 54.9043Z" fill="#F5F5F5"/>
<path d="M37.6319 52.5427H37.6154C37.5423 52.5427 37.4721 52.5718 37.4204 52.6235C37.3687 52.6752 37.3397 52.7453 37.3397 52.8184V53.4291C37.3397 53.5023 37.3106 53.5724 37.2589 53.6241C37.2072 53.6758 37.1371 53.7049 37.064 53.7049H35.8894C35.8163 53.7049 35.7462 53.6758 35.6945 53.6241C35.6428 53.5724 35.6137 53.5023 35.6137 53.4291V52.8184C35.6137 52.7453 35.5847 52.6752 35.533 52.6235C35.4813 52.5718 35.4111 52.5427 35.338 52.5427H32.9945C32.9214 52.5427 32.8512 52.5718 32.7995 52.6235C32.7478 52.6752 32.7188 52.7453 32.7188 52.8184V54.0233C32.7188 54.0964 32.7478 54.1665 32.7995 54.2182C32.8512 54.2699 32.9214 54.299 32.9945 54.299H34.169C34.2421 54.299 34.3122 54.2699 34.3639 54.2182C34.4157 54.1665 34.4447 54.0964 34.4447 54.0233V53.993C34.4447 53.9198 34.4157 53.8497 34.3639 53.798C34.3122 53.7463 34.2421 53.7173 34.169 53.7173H33.5803C33.5072 53.7173 33.4371 53.6882 33.3854 53.6365C33.3337 53.5848 33.3046 53.5147 33.3046 53.4415V53.4112C33.3046 53.3381 33.3337 53.268 33.3854 53.2163C33.4371 53.1645 33.5072 53.1355 33.5803 53.1355H34.748C34.8211 53.1355 34.8913 53.1645 34.943 53.2163C34.9947 53.268 35.0237 53.3381 35.0237 53.4112V54.0357C35.0237 54.1088 35.0528 54.1789 35.1045 54.2306C35.1562 54.2824 35.2263 54.3114 35.2994 54.3114H37.643C37.7161 54.3114 37.7862 54.2824 37.8379 54.2306C37.8896 54.1789 37.9187 54.1088 37.9187 54.0357V52.8309C37.9204 52.7927 37.9142 52.7545 37.9004 52.7189C37.8867 52.6832 37.8656 52.6508 37.8387 52.6237C37.8117 52.5966 37.7794 52.5754 37.7438 52.5615C37.7082 52.5475 37.6701 52.5411 37.6319 52.5427Z" fill="#F5F5F5"/>
<path d="M36.4656 53.1219C36.5387 53.1219 36.6089 53.0929 36.6606 53.0412C36.7123 52.9895 36.7413 52.9193 36.7413 52.8462V52.8296C36.7413 52.7565 36.7123 52.6864 36.6606 52.6347C36.6089 52.583 36.5387 52.554 36.4656 52.554H36.4573C36.3842 52.554 36.3141 52.583 36.2624 52.6347C36.2107 52.6864 36.1816 52.7565 36.1816 52.8296V52.8462C36.1816 52.9193 36.2107 52.9895 36.2624 53.0412C36.3141 53.0929 36.3842 53.1219 36.4573 53.1219H36.4656Z" fill="#F5F5F5"/>
<path d="M37.632 54.9043H30.6483C30.5751 54.9043 30.505 54.9333 30.4533 54.985C30.4016 55.0367 30.3726 55.1069 30.3726 55.18V55.2103C30.3726 55.2834 30.4016 55.3536 30.4533 55.4053C30.505 55.457 30.5751 55.486 30.6483 55.486H37.632C37.7052 55.486 37.7753 55.457 37.827 55.4053C37.8787 55.3536 37.9078 55.2834 37.9078 55.2103V55.18C37.9078 55.1069 37.8787 55.0367 37.827 54.985C37.7753 54.9333 37.7052 54.9043 37.632 54.9043Z" fill="#F5F5F5"/>
<path d="M32.1042 54.0288V52.824C32.1042 52.7509 32.0751 52.6807 32.0234 52.629C31.9717 52.5773 31.9016 52.5483 31.8285 52.5483H30.6457C30.5725 52.5483 30.5024 52.5773 30.4507 52.629C30.399 52.6807 30.37 52.7509 30.37 52.824V52.8405C30.37 52.9136 30.399 52.9838 30.4507 53.0355C30.5024 53.0872 30.5725 53.1162 30.6457 53.1162H31.2481C31.3212 53.1162 31.3914 53.1453 31.4431 53.197C31.4948 53.2487 31.5238 53.3189 31.5238 53.392V53.4223C31.5238 53.4954 31.4948 53.5656 31.4431 53.6173C31.3914 53.669 31.3212 53.698 31.2481 53.698H30.0667C29.9935 53.698 29.9234 53.669 29.8717 53.6173C29.82 53.5656 29.791 53.4954 29.791 53.4223V52.8116C29.791 52.7385 29.7619 52.6683 29.7102 52.6166C29.6585 52.5649 29.5884 52.5359 29.5153 52.5359H27.1717C27.0986 52.5359 27.0285 52.5649 26.9767 52.6166C26.925 52.6683 26.896 52.7385 26.896 52.8116V55.2047C26.896 55.2779 26.925 55.348 26.9767 55.3997C27.0285 55.4514 27.0986 55.4805 27.1717 55.4805H27.1882C27.2614 55.4805 27.3315 55.4514 27.3832 55.3997C27.4349 55.348 27.464 55.2779 27.464 55.2047V53.392C27.464 53.3189 27.493 53.2487 27.5447 53.197C27.5964 53.1453 27.6665 53.1162 27.7397 53.1162H27.7548C27.828 53.1162 27.8981 53.1453 27.9498 53.197C28.0015 53.2487 28.0306 53.3189 28.0306 53.392V55.2047C28.0306 55.2779 28.0596 55.348 28.1113 55.3997C28.163 55.4514 28.2331 55.4805 28.3063 55.4805H28.3228C28.3959 55.4805 28.466 55.4514 28.5177 55.3997C28.5695 55.348 28.5985 55.2779 28.5985 55.2047V53.392C28.5985 53.3189 28.6276 53.2487 28.6793 53.197C28.731 53.1453 28.8011 53.1162 28.8742 53.1162H28.8894C28.9625 53.1162 29.0326 53.1453 29.0844 53.197C29.1361 53.2487 29.1651 53.3189 29.1651 53.392V55.2047C29.1651 55.2779 29.1942 55.348 29.2459 55.3997C29.2976 55.4514 29.3677 55.4805 29.4408 55.4805H29.4573C29.5305 55.4805 29.6006 55.4514 29.6523 55.3997C29.704 55.348 29.7331 55.2779 29.7331 55.2047V54.5803C29.7331 54.5072 29.7621 54.437 29.8138 54.3853C29.8655 54.3336 29.9357 54.3046 30.0088 54.3046H31.7623C31.8036 54.3148 31.8467 54.3153 31.8882 54.3061C31.9297 54.2969 31.9686 54.2782 32.0017 54.2516C32.0348 54.2249 32.0613 54.1909 32.079 54.1522C32.0968 54.1136 32.1054 54.0713 32.1042 54.0288Z" fill="#F5F5F5"/>
<path d="M24.8704 53.1219C24.9436 53.1219 25.0137 53.0929 25.0654 53.0412C25.1171 52.9895 25.1461 52.9193 25.1461 52.8462V52.8296C25.1461 52.7565 25.1171 52.6864 25.0654 52.6347C25.0137 52.583 24.9436 52.554 24.8704 52.554H24.847C24.7739 52.554 24.7037 52.583 24.652 52.6347C24.6003 52.6864 24.5713 52.7565 24.5713 52.8296V52.8462C24.5713 52.9193 24.6003 52.9895 24.652 53.0412C24.7037 53.0929 24.7739 53.1219 24.847 53.1219H24.8704Z" fill="#F5F5F5"/>
<path d="M26.0298 52.5427H26.0132C25.9401 52.5427 25.87 52.5718 25.8183 52.6235C25.7666 52.6752 25.7375 52.7453 25.7375 52.8185V53.4291C25.7375 53.5023 25.7085 53.5724 25.6568 53.6241C25.6051 53.6758 25.5349 53.7049 25.4618 53.7049H24.2625C24.1894 53.7049 24.1192 53.6758 24.0675 53.6241C24.0158 53.5724 23.9868 53.5023 23.9868 53.4291V52.8185C23.9868 52.7453 23.9577 52.6752 23.906 52.6235C23.8543 52.5718 23.7842 52.5427 23.7111 52.5427H21.3675C21.2944 52.5427 21.2243 52.5718 21.1726 52.6235C21.1208 52.6752 21.0918 52.7453 21.0918 52.8185V54.0233C21.0918 54.0964 21.1208 54.1665 21.1726 54.2183C21.2243 54.27 21.2944 54.299 21.3675 54.299H22.542C22.6152 54.299 22.6853 54.27 22.737 54.2183C22.7887 54.1665 22.8177 54.0964 22.8177 54.0233V53.993C22.8177 53.9198 22.7887 53.8497 22.737 53.798C22.6853 53.7463 22.6152 53.7173 22.542 53.7173H21.9396C21.8665 53.7173 21.7964 53.6882 21.7447 53.6365C21.6929 53.5848 21.6639 53.5147 21.6639 53.4416V53.4112C21.6639 53.3381 21.6929 53.268 21.7447 53.2163C21.7964 53.1646 21.8665 53.1355 21.9396 53.1355H23.1293C23.2024 53.1355 23.2726 53.1646 23.3243 53.2163C23.376 53.268 23.405 53.3381 23.405 53.4112V54.0357C23.405 54.1088 23.4341 54.179 23.4858 54.2307C23.5375 54.2824 23.6076 54.3114 23.6807 54.3114H26.0146C26.0877 54.3114 26.1579 54.2824 26.2096 54.2307C26.2613 54.179 26.2903 54.1088 26.2903 54.0357V52.8309C26.2937 52.7582 26.2682 52.6871 26.2194 52.6331C26.1706 52.5792 26.1024 52.5466 26.0298 52.5427Z" fill="#F5F5F5"/>
<path d="M20.5031 54.0288V52.824C20.5031 52.7509 20.4741 52.6807 20.4224 52.629C20.3706 52.5773 20.3005 52.5483 20.2274 52.5483H19.0529C18.9797 52.5483 18.9096 52.5773 18.8579 52.629C18.8062 52.6807 18.7772 52.7509 18.7772 52.824V52.8405C18.7772 52.9136 18.8062 52.9838 18.8579 53.0355C18.9096 53.0872 18.9797 53.1162 19.0529 53.1162H19.6415C19.7146 53.1162 19.7848 53.1453 19.8365 53.197C19.8882 53.2487 19.9172 53.3189 19.9172 53.392V53.4223C19.9172 53.4954 19.8882 53.5656 19.8365 53.6173C19.7848 53.669 19.7146 53.698 19.6415 53.698H18.4739C18.4007 53.698 18.3306 53.669 18.2789 53.6173C18.2272 53.5656 18.1982 53.4954 18.1982 53.4223V52.8116C18.1982 52.7385 18.1691 52.6683 18.1174 52.6166C18.0657 52.5649 17.9956 52.5359 17.9225 52.5359H15.5706C15.4975 52.5359 15.4274 52.5649 15.3757 52.6166C15.324 52.6683 15.2949 52.7385 15.2949 52.8116V55.2047C15.2949 55.2779 15.324 55.348 15.3757 55.3997C15.4274 55.4514 15.4975 55.4805 15.5706 55.4805H15.5789C15.652 55.4805 15.7222 55.4514 15.7739 55.3997C15.8256 55.348 15.8546 55.2779 15.8546 55.2047V53.392C15.8546 53.3189 15.8837 53.2487 15.9354 53.197C15.9871 53.1453 16.0572 53.1162 16.1303 53.1162H16.1538C16.2269 53.1162 16.297 53.1453 16.3487 53.197C16.4004 53.2487 16.4295 53.3189 16.4295 53.392V55.2047C16.4295 55.2409 16.4366 55.2768 16.4505 55.3102C16.4643 55.3437 16.4846 55.3741 16.5102 55.3997C16.5358 55.4253 16.5662 55.4456 16.5997 55.4595C16.6331 55.4733 16.669 55.4805 16.7052 55.4805H16.7217C16.7948 55.4805 16.865 55.4514 16.9167 55.3997C16.9684 55.348 16.9974 55.2779 16.9974 55.2047V53.392C16.9974 53.3189 17.0265 53.2487 17.0782 53.197C17.1299 53.1453 17.2 53.1162 17.2732 53.1162H17.3255C17.3987 53.1162 17.4688 53.1453 17.5205 53.197C17.5722 53.2487 17.6012 53.3189 17.6012 53.392V55.2047C17.6012 55.2779 17.6303 55.348 17.682 55.3997C17.7337 55.4514 17.8038 55.4805 17.877 55.4805H17.8935C17.9666 55.4805 18.0367 55.4514 18.0885 55.3997C18.1402 55.348 18.1692 55.2779 18.1692 55.2047V54.5803C18.1692 54.5072 18.1983 54.437 18.25 54.3853C18.3017 54.3336 18.3718 54.3046 18.4449 54.3046H20.2205C20.2573 54.3055 20.2939 54.299 20.3281 54.2856C20.3624 54.2721 20.3936 54.252 20.4199 54.2263C20.4463 54.2006 20.4672 54.1699 20.4815 54.136C20.4958 54.1021 20.5031 54.0656 20.5031 54.0288Z" fill="#F5F5F5"/>
<path d="M26.0297 54.9043H19.0487C18.9755 54.9043 18.9054 54.9333 18.8537 54.985C18.802 55.0368 18.7729 55.1069 18.7729 55.18V55.2103C18.7729 55.2835 18.802 55.3536 18.8537 55.4053C18.9054 55.457 18.9755 55.4861 19.0487 55.4861H26.0324C26.1055 55.4861 26.1757 55.457 26.2274 55.4053C26.2791 55.3536 26.3081 55.2835 26.3081 55.2103V55.18C26.3081 55.1436 26.3009 55.1075 26.2869 55.0739C26.2729 55.0402 26.2523 55.0097 26.2264 54.9841C26.2005 54.9584 26.1698 54.9382 26.136 54.9245C26.1022 54.9108 26.0661 54.9039 26.0297 54.9043Z" fill="#F5F5F5"/>
<path d="M11.2186 54.029V53.9986C11.2186 53.9255 11.1896 53.8554 11.1379 53.8037C11.0862 53.752 11.0161 53.7229 10.9429 53.7229H10.3419C10.2688 53.7229 10.1986 53.6939 10.1469 53.6422C10.0952 53.5905 10.0662 53.5203 10.0662 53.4472V53.4169C10.0662 53.3438 10.0952 53.2736 10.1469 53.2219C10.1986 53.1702 10.2688 53.1412 10.3419 53.1412H11.5233C11.5964 53.1412 11.6666 53.1702 11.7183 53.2219C11.77 53.2736 11.799 53.3438 11.799 53.4169V54.0414C11.799 54.1145 11.8281 54.1846 11.8798 54.2363C11.9315 54.288 12.0016 54.3171 12.0747 54.3171H14.421C14.4941 54.3171 14.5643 54.288 14.616 54.2363C14.6677 54.1846 14.6967 54.1145 14.6967 54.0414V52.8365C14.6967 52.7634 14.6677 52.6933 14.616 52.6416C14.5643 52.5899 14.4941 52.5608 14.421 52.5608H14.4114C14.3383 52.5608 14.2681 52.5899 14.2164 52.6416C14.1647 52.6933 14.1357 52.7634 14.1357 52.8365V53.4472C14.1357 53.5203 14.1066 53.5905 14.0549 53.6422C14.0032 53.6939 13.9331 53.7229 13.86 53.7229H12.6744C12.6013 53.7229 12.5311 53.6939 12.4794 53.6422C12.4277 53.5905 12.3987 53.5203 12.3987 53.4472V52.8365C12.3987 52.7634 12.3696 52.6933 12.3179 52.6416C12.2662 52.5899 12.1961 52.5608 12.123 52.5608H10V54.3295H10.936C10.975 54.3306 11.0138 54.3235 11.0498 54.3085C11.0858 54.2936 11.1182 54.2712 11.1449 54.2428C11.1716 54.2144 11.192 54.1806 11.2047 54.1438C11.2174 54.1069 11.2222 54.0678 11.2186 54.029Z" fill="#F5F5F5"/>
<path d="M14.7023 55.2172V55.1869C14.7023 55.1137 14.6732 55.0436 14.6215 54.9919C14.5698 54.9402 14.4997 54.9111 14.4265 54.9111H10V55.5053H14.421C14.4588 55.5061 14.4963 55.4991 14.5312 55.4848C14.5661 55.4706 14.5978 55.4493 14.6241 55.4222C14.6505 55.3952 14.671 55.3631 14.6845 55.3278C14.6979 55.2925 14.704 55.2549 14.7023 55.2172Z" fill="#F5F5F5"/>
<path d="M13.2615 52.5427H13.245C13.1718 52.5427 13.1017 52.5718 13.05 52.6235C12.9983 52.6752 12.9692 52.7453 12.9692 52.8185V52.835C12.9692 52.9081 12.9983 52.9782 13.05 53.0299C13.1017 53.0816 13.1718 53.1107 13.245 53.1107H13.2615C13.3346 53.1107 13.4047 53.0816 13.4565 53.0299C13.5082 52.9782 13.5372 52.9081 13.5372 52.835V52.8185C13.5372 52.7453 13.5082 52.6752 13.4565 52.6235C13.4047 52.5718 13.3346 52.5427 13.2615 52.5427Z" fill="#F5F5F5"/>
<path d="M73.3018 51.025V51.6495C73.3018 51.7226 73.3308 51.7927 73.3825 51.8444C73.4342 51.8961 73.5043 51.9252 73.5774 51.9252H77.9971V50.7493H73.5774C73.5043 50.7493 73.4342 50.7783 73.3825 50.83C73.3308 50.8817 73.3018 50.9519 73.3018 51.025Z" fill="#F5F5F5"/>
<path d="M61.9784 51.9335H66.6366C66.7097 51.9335 66.7798 51.9044 66.8315 51.8527C66.8832 51.801 66.9123 51.7309 66.9123 51.6577V51.025C66.9123 50.9519 66.8832 50.8817 66.8315 50.83C66.7798 50.7783 66.7097 50.7493 66.6366 50.7493H61.9784C61.9053 50.7493 61.8352 50.7783 61.7835 50.83C61.7318 50.8817 61.7028 50.9519 61.7028 51.025V51.6495C61.7017 51.6864 61.708 51.7231 61.7213 51.7575C61.7347 51.7919 61.7548 51.8233 61.7805 51.8498C61.8062 51.8763 61.837 51.8973 61.871 51.9117C61.905 51.9261 61.9415 51.9335 61.9784 51.9335Z" fill="#F5F5F5"/>
<path d="M72.4334 50.7493H67.7752C67.7021 50.7493 67.632 50.7783 67.5803 50.83C67.5286 50.8817 67.4995 50.9519 67.4995 51.025V51.6495C67.4995 51.7226 67.5286 51.7927 67.5803 51.8444C67.632 51.8961 67.7021 51.9252 67.7752 51.9252H72.4334C72.5065 51.9252 72.5766 51.8961 72.6283 51.8444C72.68 51.7927 72.7091 51.7226 72.7091 51.6495V51.025C72.7091 50.9519 72.68 50.8817 72.6283 50.83C72.5766 50.7783 72.5065 50.7493 72.4334 50.7493Z" fill="#F5F5F5"/>
<path d="M60.8357 50.7493H56.1776C56.1045 50.7493 56.0343 50.7783 55.9826 50.83C55.9309 50.8817 55.9019 50.9519 55.9019 51.025V51.6495C55.9019 51.7226 55.9309 51.7927 55.9826 51.8444C56.0343 51.8961 56.1045 51.9252 56.1776 51.9252H60.8357C60.9088 51.9252 60.979 51.8961 61.0307 51.8444C61.0824 51.7927 61.1114 51.7226 61.1114 51.6495V51.025C61.1114 50.9519 61.0824 50.8817 61.0307 50.83C60.979 50.7783 60.9088 50.7493 60.8357 50.7493Z" fill="#F5F5F5"/>
<path d="M50.3755 51.9335H55.0405C55.1136 51.9335 55.1837 51.9044 55.2354 51.8527C55.2872 51.801 55.3162 51.7309 55.3162 51.6577V51.025C55.3162 50.9519 55.2872 50.8817 55.2354 50.83C55.1837 50.7783 55.1136 50.7493 55.0405 50.7493H50.3755C50.3023 50.7493 50.2322 50.7783 50.1805 50.83C50.1288 50.8817 50.0997 50.9519 50.0997 51.025V51.6495C50.0986 51.6864 50.105 51.7231 50.1183 51.7575C50.1317 51.7919 50.1518 51.8233 50.1775 51.8498C50.2032 51.8763 50.234 51.8973 50.268 51.9117C50.302 51.9261 50.3385 51.9335 50.3755 51.9335Z" fill="#F5F5F5"/>
<path d="M38.7734 51.9335H43.4315C43.5047 51.9335 43.5748 51.9044 43.6265 51.8527C43.6782 51.801 43.7072 51.7309 43.7072 51.6577V51.025C43.7072 50.9519 43.6782 50.8817 43.6265 50.83C43.5748 50.7783 43.5047 50.7493 43.4315 50.7493H38.7734C38.7003 50.7493 38.6301 50.7783 38.5784 50.83C38.5267 50.8817 38.4977 50.9519 38.4977 51.025V51.6495C38.4966 51.6864 38.5029 51.7231 38.5162 51.7575C38.5296 51.7919 38.5497 51.8233 38.5754 51.8498C38.6012 51.8763 38.6319 51.8973 38.6659 51.9117C38.6999 51.9261 38.7365 51.9335 38.7734 51.9335Z" fill="#F5F5F5"/>
<path d="M49.2337 50.7493H44.5755C44.5024 50.7493 44.4323 50.7783 44.3806 50.83C44.3289 50.8817 44.2998 50.9519 44.2998 51.025V51.6495C44.2998 51.7226 44.3289 51.7927 44.3806 51.8444C44.4323 51.8961 44.5024 51.9252 44.5755 51.9252H49.2337C49.3068 51.9252 49.3769 51.8961 49.4286 51.8444C49.4803 51.7927 49.5094 51.7226 49.5094 51.6495V51.025C49.5094 50.9519 49.4803 50.8817 49.4286 50.83C49.3769 50.7783 49.3068 50.7493 49.2337 50.7493Z" fill="#F5F5F5"/>
<path d="M37.6321 50.7493H32.9739C32.9008 50.7493 32.8307 50.7783 32.779 50.83C32.7273 50.8817 32.6982 50.9519 32.6982 51.025V51.6495C32.6982 51.7226 32.7273 51.7927 32.779 51.8444C32.8307 51.8961 32.9008 51.9252 32.9739 51.9252H37.6321C37.7052 51.9252 37.7753 51.8961 37.827 51.8444C37.8787 51.7927 37.9078 51.7226 37.9078 51.6495V51.025C37.9078 50.9519 37.8787 50.8817 37.827 50.83C37.7753 50.7783 37.7052 50.7493 37.6321 50.7493Z" fill="#F5F5F5"/>
<path d="M27.1713 51.9335H31.8226C31.8957 51.9335 31.9658 51.9044 32.0175 51.8527C32.0692 51.801 32.0983 51.7309 32.0983 51.6577V51.025C32.0983 50.9519 32.0692 50.8817 32.0175 50.83C31.9658 50.7783 31.8957 50.7493 31.8226 50.7493H27.1713C27.0982 50.7493 27.0281 50.7783 26.9764 50.83C26.9247 50.8817 26.8956 50.9519 26.8956 51.025V51.6495C26.8945 51.6864 26.9008 51.7231 26.9142 51.7575C26.9276 51.7919 26.9477 51.8233 26.9734 51.8498C26.9991 51.8763 27.0299 51.8973 27.0639 51.9117C27.0979 51.9261 27.1344 51.9335 27.1713 51.9335Z" fill="#F5F5F5"/>
<path d="M26.0298 50.7493H21.3675C21.2944 50.7493 21.2243 50.7783 21.1726 50.83C21.1208 50.8817 21.0918 50.9519 21.0918 51.025V51.6495C21.0918 51.7226 21.1208 51.7927 21.1726 51.8444C21.2243 51.8961 21.2944 51.9252 21.3675 51.9252H26.0257C26.0988 51.9252 26.1689 51.8961 26.2206 51.8444C26.2723 51.7927 26.3014 51.7226 26.3014 51.6495V51.025C26.3014 50.9526 26.2729 50.8831 26.2221 50.8315C26.1713 50.7799 26.1022 50.7504 26.0298 50.7493Z" fill="#F5F5F5"/>
<path d="M15.5708 51.9335H20.2206C20.2938 51.9335 20.3639 51.9044 20.4156 51.8527C20.4673 51.801 20.4963 51.7309 20.4963 51.6577V51.025C20.4963 50.9519 20.4673 50.8817 20.4156 50.83C20.3639 50.7783 20.2938 50.7493 20.2206 50.7493H15.5708C15.4976 50.7493 15.4275 50.7783 15.3758 50.83C15.3241 50.8817 15.295 50.9519 15.295 51.025V51.6495C15.2939 51.6864 15.3003 51.7231 15.3136 51.7575C15.327 51.7919 15.3471 51.8233 15.3728 51.8498C15.3985 51.8763 15.4293 51.8973 15.4633 51.9117C15.4973 51.9261 15.5338 51.9335 15.5708 51.9335Z" fill="#F5F5F5"/>
<path d="M14.7023 51.6522V51.025C14.7023 50.9519 14.6732 50.8817 14.6215 50.83C14.5698 50.7783 14.4997 50.7493 14.4265 50.7493H10V51.9376H14.421C14.4585 51.9384 14.4958 51.9315 14.5305 51.9174C14.5653 51.9032 14.5968 51.8822 14.6231 51.8555C14.6494 51.8288 14.67 51.797 14.6836 51.762C14.6972 51.7271 14.7036 51.6897 14.7023 51.6522Z" fill="#F5F5F5"/>
<path d="M42.8402 33.3698C43.7446 33.001 44.7353 32.8973 45.6965 33.0706C45.8492 32.9228 45.9599 32.737 46.0173 32.5324C46.0747 32.3277 46.0768 32.1115 46.0232 31.9058C45.9286 32.0625 45.8037 32.1988 45.6558 32.3068C45.5079 32.4147 45.34 32.4921 45.1619 32.5345C44.9838 32.5768 44.799 32.5833 44.6184 32.5534C44.4377 32.5236 44.2649 32.4581 44.1098 32.3607C44.0767 32.3386 44.0326 32.3166 44.005 32.2945C43.7084 32.5133 43.3377 32.607 42.9727 32.5555C42.6077 32.5039 42.2775 32.3112 42.053 32.0188C42.0311 31.9803 42.0072 31.943 41.9813 31.9072C41.9415 32.0596 41.9321 32.2184 41.9537 32.3744C41.9753 32.5305 42.0275 32.6808 42.1073 32.8166C42.1871 32.9525 42.2929 33.0713 42.4186 33.1662C42.5444 33.2611 42.6876 33.3303 42.8402 33.3698Z" fill="#FF4B55"/>
<path d="M45.4252 46.3281C46.4759 45.7612 47.3774 44.9535 48.056 43.9713C48.7347 42.989 49.1711 41.86 49.3297 40.6767C49.4882 39.4934 49.3643 38.2893 48.9682 37.1631C48.572 36.0368 47.9149 35.0204 47.0505 34.1968C47.0351 34.1793 47.0134 34.1684 46.9902 34.1665C46.9669 34.1646 46.9438 34.172 46.9258 34.1869C46.9078 34.2018 46.8964 34.2231 46.8939 34.2464C46.8914 34.2696 46.8982 34.2929 46.9126 34.3113C47.9743 36.0537 48.3507 38.1286 47.9686 40.1329C47.5864 42.1373 46.4731 43.9281 44.8448 45.1577L45.0074 34.7731C45.0084 34.7034 44.9936 34.6345 44.9639 34.5714C44.9343 34.5083 44.8908 34.4529 44.8365 34.4092L44.2851 33.9639C44.2033 33.8974 44.101 33.8611 43.9956 33.8611C43.8902 33.8611 43.7879 33.8974 43.7061 33.9639L43.1629 34.4078C43.1094 34.4516 43.0664 34.507 43.0373 34.5698C43.0082 34.6326 42.9937 34.7011 42.9948 34.7703L43.1519 45.1619C41.5239 43.9307 40.4111 42.139 40.029 40.1339C39.647 38.1289 40.0229 36.0535 41.0841 34.3099C41.0986 34.2915 41.1053 34.2683 41.1028 34.245C41.1004 34.2218 41.0889 34.2004 41.0709 34.1855C41.0529 34.1706 41.0298 34.1633 41.0066 34.1651C40.9833 34.167 40.9616 34.1779 40.9462 34.1955C40.0815 35.0188 39.4241 36.0353 39.0278 37.1616C38.6315 38.2879 38.5075 39.4921 38.6661 40.6755C38.8246 41.8589 39.2612 42.988 39.94 43.9702C40.6188 44.9525 41.5206 45.76 42.5715 46.3267C41.6225 46.6591 40.6213 46.8179 39.6159 46.7955C39.5942 46.7957 39.5734 46.8036 39.557 46.8179C39.5407 46.8321 39.53 46.8517 39.5268 46.8732C39.5237 46.8946 39.5283 46.9165 39.5398 46.9349C39.5513 46.9532 39.569 46.9668 39.5897 46.9733C40.836 47.3508 42.1589 47.3983 43.429 47.1111L43.9156 48.0555C43.9233 48.0702 43.9349 48.0825 43.9491 48.0911C43.9633 48.0998 43.9797 48.1043 43.9963 48.1043C44.0129 48.1043 44.0292 48.0998 44.0434 48.0911C44.0576 48.0825 44.0692 48.0702 44.0769 48.0555L44.5663 47.1111C45.8369 47.3979 47.1602 47.3504 48.407 46.9733C48.4277 46.9668 48.4454 46.9532 48.4569 46.9349C48.4684 46.9165 48.473 46.8946 48.4699 46.8732C48.4667 46.8517 48.456 46.8321 48.4397 46.8179C48.4233 46.8036 48.4025 46.7957 48.3808 46.7955C47.3756 46.8175 46.3745 46.6592 45.4252 46.3281Z" fill="#FF4B55"/>
<path d="M51.4905 36.6769C50.7313 35.2594 49.4689 34.1774 47.9518 33.6441C47.9317 33.6376 47.9101 33.6382 47.8904 33.6457C47.8708 33.6533 47.8543 33.6673 47.8436 33.6854C47.833 33.7036 47.829 33.7249 47.8321 33.7457C47.8352 33.7665 47.8453 33.7856 47.8608 33.7999C49.4767 35.129 50.5239 37.0251 50.7883 39.1007C51.0527 41.1762 50.5144 43.2744 49.2834 44.9662C49.1456 45.144 49.0077 45.3329 48.8699 45.4873C49.6213 45.0818 50.2854 44.532 50.824 43.8694C51.3626 43.2068 51.7651 42.4444 52.0086 41.626C52.252 40.8075 52.3316 39.9491 52.2427 39.0998C52.1538 38.2506 51.8982 37.4272 51.4905 36.6769Z" fill="#FF4B55"/>
<path d="M38.7183 44.9635C37.4867 43.2723 36.9474 41.1746 37.2108 39.0991C37.4742 37.0236 38.5204 35.1271 40.1354 33.7972C40.1509 33.7829 40.161 33.7638 40.1641 33.743C40.1672 33.7222 40.1632 33.7009 40.1525 33.6827C40.1419 33.6646 40.1254 33.6506 40.1058 33.6431C40.0861 33.6355 40.0645 33.635 40.0444 33.6414C38.8614 34.0646 37.8262 34.8214 37.0641 35.8203C36.302 36.8192 35.8455 38.0175 35.7498 39.2703C35.6542 40.5231 35.9235 41.7769 36.5251 42.8799C37.1268 43.9829 38.035 44.8881 39.1401 45.486C38.9875 45.3218 38.8466 45.1473 38.7183 44.9635Z" fill="#FF4B55"/>
</g>
<defs>
<filter id="filter0_d_567_1223" x="0" y="0" width="88" height="88" filterUnits="userSpaceOnUse" color-interpolation-filters="sRGB">
<feFlood flood-opacity="0" result="BackgroundImageFix"/>
<feColorMatrix in="SourceAlpha" type="matrix" values="0 0 0 0 0 0 0 0 0 0 0 0 0 0 0 0 0 0 127 0" result="hardAlpha"/>
<feOffset dy="4"/>
<feGaussianBlur stdDeviation="5"/>
<feComposite in2="hardAlpha" operator="out"/>
<feColorMatrix type="matrix" values="0 0 0 0 0 0 0 0 0 0 0 0 0 0 0 0 0 0 0.25 0"/>
<feBlend mode="normal" in2="BackgroundImageFix" result="effect1_dropShadow_567_1223"/>
<feBlend mode="normal" in="SourceGraphic" in2="effect1_dropShadow_567_1223" result="shape"/>
</filter>
<clipPath id="clip0_567_1223">
<rect width="68" height="68" fill="white" transform="translate(10 6)"/>
</clipPath>
</defs>
</svg>
