<svg width="24" height="24" viewBox="0 0 24 24" fill="none" xmlns="http://www.w3.org/2000/svg">
<path d="M18.75 8V10.1C18.2524 10.0377 17.7515 10.0043 17.25 10V8C17.25 4.85 16.36 2.75 12 2.75C7.64 2.75 6.75 4.85 6.75 8V10C6.24849 10.0043 5.74765 10.0377 5.25 10.1L5.25 8C5.25 5.1 5.95 1.25 12 1.25C18.05 1.25 18.75 5.1 18.75 8Z" fill="#15AB89"/>
<path opacity="0.4" d="M22 15V17C22 21 21 22 17 22H7C3 22 2 21 2 17V15C2 11.66 2.7 10.41 5.25 10.1C5.74765 10.0377 6.24849 10.0043 6.75 10L17.25 10C17.7515 10.0043 18.2524 10.0377 18.75 10.1C21.3 10.41 22 11.66 22 15Z" fill="#15AB89"/>
<path d="M8 17.0011C7.86932 16.9996 7.74022 16.9724 7.62 16.9211C7.49762 16.8728 7.38561 16.8015 7.29 16.7111C7.10743 16.5194 7.00388 16.2659 7 16.0011C7.00145 15.8701 7.02863 15.7407 7.08 15.6201C7.13073 15.499 7.20175 15.3874 7.29 15.2901C7.38561 15.1997 7.49762 15.1285 7.62 15.0801C7.80211 15.0036 8.00282 14.9826 8.19681 15.02C8.3908 15.0574 8.56938 15.1514 8.71 15.2901C8.79825 15.3874 8.86927 15.499 8.92 15.6201C8.97137 15.7407 8.99855 15.8701 9 16.0011C8.99612 16.2659 8.89257 16.5194 8.71 16.7111C8.51826 16.8937 8.26473 16.9973 8 17.0011Z" fill="#15AB89"/>
<path d="M12 17.0012C11.7352 16.9997 11.481 16.8967 11.29 16.7132C11.2017 16.6159 11.1307 16.5043 11.08 16.3832C11.0285 16.2623 11.0013 16.1325 11 16.0012C11.002 15.7361 11.1058 15.4819 11.29 15.2912C11.4834 15.1127 11.7369 15.0137 12 15.0137C12.2631 15.0137 12.5166 15.1127 12.71 15.2912C12.8942 15.4819 12.998 15.7361 13 16.0012C12.9984 16.1319 12.9712 16.261 12.92 16.3812C12.8693 16.5023 12.7983 16.6139 12.71 16.7112C12.5183 16.8938 12.2647 16.9973 12 17.0012Z" fill="#15AB89"/>
<path d="M16 17.0012C15.7355 16.9978 15.4821 16.895 15.29 16.7132C15.1053 16.522 15.0015 16.267 15 16.0012C15.002 15.7361 15.1058 15.4819 15.29 15.2912C15.4834 15.1127 15.7369 15.0137 16 15.0137C16.2631 15.0137 16.5166 15.1127 16.71 15.2912C16.75 15.3412 16.79 15.3912 16.83 15.4512C16.8696 15.5022 16.9001 15.5597 16.92 15.6212C16.9489 15.6778 16.9691 15.7385 16.98 15.8012C16.9911 15.8673 16.9978 15.9341 17 16.0012C16.9961 16.2659 16.8926 16.5194 16.71 16.7112C16.5183 16.8938 16.2647 16.9973 16 17.0012Z" fill="#15AB89"/>
</svg>
