<svg width="71" height="54" viewBox="0 0 71 54" fill="none" xmlns="http://www.w3.org/2000/svg">
<g clip-path="url(#clip0_472_2)">
<path d="M29.8713 20.6272C28.5026 21.42 27.1767 22.1915 25.8551 22.9629C25.5728 22.6886 25.6926 22.4015 25.6926 22.1529C25.684 17.2929 25.7011 12.4286 25.6755 7.56433C25.6669 6.24861 26.146 5.30576 27.3051 4.65433C29.7345 3.28718 32.1425 1.88576 34.5419 0.467185C35.1364 0.115756 35.624 0.115756 36.2186 0.467185C38.6437 1.89861 41.0902 3.30004 43.5367 4.69718C44.5846 5.29718 45.0936 6.17147 45.0764 7.38433C45.0593 8.5629 45.0722 9.74576 45.0722 10.9372C44.6915 11.0443 44.4777 10.7743 44.2381 10.6372C41.4281 9.02147 38.6266 7.3929 35.8208 5.76861C34.8413 5.2029 34.7387 5.26718 34.7387 6.42861C34.7344 8.37004 34.7387 10.3115 34.7387 12.2358C30.483 13.0629 28.5454 16.7743 29.8713 20.6272Z" fill="#2C2E35"/>
<path d="M40.9021 20.6401C42.4333 15.9129 39.3452 12.7201 36.0989 12.2572C36.0989 10.6929 36.0989 9.12009 36.0989 7.53009C36.4154 7.47438 36.6378 7.71866 36.8816 7.86009C41.0774 10.2858 45.2604 12.7415 49.4648 15.1458C50.6539 15.8229 51.1671 16.7658 51.15 18.1201C51.1158 20.7944 51.1158 23.4687 51.1543 26.1429C51.1671 26.9701 50.9105 27.4844 50.1706 27.8958C47.7369 29.2544 45.3332 30.6644 42.9294 32.0787C41.9157 32.6787 40.9406 32.6744 39.9354 32.0658C38.9004 31.4444 37.8482 30.8487 36.796 30.2358C36.9158 29.9101 37.2066 29.8587 37.4205 29.7344C40.2477 28.0929 43.0877 26.4644 45.9191 24.8272C46.8943 24.2658 46.89 24.1201 45.902 23.5415C44.2553 22.5815 42.6044 21.6301 40.9021 20.6401Z" fill="#2C2E35"/>
<path d="M24.4053 13.3586C24.4053 17.0486 24.4053 20.5415 24.4053 24.0386C24.4053 25.1786 24.5421 25.2601 25.5173 24.6986C27.1897 23.7301 28.862 22.7615 30.5258 21.7972C33.4727 25.0929 37.5659 24.8701 40.2477 21.8144C41.5736 22.5772 42.9038 23.3486 44.2297 24.1158C44.2083 24.4629 43.9174 24.4886 43.7292 24.6001C39.4051 27.1072 35.0767 29.6058 30.7568 32.1172C29.803 32.6701 28.862 32.6701 27.9168 32.1215C25.4018 30.6601 22.8954 29.1901 20.3677 27.7458C19.8587 27.4544 19.6406 27.0901 19.6448 26.5029C19.6619 23.5544 19.6534 20.6058 19.6491 17.6572C19.6491 16.7744 19.9699 16.0201 20.7056 15.5529C21.8689 14.8029 23.0836 14.1386 24.4053 13.3586Z" fill="#2C2E35"/>
<path fill-rule="evenodd" clip-rule="evenodd" d="M26.5181 46.0929C25.9707 46.7015 25.2265 46.7615 24.4566 46.7487C23.336 46.7229 22.1726 46.8944 21.1033 46.6415C20.1324 46.4101 19.2984 46.4829 18.3403 46.6329C16.9075 46.8601 15.3763 47.0658 14.0033 46.1187C13.366 46.6715 12.5962 46.7529 11.7921 46.7487C8.87934 46.7401 5.96236 46.7529 3.04965 46.7444C1.03513 46.7401 0.166875 45.8615 0.162598 43.8644C0.162598 42.4972 0.162598 41.1301 0.162598 39.7672C1.95898 39.5787 2.89567 40.4015 2.89995 42.1372C2.91278 44.8072 2.91278 44.8115 5.59025 44.8115C7.35242 44.8115 9.11031 44.8158 10.8725 44.8072C12.0401 44.8029 12.3866 44.4515 12.3994 43.2944C12.4037 42.9001 12.3951 42.5058 12.3994 42.1072C12.4122 40.3029 13.2548 39.5658 15.2309 39.7501C15.171 41.4172 15.3763 43.1015 14.9828 44.8115C15.6628 44.8115 16.3001 44.8201 16.9374 44.8072C17.9554 44.7858 18.3745 44.3787 18.3788 43.3672C18.3916 41.5415 18.3831 39.7158 18.3831 37.8901C18.3831 35.9444 19.0289 35.3187 21.0306 35.3272C21.2274 35.5972 21.129 35.9101 21.129 36.2015C21.1375 38.6058 21.1333 41.0101 21.1333 43.4144C21.1375 44.0015 21.3001 44.5329 21.9288 44.6958C22.6302 44.8844 23.3616 44.9487 24.0545 44.6315C24.3069 44.5158 24.2427 44.2072 24.247 43.9715C24.2555 43.3929 24.2299 42.8144 24.2555 42.2401C24.3154 40.6887 25.2222 39.7372 26.7534 39.6815C27.998 39.6344 29.2427 39.6344 30.4873 39.6815C31.9715 39.7372 32.891 40.7015 32.9381 42.1801C32.9595 42.8829 32.9595 43.5815 32.9338 44.2801C32.8782 45.6729 31.9928 46.6715 30.6071 46.7058C29.2427 46.7444 27.8055 47.0658 26.5181 46.0929ZM26.9416 44.8072C27.8612 44.8072 28.6439 44.8072 29.4266 44.8115C29.9783 44.8115 30.2264 44.5758 30.2478 43.9887C30.359 41.4472 30.1922 41.2758 27.6772 41.4901C27.211 41.5329 26.933 41.6829 26.9416 42.1929C26.9459 43.0372 26.9416 43.8772 26.9416 44.8072Z" fill="#2C2E35"/>
<path d="M38.1305 39.7542C39.9739 39.5999 40.9619 40.4442 40.9405 42.1628C40.902 44.6913 40.8849 44.8628 43.618 44.8156C45.3802 44.7856 47.1381 44.8156 48.9002 44.807C50.0379 44.8028 50.4357 44.4042 50.44 43.2813C50.4485 41.4856 50.44 39.6899 50.4443 37.8985C50.4443 35.9399 51.073 35.3228 53.1132 35.3228C53.2757 36.0299 53.1773 36.7499 53.1816 37.4656C53.1987 39.4113 53.1816 41.357 53.1902 43.3028C53.1987 44.3828 53.6051 44.8028 54.6701 44.807C56.9626 44.8156 56.7915 45.0128 56.7872 42.707C56.7872 42.557 56.7872 42.4028 56.7872 42.2528C56.7958 40.277 57.4202 39.6728 59.4946 39.6985C59.4946 41.4085 59.5802 43.127 59.4647 44.837C59.3963 45.8356 58.4938 46.5856 57.4887 46.6799C56.0088 46.8128 54.4904 46.9327 53.0447 46.6327C52.138 46.4399 51.351 46.217 50.4742 46.6585C50.1962 46.7956 49.8155 46.7399 49.4862 46.7442C46.6633 46.7485 43.8404 46.7528 41.0218 46.7442C39.0329 46.7356 38.1476 45.8442 38.1348 43.8342C38.1219 42.4713 38.1305 41.1085 38.1305 39.7542Z" fill="#2C2E35"/>
<path d="M35.3803 13.6157C37.9337 13.6114 40.0338 15.7072 40.021 18.2486C40.0039 20.7772 37.861 22.9029 35.3461 22.8729C32.8483 22.8472 30.7824 20.7686 30.7696 18.2572C30.7568 15.6814 32.8012 13.62 35.3803 13.6157Z" fill="#2C2E35"/>
<path d="M70.8461 39.6945C70.8461 41.3445 70.8718 42.9259 70.8333 44.4987C70.8076 45.6087 69.9736 46.5602 68.8744 46.6673C67.1807 46.8302 65.4784 46.8259 63.7846 46.6716C62.6213 46.5645 61.7744 45.5745 61.7616 44.353C61.7316 41.3787 61.753 38.4002 61.753 35.4345C63.5237 35.0873 64.4946 35.833 64.5203 37.5645C64.5417 39.4502 64.516 41.3359 64.5288 43.2216C64.5331 44.4387 64.901 44.7987 66.0985 44.8073C68.3141 44.8245 68.1216 44.9187 68.1131 42.7887C68.1131 42.6045 68.1131 42.4245 68.1131 42.2402C68.1131 40.2945 68.7589 39.673 70.8461 39.6945Z" fill="#2C2E35"/>
<path d="M27.4463 51.7286C26.9844 51.5657 26.5695 51.6343 26.0563 51.66C26.0563 52.41 26.0563 53.1514 26.0563 53.9186C25.6414 53.9186 25.3163 53.9186 24.9784 53.9186C24.7389 53.5972 24.8587 53.2243 24.8544 52.8772C24.8373 51.5914 24.8501 51.5914 23.5199 51.6686C23.2676 52.3714 23.5456 53.1429 23.3617 53.8714C22.9938 54.0086 22.6431 53.9572 22.2496 53.91C22.2496 52.8814 22.2496 51.8657 22.2496 50.91C23.845 50.7729 25.4061 50.94 26.9758 50.8157C28.4685 50.7 28.7423 51.0214 28.7423 52.4957C28.7423 52.9457 28.7423 53.3957 28.7423 53.8329C28.3402 54.0343 27.981 53.9272 27.5917 53.9357C27.3779 53.2286 27.6003 52.4914 27.4463 51.7286Z" fill="#2C2E35"/>
<path fill-rule="evenodd" clip-rule="evenodd" d="M0.162598 48.853C1.70663 48.9002 1.26181 50.0616 1.41151 50.9102C2.1429 50.7816 2.8529 50.7687 3.56718 50.8159C4.21302 50.8545 4.56802 51.2016 4.56802 51.8616C4.56374 52.3973 4.70489 52.9673 4.41832 53.4645C3.99061 54.2016 0.778501 54.1802 0.308019 53.4645C0.179706 53.2716 0.166875 53.0702 0.166875 52.8559C0.162598 51.553 0.162598 50.2502 0.162598 48.853ZM1.4329 53.0659C2.11296 53.0402 2.72886 53.1473 3.32338 52.993C3.50302 51.4887 3.33621 51.3816 1.42862 51.733C1.32597 52.1402 1.34736 52.5473 1.4329 53.0659Z" fill="#2C2E35"/>
<path d="M7.86144 39.2445C7.0274 39.3559 6.82638 41.143 5.73144 39.8616C5.3636 39.4287 4.17457 39.1845 5.08559 38.1945C6.2233 36.9516 6.21903 36.9473 7.77589 38.2502C9.38409 36.9773 9.35415 37.0073 10.4876 38.1902C11.1762 38.9059 10.5132 39.1887 10.1582 39.5659C9.29854 40.4787 9.28571 40.4702 7.86144 39.2445Z" fill="#2C2E35"/>
<path d="M15.1837 53.9401C15.1837 52.2387 15.1837 50.6058 15.1837 48.973C16.0263 48.853 16.3428 49.0887 16.3685 49.9072C16.3856 50.5715 16.3728 51.2358 16.3728 51.9001C17.0186 52.033 17.5703 51.9001 17.8484 51.3772C18.1777 50.7601 18.6225 50.7001 19.2256 50.8672C19.2427 51.373 18.8663 51.6558 18.5412 52.0501C19.17 52.4744 19.371 53.0915 19.2427 53.8544C18.8834 54.0515 18.4985 53.9015 18.0665 53.9615C18.0451 53.5672 18.0237 53.2458 17.9981 52.8687C17.472 52.8687 16.9715 52.8687 16.454 52.8687C16.2658 53.1601 16.4497 53.5115 16.3214 53.8587C15.975 54.0687 15.5986 53.9015 15.1837 53.9401Z" fill="#2C2E35"/>
<path fill-rule="evenodd" clip-rule="evenodd" d="M30.7568 52.6544C30.915 53.0744 30.915 53.0744 32.2708 53.0787C32.8996 53.0787 33.5583 53.023 33.909 53.9273C32.6515 53.9273 31.4667 53.9702 30.2863 53.9016C29.8201 53.8759 29.4864 53.4944 29.4907 52.9502C29.495 52.5859 29.4865 52.2216 29.4865 51.8573C29.4907 51.1844 29.8586 50.8459 30.4958 50.8201C31.3128 50.7944 32.134 50.7901 32.9466 50.8159C33.6481 50.8373 34.0116 51.2744 33.9945 51.9344C33.9774 52.6502 33.4257 52.6716 32.8782 52.6587C32.1682 52.6416 31.4582 52.6544 30.7568 52.6544ZM30.5472 52.1487C31.4325 52.0373 32.1254 52.2387 32.9552 51.943C32.0185 51.4673 31.1674 51.5144 30.5472 52.1487Z" fill="#2C2E35"/>
<path fill-rule="evenodd" clip-rule="evenodd" d="M9.61063 53.9787C8.48147 53.5887 7.44214 54.0773 6.38141 53.9616C5.49178 53.8673 5.1881 53.563 5.14961 52.5259C5.10684 51.3002 5.36346 50.8673 6.25738 50.8159C7.01443 50.7687 7.77147 50.7944 8.52852 50.8159C9.17009 50.8287 9.56358 51.1802 9.60208 51.8187C9.64485 52.5087 9.61063 53.203 9.61063 53.9787ZM8.35316 53.0187C8.40876 51.5402 8.40876 51.5573 7.04009 51.6087C5.86388 51.6516 6.54394 52.4787 6.3472 53.0187C7.0572 53.0187 7.6731 53.0187 8.35316 53.0187Z" fill="#2C2E35"/>
<path fill-rule="evenodd" clip-rule="evenodd" d="M43.3144 54.0129C42.1767 53.5586 41.163 54.0686 40.1279 53.9658C39.1613 53.8715 38.8533 53.5586 38.8405 52.4015C38.8277 51.2229 39.1014 50.8458 40.0766 50.8072C40.7695 50.7772 41.4709 50.7943 42.1638 50.8072C42.8952 50.8201 43.2844 51.2186 43.3101 51.9429C43.3315 52.5729 43.3144 53.2072 43.3144 54.0129ZM42.0312 51.6986C40.0167 51.4458 39.8542 51.5701 40.1835 53.0186C40.7994 53.0186 41.4153 53.0186 42.0312 53.0186C42.0312 52.5601 42.0312 52.1529 42.0312 51.6986Z" fill="#2C2E35"/>
<path d="M14.4695 53.9143C14.0589 53.9143 13.7296 53.9143 13.3532 53.9143C13.1479 53.2458 13.3746 52.5086 13.2206 51.7843C12.7202 51.4586 12.1642 51.7286 11.6167 51.5958C11.3472 52.3801 11.6081 53.1515 11.4328 53.9143C11.0949 53.9143 10.7698 53.9143 10.3806 53.9143C10.3806 52.9115 10.3806 51.9043 10.3806 50.8115C11.3601 51.2229 12.2968 50.6786 13.2719 50.7858C14.0461 50.8715 14.4481 51.2101 14.4653 51.9815C14.4824 52.6115 14.4695 53.2458 14.4695 53.9143Z" fill="#2C2E35"/>
<path d="M44.807 40.753C44.7728 40.3973 45.085 40.1659 45.1491 39.7759C44.5803 39.7201 44.0927 39.553 44.2595 38.8073C44.5247 37.633 45.0935 37.2944 46.5649 37.4573C46.6162 37.8173 46.2869 38.0444 46.2355 38.4387C46.6119 38.6873 47.3861 38.6659 47.0738 39.5316C46.6333 40.7573 46.3852 40.9287 44.807 40.753Z" fill="#2C2E35"/>
<path d="M68.006 49.2C67.9846 49.47 66.6031 50.8157 66.3636 50.7943C66.0984 50.7772 64.7768 49.3757 64.7896 49.1272C64.8068 48.8143 66.1455 47.5372 66.4321 47.5629C66.7443 47.5843 68.0274 48.9257 68.006 49.2Z" fill="#2C2E35"/>
<path d="M54.6531 37.6242C54.9525 37.0285 55.4914 36.6599 55.9234 36.2013C56.1672 35.9356 56.4537 35.9356 56.7104 36.2185C56.7702 36.2828 56.8387 36.3428 56.9071 36.4071C58.186 37.6328 58.1475 38.0356 56.6676 39.0642C56.3896 39.2571 56.1586 39.2656 55.9405 39.0385C55.5085 38.5799 54.9824 38.1985 54.6531 37.6242Z" fill="#2C2E35"/>
<path d="M44.3109 49.7914C45.4059 49.5771 45.3845 50.76 46.0261 51.0857C46.0817 51.1114 46.1073 51.4457 45.8635 51.6128C45.2177 52.0543 45.2818 52.6285 45.8208 53.0614C46.1715 53.34 45.9362 53.5886 46.0474 53.8371C44.6745 54.0814 44.2767 53.7557 44.2553 52.44C44.2468 52.08 44.3922 51.6685 43.8062 51.54C43.618 51.4971 43.6565 51.0814 43.7806 50.8843C44.0586 50.4385 44.2895 50.04 44.3109 49.7914Z" fill="#2C2E35"/>
<path d="M36.8601 48.8829C37.5402 48.8144 38.0064 49.0672 38.0278 49.7272C38.0705 51.1115 38.0406 52.4915 38.0406 53.9144C37.6172 53.9144 37.2664 53.9144 36.8601 53.9144C36.8601 52.2515 36.8601 50.6058 36.8601 48.8829Z" fill="#2C2E35"/>
<path d="M35.8978 53.9186C35.4701 53.9186 35.1493 53.9186 34.7772 53.9186C34.7772 52.2343 34.7772 50.5758 34.7772 48.8872C35.5043 48.8143 35.8935 49.1015 35.8978 49.8343C35.9021 51.1672 35.8978 52.5 35.8978 53.9186Z" fill="#2C2E35"/>
</g>
<defs>
<clipPath id="clip0_472_2">
<rect width="71" height="54" fill="white"/>
</clipPath>
</defs>
</svg>
