<svg width="24" height="24" viewBox="0 0 24 24" fill="none" xmlns="http://www.w3.org/2000/svg">
<path d="M23.6438 14.4976C23.0698 16.738 21.8258 18.7626 20.0691 20.3152C18.3123 21.8678 16.1218 22.8788 13.7745 23.2202C11.4272 23.5617 9.02853 23.2183 6.88183 22.2334C4.73513 21.2486 2.93682 19.6666 1.71432 17.6875C0.49182 15.7084 -0.0999675 13.421 0.0137972 11.1147C0.127562 8.80836 0.941769 6.58665 2.35345 4.7305C3.76514 2.87436 5.71089 1.46715 7.94466 0.686844C10.1784 -0.0934643 12.5999 -0.211829 14.9028 0.346718C17.9907 1.09567 20.6464 3.00728 22.2856 5.66105C23.9249 8.31483 24.4134 11.4934 23.6438 14.4976Z" fill="url(#paint0_linear_332_265)"/>
<path d="M17.715 10.219C17.9494 8.66837 16.7399 7.82907 15.0707 7.27242L15.6147 5.16515L14.3018 4.8465L13.7769 6.8991C13.4302 6.8171 13.0739 6.7351 12.7175 6.66177L13.2424 4.59984L11.9295 4.28052L11.395 6.37845C11.1045 6.31445 10.8231 6.25068 10.5508 6.18712V6.17979L8.73147 5.7418L8.38473 7.11042C8.38473 7.11042 9.35983 7.32908 9.34407 7.33842C9.5268 7.35915 9.69362 7.44954 9.80794 7.58975C9.92227 7.72997 9.97477 7.90857 9.95394 8.08639L9.33722 10.4863C9.38576 10.4958 9.43293 10.5111 9.4777 10.5316C9.4298 10.5237 9.38277 10.5114 9.33722 10.495L8.4745 13.8522C8.43551 13.9693 8.35055 14.0666 8.23813 14.1231C8.1257 14.1795 7.99491 14.1905 7.87423 14.1535C7.88382 14.1715 6.91489 13.9255 6.91489 13.9255L6.25842 15.3922L7.97153 15.8115C8.29017 15.8935 8.5999 15.9668 8.90894 16.0488L8.36486 18.1741L9.67779 18.4934L10.2219 16.3861C10.5782 16.4774 10.9345 16.5688 11.2723 16.6528L10.7379 18.7507L12.0508 19.07L12.5983 16.9421C14.8486 17.3528 16.5364 17.1881 17.2401 15.2088C17.8123 13.6215 17.212 12.7002 16.0307 12.0983C16.4865 12.0117 16.8998 11.7801 17.2054 11.4398C17.5109 11.0996 17.6914 10.6701 17.7184 10.219H17.715ZM14.7047 14.3242C14.3018 15.9115 11.5444 15.0542 10.6536 14.8348L11.3758 12.0163C12.2666 12.2349 15.1357 12.6642 14.7047 14.3242ZM15.1159 10.191C14.7411 11.6416 12.453 10.9023 11.7123 10.7203L12.3687 8.16572C13.1095 8.34838 15.501 8.68571 15.1166 10.191H15.1159Z" fill="#EBEBEB"/>
<defs>
<linearGradient id="paint0_linear_332_265" x1="12" y1="0" x2="12" y2="23.3486" gradientUnits="userSpaceOnUse">
<stop stop-color="#F9AA4B"/>
<stop offset="1" stop-color="#F7931A"/>
</linearGradient>
</defs>
</svg>
