<svg width="10" height="8" viewBox="0 0 10 8" fill="none" xmlns="http://www.w3.org/2000/svg">
<path d="M0.162967 3.57876L3.34075 0.172987C3.44606 0.0678124 3.58535 0.0105547 3.72928 0.0132764C3.87321 0.015998 4.01053 0.0784864 4.11232 0.187577C4.2141 0.296667 4.27241 0.443842 4.27495 0.598095C4.27749 0.752348 4.22406 0.901636 4.12593 1.01451L1.8963 3.40411H9.44445C9.59179 3.40411 9.7331 3.46684 9.83729 3.5785C9.94147 3.69016 10 3.84161 10 3.99952C10 4.15744 9.94147 4.30888 9.83729 4.42054C9.7331 4.53221 9.59179 4.59494 9.44445 4.59494H1.8963L4.12593 6.98613C4.22925 7.09817 4.28719 7.24935 4.28719 7.40689C4.28719 7.56442 4.22925 7.7156 4.12593 7.82765C4.07445 7.88305 4.01327 7.92701 3.9459 7.957C3.87853 7.987 3.80629 8.00244 3.73334 8.00244C3.66038 8.00244 3.58815 7.987 3.52078 7.957C3.45341 7.92701 3.39223 7.88305 3.34075 7.82765L0.162967 4.42028C0.111276 4.36511 0.0702593 4.29954 0.0422721 4.22733C0.0142849 4.15513 -0.00012207 4.07771 -0.00012207 3.99952C-0.00012207 3.92133 0.0142849 3.84392 0.0422721 3.77171C0.0702593 3.69951 0.111276 3.63394 0.162967 3.57876Z" fill="#010E17"/>
</svg>
