<svg width="10" height="9" viewBox="0 0 10 9" fill="none" xmlns="http://www.w3.org/2000/svg">
<path d="M0.746713 8.54129C0.845237 8.54165 0.942844 8.52237 1.03384 8.4846C1.12484 8.44683 1.2074 8.39131 1.27671 8.32129L4.80671 4.79029C4.94619 4.64915 5.02441 4.45872 5.02441 4.26029C5.02441 4.06186 4.94619 3.87143 4.80671 3.73029L1.27771 0.201292C1.13554 0.0688118 0.947491 -0.00331137 0.75319 0.000116847C0.558889 0.00354506 0.373504 0.082257 0.236091 0.21967C0.0986776 0.357083 0.0199656 0.542468 0.0165377 0.736769C0.0131097 0.93107 0.0852323 1.11912 0.217712 1.26129L3.21771 4.26129L0.217712 7.26129C0.0782323 7.40243 1.09673e-05 7.59286 1.09673e-05 7.79129C1.09673e-05 7.98972 0.0782323 8.18015 0.217712 8.32129C0.285768 8.3927 0.367956 8.44914 0.459037 8.48702C0.550117 8.5249 0.648092 8.54338 0.746713 8.54129Z" fill="#15AB89"/>
<path d="M4.7467 8.54129C4.84522 8.54165 4.94283 8.52237 5.03383 8.4846C5.12482 8.44683 5.20739 8.39131 5.2767 8.32129L8.8067 4.79029C8.94618 4.64915 9.0244 4.45872 9.0244 4.26029C9.0244 4.06186 8.94618 3.87143 8.8067 3.73029L5.2777 0.201292C5.13552 0.0688118 4.94748 -0.00331137 4.75317 0.000116847C4.55887 0.00354506 4.37349 0.082257 4.23608 0.21967C4.09866 0.357083 4.01995 0.542468 4.01652 0.736769C4.01309 0.93107 4.08522 1.11912 4.2177 1.26129L7.2177 4.26129L4.2177 7.26129C4.07822 7.40243 4 7.59286 4 7.79129C4 7.98972 4.07822 8.18015 4.2177 8.32129C4.28575 8.3927 4.36794 8.44914 4.45902 8.48702C4.5501 8.5249 4.64808 8.54338 4.7467 8.54129Z" fill="#15AB89"/>
</svg>
