<svg width="24" height="24" viewBox="0 0 24 24" fill="none" xmlns="http://www.w3.org/2000/svg">
<path opacity="0.4" d="M16.19 2H7.81C4.17 2 2 4.17 2 7.81V16.18C2 19.83 4.17 22 7.81 22H16.18C19.82 22 21.99 19.83 21.99 16.19V7.81C22 4.17 19.83 2 16.19 2Z" fill="#15AB89"/>
<path d="M13.261 16.281C13.1625 16.2814 13.0648 16.2621 12.9738 16.2243C12.8829 16.1866 12.8003 16.1311 12.731 16.061L9.20098 12.53C9.0615 12.3889 8.98328 12.1985 8.98328 12C8.98328 11.8016 9.0615 11.6112 9.20098 11.47L12.73 7.94104C12.8722 7.80856 13.0602 7.73643 13.2545 7.73986C13.4488 7.74329 13.6342 7.822 13.7716 7.95942C13.909 8.09683 13.9877 8.28221 13.9912 8.47652C13.9946 8.67082 13.9225 8.85886 13.79 9.00104L10.79 12.001L13.79 15.001C13.9295 15.1422 14.0077 15.3326 14.0077 15.531C14.0077 15.7295 13.9295 15.9199 13.79 16.061C13.7219 16.1324 13.6397 16.1889 13.5487 16.2268C13.4576 16.2646 13.3596 16.2831 13.261 16.281Z" fill="#15AB89"/>
</svg>
