<svg width="24" height="24" viewBox="0 0 24 24" fill="none" xmlns="http://www.w3.org/2000/svg">
<path opacity="0.4" d="M7.81 2H16.19C19.83 2 22 4.17 22 7.81V16.18C22 19.83 19.83 22 16.19 22H7.82C4.18 22 2.01 19.83 2.01 16.19V7.81C2 4.17 4.17 2 7.81 2Z" fill="#15AB89"/>
<path d="M10.739 16.281C10.8375 16.2814 10.9352 16.2621 11.0262 16.2243C11.1171 16.1866 11.1997 16.1311 11.269 16.061L14.799 12.53C14.9385 12.3889 15.0167 12.1985 15.0167 12C15.0167 11.8016 14.9385 11.6112 14.799 11.47L11.27 7.94104C11.1278 7.80856 10.9398 7.73643 10.7455 7.73986C10.5512 7.74329 10.3658 7.822 10.2284 7.95942C10.091 8.09683 10.0123 8.28221 10.0088 8.47652C10.0054 8.67082 10.0775 8.85886 10.21 9.00104L13.21 12.001L10.21 15.001C10.0705 15.1422 9.99232 15.3326 9.99232 15.531C9.99232 15.7295 10.0705 15.9199 10.21 16.061C10.2781 16.1324 10.3603 16.1889 10.4513 16.2268C10.5424 16.2646 10.6404 16.2831 10.739 16.281Z" fill="#15AB89"/>
</svg>
