<svg width="210" height="210" viewBox="0 0 210 210" fill="none" xmlns="http://www.w3.org/2000/svg">
<path opacity="0.4" d="M95.8981 18.4589L47.773 36.4839C43.0061 38.566 38.9156 41.9384 35.9627 46.2209C33.0098 50.5034 31.3119 55.5256 31.0605 60.7214L31.0605 131.596C31.2788 135.561 32.3077 139.439 34.0835 142.991C35.8594 146.543 38.3446 149.693 41.3855 152.246L89.5106 188.209C94.0564 191.329 99.4407 192.999 104.954 192.999C110.468 192.999 115.852 191.329 120.398 188.209L168.523 152.246C171.557 149.686 174.037 146.535 175.812 142.985C177.587 139.434 178.62 135.559 178.848 131.596V60.7214C178.596 55.5368 176.896 50.5266 173.943 46.2583C170.989 41.99 166.899 38.6343 162.136 36.5714L114.011 18.5464C108.129 16.6353 101.798 16.6047 95.8981 18.4589Z" fill="#15AB89"/>
<path d="M126.875 91.8764C126.899 87.8279 125.799 83.8522 123.697 80.3918C121.596 76.9314 118.575 74.1221 114.972 72.2766C111.368 70.4311 107.323 69.6218 103.287 69.9387C99.2512 70.2557 95.3823 71.6865 92.1111 74.072C88.84 76.4574 86.295 79.7038 84.7595 83.4498C83.2239 87.1959 82.7581 91.2945 83.4138 95.2896C84.0696 99.2847 85.8211 103.019 88.4735 106.078C91.1259 109.137 94.5751 111.399 98.4371 112.614V135.626C98.4371 137.367 99.1285 139.036 100.359 140.267C101.59 141.497 103.259 142.189 105 142.189C106.74 142.189 108.409 141.497 109.64 140.267C110.871 139.036 111.562 137.367 111.562 135.626V112.614C115.99 111.239 119.863 108.485 122.618 104.755C125.372 101.025 126.863 96.5131 126.875 91.8764Z" fill="#15AB89"/>
</svg>
