<svg width="24" height="24" viewBox="0 0 24 24" fill="none" xmlns="http://www.w3.org/2000/svg">
<path d="M15 22C14.8015 21.9987 14.6115 21.9193 14.4711 21.7789C14.3307 21.6385 14.2513 21.4485 14.25 21.25V2.75C14.2513 2.55149 14.3307 2.36149 14.4711 2.22112C14.6115 2.08075 14.8015 2.00131 15 2C15.1985 2.00131 15.3885 2.08075 15.5289 2.22112C15.6693 2.36149 15.7487 2.55149 15.75 2.75V21.25C15.7487 21.4485 15.6693 21.6385 15.5289 21.7789C15.3885 21.9193 15.1985 21.9987 15 22Z" fill="#15AB89"/>
<path opacity="0.4" d="M6.5 20H12.5V4H6.5C5.43913 4 4.42172 4.42143 3.67157 5.17157C2.92143 5.92172 2.5 6.93913 2.5 8L2.5 16C2.5 17.0609 2.92143 18.0783 3.67157 18.8284C4.42172 19.5786 5.43913 20 6.5 20Z" fill="#15AB89"/>
<path opacity="0.4" d="M18 20H15V4H18C19.0609 4 20.0783 4.42143 20.8284 5.17157C21.5786 5.92172 22 6.93913 22 8V16C22 17.0609 21.5786 18.0783 20.8284 18.8284C20.0783 19.5786 19.0609 20 18 20Z" fill="#15AB89"/>
<path d="M5.75011 12.9992C5.61943 12.9976 5.49033 12.9704 5.37011 12.9192C5.24897 12.8685 5.13737 12.7974 5.04011 12.7092C4.95212 12.6097 4.8781 12.4987 4.82011 12.3792C4.77194 12.2584 4.74815 12.1292 4.75011 11.9992C4.75424 11.7348 4.85778 11.4817 5.04011 11.2902L5.19011 11.1702C5.24584 11.1323 5.30637 11.102 5.37011 11.0802C5.42677 11.0513 5.48745 11.0311 5.55011 11.0202C5.71229 10.9863 5.88035 10.9932 6.03919 11.0403C6.19803 11.0875 6.34267 11.1733 6.46011 11.2902C6.64244 11.4817 6.74598 11.7348 6.75011 11.9992C6.74853 12.1299 6.72135 12.259 6.67011 12.3792C6.61938 12.5003 6.54836 12.6119 6.46011 12.7092C6.36285 12.7974 6.25125 12.8685 6.13011 12.9192C6.00989 12.9704 5.88079 12.9976 5.75011 12.9992Z" fill="#15AB89"/>
<path d="M9.24994 13.0002C9.11927 12.9986 8.99017 12.9715 8.86994 12.9202C8.74895 12.8701 8.63735 12.7998 8.53994 12.7122C8.39941 12.5721 8.30425 12.3929 8.26681 12.198C8.22936 12.0031 8.25136 11.8015 8.32994 11.6192C8.37838 11.4972 8.44965 11.3855 8.53994 11.2902C8.73333 11.1118 8.98681 11.0127 9.24994 11.0127C9.51307 11.0127 9.76656 11.1118 9.95994 11.2902C10.1425 11.482 10.2461 11.7355 10.2499 12.0002C10.2484 12.1309 10.2212 12.26 10.1699 12.3802C10.1192 12.5013 10.0482 12.6129 9.95994 12.7102C9.86268 12.7985 9.75108 12.8695 9.62994 12.9202C9.50972 12.9715 9.38062 12.9986 9.24994 13.0002Z" fill="#15AB89"/>
</svg>
