<svg width="24" height="24" viewBox="0 0 24 24" fill="none" xmlns="http://www.w3.org/2000/svg">
<path opacity="0.4" d="M16.24 2H7.76C5 2 4 3 4 5.81V18.19C4 21 5 22 7.76 22H16.23C19 22 20 21 20 18.19V5.81C20 3 19 2 16.24 2Z" fill="#15AB89"/>
<path d="M14 6.25H10C9.80149 6.24869 9.61149 6.16925 9.47112 6.02888C9.33075 5.88851 9.25131 5.69851 9.25 5.5C9.25131 5.30149 9.33075 5.11149 9.47112 4.97112C9.61149 4.83075 9.80149 4.75131 10 4.75H14C14.1985 4.75131 14.3885 4.83075 14.5289 4.97112C14.6693 5.11149 14.7487 5.30149 14.75 5.5C14.7487 5.69851 14.6693 5.88851 14.5289 6.02888C14.3885 6.16925 14.1985 6.24869 14 6.25Z" fill="#15AB89"/>
<path d="M13.75 17.55C13.75 17.8962 13.6474 18.2345 13.4551 18.5223C13.2628 18.8101 12.9895 19.0344 12.6697 19.1668C12.3499 19.2993 11.9981 19.3339 11.6586 19.2664C11.3191 19.1989 11.0073 19.0322 10.7626 18.7875C10.5178 18.5427 10.3512 18.2309 10.2836 17.8915C10.2161 17.552 10.2508 17.2001 10.3832 16.8804C10.5157 16.5606 10.74 16.2873 11.0278 16.095C11.3155 15.9027 11.6539 15.8 12 15.8C12.4641 15.8 12.9092 15.9844 13.2374 16.3126C13.5656 16.6408 13.75 17.0859 13.75 17.55Z" fill="#15AB89"/>
</svg>
