<svg width="10" height="8" viewBox="0 0 10 8" fill="none" xmlns="http://www.w3.org/2000/svg">
<g clip-path="url(#clip0_482_400)">
<path d="M9.83703 4.42124L6.65925 7.82701C6.55394 7.93219 6.41465 7.98945 6.27072 7.98672C6.12679 7.984 5.98947 7.92151 5.88768 7.81242C5.7859 7.70333 5.72759 7.55616 5.72505 7.4019C5.72251 7.24765 5.77594 7.09836 5.87407 6.98549L8.1037 4.59589H0.555551C0.408208 4.59589 0.266901 4.53316 0.162714 4.4215C0.058527 4.30984 -4.76837e-06 4.15839 -4.76837e-06 4.00048C-4.76837e-06 3.84256 0.058527 3.69112 0.162714 3.57946C0.266901 3.46779 0.408208 3.40506 0.555551 3.40506H8.1037L5.87407 1.01387C5.77075 0.901826 5.71281 0.750645 5.71281 0.593114C5.71281 0.435583 5.77075 0.284401 5.87407 0.172354C5.92555 0.116954 5.98673 0.0729942 6.0541 0.0429988C6.12147 0.0130038 6.19371 -0.00243664 6.26666 -0.00243664C6.33962 -0.00243664 6.41185 0.0130038 6.47922 0.0429988C6.54659 0.0729942 6.60777 0.116954 6.65925 0.172354L9.83703 3.57972C9.88872 3.63489 9.92974 3.70046 9.95773 3.77267C9.98572 3.84487 10.0001 3.92229 10.0001 4.00048C10.0001 4.07867 9.98572 4.15608 9.95773 4.22829C9.92974 4.30049 9.88872 4.36606 9.83703 4.42124Z" fill="#EBEBEB"/>
</g>
<defs>
<clipPath id="clip0_482_400">
<rect width="10" height="8" fill="white" transform="translate(10 8) rotate(-180)"/>
</clipPath>
</defs>
</svg>
