<svg width="10" height="9" viewBox="0 0 10 9" fill="none" xmlns="http://www.w3.org/2000/svg">
<path d="M8.2777 8.54129C8.17918 8.54165 8.08157 8.52237 7.99057 8.4846C7.89958 8.44683 7.81701 8.39131 7.7477 8.32129L4.2177 4.79029C4.07822 4.64915 4 4.45872 4 4.26029C4 4.06186 4.07822 3.87143 4.2177 3.73029L7.7467 0.201292C7.88888 0.0688118 8.07692 -0.00331137 8.27122 0.000116847C8.46553 0.00354506 8.65091 0.082257 8.78832 0.21967C8.92574 0.357083 9.00445 0.542468 9.00788 0.736769C9.0113 0.93107 8.93918 1.11912 8.8067 1.26129L5.8067 4.26129L8.8067 7.26129C8.94618 7.40243 9.0244 7.59286 9.0244 7.79129C9.0244 7.98972 8.94618 8.18015 8.8067 8.32129C8.73865 8.3927 8.65646 8.44914 8.56538 8.48702C8.4743 8.5249 8.37632 8.54338 8.2777 8.54129Z" fill="#15AB89"/>
<path d="M4.2777 8.54129C4.17918 8.54165 4.08157 8.52237 3.99057 8.4846C3.89958 8.44683 3.81701 8.39131 3.7477 8.32129L0.217702 4.79029C0.0782213 4.64915 0 4.45872 0 4.26029C0 4.06186 0.0782213 3.87143 0.217702 3.73029L3.7467 0.201292C3.88888 0.0688118 4.07692 -0.00331137 4.27122 0.000116847C4.46553 0.00354506 4.65091 0.082257 4.78832 0.21967C4.92574 0.357083 5.00445 0.542468 5.00788 0.736769C5.0113 0.93107 4.93918 1.11912 4.8067 1.26129L1.8067 4.26129L4.8067 7.26129C4.94618 7.40243 5.0244 7.59286 5.0244 7.79129C5.0244 7.98972 4.94618 8.18015 4.8067 8.32129C4.73865 8.3927 4.65646 8.44914 4.56538 8.48702C4.4743 8.5249 4.37632 8.54338 4.2777 8.54129Z" fill="#15AB89"/>
</svg>
