<svg width="150" height="170" viewBox="0 0 150 170" fill="none" xmlns="http://www.w3.org/2000/svg">
<path d="M70 1.88675C73.094 0.100422 76.906 0.100423 80 1.88675L144.478 39.1132C147.572 40.8996 149.478 44.2008 149.478 47.7735V122.227C149.478 125.799 147.572 129.1 144.478 130.887L80 168.113C76.906 169.9 73.094 169.9 70 168.113L5.52181 130.887C2.4278 129.1 0.521812 125.799 0.521812 122.227V47.7735C0.521812 44.2008 2.4278 40.8996 5.52181 39.1133L70 1.88675Z" fill="#010E17"/>
<path d="M71 17.8867C74.094 16.1004 77.906 16.1004 81 17.8868L131.622 47.1133C134.716 48.8996 136.622 52.2008 136.622 55.7735V114.227C136.622 117.799 134.716 121.1 131.622 122.887L81 152.113C77.906 153.9 74.094 153.9 71 152.113L20.3782 122.887C17.2842 121.1 15.3782 117.799 15.3782 114.226V55.7735C15.3782 52.2008 17.2842 48.8996 20.3782 47.1132L71 17.8867Z" fill="#15AB89" fill-opacity="0.05"/>
<path opacity="0.4" d="M118.009 67.1125V99.8875C118.002 102.534 117.304 105.133 115.984 107.427C114.665 109.721 112.77 111.631 110.486 112.969L82.0235 129.404C79.7269 130.723 77.1249 131.417 74.4767 131.417C71.8284 131.417 69.2264 130.723 66.9298 129.404L38.4673 112.969C36.1758 111.64 34.2742 109.732 32.9537 107.436C31.6332 105.14 30.9402 102.536 30.9444 99.8875V67.1125C30.9518 64.466 31.6496 61.8672 32.969 59.5731C34.2884 57.2789 36.1836 55.3687 38.4673 54.0313L66.9298 37.5958C69.2264 36.2772 71.8284 35.5833 74.4767 35.5833C77.1249 35.5833 79.7269 36.2772 82.0235 37.5958L110.486 54.0313C112.774 55.3643 114.672 57.2735 115.992 59.5687C117.312 61.8639 118.007 64.4649 118.009 67.1125Z" fill="#15AB89"/>
<path d="M85.6641 72.3357C85.6641 74.5439 85.0093 76.7024 83.7826 78.5384C82.5558 80.3744 80.8121 81.8054 78.772 82.6505C76.732 83.4955 74.4872 83.7166 72.3214 83.2858C70.1557 82.855 68.1664 81.7917 66.605 80.2303C65.0436 78.6689 63.9803 76.6795 63.5495 74.5138C63.1187 72.3481 63.3398 70.1033 64.1848 68.0632C65.0298 66.0232 66.4608 64.2795 68.2968 63.0527C70.1328 61.8259 72.2914 61.1711 74.4995 61.1711C77.4606 61.1711 80.3003 62.3474 82.3941 64.4412C84.4879 66.5349 85.6641 69.3747 85.6641 72.3357Z" fill="#15AB89"/>
<path d="M87.3412 105.83C88.2194 105.837 89.0828 105.603 89.8369 105.153C90.5911 104.703 91.207 104.054 91.6175 103.278C92.028 102.501 92.2172 101.627 92.1644 100.75C92.1116 99.8736 91.8189 99.0283 91.3183 98.3068C89.3749 95.7016 86.8306 93.6048 83.9022 92.1949C80.9738 90.7849 77.748 90.1035 74.4996 90.2088C71.2511 90.1035 68.0253 90.7849 65.0969 92.1949C62.1685 93.6048 59.6243 95.7016 57.6808 98.3068C57.1814 99.0267 56.8889 99.8697 56.8352 100.744C56.7815 101.619 56.9686 102.491 57.3761 103.267C57.7837 104.043 58.3962 104.692 59.1468 105.143C59.8975 105.595 60.7578 105.833 61.6339 105.83H87.3412Z" fill="#15AB89"/>
</svg>
