<svg width="183" height="183" viewBox="0 0 183 183" fill="none" xmlns="http://www.w3.org/2000/svg">
<path d="M114.375 65.7656H108.656V80.0625H114.375V65.7656Z" fill="#EBEBEB"/>
<path d="M125.812 65.7656H120.094V80.0625H125.812V65.7656Z" fill="#EBEBEB"/>
<path d="M114.375 85.7812H108.656V91.5H114.375V85.7812Z" fill="#EBEBEB"/>
<path d="M125.812 85.7812H120.094V91.5H125.812V85.7812Z" fill="#EBEBEB"/>
<path d="M94.3594 97.2188H88.6406V102.938H94.3594V97.2188Z" fill="#EBEBEB"/>
<path d="M80.0625 154.406H74.3438V160.125H80.0625V154.406Z" fill="#EBEBEB"/>
<path d="M125.812 97.2188H120.094V102.938H125.812V97.2188Z" fill="#EBEBEB"/>
<path d="M114.375 108.656H108.656V114.375H114.375V108.656Z" fill="#EBEBEB"/>
<path d="M125.812 108.656H120.094V114.375H125.812V108.656Z" fill="#EBEBEB"/>
<path d="M5.71875 5.71875H14.2969V0H2.85938C1.281 0 0 1.281 0 2.85938V14.2969H5.71875V5.71875Z" fill="#EBEBEB"/>
<path d="M180.141 0H168.703V5.71875H177.281V14.2969H183V2.85938C183 1.281 181.719 0 180.141 0Z" fill="#EBEBEB"/>
<path d="M5.71875 168.703H0V180.141C0 181.719 1.281 183 2.85938 183H14.2969V177.281H5.71875V168.703Z" fill="#EBEBEB"/>
<path d="M177.281 177.281H168.703V183H180.141C181.719 183 183 181.719 183 180.141V168.703H177.281V177.281Z" fill="#EBEBEB"/>
<path d="M11.4375 14.2969V48.6094C11.4375 50.1878 12.7185 51.4688 14.2969 51.4688H48.6094C50.1878 51.4688 51.4688 50.1878 51.4688 48.6094V14.2969C51.4688 12.7185 50.1878 11.4375 48.6094 11.4375H14.2969C12.7185 11.4375 11.4375 12.7185 11.4375 14.2969ZM17.1562 17.1562H45.75V45.75H17.1562V17.1562Z" fill="#EBEBEB"/>
<path d="M37.1719 22.875H25.7344C24.156 22.875 22.875 24.156 22.875 25.7344V37.1719C22.875 38.7502 24.156 40.0312 25.7344 40.0312H37.1719C38.7502 40.0312 40.0312 38.7502 40.0312 37.1719V25.7344C40.0312 24.156 38.7502 22.875 37.1719 22.875ZM34.3125 34.3125H28.5938V28.5938H34.3125V34.3125Z" fill="#EBEBEB"/>
<path d="M134.391 51.4688H168.703C170.282 51.4688 171.562 50.1878 171.562 48.6094V14.2969C171.562 12.7185 170.282 11.4375 168.703 11.4375H134.391C132.812 11.4375 131.531 12.7185 131.531 14.2969V48.6094C131.531 50.1878 132.812 51.4688 134.391 51.4688ZM137.25 17.1562H165.844V45.75H137.25V17.1562Z" fill="#EBEBEB"/>
<path d="M157.266 22.875H145.828C144.25 22.875 142.969 24.156 142.969 25.7344V37.1719C142.969 38.7502 144.25 40.0312 145.828 40.0312H157.266C158.844 40.0312 160.125 38.7502 160.125 37.1719V25.7344C160.125 24.156 158.844 22.875 157.266 22.875ZM154.406 34.3125H148.688V28.5938H154.406V34.3125Z" fill="#EBEBEB"/>
<path d="M48.6094 131.531H14.2969C12.7185 131.531 11.4375 132.812 11.4375 134.391V168.703C11.4375 170.282 12.7185 171.562 14.2969 171.562H48.6094C50.1878 171.562 51.4688 170.282 51.4688 168.703V134.391C51.4688 132.812 50.1878 131.531 48.6094 131.531ZM45.75 165.844H17.1562V137.25H45.75V165.844Z" fill="#EBEBEB"/>
<path d="M25.7344 160.125H37.1719C38.7502 160.125 40.0312 158.844 40.0312 157.266V145.828C40.0312 144.25 38.7502 142.969 37.1719 142.969H25.7344C24.156 142.969 22.875 144.25 22.875 145.828V157.266C22.875 158.844 24.156 160.125 25.7344 160.125ZM28.5938 148.688H34.3125V154.406H28.5938V148.688Z" fill="#EBEBEB"/>
<path d="M125.812 54.3281H105.797V20.0156H100.078V57.1875C100.078 58.7659 101.359 60.0469 102.938 60.0469H125.812V54.3281Z" fill="#EBEBEB"/>
<path d="M82.9219 34.3125H62.9062V40.0312H82.9219V34.3125Z" fill="#EBEBEB"/>
<path d="M94.3594 22.875H74.3438V28.5938H94.3594V22.875Z" fill="#EBEBEB"/>
<path d="M17.1562 54.3281H11.4375V80.0625H17.1562V54.3281Z" fill="#EBEBEB"/>
<path d="M51.4688 71.4844H22.875V77.2031H48.6094V88.6406H54.3281V74.3438C54.3281 72.7654 53.0471 71.4844 51.4688 71.4844Z" fill="#EBEBEB"/>
<path d="M31.4531 57.1875H25.7344V62.9062H31.4531V57.1875Z" fill="#EBEBEB"/>
<path d="M65.7656 51.4688H60.0469V74.3438H65.7656V51.4688Z" fill="#EBEBEB"/>
<path d="M85.7812 80.0625H60.0469V85.7812H85.7812V80.0625Z" fill="#EBEBEB"/>
<path d="M174.422 82.9219H168.703V111.516H160.125V117.234H171.562C173.141 117.234 174.422 115.953 174.422 114.375V82.9219Z" fill="#EBEBEB"/>
<path d="M80.0625 51.4688H74.3438V57.1875H80.0625V51.4688Z" fill="#EBEBEB"/>
<path d="M17.1562 94.3594H11.4375V117.234H17.1562V94.3594Z" fill="#EBEBEB"/>
<path d="M37.1719 120.094H11.4375V125.812H37.1719V120.094Z" fill="#EBEBEB"/>
<path d="M142.969 80.0625H148.688V68.625C148.688 67.0466 147.406 65.7656 145.828 65.7656H131.531V71.4844H142.969V80.0625Z" fill="#EBEBEB"/>
<path d="M31.4531 94.3594H25.7344V100.078H31.4531V94.3594Z" fill="#EBEBEB"/>
<path d="M62.9062 91.5H57.1875V114.375H62.9062V91.5Z" fill="#EBEBEB"/>
<path d="M82.9219 120.094H57.1875V125.812H82.9219V120.094Z" fill="#EBEBEB"/>
<path d="M48.6094 108.656H22.875V114.375H48.6094V108.656Z" fill="#EBEBEB"/>
<path d="M65.7656 148.688H60.0469V160.125H65.7656V148.688Z" fill="#EBEBEB"/>
<path d="M82.9219 137.25H57.1875V142.969H82.9219V137.25Z" fill="#EBEBEB"/>
<path d="M102.938 125.812V111.516C102.938 109.937 101.656 108.656 100.078 108.656H71.4844V114.375H97.2188V125.812H102.938Z" fill="#EBEBEB"/>
<path d="M80.0625 91.5H74.3438V97.2188H80.0625V91.5Z" fill="#EBEBEB"/>
<path d="M48.6094 97.2188H42.8906V102.938H48.6094V97.2188Z" fill="#EBEBEB"/>
<path d="M174.422 151.547H168.703V171.562H174.422V151.547Z" fill="#EBEBEB"/>
<path d="M162.984 165.844H154.406V171.562H162.984V165.844Z" fill="#EBEBEB"/>
<path d="M160.125 148.688H154.406V160.125H160.125V148.688Z" fill="#EBEBEB"/>
<path d="M174.422 125.812C174.422 124.234 173.141 122.953 171.562 122.953H140.109V128.672H168.703V145.828H174.422V125.812Z" fill="#EBEBEB"/>
<path d="M137.25 160.125V145.828C137.25 144.25 135.969 142.969 134.391 142.969H102.938V148.688H131.531V160.125H137.25Z" fill="#EBEBEB"/>
<path d="M162.984 134.391H142.969V140.109H162.984V134.391Z" fill="#EBEBEB"/>
<path d="M77.2031 165.844H57.1875V171.562H77.2031V165.844Z" fill="#EBEBEB"/>
<path d="M91.5 145.828H85.7812V171.562H91.5V145.828Z" fill="#EBEBEB"/>
<path d="M102.938 131.531H91.5V137.25H102.938V131.531Z" fill="#EBEBEB"/>
<path d="M134.391 102.938H148.688V97.2188H137.25V80.0625H131.531V100.078C131.531 101.656 132.812 102.938 134.391 102.938Z" fill="#EBEBEB"/>
<path d="M157.266 85.7812H142.969V91.5H157.266V85.7812Z" fill="#EBEBEB"/>
<path d="M162.984 57.1875H154.406V62.9062H162.984V57.1875Z" fill="#EBEBEB"/>
<path d="M174.422 57.1875H168.703V71.4844H174.422V57.1875Z" fill="#EBEBEB"/>
<path d="M160.125 71.4844H154.406V77.2031H160.125V71.4844Z" fill="#EBEBEB"/>
<path d="M111.516 48.6094H122.953C124.531 48.6094 125.812 47.3284 125.812 45.75V8.57812H120.094V42.8906H111.516V48.6094Z" fill="#EBEBEB"/>
<path d="M68.625 14.2969H111.516V8.57812H65.7656C64.1873 8.57812 62.9062 9.85913 62.9062 11.4375V25.7344H68.625V14.2969Z" fill="#EBEBEB"/>
<path d="M71.4844 68.625H91.5C93.0784 68.625 94.3594 67.344 94.3594 65.7656V42.8906H88.6406V62.9062H71.4844V68.625Z" fill="#EBEBEB"/>
<path d="M102.938 65.7656H97.2188V77.2031H102.938V65.7656Z" fill="#EBEBEB"/>
<path d="M122.953 154.406H102.938V160.125H122.953V154.406Z" fill="#EBEBEB"/>
<path d="M128.672 165.844H102.938V171.562H128.672V165.844Z" fill="#EBEBEB"/>
<path d="M142.969 165.844H137.25V171.562H145.828C147.406 171.562 148.688 170.281 148.688 168.703V145.828H142.969V165.844Z" fill="#EBEBEB"/>
<path d="M51.4688 120.094H45.75V125.812H51.4688V120.094Z" fill="#EBEBEB"/>
<path d="M122.953 120.094H111.516V125.812H122.953V120.094Z" fill="#EBEBEB"/>
<path d="M137.25 108.656H131.531V117.234H137.25V108.656Z" fill="#EBEBEB"/>
<path d="M134.391 122.953H128.672V128.672H134.391V122.953Z" fill="#EBEBEB"/>
<path d="M120.094 131.531H111.516V137.25H120.094V131.531Z" fill="#EBEBEB"/>
<path d="M148.688 108.656H142.969V114.375H148.688V108.656Z" fill="#EBEBEB"/>
<path d="M162.984 97.2188H154.406V102.938H162.984V97.2188Z" fill="#EBEBEB"/>
<path d="M114.375 97.2188H100.078V102.938H114.375V97.2188Z" fill="#EBEBEB"/>
<path d="M102.938 82.9219H97.2188V91.5H102.938V82.9219Z" fill="#EBEBEB"/>
</svg>
