<svg width="236" height="236" viewBox="0 0 236 236" fill="none" xmlns="http://www.w3.org/2000/svg">
<path d="M147.5 84.8125H140.125V103.25H147.5V84.8125Z" fill="#EBEBEB"/>
<path d="M162.25 84.8125H154.875V103.25H162.25V84.8125Z" fill="#EBEBEB"/>
<path d="M147.5 110.625H140.125V118H147.5V110.625Z" fill="#EBEBEB"/>
<path d="M162.25 110.625H154.875V118H162.25V110.625Z" fill="#EBEBEB"/>
<path d="M121.688 125.375H114.312V132.75H121.688V125.375Z" fill="#EBEBEB"/>
<path d="M103.25 199.125H95.875V206.5H103.25V199.125Z" fill="#EBEBEB"/>
<path d="M162.25 125.375H154.875V132.75H162.25V125.375Z" fill="#EBEBEB"/>
<path d="M147.5 140.125H140.125V147.5H147.5V140.125Z" fill="#EBEBEB"/>
<path d="M162.25 140.125H154.875V147.5H162.25V140.125Z" fill="#EBEBEB"/>
<path d="M7.375 7.375H18.4375V0H3.6875C1.652 0 0 1.652 0 3.6875V18.4375H7.375V7.375Z" fill="#EBEBEB"/>
<path d="M232.312 0H217.562V7.375H228.625V18.4375H236V3.6875C236 1.652 234.348 0 232.312 0Z" fill="#EBEBEB"/>
<path d="M7.375 217.562H0V232.312C0 234.348 1.652 236 3.6875 236H18.4375V228.625H7.375V217.562Z" fill="#EBEBEB"/>
<path d="M228.625 228.625H217.562V236H232.312C234.348 236 236 234.348 236 232.312V217.562H228.625V228.625Z" fill="#EBEBEB"/>
<path d="M14.75 18.4375V62.6875C14.75 64.723 16.402 66.375 18.4375 66.375H62.6875C64.723 66.375 66.375 64.723 66.375 62.6875V18.4375C66.375 16.402 64.723 14.75 62.6875 14.75H18.4375C16.402 14.75 14.75 16.402 14.75 18.4375ZM22.125 22.125H59V59H22.125V22.125Z" fill="#EBEBEB"/>
<path d="M47.9375 29.5H33.1875C31.152 29.5 29.5 31.152 29.5 33.1875V47.9375C29.5 49.973 31.152 51.625 33.1875 51.625H47.9375C49.973 51.625 51.625 49.973 51.625 47.9375V33.1875C51.625 31.152 49.973 29.5 47.9375 29.5ZM44.25 44.25H36.875V36.875H44.25V44.25Z" fill="#EBEBEB"/>
<path d="M173.312 66.375H217.562C219.598 66.375 221.25 64.723 221.25 62.6875V18.4375C221.25 16.402 219.598 14.75 217.562 14.75H173.312C171.277 14.75 169.625 16.402 169.625 18.4375V62.6875C169.625 64.723 171.277 66.375 173.312 66.375ZM177 22.125H213.875V59H177V22.125Z" fill="#EBEBEB"/>
<path d="M202.812 29.5H188.062C186.027 29.5 184.375 31.152 184.375 33.1875V47.9375C184.375 49.973 186.027 51.625 188.062 51.625H202.812C204.848 51.625 206.5 49.973 206.5 47.9375V33.1875C206.5 31.152 204.848 29.5 202.812 29.5ZM199.125 44.25H191.75V36.875H199.125V44.25Z" fill="#EBEBEB"/>
<path d="M62.6875 169.625H18.4375C16.402 169.625 14.75 171.277 14.75 173.312V217.562C14.75 219.598 16.402 221.25 18.4375 221.25H62.6875C64.723 221.25 66.375 219.598 66.375 217.562V173.312C66.375 171.277 64.723 169.625 62.6875 169.625ZM59 213.875H22.125V177H59V213.875Z" fill="#EBEBEB"/>
<path d="M33.1875 206.5H47.9375C49.973 206.5 51.625 204.848 51.625 202.812V188.062C51.625 186.027 49.973 184.375 47.9375 184.375H33.1875C31.152 184.375 29.5 186.027 29.5 188.062V202.812C29.5 204.848 31.152 206.5 33.1875 206.5ZM36.875 191.75H44.25V199.125H36.875V191.75Z" fill="#EBEBEB"/>
<path d="M162.25 70.0625H136.438V25.8125H129.062V73.75C129.062 75.7855 130.715 77.4375 132.75 77.4375H162.25V70.0625Z" fill="#EBEBEB"/>
<path d="M106.938 44.25H81.125V51.625H106.938V44.25Z" fill="#EBEBEB"/>
<path d="M121.688 29.5H95.875V36.875H121.688V29.5Z" fill="#EBEBEB"/>
<path d="M22.125 70.0625H14.75V103.25H22.125V70.0625Z" fill="#EBEBEB"/>
<path d="M66.375 92.1875H29.5V99.5625H62.6875V114.312H70.0625V95.875C70.0625 93.8395 68.4105 92.1875 66.375 92.1875Z" fill="#EBEBEB"/>
<path d="M40.5625 73.75H33.1875V81.125H40.5625V73.75Z" fill="#EBEBEB"/>
<path d="M84.8125 66.375H77.4375V95.875H84.8125V66.375Z" fill="#EBEBEB"/>
<path d="M110.625 103.25H77.4375V110.625H110.625V103.25Z" fill="#EBEBEB"/>
<path d="M224.938 106.938H217.562V143.812H206.5V151.188H221.25C223.285 151.188 224.938 149.535 224.938 147.5V106.938Z" fill="#EBEBEB"/>
<path d="M103.25 66.375H95.875V73.75H103.25V66.375Z" fill="#EBEBEB"/>
<path d="M22.125 121.688H14.75V151.188H22.125V121.688Z" fill="#EBEBEB"/>
<path d="M47.9375 154.875H14.75V162.25H47.9375V154.875Z" fill="#EBEBEB"/>
<path d="M184.375 103.25H191.75V88.5C191.75 86.4645 190.098 84.8125 188.062 84.8125H169.625V92.1875H184.375V103.25Z" fill="#EBEBEB"/>
<path d="M40.5625 121.688H33.1875V129.062H40.5625V121.688Z" fill="#EBEBEB"/>
<path d="M81.125 118H73.75V147.5H81.125V118Z" fill="#EBEBEB"/>
<path d="M106.938 154.875H73.75V162.25H106.938V154.875Z" fill="#EBEBEB"/>
<path d="M62.6875 140.125H29.5V147.5H62.6875V140.125Z" fill="#EBEBEB"/>
<path d="M84.8125 191.75H77.4375V206.5H84.8125V191.75Z" fill="#EBEBEB"/>
<path d="M106.938 177H73.75V184.375H106.938V177Z" fill="#EBEBEB"/>
<path d="M132.75 162.25V143.812C132.75 141.777 131.098 140.125 129.062 140.125H92.1875V147.5H125.375V162.25H132.75Z" fill="#EBEBEB"/>
<path d="M103.25 118H95.875V125.375H103.25V118Z" fill="#EBEBEB"/>
<path d="M62.6875 125.375H55.3125V132.75H62.6875V125.375Z" fill="#EBEBEB"/>
<path d="M224.938 195.438H217.562V221.25H224.938V195.438Z" fill="#EBEBEB"/>
<path d="M210.188 213.875H199.125V221.25H210.188V213.875Z" fill="#EBEBEB"/>
<path d="M206.5 191.75H199.125V206.5H206.5V191.75Z" fill="#EBEBEB"/>
<path d="M224.938 162.25C224.938 160.215 223.285 158.562 221.25 158.562H180.688V165.938H217.562V188.062H224.938V162.25Z" fill="#EBEBEB"/>
<path d="M177 206.5V188.062C177 186.027 175.348 184.375 173.312 184.375H132.75V191.75H169.625V206.5H177Z" fill="#EBEBEB"/>
<path d="M210.188 173.312H184.375V180.688H210.188V173.312Z" fill="#EBEBEB"/>
<path d="M99.5625 213.875H73.75V221.25H99.5625V213.875Z" fill="#EBEBEB"/>
<path d="M118 188.062H110.625V221.25H118V188.062Z" fill="#EBEBEB"/>
<path d="M132.75 169.625H118V177H132.75V169.625Z" fill="#EBEBEB"/>
<path d="M173.312 132.75H191.75V125.375H177V103.25H169.625V129.062C169.625 131.098 171.277 132.75 173.312 132.75Z" fill="#EBEBEB"/>
<path d="M202.812 110.625H184.375V118H202.812V110.625Z" fill="#EBEBEB"/>
<path d="M210.188 73.75H199.125V81.125H210.188V73.75Z" fill="#EBEBEB"/>
<path d="M224.938 73.75H217.562V92.1875H224.938V73.75Z" fill="#EBEBEB"/>
<path d="M206.5 92.1875H199.125V99.5625H206.5V92.1875Z" fill="#EBEBEB"/>
<path d="M143.812 62.6875H158.562C160.598 62.6875 162.25 61.0355 162.25 59V11.0625H154.875V55.3125H143.812V62.6875Z" fill="#EBEBEB"/>
<path d="M88.5 18.4375H143.812V11.0625H84.8125C82.777 11.0625 81.125 12.7145 81.125 14.75V33.1875H88.5V18.4375Z" fill="#EBEBEB"/>
<path d="M92.1875 88.5H118C120.035 88.5 121.688 86.848 121.688 84.8125V55.3125H114.312V81.125H92.1875V88.5Z" fill="#EBEBEB"/>
<path d="M132.75 84.8125H125.375V99.5625H132.75V84.8125Z" fill="#EBEBEB"/>
<path d="M158.562 199.125H132.75V206.5H158.562V199.125Z" fill="#EBEBEB"/>
<path d="M165.938 213.875H132.75V221.25H165.938V213.875Z" fill="#EBEBEB"/>
<path d="M184.375 213.875H177V221.25H188.062C190.098 221.25 191.75 219.598 191.75 217.562V188.062H184.375V213.875Z" fill="#EBEBEB"/>
<path d="M66.375 154.875H59V162.25H66.375V154.875Z" fill="#EBEBEB"/>
<path d="M158.562 154.875H143.812V162.25H158.562V154.875Z" fill="#EBEBEB"/>
<path d="M177 140.125H169.625V151.188H177V140.125Z" fill="#EBEBEB"/>
<path d="M173.312 158.562H165.938V165.938H173.312V158.562Z" fill="#EBEBEB"/>
<path d="M154.875 169.625H143.812V177H154.875V169.625Z" fill="#EBEBEB"/>
<path d="M191.75 140.125H184.375V147.5H191.75V140.125Z" fill="#EBEBEB"/>
<path d="M210.188 125.375H199.125V132.75H210.188V125.375Z" fill="#EBEBEB"/>
<path d="M147.5 125.375H129.062V132.75H147.5V125.375Z" fill="#EBEBEB"/>
<path d="M132.75 106.938H125.375V118H132.75V106.938Z" fill="#EBEBEB"/>
</svg>
