<svg width="32" height="32" viewBox="0 0 32 32" fill="none" xmlns="http://www.w3.org/2000/svg">
<path opacity="0.4" d="M21.5867 2.66663H10.4267C5.56002 2.66663 2.66669 5.55996 2.66669 10.4133V21.5733C2.66669 26.4266 5.56002 29.32 10.4134 29.32H21.5734C26.4267 29.32 29.32 26.4266 29.32 21.5733V10.4133C29.3334 5.55996 26.44 2.66663 21.5867 2.66663Z" fill="#15AB89"/>
<path d="M22.3733 12.0933C22.3012 11.9833 22.2079 11.8887 22.0989 11.815C21.9899 11.7412 21.8674 11.6899 21.7384 11.6638C21.6095 11.6378 21.4766 11.6376 21.3476 11.6632C21.2185 11.6889 21.0958 11.7399 20.9866 11.8133C20.767 11.9612 20.6144 12.1896 20.562 12.4492C20.5096 12.7087 20.5616 12.9785 20.7066 13.2C21.4093 14.2511 21.7405 15.5069 21.6478 16.7678C21.5551 18.0288 21.0438 19.2226 20.195 20.1597C19.3462 21.0968 18.2087 21.7234 16.963 21.9401C15.7174 22.1567 14.4351 21.951 13.3197 21.3555C12.2044 20.76 11.32 19.809 10.807 18.6534C10.294 17.4978 10.1818 16.2039 10.4882 14.9773C10.7946 13.7506 11.5021 12.6615 12.4983 11.883C13.4945 11.1044 14.7223 10.681 15.9866 10.68C16.2363 10.6845 16.4856 10.7023 16.7333 10.7333L16 11.28C15.8938 11.3577 15.8039 11.4556 15.7357 11.5681C15.6674 11.6806 15.6221 11.8055 15.6023 11.9356C15.5824 12.0657 15.5885 12.1985 15.6202 12.3262C15.6518 12.454 15.7084 12.5742 15.7866 12.68C15.881 12.8071 16.0035 12.9107 16.1447 12.9824C16.2858 13.0541 16.4417 13.0921 16.6 13.0933C16.8098 13.0908 17.014 13.0258 17.1866 12.9067L19.7733 11.0133C19.7866 11 19.7866 10.9867 19.8 10.9867C19.8133 10.9867 19.8266 10.9733 19.84 10.96C19.8752 10.9233 19.9064 10.8831 19.9333 10.84C19.9806 10.7925 20.021 10.7387 20.0533 10.68C20.08 10.6267 20.0933 10.56 20.12 10.5067C20.1466 10.4533 20.16 10.3867 20.1733 10.32C20.1822 10.2575 20.1776 10.1939 20.16 10.1333C20.1643 10.0699 20.1552 10.0063 20.1333 9.94665C20.1123 9.88215 20.0856 9.81967 20.0533 9.75999C20.0266 9.71999 20.0266 9.66665 19.9866 9.61332C19.9733 9.59999 19.96 9.59999 19.96 9.58665C19.96 9.57332 19.9466 9.55999 19.9333 9.54665L17.7066 6.99999C17.6204 6.90042 17.5152 6.81895 17.3973 6.7603C17.2793 6.70164 17.1509 6.66697 17.0195 6.65829C16.888 6.64961 16.7562 6.66709 16.6315 6.70973C16.5069 6.75236 16.3919 6.81929 16.2933 6.90665C16.095 7.08262 15.974 7.32963 15.9566 7.59417C15.9391 7.8587 16.0266 8.11947 16.2 8.31999L16.5733 8.74665C16.3866 8.73332 16.2 8.70665 16 8.70665C14.4837 8.70665 13.0014 9.1563 11.7406 9.99872C10.4798 10.8411 9.49718 12.0385 8.91691 13.4394C8.33663 14.8403 8.18481 16.3818 8.48063 17.869C8.77645 19.3562 9.50663 20.7223 10.5788 21.7945C11.651 22.8667 13.0171 23.5969 14.5043 23.8927C15.9915 24.1885 17.533 24.0367 18.9339 23.4564C20.3348 22.8761 21.5322 21.8935 22.3746 20.6327C23.217 19.3719 23.6666 17.8896 23.6666 16.3733C23.675 14.8492 23.2244 13.3578 22.3733 12.0933Z" fill="#15AB89"/>
</svg>
