<svg width="24" height="24" viewBox="0 0 24 24" fill="none" xmlns="http://www.w3.org/2000/svg">
<path d="M17.4201 4.40997H5.39006L7.27006 2.52997C7.40254 2.38779 7.47467 2.19975 7.47124 2.00545C7.46781 1.81114 7.3891 1.62576 7.25169 1.48835C7.11427 1.35093 6.92889 1.27222 6.73459 1.26879C6.54028 1.26537 6.35224 1.33749 6.21006 1.46997L3.05006 4.62997C2.9822 4.69927 2.92793 4.78067 2.89006 4.86997C2.85049 4.96153 2.83008 5.06022 2.83008 5.15997C2.83008 5.25972 2.85049 5.35841 2.89006 5.44997C2.92793 5.53926 2.9822 5.62067 3.05006 5.68997L6.21006 8.85197C6.27956 8.92175 6.36216 8.97712 6.45311 9.01491C6.54406 9.05269 6.64158 9.07214 6.74006 9.07214C6.83855 9.07214 6.93607 9.05269 7.02702 9.01491C7.11797 8.97712 7.20057 8.92175 7.27006 8.85197C7.40954 8.71083 7.48776 8.5204 7.48776 8.32197C7.48776 8.12354 7.40954 7.93311 7.27006 7.79197L5.39006 5.90997H17.4201C18.0166 5.91076 18.5884 6.14807 19.0102 6.56985C19.432 6.99164 19.6693 7.56348 19.6701 8.15997V11.48C19.6701 11.6789 19.7491 11.8696 19.8897 12.0103C20.0304 12.151 20.2212 12.23 20.4201 12.23C20.619 12.23 20.8097 12.151 20.9504 12.0103C21.091 11.8696 21.1701 11.6789 21.1701 11.48V8.15997C21.1698 7.16549 20.7746 6.21181 20.0714 5.50861C19.3682 4.80541 18.4145 4.41023 17.4201 4.40997Z" fill="#15AB89"/>
<path opacity="0.4" d="M21.1701 18.84C21.1704 18.7402 21.15 18.6415 21.1101 18.55C21.0722 18.4607 21.0179 18.3793 20.9501 18.31L17.7901 15.15C17.6479 15.0175 17.4599 14.9454 17.2656 14.9488C17.0713 14.9523 16.8859 15.031 16.7485 15.1684C16.611 15.3058 16.5323 15.4912 16.5289 15.6855C16.5255 15.8798 16.5976 16.0678 16.7301 16.21L18.6101 18.09H6.58008C5.98358 18.0892 5.41175 17.8519 4.98996 17.4301C4.56818 17.0083 4.33087 16.4365 4.33008 15.84V12.52C4.32877 12.3215 4.24933 12.1315 4.10896 11.9911C3.96859 11.8508 3.77859 11.7713 3.58008 11.77C3.38157 11.7713 3.19157 11.8508 3.0512 11.9911C2.91083 12.1315 2.83139 12.3215 2.83008 12.52V15.84C2.83034 16.8345 3.22552 17.7882 3.92872 18.4914C4.63192 19.1946 5.5856 19.5898 6.58008 19.59H18.6101L16.7301 21.47C16.5908 21.6113 16.5128 21.8017 16.5128 22C16.5128 22.1984 16.5908 22.3888 16.7301 22.53C16.7996 22.5998 16.8822 22.6552 16.9731 22.693C17.0641 22.7307 17.1616 22.7502 17.2601 22.7502C17.3586 22.7502 17.4561 22.7307 17.547 22.693C17.638 22.6552 17.7206 22.5998 17.7901 22.53L20.9501 19.37C21.0179 19.3007 21.0722 19.2193 21.1101 19.13C21.15 19.0386 21.1705 18.9398 21.1701 18.84Z" fill="#15AB89"/>
</svg>
