<svg width="16" height="16" viewBox="0 0 16 16" fill="none" xmlns="http://www.w3.org/2000/svg">
<path opacity="0.4" d="M13.9997 7.66659C13.9997 8.9192 13.6282 10.1437 12.9323 11.1852C12.2364 12.2267 11.2473 13.0385 10.09 13.5178C8.93274 13.9972 7.65932 14.1226 6.43077 13.8782C5.20223 13.6339 4.07373 13.0307 3.188 12.1449C2.30227 11.2592 1.69908 10.1307 1.4547 8.90216C1.21033 7.67361 1.33575 6.40019 1.81511 5.24292C2.29446 4.08566 3.10622 3.09653 4.14773 2.40061C5.18924 1.7047 6.41373 1.33325 7.66634 1.33325C9.34605 1.33325 10.957 2.00051 12.1447 3.18824C13.3324 4.37597 13.9997 5.98688 13.9997 7.66659Z" fill="#15AB89"/>
<path d="M14.1998 14.6661C14.0777 14.6661 13.9604 14.6182 13.8732 14.5327L12.6318 13.2927C12.5449 13.2047 12.4961 13.0859 12.4961 12.9621C12.4961 12.8383 12.5449 12.7195 12.6318 12.6314C12.7198 12.5448 12.8384 12.4963 12.9618 12.4963C13.0853 12.4963 13.2038 12.5448 13.2918 12.6314L14.5318 13.8714C14.6184 13.9594 14.6669 14.0779 14.6669 14.2014C14.6669 14.3249 14.6184 14.4434 14.5318 14.5314C14.442 14.6164 14.3235 14.6645 14.1998 14.6661Z" fill="#15AB89"/>
</svg>
