<svg width="20" height="18" viewBox="0 0 20 18" fill="none" xmlns="http://www.w3.org/2000/svg">
<path opacity="0.4" d="M19.25 6.15018C16.94 2.52018 13.56 0.430176 10 0.430176C8.19772 0.443404 6.43491 0.959432 4.91 1.92018C3.2237 3.00041 1.80195 4.44609 0.750003 6.15018C0.258399 7.01778 0 7.99797 0 8.99518C0 9.99238 0.258399 10.9726 0.750003 11.8402C3.06 15.4802 6.44 17.5602 10 17.5602C11.8023 17.5469 13.5651 17.0309 15.09 16.0702C16.7763 14.9899 18.1981 13.5443 19.25 11.8402C19.7416 10.9726 20 9.99238 20 8.99518C20 7.99797 19.7416 7.01778 19.25 6.15018ZM10 13.0402C9.20097 13.0402 8.41987 12.8032 7.7555 12.3593C7.09112 11.9154 6.57331 11.2844 6.26753 10.5462C5.96175 9.808 5.88175 8.99569 6.03763 8.21201C6.19351 7.42833 6.57829 6.70847 7.14329 6.14346C7.7083 5.57846 8.42815 5.19369 9.21184 5.0378C9.99552 4.88192 10.8078 4.96192 11.546 5.2677C12.2843 5.57348 12.9152 6.0913 13.3591 6.75567C13.8031 7.42005 14.04 8.20114 14.04 9.00018C14.0407 9.5309 13.9366 10.0565 13.7338 10.547C13.531 11.0374 13.2335 11.4831 12.8582 11.8584C12.4829 12.2336 12.0373 12.5312 11.5468 12.734C11.0564 12.9368 10.5307 13.0408 10 13.0402Z" fill="#15AB89"/>
</svg>
