<svg width="723" height="242" viewBox="0 0 723 242" fill="none" xmlns="http://www.w3.org/2000/svg">
<path opacity="0.4" d="M403.969 170.615L380.125 194.458C377.5 192.125 374.948 189.719 372.469 187.24C365.096 179.817 358.295 171.846 352.125 163.396C346.459 155.66 341.666 147.321 337.834 138.531C334.506 131.015 332.721 122.907 332.584 114.688C332.552 109.872 333.443 105.095 335.209 100.615C337.063 95.9824 339.928 91.8223 343.594 88.4375C345.535 86.3384 347.877 84.6502 350.483 83.4728C353.088 82.2955 355.903 81.653 358.761 81.5834C360.803 81.5753 362.821 82.0237 364.667 82.8959C366.637 83.7873 368.326 85.1991 369.553 86.9792L386.469 110.823C387.639 112.403 388.618 114.117 389.386 115.927C390.019 117.327 390.366 118.839 390.407 120.375C390.386 122.209 389.856 124.002 388.875 125.552C387.751 127.452 386.378 129.193 384.792 130.729L379.25 136.49C378.864 136.868 378.561 137.323 378.361 137.825C378.16 138.327 378.065 138.866 378.084 139.406C378.085 139.972 378.158 140.536 378.303 141.083C378.521 141.667 378.74 142.104 378.886 142.542C380.844 145.862 383.115 148.987 385.667 151.875C388.948 155.667 392.448 159.531 396.24 163.396C398.865 165.948 401.417 168.427 403.969 170.615Z" fill="url(#paint0_linear_263_2)" fill-opacity="0.3"/>
<path d="M478.198 200.656C478.19 202.77 477.82 204.866 477.105 206.854C476.893 207.45 476.649 208.034 476.375 208.604C475.102 211.317 473.431 213.823 471.417 216.042C468.133 219.778 464.045 222.72 459.459 224.646C459.386 224.646 459.313 224.719 459.24 224.719C454.794 226.521 450.038 227.438 445.24 227.417C437.038 227.265 428.952 225.455 421.469 222.094C412.589 218.245 404.175 213.401 396.386 207.656C393.542 205.542 390.698 203.427 388 201.167L411.844 177.323C413.548 178.629 415.353 179.8 417.24 180.823C417.605 180.969 418.042 181.188 418.553 181.406C419.137 181.615 419.755 181.714 420.375 181.698C420.933 181.711 421.486 181.607 422.001 181.393C422.516 181.18 422.98 180.862 423.365 180.459L428.907 174.99C430.444 173.375 432.213 171.998 434.157 170.906C435.703 169.917 437.498 169.386 439.334 169.375C440.864 169.396 442.376 169.718 443.782 170.323C445.577 171.092 447.288 172.045 448.886 173.167L473.021 190.302C474.773 191.447 476.163 193.065 477.032 194.969C477.788 196.77 478.185 198.703 478.198 200.656Z" fill="url(#paint1_linear_263_2)" fill-opacity="0.3"/>
<path opacity="0.4" d="M519.969 148.615L496.125 172.458C493.5 170.125 490.948 167.719 488.469 165.24C481.096 157.817 474.295 149.846 468.125 141.396C462.459 133.66 457.666 125.321 453.834 116.531C450.506 109.015 448.721 100.907 448.584 92.6875C448.552 87.872 449.443 83.095 451.209 78.6146C453.063 73.9824 455.928 69.8223 459.594 66.4375C461.535 64.3384 463.877 62.6502 466.483 61.4728C469.088 60.2955 471.903 59.653 474.761 59.5834C476.803 59.5753 478.821 60.0237 480.667 60.8959C482.637 61.7873 484.326 63.1991 485.553 64.9792L502.469 88.8229C503.639 90.4035 504.618 92.1167 505.386 93.9271C506.019 95.3269 506.366 96.8392 506.407 98.375C506.386 100.209 505.856 102.002 504.875 103.552C503.751 105.452 502.378 107.193 500.792 108.729L495.25 114.49C494.864 114.868 494.561 115.323 494.361 115.825C494.16 116.327 494.065 116.866 494.084 117.406C494.085 117.972 494.158 118.536 494.303 119.083C494.521 119.667 494.74 120.104 494.886 120.542C496.844 123.862 499.115 126.987 501.667 129.875C504.948 133.667 508.448 137.531 512.24 141.396C514.865 143.948 517.417 146.427 519.969 148.615Z" fill="url(#paint2_linear_263_2)" fill-opacity="0.15"/>
<path d="M594.198 178.656C594.19 180.77 593.82 182.866 593.105 184.854C592.893 185.45 592.649 186.034 592.375 186.604C591.102 189.317 589.431 191.823 587.417 194.042C584.133 197.778 580.045 200.72 575.459 202.646C575.386 202.646 575.313 202.719 575.24 202.719C570.794 204.521 566.038 205.438 561.24 205.417C553.038 205.265 544.952 203.455 537.469 200.094C528.589 196.245 520.175 191.401 512.386 185.656C509.542 183.542 506.698 181.427 504 179.167L527.844 155.323C529.548 156.629 531.353 157.8 533.24 158.823C533.605 158.969 534.042 159.188 534.553 159.406C535.137 159.615 535.755 159.714 536.375 159.698C536.933 159.711 537.486 159.607 538.001 159.393C538.516 159.18 538.98 158.862 539.365 158.459L544.907 152.99C546.444 151.375 548.213 149.998 550.157 148.906C551.703 147.917 553.498 147.386 555.334 147.375C556.864 147.396 558.376 147.718 559.782 148.323C561.577 149.092 563.288 150.045 564.886 151.167L589.021 168.302C590.773 169.447 592.163 171.065 593.032 172.969C593.788 174.77 594.185 176.703 594.198 178.656Z" fill="url(#paint3_linear_263_2)" fill-opacity="0.15"/>
<path opacity="0.4" d="M633.969 103.615L610.125 127.458C607.5 125.125 604.948 122.719 602.469 120.24C595.096 112.817 588.295 104.846 582.125 96.3959C576.459 88.6601 571.666 80.3212 567.834 71.5313C564.506 64.0148 562.721 55.9067 562.584 47.6875C562.552 42.872 563.443 38.095 565.209 33.6146C567.063 28.9824 569.928 24.8223 573.594 21.4375C575.535 19.3384 577.877 17.6502 580.483 16.4728C583.088 15.2955 585.903 14.653 588.761 14.5834C590.803 14.5753 592.821 15.0237 594.667 15.8959C596.637 16.7873 598.326 18.1991 599.553 19.9792L616.469 43.8229C617.639 45.4035 618.618 47.1167 619.386 48.9271C620.019 50.3269 620.366 51.8392 620.407 53.375C620.386 55.2093 619.856 57.0017 618.875 58.5521C617.751 60.4519 616.378 62.193 614.792 63.7292L609.25 69.4896C608.864 69.8684 608.561 70.3232 608.361 70.8253C608.16 71.3274 608.065 71.8658 608.084 72.4063C608.085 72.9724 608.158 73.536 608.303 74.0834C608.521 74.6667 608.74 75.1042 608.886 75.5417C610.844 78.8616 613.115 81.9869 615.667 84.875C618.948 88.6667 622.448 92.5313 626.24 96.3959C628.865 98.9479 631.417 101.427 633.969 103.615Z" fill="url(#paint4_linear_263_2)" fill-opacity="0.1"/>
<path d="M708.198 133.656C708.19 135.77 707.82 137.866 707.105 139.854C706.893 140.45 706.649 141.034 706.375 141.604C705.102 144.317 703.431 146.823 701.417 149.042C698.133 152.778 694.045 155.72 689.459 157.646C689.386 157.646 689.313 157.719 689.24 157.719C684.794 159.521 680.038 160.438 675.24 160.417C667.038 160.265 658.952 158.455 651.469 155.094C642.589 151.245 634.175 146.401 626.386 140.656C623.542 138.542 620.698 136.427 618 134.167L641.844 110.323C643.548 111.629 645.353 112.8 647.24 113.823C647.605 113.969 648.042 114.188 648.553 114.406C649.137 114.615 649.755 114.714 650.375 114.698C650.933 114.711 651.486 114.607 652.001 114.393C652.516 114.18 652.98 113.862 653.365 113.459L658.907 107.99C660.444 106.375 662.213 104.998 664.157 103.906C665.703 102.917 667.498 102.386 669.334 102.375C670.864 102.396 672.376 102.718 673.782 103.323C675.577 104.092 677.288 105.045 678.886 106.167L703.021 123.302C704.773 124.447 706.163 126.065 707.032 127.969C707.788 129.77 708.185 131.703 708.198 133.656Z" fill="url(#paint5_linear_263_2)" fill-opacity="0.1"/>
<path opacity="0.4" d="M85.9692 104.615L62.1255 128.458C59.5005 126.125 56.9484 123.719 54.4692 121.24C47.0957 113.817 40.295 105.846 34.1255 97.3959C28.4591 89.6601 23.6661 81.3212 19.8338 72.5313C16.5058 65.0148 14.7205 56.9067 14.5838 48.6875C14.5525 43.872 15.4435 39.095 17.2088 34.6146C19.0634 29.9824 21.9281 25.8223 25.5942 22.4375C27.5351 20.3384 29.8775 18.6502 32.4827 17.4728C35.0879 16.2955 37.9029 15.653 40.7609 15.5834C42.8028 15.5753 44.8208 16.0237 46.6671 16.8959C48.6367 17.7873 50.3258 19.1991 51.5526 20.9792L68.4692 44.8229C69.6392 46.4035 70.6182 48.1167 71.3859 49.9271C72.0192 51.3269 72.3662 52.8392 72.4067 54.375C72.3861 56.2093 71.8559 58.0017 70.8755 59.5521C69.7509 61.4519 68.3777 63.193 66.7921 64.7292L61.2505 70.4896C60.8645 70.8684 60.5614 71.3232 60.3606 71.8253C60.1597 72.3274 60.0655 72.8658 60.0838 73.4063C60.0847 73.9724 60.1582 74.536 60.3026 75.0834C60.5213 75.6667 60.7401 76.1042 60.8859 76.5417C62.8439 79.8616 65.1147 82.9869 67.6671 85.875C70.9484 89.6667 74.4484 93.5313 78.2401 97.3959C80.8651 99.9479 83.4171 102.427 85.9692 104.615Z" fill="url(#paint6_linear_263_2)" fill-opacity="0.1"/>
<path d="M160.198 134.656C160.19 136.77 159.82 138.866 159.105 140.854C158.893 141.45 158.649 142.034 158.375 142.604C157.102 145.317 155.431 147.823 153.417 150.042C150.133 153.778 146.045 156.72 141.459 158.646C141.386 158.646 141.313 158.719 141.24 158.719C136.794 160.521 132.038 161.438 127.24 161.417C119.038 161.265 110.952 159.455 103.469 156.094C94.5895 152.245 86.1746 147.401 78.3859 141.656C75.5422 139.542 72.6984 137.427 70.0005 135.167L93.8442 111.323C95.5483 112.629 97.3525 113.8 99.2401 114.823C99.6047 114.969 100.042 115.188 100.553 115.406C101.137 115.615 101.755 115.714 102.375 115.698C102.933 115.711 103.486 115.607 104.001 115.393C104.516 115.18 104.98 114.862 105.365 114.459L110.907 108.99C112.444 107.375 114.213 105.998 116.157 104.906C117.703 103.917 119.498 103.386 121.334 103.375C122.864 103.396 124.376 103.718 125.782 104.323C127.577 105.092 129.288 106.045 130.886 107.167L155.021 124.302C156.773 125.447 158.163 127.065 159.032 128.969C159.788 130.77 160.185 132.703 160.198 134.656Z" fill="url(#paint7_linear_263_2)" fill-opacity="0.1"/>
<path opacity="0.4" d="M255.969 148.615L232.125 172.458C229.5 170.125 226.948 167.719 224.469 165.24C217.096 157.817 210.295 149.846 204.125 141.396C198.459 133.66 193.666 125.321 189.834 116.531C186.506 109.015 184.721 100.907 184.584 92.6875C184.552 87.872 185.443 83.095 187.209 78.6146C189.063 73.9824 191.928 69.8223 195.594 66.4375C197.535 64.3384 199.877 62.6502 202.483 61.4728C205.088 60.2955 207.903 59.653 210.761 59.5834C212.803 59.5753 214.821 60.0237 216.667 60.8959C218.637 61.7873 220.326 63.1991 221.553 64.9792L238.469 88.8229C239.639 90.4035 240.618 92.1167 241.386 93.9271C242.019 95.3269 242.366 96.8392 242.407 98.375C242.386 100.209 241.856 102.002 240.875 103.552C239.751 105.452 238.378 107.193 236.792 108.729L231.25 114.49C230.864 114.868 230.561 115.323 230.361 115.825C230.16 116.327 230.065 116.866 230.084 117.406C230.085 117.972 230.158 118.536 230.303 119.083C230.521 119.667 230.74 120.104 230.886 120.542C232.844 123.862 235.115 126.987 237.667 129.875C240.948 133.667 244.448 137.531 248.24 141.396C250.865 143.948 253.417 146.427 255.969 148.615Z" fill="url(#paint8_linear_263_2)" fill-opacity="0.15"/>
<path d="M330.198 178.656C330.19 180.77 329.82 182.866 329.105 184.854C328.893 185.45 328.649 186.034 328.375 186.604C327.102 189.317 325.431 191.823 323.417 194.042C320.133 197.778 316.045 200.72 311.459 202.646C311.386 202.646 311.313 202.719 311.24 202.719C306.794 204.521 302.038 205.438 297.24 205.417C289.038 205.265 280.952 203.455 273.469 200.094C264.589 196.245 256.175 191.401 248.386 185.656C245.542 183.542 242.698 181.427 240 179.167L263.844 155.323C265.548 156.629 267.353 157.8 269.24 158.823C269.605 158.969 270.042 159.188 270.553 159.406C271.137 159.615 271.755 159.714 272.375 159.698C272.933 159.711 273.486 159.607 274.001 159.393C274.516 159.18 274.98 158.862 275.365 158.459L280.907 152.99C282.444 151.375 284.213 149.998 286.157 148.906C287.703 147.917 289.498 147.386 291.334 147.375C292.864 147.396 294.376 147.718 295.782 148.323C297.577 149.092 299.288 150.045 300.886 151.167L325.021 168.302C326.773 169.447 328.163 171.065 329.032 172.969C329.788 174.77 330.185 176.703 330.198 178.656Z" fill="url(#paint9_linear_263_2)" fill-opacity="0.15"/>
<defs>
<linearGradient id="paint0_linear_263_2" x1="368.276" y1="81.5833" x2="368.276" y2="194.458" gradientUnits="userSpaceOnUse">
<stop stop-color="#15AB89"/>
<stop offset="1" stop-color="#010E17"/>
</linearGradient>
<linearGradient id="paint1_linear_263_2" x1="433.099" y1="169.375" x2="433.099" y2="227.417" gradientUnits="userSpaceOnUse">
<stop stop-color="#15AB89"/>
<stop offset="1" stop-color="#010E17"/>
</linearGradient>
<linearGradient id="paint2_linear_263_2" x1="484.276" y1="59.5833" x2="484.276" y2="172.458" gradientUnits="userSpaceOnUse">
<stop stop-color="#15AB89" stop-opacity="0.66"/>
<stop offset="1" stop-color="#010E17" stop-opacity="0.49"/>
</linearGradient>
<linearGradient id="paint3_linear_263_2" x1="549.099" y1="147.375" x2="549.099" y2="205.417" gradientUnits="userSpaceOnUse">
<stop stop-color="#15AB89" stop-opacity="0.66"/>
<stop offset="1" stop-color="#010E17" stop-opacity="0.49"/>
</linearGradient>
<linearGradient id="paint4_linear_263_2" x1="598.276" y1="14.5833" x2="598.276" y2="127.458" gradientUnits="userSpaceOnUse">
<stop stop-color="#15AB89" stop-opacity="0.66"/>
<stop offset="1" stop-color="#010E17" stop-opacity="0.49"/>
</linearGradient>
<linearGradient id="paint5_linear_263_2" x1="663.099" y1="102.375" x2="663.099" y2="160.417" gradientUnits="userSpaceOnUse">
<stop stop-color="#15AB89" stop-opacity="0.66"/>
<stop offset="1" stop-color="#010E17" stop-opacity="0.49"/>
</linearGradient>
<linearGradient id="paint6_linear_263_2" x1="50.2761" y1="15.5833" x2="50.2761" y2="128.458" gradientUnits="userSpaceOnUse">
<stop stop-color="#15AB89" stop-opacity="0.66"/>
<stop offset="1" stop-color="#010E17" stop-opacity="0.49"/>
</linearGradient>
<linearGradient id="paint7_linear_263_2" x1="115.099" y1="103.375" x2="115.099" y2="161.417" gradientUnits="userSpaceOnUse">
<stop stop-color="#15AB89" stop-opacity="0.66"/>
<stop offset="1" stop-color="#010E17" stop-opacity="0.49"/>
</linearGradient>
<linearGradient id="paint8_linear_263_2" x1="220.276" y1="59.5833" x2="220.276" y2="172.458" gradientUnits="userSpaceOnUse">
<stop stop-color="#15AB89" stop-opacity="0.66"/>
<stop offset="1" stop-color="#010E17" stop-opacity="0.49"/>
</linearGradient>
<linearGradient id="paint9_linear_263_2" x1="285.099" y1="147.375" x2="285.099" y2="205.417" gradientUnits="userSpaceOnUse">
<stop stop-color="#15AB89" stop-opacity="0.66"/>
<stop offset="1" stop-color="#010E17" stop-opacity="0.49"/>
</linearGradient>
</defs>
</svg>
