<svg
        width="734"
        height="249"
        viewBox="0 0 734 249"
        fill="none"
        xmlns="http://www.w3.org/2000/svg"
      >
        <g opacity="0.2" clip-path="url(#clip0_263_2)">
          <path
            opacity="0.4"
            d="M620.03 18.7137L578.155 34.3809C573.152 36.5443 568.857 40.0677 565.756 44.5506C562.656 49.0335 560.875 54.2961 560.617 59.7405V122.091C560.943 127.637 562.4 133.059 564.896 138.023C567.392 142.987 570.876 147.388 575.134 150.958L611.218 177.895C617.571 182.241 625.088 184.566 632.785 184.566C640.482 184.566 647.999 182.241 654.352 177.895L690.436 150.958C694.694 147.388 698.178 142.987 700.674 138.023C703.17 133.059 704.627 127.637 704.953 122.091V59.7405C704.695 54.2961 702.914 49.0335 699.814 44.5506C696.713 40.0677 692.418 36.5443 687.415 34.3809L645.54 18.7137C637.236 16.1124 628.334 16.1124 620.03 18.7137Z"
            fill="url(#paint0_linear_263_2)"
            fill-opacity="0.2"
          />
          <path
            d="M631.863 94.8265H632.702C636.216 94.6882 639.611 93.5193 642.466 91.4654C645.32 89.4114 647.508 86.5631 648.755 83.2752C650.003 79.9873 650.256 76.405 649.483 72.9744C648.709 69.5438 646.944 66.4164 644.407 63.9817C641.869 61.547 638.671 59.9126 635.212 59.2819C631.752 58.6511 628.183 59.052 624.95 60.4346C621.716 61.8172 618.961 64.1205 617.027 67.0575C615.093 69.9945 614.065 73.4356 614.072 76.9523C614.141 81.657 616.035 86.1509 619.354 89.4858C622.673 92.8207 627.158 94.7356 631.863 94.8265Z"
            fill="url(#paint1_linear_263_2)"
            fill-opacity="0.2"
          />
          <path
            d="M651.079 112.532C645.5 109.236 639.139 107.497 632.659 107.497C626.179 107.497 619.818 109.236 614.239 112.532C612.072 113.832 610.258 115.645 608.955 117.81C607.653 119.976 606.903 122.428 606.771 124.952C606.877 127.471 607.617 129.921 608.923 132.078C610.228 134.234 612.057 136.026 614.239 137.288C619.751 140.713 626.128 142.489 632.617 142.407C639.112 142.541 645.504 140.76 650.995 137.288C653.162 135.988 654.976 134.175 656.278 132.01C657.581 129.844 658.331 127.392 658.463 124.868C658.393 122.351 657.677 119.895 656.384 117.735C655.09 115.574 653.264 113.783 651.079 112.532Z"
            fill="url(#paint2_linear_263_2)"
            fill-opacity="0.2"
          />
        </g>
        <g opacity="0.2">
          <path
            opacity="0.4"
            d="M88.0297 18.7137L46.1553 34.3809C41.1525 36.5443 36.8568 40.0677 33.7565 44.5506C30.6561 49.0335 28.8754 54.2961 28.6167 59.7405L28.6167 122.091C28.9434 127.637 30.3996 133.059 32.896 138.023C35.3924 142.987 38.8763 147.388 43.1343 150.958L79.2184 177.895C85.5711 182.241 93.0883 184.566 100.785 184.566C108.482 184.566 115.999 182.241 122.352 177.895L158.436 150.958C162.694 147.388 166.178 142.987 168.674 138.023C171.17 133.059 172.627 127.637 172.953 122.091V59.7405C172.695 54.2961 170.914 49.0335 167.814 44.5506C164.713 40.0677 160.418 36.5443 155.415 34.3809L113.54 18.7137C105.236 16.1124 96.3343 16.1124 88.0297 18.7137Z"
            fill="url(#paint3_linear_263_2)"
            fill-opacity="0.2"
          />
          <path
            d="M99.8626 94.8265H100.702C104.216 94.6882 107.611 93.5193 110.466 91.4654C113.32 89.4114 115.508 86.5631 116.755 83.2752C118.003 79.9873 118.256 76.405 117.483 72.9744C116.709 69.5438 114.944 66.4164 112.407 63.9817C109.869 61.547 106.671 59.9126 103.212 59.2819C99.752 58.6511 96.1832 59.052 92.9497 60.4346C89.7162 61.8172 86.9609 64.1205 85.0267 67.0575C83.0926 69.9945 82.0651 73.4356 82.0723 76.9523C82.1411 81.657 84.0349 86.1509 87.3541 89.4858C90.6733 92.8207 95.1583 94.7356 99.8626 94.8265Z"
            fill="url(#paint4_linear_263_2)"
            fill-opacity="0.2"
          />
          <path
            d="M119.079 112.532C113.5 109.236 107.139 107.497 100.659 107.497C94.179 107.497 87.8179 109.236 82.2391 112.532C80.072 113.832 78.2576 115.645 76.9553 117.81C75.653 119.976 74.9027 122.428 74.7705 124.952C74.8769 127.471 75.6171 129.921 76.9227 132.078C78.2282 134.234 80.0568 136.026 82.2391 137.288C87.751 140.713 94.128 142.489 100.617 142.407C107.112 142.541 113.504 140.76 118.995 137.288C121.162 135.988 122.976 134.175 124.278 132.01C125.581 129.844 126.331 127.392 126.463 124.868C126.393 122.351 125.677 119.895 124.384 117.735C123.09 115.574 121.264 113.783 119.079 112.532Z"
            fill="url(#paint5_linear_263_2)"
            fill-opacity="0.2"
          />
        </g>
        <g clip-path="url(#clip1_263_2)">
          <path
            opacity="0.4"
            d="M354.03 65.7137L312.155 81.3809C307.152 83.5443 302.857 87.0677 299.756 91.5506C296.656 96.0335 294.875 101.296 294.617 106.741V169.091C294.943 174.637 296.4 180.059 298.896 185.023C301.392 189.987 304.876 194.388 309.134 197.958L345.218 224.895C351.571 229.241 359.088 231.566 366.785 231.566C374.482 231.566 381.999 229.241 388.352 224.895L424.436 197.958C428.694 194.388 432.178 189.987 434.674 185.023C437.17 180.059 438.627 174.637 438.953 169.091V106.741C438.695 101.296 436.914 96.0335 433.814 91.5506C430.713 87.0677 426.418 83.5443 421.415 81.3809L379.54 65.7137C371.236 63.1124 362.334 63.1124 354.03 65.7137Z"
            fill="url(#paint6_linear_263_2)"
            fill-opacity="0.2"
          />
          <path
            d="M365.863 141.827H366.702C370.216 141.688 373.611 140.519 376.466 138.465C379.32 136.411 381.508 133.563 382.755 130.275C384.003 126.987 384.256 123.405 383.483 119.974C382.709 116.544 380.944 113.416 378.407 110.982C375.869 108.547 372.671 106.913 369.212 106.282C365.752 105.651 362.183 106.052 358.95 107.435C355.716 108.817 352.961 111.12 351.027 114.057C349.093 116.995 348.065 120.436 348.072 123.952C348.141 128.657 350.035 133.151 353.354 136.486C356.673 139.821 361.158 141.736 365.863 141.827Z"
            fill="url(#paint7_linear_263_2)"
            fill-opacity="0.2"
          />
          <path
            d="M385.079 159.532C379.5 156.236 373.139 154.497 366.659 154.497C360.179 154.497 353.818 156.236 348.239 159.532C346.072 160.832 344.258 162.645 342.955 164.81C341.653 166.976 340.903 169.428 340.771 171.952C340.877 174.471 341.617 176.921 342.923 179.078C344.228 181.234 346.057 183.026 348.239 184.288C353.751 187.713 360.128 189.489 366.617 189.407C373.112 189.541 379.504 187.76 384.995 184.288C387.162 182.988 388.976 181.175 390.278 179.01C391.581 176.844 392.331 174.392 392.463 171.868C392.393 169.351 391.677 166.895 390.384 164.735C389.09 162.574 387.264 160.783 385.079 159.532Z"
            fill="url(#paint8_linear_263_2)"
            fill-opacity="0.2"
          />
        </g>
        <g opacity="0.5" clip-path="url(#clip2_263_2)">
          <path
            opacity="0.4"
            d="M497.03 47.7137L455.155 63.3809C450.152 65.5443 445.857 69.0677 442.756 73.5506C439.656 78.0335 437.875 83.2961 437.617 88.7405V151.091C437.943 156.637 439.4 162.059 441.896 167.023C444.392 171.987 447.876 176.388 452.134 179.958L488.218 206.895C494.571 211.241 502.088 213.566 509.785 213.566C517.482 213.566 524.999 211.241 531.352 206.895L567.436 179.958C571.694 176.388 575.178 171.987 577.674 167.023C580.17 162.059 581.627 156.637 581.953 151.091V88.7405C581.695 83.2961 579.914 78.0335 576.814 73.5506C573.713 69.0677 569.418 65.5443 564.415 63.3809L522.54 47.7137C514.236 45.1124 505.334 45.1124 497.03 47.7137Z"
            fill="url(#paint9_linear_263_2)"
            fill-opacity="0.2"
          />
          <path
            d="M508.863 123.827H509.702C513.216 123.688 516.611 122.519 519.466 120.465C522.32 118.411 524.508 115.563 525.755 112.275C527.003 108.987 527.256 105.405 526.483 101.974C525.709 98.5438 523.944 95.4164 521.407 92.9817C518.869 90.547 515.671 88.9126 512.212 88.2819C508.752 87.6511 505.183 88.052 501.95 89.4346C498.716 90.8172 495.961 93.1205 494.027 96.0575C492.093 98.9945 491.065 102.436 491.072 105.952C491.141 110.657 493.035 115.151 496.354 118.486C499.673 121.821 504.158 123.736 508.863 123.827Z"
            fill="url(#paint10_linear_263_2)"
            fill-opacity="0.2"
          />
          <path
            d="M528.079 141.532C522.5 138.236 516.139 136.497 509.659 136.497C503.179 136.497 496.818 138.236 491.239 141.532C489.072 142.832 487.258 144.645 485.955 146.81C484.653 148.976 483.903 151.428 483.771 153.952C483.877 156.471 484.617 158.921 485.923 161.078C487.228 163.234 489.057 165.026 491.239 166.288C496.751 169.713 503.128 171.489 509.617 171.407C516.112 171.541 522.504 169.76 527.995 166.288C530.162 164.988 531.976 163.175 533.278 161.01C534.581 158.844 535.331 156.392 535.463 153.868C535.393 151.351 534.677 148.895 533.384 146.735C532.09 144.574 530.264 142.783 528.079 141.532Z"
            fill="url(#paint11_linear_263_2)"
            fill-opacity="0.2"
          />
        </g>
        <g opacity="0.5" clip-path="url(#clip3_263_2)">
          <path
            opacity="0.4"
            d="M210.03 47.7137L168.155 63.3809C163.152 65.5443 158.857 69.0677 155.756 73.5506C152.656 78.0335 150.875 83.2961 150.617 88.7405V151.091C150.943 156.637 152.4 162.059 154.896 167.023C157.392 171.987 160.876 176.388 165.134 179.958L201.218 206.895C207.571 211.241 215.088 213.566 222.785 213.566C230.482 213.566 237.999 211.241 244.352 206.895L280.436 179.958C284.694 176.388 288.178 171.987 290.674 167.023C293.17 162.059 294.627 156.637 294.953 151.091V88.7405C294.695 83.2961 292.914 78.0335 289.814 73.5506C286.713 69.0677 282.418 65.5443 277.415 63.3809L235.54 47.7137C227.236 45.1124 218.334 45.1124 210.03 47.7137Z"
            fill="url(#paint12_linear_263_2)"
            fill-opacity="0.2"
          />
          <path
            d="M221.863 123.827H222.702C226.216 123.688 229.611 122.519 232.466 120.465C235.32 118.411 237.508 115.563 238.755 112.275C240.003 108.987 240.256 105.405 239.483 101.974C238.709 98.5438 236.944 95.4164 234.407 92.9817C231.869 90.547 228.671 88.9126 225.212 88.2819C221.752 87.6511 218.183 88.052 214.95 89.4346C211.716 90.8172 208.961 93.1205 207.027 96.0575C205.093 98.9945 204.065 102.436 204.072 105.952C204.141 110.657 206.035 115.151 209.354 118.486C212.673 121.821 217.158 123.736 221.863 123.827Z"
            fill="url(#paint13_linear_263_2)"
            fill-opacity="0.2"
          />
          <path
            d="M241.079 141.532C235.5 138.236 229.139 136.497 222.659 136.497C216.179 136.497 209.818 138.236 204.239 141.532C202.072 142.832 200.258 144.645 198.955 146.81C197.653 148.976 196.903 151.428 196.771 153.952C196.877 156.471 197.617 158.921 198.923 161.078C200.228 163.234 202.057 165.026 204.239 166.288C209.751 169.713 216.128 171.489 222.617 171.407C229.112 171.541 235.504 169.76 240.995 166.288C243.162 164.988 244.976 163.175 246.278 161.01C247.581 158.844 248.331 156.392 248.463 153.868C248.393 151.351 247.677 148.895 246.384 146.735C245.09 144.574 243.264 142.783 241.079 141.532Z"
            fill="url(#paint14_linear_263_2)"
            fill-opacity="0.2"
          />
        </g>
        <defs>
          <linearGradient
            id="paint0_linear_263_2"
            x1="632.785"
            y1="16.7627"
            x2="632.785"
            y2="184.566"
            gradientUnits="userSpaceOnUse"
          >
            <stop stop-color="#15AB89" />
            <stop offset="1" stop-color="#010E17" />
          </linearGradient>
          <linearGradient
            id="paint1_linear_263_2"
            x1="631.997"
            y1="58.9912"
            x2="631.997"
            y2="94.8265"
            gradientUnits="userSpaceOnUse"
          >
            <stop stop-color="#15AB89" />
            <stop offset="1" stop-color="#010E17" />
          </linearGradient>
          <linearGradient
            id="paint2_linear_263_2"
            x1="632.617"
            y1="107.497"
            x2="632.617"
            y2="142.414"
            gradientUnits="userSpaceOnUse"
          >
            <stop stop-color="#15AB89" />
            <stop offset="1" stop-color="#010E17" />
          </linearGradient>
          <linearGradient
            id="paint3_linear_263_2"
            x1="100.785"
            y1="16.7627"
            x2="100.785"
            y2="184.566"
            gradientUnits="userSpaceOnUse"
          >
            <stop stop-color="#15AB89" />
            <stop offset="1" stop-color="#010E17" />
          </linearGradient>
          <linearGradient
            id="paint4_linear_263_2"
            x1="99.9969"
            y1="58.9912"
            x2="99.9969"
            y2="94.8265"
            gradientUnits="userSpaceOnUse"
          >
            <stop stop-color="#15AB89" />
            <stop offset="1" stop-color="#010E17" />
          </linearGradient>
          <linearGradient
            id="paint5_linear_263_2"
            x1="100.617"
            y1="107.497"
            x2="100.617"
            y2="142.414"
            gradientUnits="userSpaceOnUse"
          >
            <stop stop-color="#15AB89" />
            <stop offset="1" stop-color="#010E17" />
          </linearGradient>
          <linearGradient
            id="paint6_linear_263_2"
            x1="366.785"
            y1="63.7627"
            x2="366.785"
            y2="231.566"
            gradientUnits="userSpaceOnUse"
          >
            <stop stop-color="#15AB89" />
            <stop offset="1" stop-color="#010E17" />
          </linearGradient>
          <linearGradient
            id="paint7_linear_263_2"
            x1="365.997"
            y1="105.991"
            x2="365.997"
            y2="141.827"
            gradientUnits="userSpaceOnUse"
          >
            <stop stop-color="#15AB89" />
            <stop offset="1" stop-color="#010E17" />
          </linearGradient>
          <linearGradient
            id="paint8_linear_263_2"
            x1="366.617"
            y1="154.497"
            x2="366.617"
            y2="189.414"
            gradientUnits="userSpaceOnUse"
          >
            <stop stop-color="#15AB89" />
            <stop offset="1" stop-color="#010E17" />
          </linearGradient>
          <linearGradient
            id="paint9_linear_263_2"
            x1="509.785"
            y1="45.7627"
            x2="509.785"
            y2="213.566"
            gradientUnits="userSpaceOnUse"
          >
            <stop stop-color="#15AB89" />
            <stop offset="1" stop-color="#010E17" />
          </linearGradient>
          <linearGradient
            id="paint10_linear_263_2"
            x1="508.997"
            y1="87.9912"
            x2="508.997"
            y2="123.827"
            gradientUnits="userSpaceOnUse"
          >
            <stop stop-color="#15AB89" />
            <stop offset="1" stop-color="#010E17" />
          </linearGradient>
          <linearGradient
            id="paint11_linear_263_2"
            x1="509.617"
            y1="136.497"
            x2="509.617"
            y2="171.414"
            gradientUnits="userSpaceOnUse"
          >
            <stop stop-color="#15AB89" />
            <stop offset="1" stop-color="#010E17" />
          </linearGradient>
          <linearGradient
            id="paint12_linear_263_2"
            x1="222.785"
            y1="45.7627"
            x2="222.785"
            y2="213.566"
            gradientUnits="userSpaceOnUse"
          >
            <stop stop-color="#15AB89" />
            <stop offset="1" stop-color="#010E17" />
          </linearGradient>
          <linearGradient
            id="paint13_linear_263_2"
            x1="221.997"
            y1="87.9912"
            x2="221.997"
            y2="123.827"
            gradientUnits="userSpaceOnUse"
          >
            <stop stop-color="#15AB89" />
            <stop offset="1" stop-color="#010E17" />
          </linearGradient>
          <linearGradient
            id="paint14_linear_263_2"
            x1="222.617"
            y1="136.497"
            x2="222.617"
            y2="171.414"
            gradientUnits="userSpaceOnUse"
          >
            <stop stop-color="#15AB89" />
            <stop offset="1" stop-color="#010E17" />
          </linearGradient>
          <clipPath id="clip0_263_2">
            <rect
              width="201.4"
              height="201.4"
              fill="white"
              transform="translate(532)"
            />
          </clipPath>
          <clipPath id="clip1_263_2">
            <rect
              width="201.4"
              height="201.4"
              fill="white"
              transform="translate(266 47)"
            />
          </clipPath>
          <clipPath id="clip2_263_2">
            <rect
              width="201.4"
              height="201.4"
              fill="white"
              transform="translate(409 29)"
            />
          </clipPath>
          <clipPath id="clip3_263_2">
            <rect
              width="201.4"
              height="201.4"
              fill="white"
              transform="translate(122 29)"
            />
          </clipPath>
        </defs>
      </svg>