<svg width="697" height="183" viewBox="0 0 697 183" fill="none" xmlns="http://www.w3.org/2000/svg">
<path d="M354.022 56.2136C353.5 56.1987 352.978 56.2248 352.46 56.2917V26.0835C352.978 26.0185 353.5 25.9925 354.022 26.0054C370.263 25.8102 386.127 30.9064 399.217 40.5241C400.124 41.1987 400.874 42.0625 401.415 43.0557C401.956 44.0489 402.275 45.1477 402.349 46.2761C402.423 47.4045 402.251 48.5355 401.845 49.591C401.439 50.6464 400.809 51.6011 399.997 52.3888L389.147 63.0046C387.883 64.2703 386.218 65.0561 384.437 65.2271C382.657 65.398 380.872 64.9434 379.39 63.9413C371.938 58.8005 363.074 56.1003 354.022 56.2136Z" fill="url(#paint0_linear_263_2)"/>
<path d="M428.957 105.78C429.31 116.45 427.422 127.075 423.416 136.97C419.409 146.866 413.373 155.811 405.696 163.23C391.518 175.9 373.028 182.659 354.022 182.12C353.5 182.133 352.978 182.107 352.46 182.042V151.834C352.978 151.899 353.5 151.925 354.022 151.912C363.642 152.188 373.11 149.46 381.108 144.106C385.331 141.183 388.918 137.435 391.655 133.089C394.392 128.742 396.22 123.887 397.031 118.815H361.827C359.757 118.815 357.772 117.993 356.308 116.529C354.844 115.065 354.022 113.08 354.022 111.01V97.6618C354.022 95.5916 354.844 93.6062 356.308 92.1423C357.772 90.6785 359.757 89.8561 361.827 89.8561H420.761C422.682 89.8445 424.539 90.5501 425.968 91.8348C427.397 93.1196 428.296 94.8911 428.488 96.8032C428.817 99.7839 428.973 102.781 428.957 105.78Z" fill="url(#paint1_linear_263_2)"/>
<path opacity="0.4" d="M309.53 88.608C307.899 93.5985 307.056 98.813 307.033 104.063C307.05 109.32 307.92 114.54 309.608 119.519C312.593 128.639 318.3 136.626 325.962 142.404C333.624 148.181 342.873 151.473 352.462 151.834V182.043C338.279 181.78 324.438 177.641 312.439 170.073C300.441 162.505 290.743 151.798 284.396 139.111H284.318C278.395 127.336 275.553 114.252 276.057 101.081C276.561 87.9098 280.395 75.0813 287.2 63.7934C294.006 52.5055 303.561 43.1264 314.974 36.532C326.386 29.9376 339.284 26.3431 352.462 26.084V56.2922C343.629 56.6026 335.064 59.4061 327.757 64.3786C320.45 69.3512 314.699 76.2899 311.17 84.3929C310.545 85.7979 309.999 87.2029 309.53 88.608Z" fill="url(#paint2_linear_263_2)"/>
<path d="M500.764 50.0795C500.331 50.0671 499.897 50.0888 499.468 50.1443V25.0693C499.898 25.0154 500.331 24.9937 500.764 25.0045C514.245 24.8425 527.414 29.0727 538.279 37.0561C539.032 37.6161 539.655 38.3331 540.104 39.1575C540.553 39.9819 540.817 40.894 540.879 41.8306C540.94 42.7673 540.798 43.7062 540.461 44.5823C540.124 45.4584 539.6 46.2508 538.927 46.9047L529.921 55.7166C528.871 56.7672 527.489 57.4195 526.011 57.5614C524.533 57.7033 523.051 57.3259 521.821 56.4941C515.636 52.2269 508.278 49.9855 500.764 50.0795Z" fill="url(#paint3_linear_263_2)" fill-opacity="0.4"/>
<path d="M562.965 91.2233C563.258 100.08 561.691 108.9 558.366 117.114C555.04 125.328 550.029 132.753 543.657 138.911C531.889 149.428 516.54 155.039 500.764 154.591C500.331 154.602 499.898 154.58 499.468 154.526V129.451C499.898 129.505 500.331 129.527 500.764 129.516C508.749 129.746 516.608 127.481 523.247 123.037C526.752 120.61 529.731 117.5 532.002 113.892C534.274 110.284 535.792 106.254 536.465 102.044H507.243C505.525 102.044 503.877 101.361 502.661 100.146C501.446 98.931 500.764 97.2829 500.764 95.5645V84.4848C500.764 82.7664 501.446 81.1184 502.661 79.9032C503.877 78.6881 505.525 78.0055 507.243 78.0055H556.162C557.757 77.9959 559.298 78.5815 560.485 79.648C561.671 80.7144 562.417 82.185 562.577 83.7721C562.849 86.2463 562.979 88.7342 562.965 91.2233Z" fill="url(#paint4_linear_263_2)" fill-opacity="0.4"/>
<path opacity="0.4" d="M463.833 76.9693C462.478 81.1118 461.779 85.4402 461.759 89.7984C461.774 94.1623 462.496 98.4949 463.897 102.628C466.375 110.198 471.112 116.828 477.472 121.624C483.832 126.42 491.509 129.152 499.469 129.452V154.527C487.696 154.309 476.207 150.873 466.247 144.592C456.288 138.31 448.237 129.422 442.969 118.891H442.904C437.988 109.116 435.629 98.2558 436.047 87.3228C436.466 76.3899 439.648 65.7412 445.297 56.3714C450.946 47.0016 458.878 39.2163 468.351 33.7425C477.824 28.2686 488.53 25.2849 499.469 25.0698V50.1449C492.137 50.4025 485.028 52.7296 478.962 56.8572C472.897 60.9848 468.123 66.7445 465.193 73.4705C464.675 74.6368 464.221 75.8031 463.833 76.9693Z" fill="url(#paint5_linear_263_2)" fill-opacity="0.4"/>
<path d="M634.764 25.0795C634.331 25.0671 633.897 25.0888 633.468 25.1443V0.0692808C633.898 0.0153922 634.331 -0.00626605 634.764 0.00448735C648.245 -0.15755 661.414 4.07269 672.279 12.0561C673.032 12.6161 673.655 13.3331 674.104 14.1575C674.553 14.9819 674.817 15.894 674.879 16.8306C674.94 17.7673 674.798 18.7062 674.461 19.5823C674.124 20.4584 673.6 21.2508 672.927 21.9047L663.921 30.7166C662.871 31.7672 661.489 32.4195 660.011 32.5614C658.533 32.7033 657.051 32.3259 655.821 31.4941C649.636 27.2269 642.278 24.9855 634.764 25.0795Z" fill="url(#paint6_linear_263_2)" fill-opacity="0.2"/>
<path d="M696.965 66.2233C697.258 75.0801 695.691 83.9 692.366 92.1139C689.04 100.328 684.029 107.753 677.657 113.911C665.889 124.428 650.54 130.039 634.764 129.591C634.331 129.602 633.898 129.58 633.468 129.526V104.451C633.898 104.505 634.331 104.527 634.764 104.516C642.749 104.746 650.608 102.481 657.247 98.0369C660.752 95.6103 663.731 92.4995 666.002 88.8917C668.274 85.2839 669.792 81.2537 670.465 77.0438H641.243C639.525 77.0438 637.877 76.3612 636.661 75.1461C635.446 73.931 634.764 72.2829 634.764 70.5645V59.4848C634.764 57.7664 635.446 56.1184 636.661 54.9032C637.877 53.6881 639.525 53.0055 641.243 53.0055H690.162C691.757 52.9959 693.298 53.5815 694.485 54.648C695.671 55.7144 696.417 57.185 696.577 58.7721C696.849 61.2463 696.979 63.7342 696.965 66.2233Z" fill="url(#paint7_linear_263_2)" fill-opacity="0.2"/>
<path opacity="0.4" d="M597.833 51.9693C596.478 56.1118 595.779 60.4402 595.759 64.7984C595.774 69.1623 596.496 73.4949 597.897 77.6275C600.375 85.1981 605.112 91.8277 611.472 96.6237C617.832 101.42 625.509 104.152 633.469 104.452V129.527C621.696 129.309 610.207 125.873 600.247 119.592C590.288 113.31 582.237 104.422 576.969 93.8907H576.904C571.988 84.1165 569.629 73.2558 570.047 62.3228C570.466 51.3899 573.648 40.7412 579.297 31.3714C584.946 22.0016 592.878 14.2163 602.351 8.74247C611.824 3.26864 622.53 0.284875 633.469 0.0698242V25.1449C626.137 25.4025 619.028 27.7296 612.962 31.8572C606.897 35.9848 602.123 41.7445 599.193 48.4705C598.675 49.6368 598.221 50.8031 597.833 51.9693Z" fill="url(#paint8_linear_263_2)" fill-opacity="0.2"/>
<path d="M198.764 50.0795C198.331 50.0671 197.897 50.0888 197.468 50.1443V25.0693C197.898 25.0154 198.331 24.9937 198.764 25.0045C212.245 24.8425 225.414 29.0727 236.279 37.0561C237.032 37.6161 237.655 38.3331 238.104 39.1575C238.553 39.9819 238.817 40.894 238.879 41.8306C238.94 42.7673 238.798 43.7062 238.461 44.5823C238.124 45.4584 237.6 46.2508 236.927 46.9047L227.921 55.7166C226.871 56.7672 225.489 57.4195 224.011 57.5614C222.533 57.7033 221.051 57.3259 219.821 56.4941C213.636 52.2269 206.278 49.9855 198.764 50.0795Z" fill="url(#paint9_linear_263_2)" fill-opacity="0.4"/>
<path d="M260.965 91.2233C261.258 100.08 259.691 108.9 256.366 117.114C253.04 125.328 248.029 132.753 241.657 138.911C229.889 149.428 214.54 155.039 198.764 154.591C198.331 154.602 197.898 154.58 197.468 154.526V129.451C197.898 129.505 198.331 129.527 198.764 129.516C206.749 129.746 214.608 127.481 221.247 123.037C224.752 120.61 227.731 117.5 230.002 113.892C232.274 110.284 233.792 106.254 234.465 102.044H205.243C203.525 102.044 201.877 101.361 200.661 100.146C199.446 98.931 198.764 97.2829 198.764 95.5645V84.4848C198.764 82.7664 199.446 81.1184 200.661 79.9032C201.877 78.6881 203.525 78.0055 205.243 78.0055H254.162C255.757 77.9959 257.298 78.5815 258.485 79.648C259.671 80.7144 260.417 82.185 260.577 83.7721C260.849 86.2463 260.979 88.7342 260.965 91.2233Z" fill="url(#paint10_linear_263_2)" fill-opacity="0.4"/>
<path opacity="0.4" d="M161.833 76.9693C160.478 81.1118 159.779 85.4402 159.759 89.7984C159.774 94.1623 160.496 98.4949 161.897 102.628C164.375 110.198 169.112 116.828 175.472 121.624C181.832 126.42 189.509 129.152 197.469 129.452V154.527C185.696 154.309 174.207 150.873 164.247 144.592C154.288 138.31 146.237 129.422 140.969 118.891H140.904C135.988 109.116 133.629 98.2558 134.047 87.3228C134.466 76.3899 137.648 65.7412 143.297 56.3714C148.946 47.0016 156.878 39.2163 166.351 33.7425C175.824 28.2686 186.53 25.2849 197.469 25.0698V50.1449C190.137 50.4025 183.028 52.7296 176.962 56.8572C170.897 60.9848 166.123 66.7445 163.193 73.4705C162.675 74.6368 162.221 75.8031 161.833 76.9693Z" fill="url(#paint11_linear_263_2)" fill-opacity="0.4"/>
<path d="M64.7636 25.0795C64.3307 25.0671 63.8974 25.0888 63.4678 25.1443V0.0692808C63.8975 0.0153922 64.3307 -0.00626605 64.7636 0.00448735C78.2455 -0.15755 91.4138 4.07269 102.279 12.0561C103.032 12.6161 103.655 13.3331 104.104 14.1575C104.553 14.9819 104.817 15.894 104.879 16.8306C104.94 17.7673 104.798 18.7062 104.461 19.5823C104.124 20.4584 103.6 21.2508 102.927 21.9047L93.9207 30.7166C92.8714 31.7672 91.4889 32.4195 90.0109 32.5614C88.5328 32.7033 87.0515 32.3259 85.8215 31.4941C79.6358 27.2269 72.2778 24.9855 64.7636 25.0795Z" fill="url(#paint12_linear_263_2)" fill-opacity="0.2"/>
<path d="M126.965 66.2233C127.258 75.0801 125.691 83.9 122.366 92.1139C119.04 100.328 114.029 107.753 107.657 113.911C95.8887 124.428 80.54 130.039 64.7636 129.591C64.3307 129.602 63.8975 129.58 63.4678 129.526V104.451C63.8975 104.505 64.3307 104.527 64.7636 104.516C72.7493 104.746 80.608 102.481 87.247 98.0369C90.7524 95.6103 93.7305 92.4995 96.0021 88.8917C98.2737 85.2839 99.7917 81.2537 100.465 77.0438H71.243C69.5246 77.0438 67.8765 76.3612 66.6614 75.1461C65.4463 73.931 64.7636 72.2829 64.7636 70.5645V59.4848C64.7636 57.7664 65.4463 56.1184 66.6614 54.9032C67.8765 53.6881 69.5246 53.0055 71.243 53.0055H120.162C121.757 52.9959 123.298 53.5815 124.485 54.648C125.671 55.7144 126.417 57.185 126.577 58.7721C126.849 61.2463 126.979 63.7342 126.965 66.2233Z" fill="url(#paint13_linear_263_2)" fill-opacity="0.2"/>
<path opacity="0.4" d="M27.8327 51.9693C26.4785 56.1118 25.7789 60.4402 25.7593 64.7984C25.7738 69.1623 26.4959 73.4949 27.8975 77.6275C30.3748 85.1981 35.1125 91.8277 41.4724 96.6237C47.8323 101.42 55.5091 104.152 63.469 104.452V129.527C51.6959 129.309 40.2068 125.873 30.2472 119.592C20.2876 113.31 12.2374 104.422 6.9692 93.8907H6.9044C1.98805 84.1165 -0.371067 73.2558 0.0473733 62.3228C0.465813 51.3899 3.64816 40.7412 9.29721 31.3714C14.9463 22.0016 22.8778 14.2163 32.351 8.74247C41.8242 3.26864 52.5302 0.284875 63.469 0.0698242V25.1449C56.137 25.4025 49.0275 27.7296 42.9622 31.8572C36.897 35.9848 32.1234 41.7445 29.1933 48.4705C28.675 49.6368 28.2214 50.8031 27.8327 51.9693Z" fill="url(#paint14_linear_263_2)" fill-opacity="0.2"/>
<defs>
<linearGradient id="paint0_linear_263_2" x1="377.413" y1="26" x2="377.413" y2="65.2623" gradientUnits="userSpaceOnUse">
<stop stop-color="#15AB89" stop-opacity="0.31"/>
<stop offset="1" stop-color="#15AB89" stop-opacity="0"/>
</linearGradient>
<linearGradient id="paint1_linear_263_2" x1="390.729" y1="89.856" x2="390.729" y2="182.15" gradientUnits="userSpaceOnUse">
<stop stop-color="#15AB89" stop-opacity="0.31"/>
<stop offset="1" stop-color="#15AB89" stop-opacity="0"/>
</linearGradient>
<linearGradient id="paint2_linear_263_2" x1="314.231" y1="26.084" x2="314.231" y2="182.043" gradientUnits="userSpaceOnUse">
<stop stop-color="#15AB89" stop-opacity="0.31"/>
<stop offset="1" stop-color="#15AB89" stop-opacity="0"/>
</linearGradient>
<linearGradient id="paint3_linear_263_2" x1="520.18" y1="25" x2="520.18" y2="57.5906" gradientUnits="userSpaceOnUse">
<stop stop-color="#15AB89" stop-opacity="0.31"/>
<stop offset="1" stop-color="#15AB89" stop-opacity="0"/>
</linearGradient>
<linearGradient id="paint4_linear_263_2" x1="531.234" y1="78.0054" x2="531.234" y2="154.616" gradientUnits="userSpaceOnUse">
<stop stop-color="#15AB89" stop-opacity="0.31"/>
<stop offset="1" stop-color="#15AB89" stop-opacity="0"/>
</linearGradient>
<linearGradient id="paint5_linear_263_2" x1="467.735" y1="25.0698" x2="467.735" y2="154.527" gradientUnits="userSpaceOnUse">
<stop stop-color="#15AB89" stop-opacity="0.31"/>
<stop offset="1" stop-color="#15AB89" stop-opacity="0"/>
</linearGradient>
<linearGradient id="paint6_linear_263_2" x1="654.18" y1="0" x2="654.18" y2="32.5906" gradientUnits="userSpaceOnUse">
<stop stop-color="#15AB89" stop-opacity="0.31"/>
<stop offset="1" stop-color="#15AB89" stop-opacity="0"/>
</linearGradient>
<linearGradient id="paint7_linear_263_2" x1="665.234" y1="53.0054" x2="665.234" y2="129.616" gradientUnits="userSpaceOnUse">
<stop stop-color="#15AB89" stop-opacity="0.31"/>
<stop offset="1" stop-color="#15AB89" stop-opacity="0"/>
</linearGradient>
<linearGradient id="paint8_linear_263_2" x1="601.735" y1="0.0698242" x2="601.735" y2="129.527" gradientUnits="userSpaceOnUse">
<stop stop-color="#15AB89" stop-opacity="0.31"/>
<stop offset="1" stop-color="#15AB89" stop-opacity="0"/>
</linearGradient>
<linearGradient id="paint9_linear_263_2" x1="218.18" y1="25" x2="218.18" y2="57.5906" gradientUnits="userSpaceOnUse">
<stop stop-color="#15AB89" stop-opacity="0.31"/>
<stop offset="1" stop-color="#15AB89" stop-opacity="0"/>
</linearGradient>
<linearGradient id="paint10_linear_263_2" x1="229.234" y1="78.0054" x2="229.234" y2="154.616" gradientUnits="userSpaceOnUse">
<stop stop-color="#15AB89" stop-opacity="0.31"/>
<stop offset="1" stop-color="#15AB89" stop-opacity="0"/>
</linearGradient>
<linearGradient id="paint11_linear_263_2" x1="165.735" y1="25.0698" x2="165.735" y2="154.527" gradientUnits="userSpaceOnUse">
<stop stop-color="#15AB89" stop-opacity="0.31"/>
<stop offset="1" stop-color="#15AB89" stop-opacity="0"/>
</linearGradient>
<linearGradient id="paint12_linear_263_2" x1="84.1803" y1="0" x2="84.1803" y2="32.5906" gradientUnits="userSpaceOnUse">
<stop stop-color="#15AB89" stop-opacity="0.31"/>
<stop offset="1" stop-color="#15AB89" stop-opacity="0"/>
</linearGradient>
<linearGradient id="paint13_linear_263_2" x1="95.2339" y1="53.0054" x2="95.2339" y2="129.616" gradientUnits="userSpaceOnUse">
<stop stop-color="#15AB89" stop-opacity="0.31"/>
<stop offset="1" stop-color="#15AB89" stop-opacity="0"/>
</linearGradient>
<linearGradient id="paint14_linear_263_2" x1="31.7345" y1="0.0698242" x2="31.7345" y2="129.527" gradientUnits="userSpaceOnUse">
<stop stop-color="#15AB89" stop-opacity="0.31"/>
<stop offset="1" stop-color="#15AB89" stop-opacity="0"/>
</linearGradient>
</defs>
</svg>
