<svg width="113" height="158" viewBox="0 0 113 158" fill="none" xmlns="http://www.w3.org/2000/svg">
<path opacity="0.5" d="M31.165 55.1349C43.8367 47.7481 54.3173 54.6608 56.1713 70.5814C56.4931 73.3496 54.3939 76.9895 51.8503 78.473L10.495 102.56C7.95144 104.044 5.85226 102.851 6.15871 99.7158C8.01273 81.6387 18.4933 62.5064 31.165 55.1349Z" fill="url(#paint0_linear_317_20)"/>
<path opacity="0.5" d="M17.0377 34.4428C17.0377 45.4389 23.4119 50.6387 31.2723 46.0506C39.1327 41.4778 45.4916 28.8453 45.4916 17.8645C45.4916 6.86835 39.1174 1.66852 31.257 6.25661C23.3966 10.8294 17.0377 23.4619 17.0377 34.4428Z" fill="url(#paint1_linear_317_20)"/>
<path opacity="0.07" d="M25.0361 50.5467C37.7078 43.1599 48.1884 50.0726 50.0424 65.9933C50.3642 68.7615 48.265 72.4013 45.7215 73.8848L4.36607 97.9723C1.82254 99.4558 -0.276643 98.2629 0.0298063 95.1277C1.88383 77.0506 12.3644 57.9183 25.0361 50.5467Z" fill="url(#paint2_linear_317_20)"/>
<path opacity="0.07" d="M10.9087 29.8546C10.9087 40.8507 17.2828 46.0506 25.1433 41.4625C32.9884 36.8897 39.3625 24.2724 39.3625 13.2763C39.3625 2.28022 32.9884 -2.91962 25.128 1.66847C17.2675 6.24126 10.9087 18.8738 10.9087 29.8546Z" fill="url(#paint3_linear_317_20)"/>
<path opacity="0.2" d="M83.5833 60.7478L112.129 44.3071V59.1419L83.5833 75.5979V60.7478Z" fill="url(#paint4_linear_317_20)"/>
<path d="M106.322 52.626C106.322 53.8495 107.042 54.4154 107.946 53.9107C108.835 53.3907 109.57 51.9837 109.57 50.7602C109.57 49.5367 108.85 48.9708 107.946 49.4755C107.057 49.9955 106.322 51.4025 106.322 52.626Z" fill="#15AB89"/>
<path opacity="0.15" d="M104.866 52.168L95.5348 57.536V59.616L104.866 54.2479V52.168Z" fill="#EBEBEB"/>
<path opacity="0.15" d="M104.82 56.3586L86.5405 66.896V68.9759L104.82 58.4386V56.3586Z" fill="#EBEBEB"/>
<path opacity="0.05" d="M38.5351 75.7048L9.8667 92.222V153.84L38.5351 137.323V75.7048Z" fill="url(#paint5_linear_317_20)"/>
<path opacity="0.3" d="M14.6475 96.3819L43.3158 79.8647V141.483L14.6475 158V96.3819Z" fill="url(#paint6_linear_317_20)"/>
<path opacity="0.15" d="M40.5578 118.879L17.5281 132.138V134.218L40.5578 120.959V118.879Z" fill="#EBEBEB"/>
<path opacity="0.15" d="M38.9488 123.865L19.1368 135.274V137.353L38.9488 125.944V123.865Z" fill="#EBEBEB"/>
<path d="M22.5997 113.694C22.5997 108.816 25.465 103.203 28.9892 101.169C32.5134 99.1349 35.3787 101.444 35.3787 106.323C35.3787 111.202 32.5134 116.814 28.9892 118.848C25.465 120.882 22.5997 118.573 22.5997 113.694Z" fill="#15AB89"/>
<path opacity="0.05" d="M74.2365 26.1077L45.5681 42.6248V104.243L74.2365 87.7257V26.1077Z" fill="url(#paint7_linear_317_20)"/>
<path opacity="0.3" d="M50.3488 46.7844L79.0171 30.2673V91.8853L50.3488 108.402V46.7844Z" fill="url(#paint8_linear_317_20)"/>
<path opacity="0.15" d="M76.2591 69.2664L53.2294 82.5259V84.6059L76.2591 71.3463V69.2664Z" fill="#EBEBEB"/>
<path opacity="0.15" d="M74.6502 74.2673L54.8383 85.6764V87.7563L74.6502 76.3473V74.2673Z" fill="#EBEBEB"/>
<path d="M58.3011 64.097C58.3011 59.2183 61.1665 53.6056 64.6906 51.5715C68.2148 49.5375 71.0801 51.8468 71.0801 56.7255C71.0801 61.6042 68.2148 67.2169 64.6906 69.251C61.1665 71.285 58.3011 68.9757 58.3011 64.097Z" fill="#09736A"/>
<path opacity="0.3" d="M58.3011 98.462L103.885 72.1875L103.87 95.9079L62.3156 119.858L58.2858 125.807L58.3011 98.462Z" fill="url(#paint9_linear_317_20)"/>
<path d="M108.758 81.4401V75.0015L91.5509 84.9117V91.3503L108.758 81.4401Z" fill="#15AB89"/>
<path opacity="0.15" d="M70.0228 97.4831L80.0131 91.7327V93.8126L70.0228 99.563V97.4831Z" fill="#EBEBEB"/>
<path opacity="0.15" d="M70.0228 101.658L89.2832 90.5703V92.6502L70.0228 103.738V101.658Z" fill="#EBEBEB"/>
<path opacity="0.15" d="M70.0076 105.818L93.3437 92.375V94.4549L70.0076 107.913V105.818Z" fill="#EBEBEB"/>
<path d="M67.556 101.077C67.556 103.035 66.3915 105.283 64.9665 106.109C63.5415 106.934 62.377 106.017 62.377 104.059C62.377 102.102 63.5415 99.8535 64.9665 99.0276C66.4068 98.2018 67.556 99.1194 67.556 101.077Z" fill="#15AB89"/>
<path opacity="0.2" d="M94.0485 27.2852C93.1291 27.8052 92.3937 29.0899 92.3937 30.1451V34.8097L89.2985 36.5837C88.3792 37.1037 87.6437 38.3884 87.6437 39.4436C87.6437 40.4989 88.3792 40.9271 89.2985 40.4071L92.3937 38.6331V43.2976C92.3937 44.3529 93.1291 44.7811 94.0485 44.2611C94.9678 43.7411 95.7033 42.4565 95.7033 41.4012V36.7367L98.7985 34.9626C99.7178 34.4426 100.453 33.158 100.453 32.1027C100.453 31.0474 99.7178 30.6192 98.7985 31.1392L95.7033 32.9133V28.2487C95.7033 27.1934 94.9678 26.7652 94.0485 27.2852Z" fill="url(#paint10_linear_317_20)"/>
<defs>
<linearGradient id="paint0_linear_317_20" x1="-21.1119" y1="43.0932" x2="31.0106" y2="79.6204" gradientUnits="userSpaceOnUse">
<stop stop-color="white"/>
<stop offset="1" stop-color="white" stop-opacity="0"/>
</linearGradient>
<linearGradient id="paint1_linear_317_20" x1="5.11555" y1="7.08973" x2="62.6848" y2="25.3339" gradientUnits="userSpaceOnUse">
<stop stop-color="white"/>
<stop offset="1" stop-color="white" stop-opacity="0"/>
</linearGradient>
<linearGradient id="paint2_linear_317_20" x1="-27.2408" y1="38.505" x2="24.8817" y2="75.0322" gradientUnits="userSpaceOnUse">
<stop stop-color="white"/>
<stop offset="1" stop-color="white" stop-opacity="0"/>
</linearGradient>
<linearGradient id="paint3_linear_317_20" x1="-1.01347" y1="2.5016" x2="56.5558" y2="20.7458" gradientUnits="userSpaceOnUse">
<stop stop-color="white"/>
<stop offset="1" stop-color="white" stop-opacity="0"/>
</linearGradient>
<linearGradient id="paint4_linear_317_20" x1="94.6305" y1="54.3828" x2="101.958" y2="64.9126" gradientUnits="userSpaceOnUse">
<stop stop-color="white"/>
<stop offset="1" stop-color="white" stop-opacity="0"/>
</linearGradient>
<linearGradient id="paint5_linear_317_20" x1="7.57323" y1="86.0187" x2="54.7795" y2="97.0013" gradientUnits="userSpaceOnUse">
<stop stop-color="white"/>
<stop offset="1" stop-color="white" stop-opacity="0"/>
</linearGradient>
<linearGradient id="paint6_linear_317_20" x1="12.3253" y1="90.1786" x2="52.2517" y2="99.4691" gradientUnits="userSpaceOnUse">
<stop stop-color="white"/>
<stop offset="1" stop-color="white" stop-opacity="0"/>
</linearGradient>
<linearGradient id="paint7_linear_317_20" x1="43.2746" y1="36.4215" x2="90.4809" y2="47.4041" gradientUnits="userSpaceOnUse">
<stop stop-color="white"/>
<stop offset="1" stop-color="white" stop-opacity="0"/>
</linearGradient>
<linearGradient id="paint8_linear_317_20" x1="48.0266" y1="40.5812" x2="87.953" y2="49.8716" gradientUnits="userSpaceOnUse">
<stop stop-color="white"/>
<stop offset="1" stop-color="white" stop-opacity="0"/>
</linearGradient>
<linearGradient id="paint9_linear_317_20" x1="68.2265" y1="88.9704" x2="93.98" y2="103.501" gradientUnits="userSpaceOnUse">
<stop stop-color="white"/>
<stop offset="1" stop-color="white" stop-opacity="0"/>
</linearGradient>
<linearGradient id="paint10_linear_317_20" x1="90.8461" y1="33.2476" x2="99.9124" y2="37.1139" gradientUnits="userSpaceOnUse">
<stop stop-color="white"/>
<stop offset="1" stop-color="white" stop-opacity="0"/>
</linearGradient>
</defs>
</svg>
