<svg width="16" height="16" viewBox="0 0 16 16" fill="none" xmlns="http://www.w3.org/2000/svg">
<path opacity="0.4" d="M5.20671 1.33325H10.7867C13.22 1.33325 14.6667 2.77992 14.6667 5.20659V10.7866C14.6667 13.2133 13.22 14.6599 10.7934 14.6599H5.20671C2.78004 14.6666 1.33337 13.2199 1.33337 10.7933V5.20659C1.33337 2.77992 2.78004 1.33325 5.20671 1.33325Z" fill="#010E17"/>
<path d="M11.7933 8.98668C11.7406 8.86391 11.6427 8.76606 11.52 8.71334C11.459 8.6867 11.3932 8.67308 11.3266 8.67334H4.66663C4.53429 8.67422 4.40762 8.72718 4.31404 8.82076C4.22046 8.91434 4.1675 9.04101 4.16663 9.17334C4.1675 9.30568 4.22046 9.43235 4.31404 9.52593C4.40762 9.61951 4.53429 9.67247 4.66663 9.67334H10.1266L9.01329 10.7867C8.92031 10.8808 8.86816 11.0077 8.86816 11.14C8.86816 11.2723 8.92031 11.3993 9.01329 11.4933C9.05962 11.5399 9.11469 11.5768 9.17532 11.602C9.23596 11.6272 9.30097 11.6401 9.36663 11.6401C9.43228 11.6401 9.4973 11.6272 9.55793 11.602C9.61856 11.5768 9.67363 11.5399 9.71996 11.4933L11.6866 9.52668C11.7319 9.48048 11.768 9.42621 11.7933 9.36668C11.8197 9.30681 11.8333 9.2421 11.8333 9.17668C11.8333 9.11125 11.8197 9.04655 11.7933 8.98668Z" fill="#15AB89"/>
<path d="M4.20664 7.01395C4.25936 7.13672 4.35721 7.23456 4.47998 7.28728C4.5386 7.31389 4.60227 7.32754 4.66664 7.32728H11.3333C11.4659 7.32728 11.5931 7.27461 11.6869 7.18084C11.7806 7.08707 11.8333 6.95989 11.8333 6.82728C11.8333 6.69468 11.7806 6.5675 11.6869 6.47373C11.5931 6.37996 11.4659 6.32728 11.3333 6.32728H5.87331L6.98664 5.21395C7.03577 5.16818 7.07517 5.11298 7.1025 5.05164C7.12982 4.99031 7.14452 4.9241 7.1457 4.85697C7.14689 4.78983 7.13454 4.72314 7.10939 4.66088C7.08424 4.59863 7.04681 4.54207 6.99934 4.49459C6.95186 4.44711 6.8953 4.40968 6.83304 4.38453C6.77078 4.35939 6.7041 4.34704 6.63696 4.34822C6.56983 4.34941 6.50362 4.3641 6.44228 4.39143C6.38095 4.41876 6.32575 4.45816 6.27998 4.50728L4.31331 6.47328C4.26807 6.51948 4.23189 6.57375 4.20664 6.63328C4.18017 6.69325 4.1665 6.75807 4.1665 6.82362C4.1665 6.88916 4.18017 6.95399 4.20664 7.01395Z" fill="#15AB89"/>
</svg>
