<svg width="28" height="35" viewBox="0 0 28 35" fill="none" xmlns="http://www.w3.org/2000/svg">
<mask id="path-1-inside-1_327_17" fill="white">
<path fill-rule="evenodd" clip-rule="evenodd" d="M18.4603 27.2745C24.0054 25.4121 28 20.1725 28 14C28 6.26801 21.732 0 14 0C6.26801 0 0 6.26801 0 14C0 20.1725 3.99459 25.4121 9.53967 27.2745L14 35L18.4603 27.2745Z"/>
</mask>
<path d="M18.4603 27.2745L18.1419 26.3265L17.7834 26.4469L17.5943 26.7745L18.4603 27.2745ZM9.53967 27.2745L10.4057 26.7745L10.2166 26.4469L9.85806 26.3265L9.53967 27.2745ZM14 35L13.134 35.5L14 37L14.866 35.5L14 35ZM27 14C27 19.7301 23.2921 24.5967 18.1419 26.3265L18.7787 28.2224C24.7187 26.2274 29 20.615 29 14H27ZM14 1C21.1797 1 27 6.8203 27 14H29C29 5.71573 22.2843 -1 14 -1V1ZM1 14C1 6.8203 6.8203 1 14 1V-1C5.71573 -1 -1 5.71573 -1 14H1ZM9.85806 26.3265C4.70791 24.5967 1 19.7301 1 14H-1C-1 20.615 3.28128 26.2274 9.22128 28.2224L9.85806 26.3265ZM8.67365 27.7745L13.134 35.5L14.866 34.5L10.4057 26.7745L8.67365 27.7745ZM14.866 35.5L19.3264 27.7745L17.5943 26.7745L13.134 34.5L14.866 35.5Z" fill="#15AB89" mask="url(#path-1-inside-1_327_17)"/>
<path d="M14 8.44678V19.5534L13.4667 20.1601C12.7267 21.0001 12.12 20.7734 12.12 19.6534V14.8534H10.06C9.12667 14.8534 8.86667 14.2801 9.48667 13.5801L14 8.44678Z" fill="#15AB89"/>
<path opacity="0.4" d="M18.5133 14.42L14 19.5533V8.44668L14.5333 7.84001C15.2733 7.00001 15.88 7.22668 15.88 8.34668V13.1467H17.94C18.8733 13.1467 19.1333 13.72 18.5133 14.42Z" fill="#15AB89"/>
</svg>
