<svg width="16" height="32" viewBox="0 0 16 32" fill="none" xmlns="http://www.w3.org/2000/svg">
<path opacity="0.4" d="M10.3199 7.17996L7.79326 10.5466H4.05326C3.91114 10.5466 3.77222 10.5044 3.6541 10.4254C3.53598 10.3464 3.44396 10.2341 3.38971 10.1027C3.33545 9.97138 3.3214 9.82688 3.34933 9.68754C3.37726 9.54819 3.44591 9.42026 3.54659 9.31996L7.00059 5.86663C7.26692 5.60096 7.62774 5.45175 8.00392 5.45175C8.38011 5.45175 8.74093 5.60096 9.00726 5.86663L10.3199 7.17996Z" fill="#010E17"/>
<path d="M11.9467 10.5466H7.79333L10.32 7.17996L12.46 9.31996C12.5595 9.42128 12.6268 9.5497 12.6536 9.68912C12.6804 9.82855 12.6655 9.97279 12.6107 10.1038C12.5559 10.2347 12.4636 10.3466 12.3455 10.4254C12.2274 10.5042 12.0886 10.5464 11.9467 10.5466V10.5466Z" fill="#010E17"/>
<path opacity="0.4" d="M10.3199 24.82L7.79326 21.4534H4.05326C3.91114 21.4534 3.77222 21.4956 3.6541 21.5746C3.53598 21.6536 3.44396 21.7659 3.38971 21.8973C3.33545 22.0286 3.3214 22.1731 3.34933 22.3125C3.37726 22.4518 3.44591 22.5797 3.54659 22.68L7.00059 26.1334C7.26692 26.399 7.62774 26.5482 8.00392 26.5482C8.38011 26.5482 8.74093 26.399 9.00726 26.1334L10.3199 24.82Z" fill="#010E17"/>
<path d="M11.9467 21.4534H7.79333L10.32 24.82L12.46 22.68C12.5595 22.5787 12.6268 22.4503 12.6536 22.3109C12.6804 22.1714 12.6655 22.0272 12.6107 21.8962C12.5559 21.7653 12.4636 21.6534 12.3455 21.5746C12.2274 21.4958 12.0886 21.4536 11.9467 21.4534V21.4534Z" fill="#010E17"/>
</svg>
