<svg width="153" height="157" viewBox="0 0 153 157" fill="none" xmlns="http://www.w3.org/2000/svg">
<path d="M78.0216 30.2136C77.5 30.1987 76.978 30.2248 76.4604 30.2917V0.0834634C76.9782 0.0185432 77.5 -0.00754878 78.0216 0.00540596C94.2633 -0.189802 110.127 4.90642 123.217 14.5241C124.124 15.1987 124.874 16.0625 125.415 17.0557C125.956 18.0489 126.275 19.1477 126.349 20.2761C126.423 21.4045 126.251 22.5355 125.845 23.591C125.439 24.6464 124.809 25.6011 123.997 26.3888L113.147 37.0046C111.883 38.2703 110.218 39.0561 108.437 39.2271C106.657 39.398 104.872 38.9434 103.39 37.9413C95.9383 32.8005 87.074 30.1003 78.0216 30.2136Z" fill="#15AB89"/>
<path d="M152.957 79.7798C153.31 90.4497 151.422 101.075 147.416 110.97C143.409 120.866 137.373 129.811 129.696 137.23C115.518 149.9 97.0275 156.659 78.0216 156.12C77.5 156.133 76.9782 156.107 76.4604 156.042V125.834C76.9782 125.899 77.5 125.925 78.0216 125.912C87.6421 126.188 97.1095 123.46 105.108 118.106C109.331 115.183 112.918 111.435 115.655 107.089C118.392 102.742 120.22 97.8871 121.031 92.8154H85.8273C83.7571 92.8154 81.7717 91.993 80.3078 90.5291C78.844 89.0653 78.0216 87.0799 78.0216 85.0097V71.6618C78.0216 69.5916 78.844 67.6062 80.3078 66.1423C81.7717 64.6785 83.7571 63.8561 85.8273 63.8561H144.761C146.682 63.8445 148.539 64.5501 149.968 65.8348C151.397 67.1196 152.296 68.8911 152.488 70.8032C152.817 73.7839 152.973 76.7811 152.957 79.7798Z" fill="#15AB89"/>
<path opacity="0.4" d="M33.5304 62.608C31.8989 67.5985 31.0562 72.813 31.0325 78.0633C31.05 83.3205 31.9199 88.54 33.6084 93.5187C36.5929 102.639 42.3004 110.626 49.9623 116.404C57.6242 122.181 66.8725 125.473 76.4619 125.834V156.043C62.2786 155.78 48.4376 151.641 36.4392 144.073C24.4407 136.505 14.7425 125.798 8.39587 113.111H8.31782C2.39502 101.336 -0.447029 88.252 0.0570712 75.0809C0.561171 61.9098 4.39498 49.0813 11.2005 37.7934C18.006 26.5055 27.5611 17.1264 38.9736 10.532C50.3862 3.93764 63.2837 0.343059 76.4619 0.0839844V30.2922C67.6289 30.6026 59.0641 33.4061 51.7571 38.3786C44.4502 43.3512 38.6995 50.2899 35.1696 58.3929C34.5451 59.7979 33.9987 61.2029 33.5304 62.608Z" fill="#15AB89"/>
</svg>
