<svg width="24" height="24" viewBox="0 0 24 24" fill="none" xmlns="http://www.w3.org/2000/svg">
<path opacity="0.4" d="M10.75 2.44987C11.1075 2.16342 11.5519 2.00732 12.01 2.00732C12.4681 2.00732 12.9125 2.16342 13.27 2.44987L14.85 3.80987C15.2112 4.09327 15.6515 4.2575 16.11 4.27987H17.81C18.3212 4.28197 18.8109 4.48599 19.1724 4.84748C19.5339 5.20897 19.7379 5.69865 19.74 6.20987V7.90787C19.7641 8.36605 19.9282 8.80582 20.21 9.16787L21.57 10.7479C21.8565 11.1054 22.0126 11.5498 22.0126 12.0079C22.0126 12.466 21.8565 12.9104 21.57 13.2679L20.21 14.8479C19.9266 15.209 19.7624 15.6493 19.74 16.1079V17.8079C19.7379 18.3191 19.5339 18.8088 19.1724 19.1703C18.8109 19.5317 18.3212 19.7358 17.81 19.7379H16.11C15.6518 19.762 15.2121 19.926 14.85 20.2079L13.27 21.5679C12.9125 21.8543 12.4681 22.0104 12.01 22.0104C11.5519 22.0104 11.1075 21.8543 10.75 21.5679L9.17001 20.2079C8.80884 19.9245 8.36856 19.7602 7.91001 19.7379H6.18001C5.6688 19.7358 5.17911 19.5317 4.81763 19.1703C4.45614 18.8088 4.25212 18.3191 4.25001 17.8079V16.0979C4.22476 15.6447 4.06456 15.2093 3.79001 14.8479L2.44001 13.2579C2.15822 12.9022 2.00488 12.4617 2.00488 12.0079C2.00488 11.5541 2.15822 11.1136 2.44001 10.7579L3.79001 9.16787C4.06456 8.80639 4.22476 8.37108 4.25001 7.91787V6.19987C4.25212 5.68865 4.45614 5.19897 4.81763 4.83748C5.17911 4.47599 5.6688 4.27197 6.18001 4.26987H7.90501C8.3632 4.24576 8.80297 4.08172 9.16501 3.79987L10.75 2.44987Z" fill="#15AB89"/>
<path d="M10.7893 15.169C10.6908 15.1689 10.5933 15.1495 10.5024 15.1117C10.4114 15.074 10.3288 15.0187 10.2593 14.949L7.84027 12.529C7.76658 12.4603 7.70748 12.3775 7.66649 12.2855C7.6255 12.1935 7.60346 12.0942 7.60168 11.9935C7.5999 11.8928 7.61843 11.7927 7.65615 11.6994C7.69387 11.606 7.75001 11.5211 7.82123 11.4499C7.89245 11.3787 7.97729 11.3226 8.07067 11.2848C8.16406 11.2471 8.26409 11.2286 8.36479 11.2304C8.4655 11.2321 8.56481 11.2542 8.65681 11.2952C8.74881 11.3362 8.83161 11.3953 8.90027 11.469L10.7903 13.359L15.0903 9.05896C15.2324 8.92648 15.4205 8.85435 15.6148 8.85778C15.8091 8.86121 15.9945 8.93992 16.1319 9.07734C16.2693 9.21475 16.348 9.40013 16.3514 9.59444C16.3549 9.78874 16.2828 9.97678 16.1503 10.119L11.3223 14.949C11.2524 15.019 11.1693 15.0745 11.0778 15.1123C10.9863 15.1501 10.8882 15.1693 10.7893 15.169Z" fill="#15AB89"/>
</svg>
