<svg width="24" height="24" viewBox="0 0 24 24" fill="none" xmlns="http://www.w3.org/2000/svg">
<path d="M5.00001 15C3.93914 15 2.92173 15.4214 2.17158 16.1716C1.42143 16.9217 1.00001 17.9391 1.00001 19C0.998583 19.7272 1.1994 20.4404 1.58001 21.06C1.93371 21.6514 2.43474 22.141 3.03416 22.4809C3.63357 22.8209 4.3109 22.9996 5.00001 22.9996C5.68911 22.9996 6.36644 22.8209 6.96586 22.4809C7.56528 22.141 8.0663 21.6514 8.42001 21.06C8.80062 20.4404 9.00143 19.7272 9.00001 19C9.00001 17.9391 8.57858 16.9217 7.82843 16.1716C7.07829 15.4214 6.06087 15 5.00001 15V15ZM6.97001 18.67L4.84001 20.64C4.70063 20.7675 4.5189 20.8388 4.33001 20.84C4.23148 20.8404 4.13388 20.8211 4.04288 20.7833C3.95188 20.7455 3.86932 20.69 3.80001 20.62L2.81001 19.63C2.67753 19.4878 2.6054 19.2998 2.60883 19.1055C2.61226 18.9112 2.69097 18.7258 2.82839 18.5884C2.9658 18.451 3.15118 18.3723 3.34549 18.3688C3.53979 18.3654 3.72783 18.4375 3.87001 18.57L4.35001 19.05L5.95001 17.57C6.02223 17.503 6.10695 17.4509 6.19931 17.4167C6.29166 17.3825 6.38986 17.3668 6.48829 17.3705C6.58672 17.3742 6.68346 17.3972 6.77297 17.4383C6.86249 17.4794 6.94303 17.5378 7.01001 17.61C7.07698 17.6822 7.12907 17.7669 7.16331 17.8593C7.19755 17.9517 7.21326 18.0499 7.20954 18.1483C7.20583 18.2467 7.18276 18.3434 7.14166 18.433C7.10056 18.5225 7.04223 18.603 6.97001 18.67Z" fill="#15AB89"/>
<path d="M17.7499 7.04996C17.5017 7.01274 17.2509 6.99602 16.9999 6.99996H6.99994C6.72881 6.9993 6.45802 7.01936 6.18994 7.05996C6.34023 6.77056 6.53606 6.5072 6.76994 6.27996L10.0199 3.01996C10.68 2.36654 11.5712 2 12.4999 2C13.4287 2 14.3199 2.36654 14.9799 3.01996L16.7299 4.78996C17.3445 5.38653 17.7091 6.19447 17.7499 7.04996Z" fill="#15AB89"/>
<path opacity="0.4" d="M22 12.0001V17.0001C22.0402 17.6672 21.9385 18.3352 21.7014 18.9601C21.4644 19.585 21.0975 20.1525 20.6249 20.625C20.1523 21.0976 19.5849 21.4645 18.96 21.7016C18.3351 21.9386 17.6671 22.0403 17 22.0001H7.62997C7.94529 21.7344 8.21252 21.4164 8.41997 21.0601C8.80058 20.4405 9.00139 19.7272 8.99997 19.0001C8.9988 18.1881 8.75054 17.3957 8.28818 16.7282C7.82582 16.0607 7.17125 15.5497 6.4115 15.2631C5.65174 14.9766 4.82276 14.9281 4.03476 15.124C3.24676 15.32 2.53705 15.7511 1.99997 16.3601V12.0001C1.91991 10.7937 2.31245 9.60353 3.0945 8.6815C3.87655 7.75947 4.98671 7.17796 6.18997 7.06008C6.45805 7.01947 6.72883 6.99941 6.99997 7.00008H17C17.2509 6.99613 17.5018 7.01286 17.75 7.05008C18.9649 7.15574 20.0901 7.73305 20.8845 8.6583C21.6789 9.58356 22.0793 10.7832 22 12.0001Z" fill="#15AB89"/>
<path d="M22 12.5H19C18.4696 12.5 17.9609 12.7107 17.5858 13.0858C17.2107 13.4609 17 13.9696 17 14.5C17 15.0304 17.2107 15.5391 17.5858 15.9142C17.9609 16.2893 18.4696 16.5 19 16.5H22" fill="#15AB89"/>
</svg>
