<svg width="16" height="16" viewBox="0 0 16 16" fill="none" xmlns="http://www.w3.org/2000/svg">
<path d="M0.0172119 9.14956C0.0172119 8.41006 0.0172119 7.66922 0.0172119 6.92973C0.1587 6.89611 0.134898 6.763 0.145476 6.67292C0.198369 6.2225 0.333245 5.79494 0.480022 5.37275C0.749774 4.59964 1.1187 3.88032 1.64366 3.22418C2.0311 3.50653 2.32465 3.92334 2.79804 3.96771C3.53324 4.03628 3.98019 4.49208 4.39936 5.03662C5.1425 6.002 5.63308 7.11258 6.18184 8.1909C6.51903 8.85511 6.8549 9.52334 7.14845 10.1055C7.60465 9.70082 8.05424 9.30284 8.5144 8.89275C7.67605 7.55359 7.00167 6.17948 6.07341 4.96536C5.65424 4.41679 5.18085 3.94485 4.48796 3.75124C3.63771 3.51326 3.08366 2.89477 2.61291 2.15796C2.84035 1.93342 3.07969 1.72637 3.37192 1.55426C3.62448 1.91998 3.8625 2.26418 4.09787 2.61107C4.48796 3.18519 4.99043 3.61948 5.67275 3.75931C6.29424 3.88569 6.70944 4.2662 7.06515 4.7583C7.41291 5.23695 7.74481 5.72502 8.0344 6.24267C8.39143 6.87863 8.75374 7.51326 9.10415 8.13309C9.49291 7.762 9.8592 7.41242 10.2466 7.04267C9.723 6.23595 9.22713 5.4467 8.70482 4.67763C8.24729 4.00401 7.62845 3.54149 6.843 3.31964C6.48333 3.21746 6.18448 3.00099 5.93853 2.72401C5.43077 2.15527 5.05391 1.49107 4.61225 0.859139C4.8701 0.674937 5.13324 0.58082 5.43209 0.525693C5.77589 1.05544 6.11572 1.58519 6.46085 2.1109C6.84035 2.68771 7.32564 3.16502 7.9987 3.3183C8.6625 3.46889 9.1068 3.86821 9.47969 4.39124C9.93986 5.04065 10.3842 5.70082 10.8523 6.38116C11.2013 6.01006 11.528 5.66317 11.8585 5.31225C11.4764 4.80267 11.1075 4.32401 10.7544 3.83595C10.4278 3.38418 9.98746 3.13141 9.45986 3.02788C9.18349 2.9741 8.93093 2.86788 8.72597 2.68099C7.94184 1.96435 7.44994 1.03662 6.95804 0.108887C7.29655 0.108887 7.63506 0.108887 7.97225 0.108887C8.05424 0.188214 8.15209 0.256786 8.21688 0.349559C8.59242 0.887374 8.98779 1.41443 9.32498 1.97779C9.62515 2.47931 10.0747 2.80065 10.5891 2.89342C11.323 3.02788 11.7303 3.51998 12.1561 4.03359C12.2962 4.20166 12.4324 4.37242 12.5818 4.55796C12.8714 4.22855 13.1861 3.97712 13.399 3.65309C13.0116 2.9983 12.4694 2.63527 11.7554 2.52771C11.5055 2.49006 11.2688 2.39326 11.126 2.17006C10.7848 1.63628 10.4595 1.09174 10.0919 0.490735C10.2189 0.518971 10.2678 0.524349 10.3141 0.540483C12.6718 1.39426 14.2784 3.01847 15.1656 5.39561C15.3719 5.94821 15.3984 6.5425 15.6166 7.08838C15.6166 7.16771 15.6166 7.24704 15.6166 7.32637C15.5081 7.40569 15.5293 7.48502 15.6166 7.56435C15.6166 7.88166 15.6166 8.19897 15.6166 8.51628C15.5266 8.59561 15.5108 8.67494 15.6166 8.75427C15.6166 8.88603 15.6166 9.0178 15.6166 9.14956C15.4526 9.21006 15.4936 9.36738 15.4737 9.48435C14.9382 12.5781 12.5554 15.1112 9.4387 15.7996C9.23242 15.8454 9.00366 15.8037 8.83043 15.9704C8.10184 15.9704 7.37457 15.9704 6.64597 15.9704C6.5111 15.7284 6.25853 15.8279 6.06283 15.7728C2.84432 14.8665 0.847625 12.7879 0.152088 9.4467C0.130931 9.34317 0.167956 9.19796 0.0172119 9.14956Z" fill="#288C3F"/>
<path d="M15.9061 7.70271C15.8175 7.62204 15.7977 7.54137 15.9061 7.46069C15.9061 7.54137 15.9061 7.62204 15.9061 7.70271Z" fill="#288C3F"/>
<path d="M15.9062 8.91438C15.7991 8.83371 15.8163 8.75304 15.9062 8.67236C15.9062 8.75304 15.9062 8.83371 15.9062 8.91438Z" fill="#288C3F"/>
</svg>
