<svg width="387" height="106" viewBox="0 0 387 106" fill="none" xmlns="http://www.w3.org/2000/svg">
<mask id="mask0_263_2" style="mask-type:alpha" maskUnits="userSpaceOnUse" x="243" y="0" width="144" height="105">
<rect x="243.624" y="0.692383" width="143.376" height="104.308" fill="#C4C4C4"/>
</mask>
<g mask="url(#mask0_263_2)">
<path d="M327.324 154.592L245.625 98.6491L301.854 90.3521L327.324 154.592Z" stroke="#15AB89" stroke-opacity="0.1" stroke-width="2" stroke-linecap="round" stroke-linejoin="round"/>
<path d="M360.305 108.207L377.937 68.8801L410.008 143.981L388.273 124.786L360.305 108.207Z" stroke="#15AB89" stroke-opacity="0.1" stroke-width="2" stroke-linecap="round" stroke-linejoin="round"/>
<path d="M269.856 148.851L314.59 122.473L284.167 104.422L245.625 98.6496L269.856 148.851ZM269.856 148.851L327.324 154.593L343.808 70.9653L377.937 68.8805L336.382 1.64038L259.484 28.1513L284.167 104.422L306.548 45.421L336.382 1.64038" stroke="#15AB89" stroke-opacity="0.1" stroke-width="2" stroke-linecap="round" stroke-linejoin="round"/>
<path d="M358.54 23.3098L249.635 69.6256L320.169 81.9171L358.54 23.3098Z" stroke="#15AB89" stroke-opacity="0.1" stroke-width="2" stroke-linecap="round" stroke-linejoin="round"/>
<path d="M245.701 98.586L249.635 69.6255L280.628 93.484" stroke="#15AB89" stroke-opacity="0.1" stroke-width="2" stroke-linecap="round" stroke-linejoin="round"/>
<path d="M420.041 38.2233L358.835 37.9704L393.99 6.2666L420.041 38.2233Z" stroke="#15AB89" stroke-opacity="0.1" stroke-width="2" stroke-linecap="round" stroke-linejoin="round"/>
<path d="M378.015 68.8169L432.344 90.1047L391.101 55.0584L358.835 37.9705" stroke="#15AB89" stroke-opacity="0.1" stroke-width="2" stroke-linecap="round" stroke-linejoin="round"/>
<path d="M335.062 115.334L380.913 138.363L410.086 143.92L415.241 75.5732L420.041 38.2234L336.382 1.64014L326.408 37.104L301.854 90.3524L343.808 70.965L336.382 1.64014" stroke="#15AB89" stroke-opacity="0.1" stroke-width="2" stroke-linecap="round" stroke-linejoin="round"/>
<path d="M301.932 90.2905L339.19 94.3942L359.479 70.0076L391.101 55.0584L420.041 38.2234" stroke="#15AB89" stroke-opacity="0.1" stroke-width="2" stroke-linecap="round" stroke-linejoin="round"/>
<path d="M360.313 108.075L387.65 148.269L409.938 143.912L432.344 90.1047" stroke="#15AB89" stroke-opacity="0.1" stroke-width="2" stroke-linecap="round" stroke-linejoin="round"/>
<path d="M358.532 23.3229L393.99 6.2666" stroke="#15AB89" stroke-opacity="0.1" stroke-width="2" stroke-linecap="round" stroke-linejoin="round"/>
<path d="M360.589 128.155L327.393 154.661L361.382 174.389L360.248 108.207L320.169 81.917L361.382 174.389L387.65 148.269" stroke="#15AB89" stroke-opacity="0.1" stroke-width="2" stroke-linecap="round" stroke-linejoin="round"/>
<path d="M269.932 148.788L301.777 90.4141L361.382 174.389" stroke="#15AB89" stroke-opacity="0.1" stroke-width="2" stroke-linecap="round" stroke-linejoin="round"/>
<path d="M326.444 37.0696L341.515 49.5599L312.148 68.215L249.635 69.6255L299.586 14.3252L358.54 23.3097L360.248 108.207L392.091 117.743L361.382 174.389" stroke="#15AB89" stroke-opacity="0.1" stroke-width="2" stroke-linecap="round" stroke-linejoin="round"/>
<path d="M284.236 104.49L299.586 14.3252L306.548 45.4206" stroke="#15AB89" stroke-opacity="0.1" stroke-width="2" stroke-linecap="round" stroke-linejoin="round"/>
<path d="M360.248 108.206L377.873 97.6115L411.778 81.8826" stroke="#15AB89" stroke-opacity="0.1" stroke-width="2"/>
</g>
<mask id="mask1_263_2" style="mask-type:alpha" maskUnits="userSpaceOnUse" x="0" y="0" width="144" height="106">
<rect width="143.376" height="104.308" transform="matrix(-1 0 0 1 143.376 0.822998)" fill="#C4C4C4"/>
</mask>
<g mask="url(#mask1_263_2)">
<path d="M59.6764 154.723L141.375 98.7799L85.1461 90.4829L59.6764 154.723Z" stroke="#15AB89" stroke-opacity="0.1" stroke-width="2" stroke-linecap="round" stroke-linejoin="round"/>
<path d="M26.6948 108.338L9.06342 69.011L-23.0074 144.112L-1.27299 124.917L26.6948 108.338Z" stroke="#15AB89" stroke-opacity="0.1" stroke-width="2" stroke-linecap="round" stroke-linejoin="round"/>
<path d="M117.144 148.981L72.4104 122.603L102.833 104.552L141.375 98.78L117.144 148.981ZM117.144 148.981L59.6763 154.723L43.1921 71.0956L9.06319 69.0108L50.6185 1.77075L127.516 28.2817L102.833 104.552L80.4524 45.5514L50.6185 1.77075" stroke="#15AB89" stroke-opacity="0.1" stroke-width="2" stroke-linecap="round" stroke-linejoin="round"/>
<path d="M28.4606 23.4404L137.366 69.7562L66.8312 82.0477L28.4606 23.4404Z" stroke="#15AB89" stroke-opacity="0.1" stroke-width="2" stroke-linecap="round" stroke-linejoin="round"/>
<path d="M141.299 98.7169L137.366 69.7563L106.373 93.6149" stroke="#15AB89" stroke-opacity="0.1" stroke-width="2" stroke-linecap="round" stroke-linejoin="round"/>
<path d="M-33.0411 38.3539L28.1653 38.1011L-6.98973 6.39722L-33.0411 38.3539Z" stroke="#15AB89" stroke-opacity="0.1" stroke-width="2" stroke-linecap="round" stroke-linejoin="round"/>
<path d="M8.98514 68.9478L-45.3441 90.2356L-4.10035 55.1892L28.1653 38.1013" stroke="#15AB89" stroke-opacity="0.1" stroke-width="2" stroke-linecap="round" stroke-linejoin="round"/>
<path d="M51.9386 115.465L6.08699 138.494L-23.0856 144.05L-28.2412 75.7038L-33.0411 38.354L50.6187 1.77075L60.5919 37.2346L85.1462 90.483L43.1923 71.0956L50.6187 1.77075" stroke="#15AB89" stroke-opacity="0.1" stroke-width="2" stroke-linecap="round" stroke-linejoin="round"/>
<path d="M85.0679 90.4211L47.8105 94.5248L27.5215 70.1382L-4.10041 55.1891L-33.0412 38.354" stroke="#15AB89" stroke-opacity="0.1" stroke-width="2" stroke-linecap="round" stroke-linejoin="round"/>
<path d="M26.6874 108.206L-0.649972 148.4L-22.938 144.042L-45.3441 90.2354" stroke="#15AB89" stroke-opacity="0.1" stroke-width="2" stroke-linecap="round" stroke-linejoin="round"/>
<path d="M28.468 23.4535L-6.98962 6.39722" stroke="#15AB89" stroke-opacity="0.1" stroke-width="2" stroke-linecap="round" stroke-linejoin="round"/>
<path d="M26.4113 128.286L59.6071 154.792L25.6184 174.52L26.7523 108.338L66.8312 82.0479L25.6184 174.52L-0.649994 148.4" stroke="#15AB89" stroke-opacity="0.1" stroke-width="2" stroke-linecap="round" stroke-linejoin="round"/>
<path d="M117.068 148.919L85.223 90.5449L25.6185 174.52" stroke="#15AB89" stroke-opacity="0.1" stroke-width="2" stroke-linecap="round" stroke-linejoin="round"/>
<path d="M60.5564 37.2004L45.4851 49.6907L74.8526 68.3459L137.366 69.7563L87.4139 14.4561L28.4606 23.4405L26.7523 108.337L-5.09104 117.874L25.6185 174.52" stroke="#15AB89" stroke-opacity="0.1" stroke-width="2" stroke-linecap="round" stroke-linejoin="round"/>
<path d="M102.764 104.621L87.414 14.4561L80.4526 45.5514" stroke="#15AB89" stroke-opacity="0.1" stroke-width="2" stroke-linecap="round" stroke-linejoin="round"/>
<path d="M26.7523 108.337L9.12705 97.7423L-24.7776 82.0134" stroke="#15AB89" stroke-opacity="0.1" stroke-width="2"/>
</g>
</svg>
