<svg width="16" height="16" viewBox="0 0 16 16" fill="none" xmlns="http://www.w3.org/2000/svg">
<path d="M0.0450088 8.47019C0.0297045 6.29558 -0.0120347 4.12097 0.0116175 1.94636C0.0241393 0.745665 0.729531 0.0708823 1.96084 0.0639257C5.97197 0.0430562 9.9817 0.0416649 13.9914 0.0667084C15.1977 0.0736649 15.8655 0.779056 15.892 2.00062C15.9156 3.15123 15.8739 4.30323 15.8614 5.45384C14.9709 8.07645 14.0847 8.51471 11.4871 7.41836C9.92188 6.75749 8.42623 5.93245 6.90692 5.16723C5.23318 4.32271 3.68884 4.63297 2.24327 5.68897C1.25823 6.40827 0.719791 7.49767 0.0450088 8.47019Z" fill="#552613"/>
<path d="M15.8636 7.72583C15.8747 9.81139 15.9095 11.897 15.8914 13.9825C15.8789 15.2639 15.193 15.9429 13.9004 15.9498C9.94078 15.9693 5.98113 15.9693 2.02148 15.9498C0.67191 15.9429 0.0207797 15.257 0.004084 13.8782C-0.00982905 12.7721 0.0249536 11.666 0.0374753 10.5599C0.88478 8.12931 1.87121 7.67435 4.27261 8.60653C4.47017 8.68305 4.66356 8.77348 4.85556 8.86531C6.34982 9.58044 7.82321 10.3443 9.34252 11.001C11.1136 11.7662 12.6455 11.193 14.0493 10.009C14.8145 9.36479 15.1888 8.43122 15.8636 7.72583Z" fill="#552613"/>
</svg>
