<svg width="24" height="24" viewBox="0 0 24 24" fill="none" xmlns="http://www.w3.org/2000/svg">
<path opacity="0.4" d="M8.67 14H4C3.47005 14.0016 2.96227 14.2128 2.58753 14.5875C2.2128 14.9623 2.00158 15.4701 2 16L2 22H8.67V14Z" fill="#15AB89"/>
<path d="M13.33 10H10.66C10.1301 10.0016 9.6223 10.2128 9.24757 10.5875C8.87284 10.9623 8.66162 11.4701 8.66003 12V22H15.33V12C15.33 11.4696 15.1193 10.9609 14.7442 10.5858C14.3692 10.2107 13.8605 10 13.33 10V10Z" fill="#15AB89"/>
<path opacity="0.4" d="M20 17H15.33V22H22V19C21.9984 18.4701 21.7872 17.9623 21.4124 17.5875C21.0377 17.2128 20.5299 17.0016 20 17V17Z" fill="#15AB89"/>
<path d="M15.01 4.84986C15.1517 4.72965 15.2575 4.5727 15.3157 4.39627C15.3739 4.21984 15.3823 4.03077 15.34 3.84986C15.2714 3.6768 15.1551 3.52673 15.0047 3.41701C14.8542 3.30729 14.6758 3.2424 14.49 3.22986L13.53 3.06986C13.4705 3.04848 13.4183 3.01027 13.38 2.95986L12.85 1.89986C12.7884 1.72219 12.6729 1.56814 12.5197 1.45911C12.3665 1.35009 12.1831 1.2915 11.995 1.2915C11.807 1.2915 11.6236 1.35009 11.4704 1.45911C11.3171 1.56814 11.2017 1.72219 11.14 1.89986L10.61 2.95986C10.5718 3.01027 10.5196 3.04848 10.46 3.06986L9.50005 3.22986C9.31475 3.24401 9.13706 3.30952 8.98692 3.41904C8.83678 3.52855 8.72013 3.67774 8.65005 3.84986C8.60776 4.03077 8.61619 4.21984 8.67441 4.39627C8.73263 4.5727 8.83839 4.72965 8.98005 4.84986L9.72005 5.59986C9.75921 5.65547 9.78017 5.72184 9.78005 5.78986L9.57005 6.70986C9.49406 6.9016 9.47922 7.11214 9.52755 7.31264C9.57589 7.51315 9.68504 7.6938 9.84005 7.82986C10.0166 7.93683 10.2218 7.98656 10.4277 7.97224C10.6336 7.95792 10.8301 7.88024 10.99 7.74986L11.89 7.21986C11.9231 7.20501 11.9588 7.19733 11.995 7.19733C12.0312 7.19733 12.067 7.20501 12.1 7.21986L13 7.74986C13.2051 7.88589 13.4441 7.96207 13.69 7.96986C13.8507 7.96943 14.0075 7.92065 14.14 7.82986C14.31 7.70986 14.57 7.39986 14.41 6.70986L14.2 5.78986C14.1968 5.75578 14.2005 5.72141 14.2108 5.68878C14.2211 5.65614 14.2379 5.62591 14.26 5.59986L15.01 4.84986Z" fill="#15AB89"/>
</svg>
