<svg width="32" height="32" viewBox="0 0 32 32" fill="none" xmlns="http://www.w3.org/2000/svg">
<path opacity="0.4" d="M25.6533 7.43865H25.12L20.6133 2.92931C20.4373 2.75619 20.2002 2.65918 19.9533 2.65918C19.7064 2.65918 19.4694 2.75619 19.2933 2.92931C19.1202 3.10537 19.0232 3.3424 19.0232 3.58931C19.0232 3.83623 19.1202 4.07326 19.2933 4.24931L22.48 7.43598H9.51999L12.7067 4.24931C12.8798 4.07326 12.9768 3.83623 12.9768 3.58931C12.9768 3.3424 12.8798 3.10537 12.7067 2.92931C12.5306 2.75619 12.2936 2.65918 12.0467 2.65918C11.7997 2.65918 11.5627 2.75619 11.3867 2.92931L6.89332 7.43865H6.35999C5.15999 7.43865 2.66666 7.43865 2.66666 10.852C2.61645 11.3355 2.66374 11.8242 2.80573 12.2891C2.94772 12.754 3.18153 13.1857 3.49332 13.5586C3.79776 13.8668 4.18811 14.0759 4.61332 14.1586C5.00778 14.241 5.41053 14.2768 5.81332 14.2653H26.1867C26.5804 14.2714 26.9738 14.2356 27.36 14.1586C28.48 13.892 29.3333 13.092 29.3333 10.852C29.3333 7.43998 26.84 7.43865 25.6533 7.43865Z" fill="#15AB89"/>
<path d="M26.2 14.2667H5.81334C5.4098 14.2797 5.00632 14.2394 4.61334 14.1467L6.29334 24.4001C6.66668 26.6934 7.66668 29.3334 12.1067 29.3334H19.5867C24.08 29.3334 24.88 27.0801 25.36 24.5601L27.3733 14.1467C26.9885 14.2341 26.5945 14.2744 26.2 14.2667V14.2667ZM16 24.6667C14.4981 24.6636 13.0586 24.0655 11.9966 23.0035C10.9346 21.9415 10.3365 20.502 10.3333 19.0001C10.3333 18.7348 10.4387 18.4805 10.6262 18.293C10.8138 18.1054 11.0681 18.0001 11.3333 18.0001C11.5986 18.0001 11.8529 18.1054 12.0404 18.293C12.228 18.4805 12.3333 18.7348 12.3333 19.0001C12.3333 19.9725 12.7196 20.9052 13.4073 21.5928C14.0949 22.2804 15.0275 22.6667 16 22.6667C16.9725 22.6667 17.9051 22.2804 18.5927 21.5928C19.2804 20.9052 19.6667 19.9725 19.6667 19.0001C19.6667 18.7348 19.772 18.4805 19.9596 18.293C20.1471 18.1054 20.4015 18.0001 20.6667 18.0001C20.9319 18.0001 21.1862 18.1054 21.3738 18.293C21.5613 18.4805 21.6667 18.7348 21.6667 19.0001C21.6635 20.502 21.0655 21.9415 20.0034 23.0035C18.9414 24.0655 17.5019 24.6636 16 24.6667V24.6667Z" fill="#15AB89"/>
</svg>
