<svg width="32" height="32" viewBox="0 0 32 32" fill="none" xmlns="http://www.w3.org/2000/svg">
<path opacity="0.4" d="M21.5867 2.66663H10.4134C5.56002 2.66663 2.66669 5.55996 2.66669 10.4133V21.5733C2.66669 26.44 5.56002 29.3333 10.4134 29.3333H21.5734C26.4267 29.3333 29.32 26.44 29.32 21.5866V10.4133C29.3334 5.55996 26.44 2.66663 21.5867 2.66663Z" fill="#15AB89"/>
<path d="M14 11.7467H8C7.73532 11.745 7.48198 11.639 7.29482 11.4519C7.10766 11.2647 7.00175 11.0114 7 10.7467C7.00175 10.482 7.10766 10.2287 7.29482 10.0415C7.48198 9.85437 7.73532 9.74845 8 9.7467H14C14.2647 9.74845 14.518 9.85437 14.7052 10.0415C14.8923 10.2287 14.9983 10.482 15 10.7467C14.9983 11.0114 14.8923 11.2647 14.7052 11.4519C14.518 11.639 14.2647 11.745 14 11.7467V11.7467Z" fill="#15AB89"/>
<path d="M24 19.7467H18C17.7353 19.745 17.482 19.639 17.2948 19.4519C17.1077 19.2647 17.0017 19.0114 17 18.7467C17.0017 18.482 17.1077 18.2287 17.2948 18.0415C17.482 17.8544 17.7353 17.7485 18 17.7467H24C24.2647 17.7485 24.518 17.8544 24.7052 18.0415C24.8923 18.2287 24.9983 18.482 25 18.7467C24.9983 19.0114 24.8923 19.2647 24.7052 19.4519C24.518 19.639 24.2647 19.745 24 19.7467V19.7467Z" fill="#15AB89"/>
<path d="M24 24.7467H18C17.7353 24.745 17.482 24.639 17.2948 24.4519C17.1077 24.2647 17.0017 24.0114 17 23.7467C17.0017 23.482 17.1077 23.2287 17.2948 23.0415C17.482 22.8544 17.7353 22.7485 18 22.7467H24C24.2647 22.7485 24.518 22.8544 24.7052 23.0415C24.8923 23.2287 24.9983 23.482 25 23.7467C24.9983 24.0114 24.8923 24.2647 24.7052 24.4519C24.518 24.639 24.2647 24.745 24 24.7467V24.7467Z" fill="#15AB89"/>
<path d="M24 9.7467H22.0267V7.7467C22.0267 7.48149 21.9213 7.22713 21.7338 7.0396C21.5462 6.85206 21.2919 6.7467 21.0267 6.7467C20.7615 6.7467 20.5071 6.85206 20.3196 7.0396C20.132 7.22713 20.0267 7.48149 20.0267 7.7467V9.7467H18C17.7348 9.7467 17.4804 9.85206 17.2929 10.0396C17.1054 10.2271 17 10.4815 17 10.7467C17 11.0119 17.1054 11.2663 17.2929 11.4538C17.4804 11.6413 17.7348 11.7467 18 11.7467H20.0267V13.7467C20.0267 14.0119 20.132 14.2663 20.3196 14.4538C20.5071 14.6413 20.7615 14.7467 21.0267 14.7467C21.2919 14.7467 21.5462 14.6413 21.7338 14.4538C21.9213 14.2663 22.0267 14.0119 22.0267 13.7467V11.7467H24C24.2652 11.7467 24.5196 11.6413 24.7071 11.4538C24.8946 11.2663 25 11.0119 25 10.7467C25 10.4815 24.8946 10.2271 24.7071 10.0396C24.5196 9.85206 24.2652 9.7467 24 9.7467Z" fill="#15AB89"/>
<path d="M12.4147 21.2574L14.708 18.9641C14.8958 18.7766 15.0014 18.5223 15.0017 18.257C15.0019 17.9917 14.8968 17.7372 14.7093 17.5494C14.5219 17.3616 14.2676 17.256 14.0023 17.2557C13.737 17.2555 13.4824 17.3606 13.2947 17.5481L11.004 19.8414L8.708 17.5481C8.51843 17.3714 8.2677 17.2753 8.00863 17.2798C7.74957 17.2844 7.50238 17.3893 7.31917 17.5726C7.13595 17.7558 7.031 18.003 7.02643 18.262C7.02186 18.5211 7.11802 18.7718 7.29466 18.9614L9.588 21.2574L7.29466 23.5481C7.10869 23.7362 7.00439 23.9902 7.00439 24.2547C7.00439 24.5193 7.10869 24.7732 7.29466 24.9614C7.38733 25.0544 7.49745 25.1283 7.61872 25.1786C7.73999 25.229 7.87001 25.255 8.00133 25.255C8.13265 25.255 8.26267 25.229 8.38394 25.1786C8.50521 25.1283 8.61533 25.0544 8.708 24.9614L11.004 22.6681L13.2973 24.9614C13.39 25.0544 13.5001 25.1283 13.6214 25.1786C13.7427 25.229 13.8727 25.255 14.004 25.255C14.1353 25.255 14.2653 25.229 14.3866 25.1786C14.5079 25.1283 14.618 25.0544 14.7107 24.9614C14.8966 24.7732 15.0009 24.5193 15.0009 24.2547C15.0009 23.9902 14.8966 23.7362 14.7107 23.5481L12.4147 21.2574Z" fill="#15AB89"/>
</svg>
