<svg width="32" height="32" viewBox="0 0 32 32" fill="none" xmlns="http://www.w3.org/2000/svg">
<path opacity="0.4" d="M25.4666 27.0666C25.2194 27.0616 24.9825 26.9668 24.8 26.7999C24.6078 26.6042 24.5001 26.3409 24.5001 26.0666C24.5001 25.7923 24.6078 25.529 24.8 25.3333C25.9237 24.1908 26.809 22.8362 27.4041 21.3483C27.9993 19.8604 28.2925 18.2689 28.2666 16.6666C28.2666 13.4133 26.9743 10.2932 24.6738 7.99276C22.3734 5.69231 19.2533 4.39994 16 4.39994C12.7467 4.39994 9.62659 5.69231 7.32614 7.99276C5.02569 10.2932 3.73331 13.4133 3.73331 16.6666C3.73084 19.8939 4.97247 22.998 7.19998 25.3333C7.29974 25.4288 7.37941 25.5433 7.43433 25.67C7.48925 25.7967 7.51831 25.9331 7.51981 26.0713C7.52131 26.2094 7.49521 26.3464 7.44304 26.4743C7.39088 26.6021 7.3137 26.7183 7.21604 26.816C7.11838 26.9137 7.0022 26.9908 6.87431 27.043C6.74642 27.0952 6.60941 27.1213 6.4713 27.1198C6.33319 27.1183 6.19677 27.0892 6.07005 27.0343C5.94332 26.9794 5.82884 26.8997 5.73331 26.7999C4.4213 25.4863 3.38096 23.927 2.67175 22.2112C1.96254 20.4953 1.59835 18.6566 1.59998 16.7999C1.60156 12.969 3.11499 9.29344 5.81138 6.57208C8.50776 3.85073 12.1692 2.30349 16 2.2666C19.817 2.2733 23.4758 3.79259 26.1749 6.49166C28.874 9.19074 30.3933 12.8495 30.4 16.6666C30.4016 18.5232 30.0374 20.362 29.3282 22.0778C28.619 23.7937 27.5787 25.3529 26.2666 26.6666C26.1667 26.7832 26.0444 26.8787 25.9071 26.9474C25.7697 27.0161 25.6199 27.0566 25.4666 27.0666Z" fill="#15AB89"/>
<path d="M21.2 24.1333C21.2 25.1618 20.895 26.1672 20.3236 27.0223C19.7522 27.8774 18.9401 28.5439 17.9899 28.9375C17.0398 29.3311 15.9942 29.4341 14.9855 29.2334C13.9768 29.0328 13.0503 28.5375 12.323 27.8103C11.5958 27.0831 11.1005 26.1565 10.8999 25.1478C10.6993 24.1391 10.8022 23.0936 11.1958 22.1434C11.5894 21.1932 12.2559 20.3811 13.111 19.8097C13.9662 19.2383 14.9715 18.9333 16 18.9333C17.3791 18.9333 18.7018 19.4812 19.6769 20.4564C20.6521 21.4316 21.2 22.7542 21.2 24.1333Z" fill="#15AB89"/>
<path d="M21.3334 11.3334C20.6268 11.3355 19.9497 11.6171 19.4501 12.1168C18.9504 12.6164 18.6688 13.2934 18.6667 14V15.0667C18.6722 15.4893 18.8426 15.8931 19.1414 16.192C19.4403 16.4908 19.8441 16.6612 20.2667 16.6667H21.3334C22.0406 16.6667 22.7189 16.3858 23.219 15.8857C23.7191 15.3856 24 14.7073 24 14C24 13.2928 23.7191 12.6145 23.219 12.1144C22.7189 11.6143 22.0406 11.3334 21.3334 11.3334V11.3334Z" fill="#15AB89"/>
</svg>
