<svg width="32" height="32" viewBox="0 0 32 32" fill="none" xmlns="http://www.w3.org/2000/svg">
<path opacity="0.4" d="M27.3333 13.5868H23.48C21.9601 13.5847 20.503 12.9799 19.4283 11.9052C18.3535 10.8304 17.7488 9.37337 17.7467 7.85344V4.00011C17.7467 3.64649 17.6062 3.30735 17.3562 3.0573C17.1061 2.80725 16.767 2.66678 16.4133 2.66678H10.76C9.76989 2.61009 8.77896 2.76336 7.85223 3.11653C6.9255 3.4697 6.08391 4.0148 5.38264 4.71607C4.68137 5.41734 4.13627 6.25894 3.7831 7.18567C3.42992 8.1124 3.27666 9.10332 3.33334 10.0934V21.9068C3.27666 22.8969 3.42992 23.8878 3.7831 24.8146C4.13627 25.7413 4.68137 26.5829 5.38264 27.2842C6.08391 27.9854 6.9255 28.5305 7.85223 28.8837C8.77896 29.2369 9.76989 29.3901 10.76 29.3334H21.24C22.2301 29.3901 23.2211 29.2369 24.1478 28.8837C25.0745 28.5305 25.9161 27.9854 26.6174 27.2842C27.3186 26.5829 27.8637 25.7413 28.2169 24.8146C28.5701 23.8878 28.7234 22.8969 28.6667 21.9068V14.9201C28.6667 14.5665 28.5262 14.2274 28.2761 13.9773C28.0261 13.7273 27.687 13.5868 27.3333 13.5868Z" fill="#15AB89"/>
<path d="M21.0666 2.94681C20.9467 2.82492 20.7937 2.74096 20.6265 2.70538C20.4592 2.66979 20.2852 2.68415 20.1261 2.74666C19.967 2.80918 19.8297 2.91709 19.7314 3.05699C19.6332 3.19688 19.5782 3.36258 19.5733 3.53348V8.18681C19.5929 9.14335 19.9889 10.0536 20.6753 10.72C21.3617 11.3865 22.2833 11.7554 23.24 11.7468C24.5066 11.7601 26.2666 11.7601 27.7733 11.7601C27.9405 11.7646 28.1052 11.7192 28.2464 11.6297C28.3876 11.5402 28.499 11.4106 28.5662 11.2575C28.6335 11.1044 28.6536 10.9347 28.624 10.7701C28.5943 10.6056 28.5164 10.4535 28.4 10.3335C26.48 8.40015 23.04 4.92015 21.0666 2.94681Z" fill="#15AB89"/>
<path d="M18 18.3333H10C9.73532 18.3315 9.48198 18.2256 9.29482 18.0384C9.10766 17.8513 9.00175 17.5979 9 17.3333C9.00175 17.0686 9.10766 16.8152 9.29482 16.6281C9.48198 16.4409 9.73532 16.335 10 16.3333H18C18.2647 16.335 18.518 16.4409 18.7052 16.6281C18.8923 16.8152 18.9983 17.0686 19 17.3333C18.9983 17.5979 18.8923 17.8513 18.7052 18.0384C18.518 18.2256 18.2647 18.3315 18 18.3333V18.3333Z" fill="#15AB89"/>
<path d="M15.3333 23.6667H10C9.73532 23.665 9.48198 23.5591 9.29482 23.3719C9.10766 23.1848 9.00175 22.9314 9 22.6667C9.00175 22.4021 9.10766 22.1487 9.29482 21.9616C9.48198 21.7744 9.73532 21.6685 10 21.6667H15.3333C15.598 21.6685 15.8514 21.7744 16.0385 21.9616C16.2257 22.1487 16.3316 22.4021 16.3333 22.6667C16.3316 22.9314 16.2257 23.1848 16.0385 23.3719C15.8514 23.5591 15.598 23.665 15.3333 23.6667V23.6667Z" fill="#15AB89"/>
</svg>
