<svg width="32" height="32" viewBox="0 0 32 32" fill="none" xmlns="http://www.w3.org/2000/svg">
<path d="M27.53 16.05C27.3889 15.9106 27.1984 15.8323 27 15.8323C26.8016 15.8323 26.6111 15.9106 26.47 16.05L26.01 16.51V16C26.0103 13.9265 25.3667 11.9041 24.1679 10.2122C22.9692 8.52031 21.2746 7.24246 19.3183 6.55523C17.362 5.868 15.2406 5.80531 13.2471 6.37582C11.2536 6.94633 9.48654 8.12188 8.19001 9.74004C8.12775 9.81636 8.0814 9.90436 8.05369 9.99887C8.02597 10.0934 8.01745 10.1925 8.02864 10.2903C8.03982 10.3882 8.07048 10.4828 8.1188 10.5686C8.16712 10.6545 8.23214 10.7297 8.31001 10.79C8.38633 10.8523 8.47433 10.8986 8.56884 10.9264C8.66335 10.9541 8.76245 10.9626 8.86031 10.9514C8.95816 10.9402 9.05279 10.9096 9.13861 10.8612C9.22443 10.8129 9.29971 10.7479 9.36001 10.67C10.4621 9.29427 11.9642 8.29473 13.6589 7.80953C15.3535 7.32432 17.157 7.3774 18.8202 7.96144C20.4834 8.54547 21.9242 9.63163 22.9434 11.0698C23.9626 12.508 24.51 14.2273 24.51 15.99V16.49L24.05 16.03C23.9813 15.9564 23.8985 15.8973 23.8065 15.8563C23.7145 15.8153 23.6152 15.7932 23.5145 15.7914C23.4138 15.7897 23.3138 15.8082 23.2204 15.8459C23.127 15.8836 23.0422 15.9398 22.971 16.011C22.8997 16.0822 22.8436 16.1671 22.8059 16.2604C22.7682 16.3538 22.7496 16.4539 22.7514 16.5546C22.7532 16.6553 22.7752 16.7546 22.8162 16.8466C22.8572 16.9386 22.9163 17.0214 22.99 17.09L24.73 18.83C24.7993 18.8979 24.8807 18.9522 24.97 18.99C25.0614 19.03 25.1602 19.0504 25.26 19.05C25.3597 19.0494 25.4583 19.029 25.55 18.99C25.6393 18.9522 25.7207 18.8979 25.79 18.83L27.53 17.09C27.5989 17.0221 27.6537 16.9412 27.691 16.8519C27.7284 16.7626 27.7477 16.6668 27.7477 16.57C27.7477 16.4733 27.7284 16.3775 27.691 16.2882C27.6537 16.1989 27.5989 16.118 27.53 16.05Z" fill="#15AB89"/>
<path d="M23.69 21.1999C23.6136 21.1377 23.5256 21.0913 23.4311 21.0636C23.3366 21.0359 23.2375 21.0274 23.1397 21.0386C23.0418 21.0497 22.9472 21.0804 22.8614 21.1287C22.7755 21.177 22.7003 21.2421 22.64 21.3199C21.8445 22.317 20.8343 23.1217 19.6846 23.674C18.5349 24.2263 17.2754 24.5121 16 24.5099C13.744 24.5065 11.5815 23.6088 9.98627 22.0136C8.39108 20.4184 7.49339 18.2559 7.48995 15.9999V15.4999L7.94995 15.9599C8.01945 16.0297 8.10205 16.0851 8.193 16.1229C8.28395 16.1607 8.38147 16.1801 8.47995 16.1801C8.57844 16.1801 8.67596 16.1607 8.76691 16.1229C8.85786 16.0851 8.94046 16.0297 9.00995 15.9599C9.14944 15.8188 9.22766 15.6284 9.22766 15.4299C9.22766 15.2315 9.14944 15.0411 9.00995 14.8999L7.26995 13.1599C7.20066 13.0921 7.11925 13.0378 7.02995 12.9999C6.94015 12.9604 6.84309 12.9399 6.74496 12.9399C6.64682 12.9399 6.54976 12.9604 6.45995 12.9999C6.37066 13.0378 6.28925 13.0921 6.21995 13.1599L4.48095 14.8999C4.34847 15.0421 4.27635 15.2302 4.27978 15.4245C4.28321 15.6188 4.36192 15.8041 4.49933 15.9416C4.63675 16.079 4.82213 16.1577 5.01643 16.1611C5.21073 16.1645 5.39878 16.0924 5.54095 15.9599L6.00095 15.4999V15.9999C6.00387 18.6539 7.05942 21.1982 8.93603 23.0749C10.8126 24.9515 13.357 26.007 16.011 26.0099C17.5109 26.0122 18.9921 25.6763 20.3443 25.027C21.6965 24.3777 22.8848 23.4319 23.821 22.2599C23.9427 22.1014 23.9972 21.9014 23.9726 21.7031C23.9481 21.5048 23.8466 21.324 23.69 21.1999Z" fill="#15AB89"/>
<path d="M19.45 15.64C19.7271 15.2297 19.8735 14.7451 19.87 14.25C19.8528 13.5924 19.5839 12.9664 19.1187 12.5013C18.6536 12.0361 18.0276 11.7672 17.37 11.75H16.55V10.75C16.55 10.6515 16.5306 10.554 16.4929 10.463C16.4552 10.372 16.4 10.2893 16.3303 10.2197C16.2607 10.15 16.178 10.0948 16.087 10.0571C15.996 10.0194 15.8985 10 15.8 10C15.7015 10 15.604 10.0194 15.513 10.0571C15.422 10.0948 15.3393 10.15 15.2697 10.2197C15.2 10.2893 15.1448 10.372 15.1071 10.463C15.0694 10.554 15.05 10.6515 15.05 10.75V11.75H13C12.8015 11.7513 12.6115 11.8307 12.4711 11.9711C12.3307 12.1115 12.2513 12.3015 12.25 12.5V19.5C12.2513 19.6985 12.3307 19.8885 12.4711 20.0289C12.6115 20.1693 12.8015 20.2487 13 20.25H15.05V21.25C15.05 21.3485 15.0694 21.446 15.1071 21.537C15.1448 21.628 15.2 21.7107 15.2697 21.7803C15.3393 21.85 15.422 21.9052 15.513 21.9429C15.604 21.9806 15.7015 22 15.8 22C15.8985 22 15.996 21.9806 16.087 21.9429C16.178 21.9052 16.2607 21.85 16.3303 21.7803C16.4 21.7107 16.4552 21.628 16.4929 21.537C16.5306 21.446 16.55 21.3485 16.55 21.25V20.25H18C18.6958 20.2815 19.3757 20.0362 19.8911 19.5677C20.4065 19.0992 20.7153 18.4456 20.75 17.75C20.7412 17.3143 20.616 16.8889 20.3874 16.5179C20.1588 16.1469 19.8352 15.8438 19.45 15.64ZM13.75 13.25H17.37C17.6295 13.2673 17.8739 13.3783 18.0578 13.5622C18.2417 13.7461 18.3527 13.9905 18.37 14.25C18.37 14.5152 18.2646 14.7696 18.0771 14.9571C17.8896 15.1446 17.6352 15.25 17.37 15.25H13.75V13.25ZM18 18.75H13.75V16.75H18C18.2975 16.7211 18.5946 16.8094 18.828 16.9962C19.0615 17.1829 19.2129 17.4534 19.25 17.75C19.2129 18.0466 19.0615 18.3171 18.828 18.5038C18.5946 18.6906 18.2975 18.7789 18 18.75Z" fill="#15AB89"/>
<path opacity="0.4" d="M22.7153 0H9.30063C3.47373 0 0 3.472 0 9.296V22.688C0 28.528 3.47373 32 9.30063 32H22.6993C28.5262 32 31.9999 28.528 31.9999 22.704V9.296C32.016 3.472 28.5422 0 22.7153 0Z" fill="#15AB89"/>
</svg>
