
<svg width="24" height="24" viewBox="0 0 24 24" fill="none" xmlns="http://www.w3.org/2000/svg">
<path opacity="0.4" d="M9.00001 7.19997V16.79C8.94355 17.4876 9.03923 18.1892 9.28045 18.8463C9.52166 19.5033 9.90266 20.1002 10.3971 20.5956C10.8916 21.091 11.4877 21.4731 12.1443 21.7156C12.8008 21.9581 13.5023 22.0551 14.2 22H16.79C17.487 22.0554 18.1877 21.959 18.8437 21.7172C19.4998 21.4755 20.0956 21.0943 20.59 20.5999C21.0844 20.1055 21.4656 19.5098 21.7073 18.8537C21.949 18.1976 22.0455 17.4969 21.99 16.8V7.19997C22.0475 6.5034 21.9528 5.80265 21.7125 5.14632C21.4722 4.49 21.0919 3.89381 20.5982 3.39911C20.1044 2.90441 19.509 2.52303 18.8531 2.28143C18.1973 2.03983 17.4967 1.94379 16.8 1.99997H14.2C13.503 1.94452 12.8023 2.04098 12.1463 2.28269C11.4902 2.52441 10.8944 2.90562 10.4 3.40001C9.90566 3.8944 9.52445 4.49018 9.28274 5.14624C9.04102 5.8023 8.94456 6.503 9.00001 7.19997Z" fill="#15AB89"/>
<path d="M12.43 8.1199L15.78 11.4699C15.9195 11.611 15.9977 11.8015 15.9977 11.9999C15.9977 12.1983 15.9195 12.3888 15.78 12.5299L12.43 15.8799C12.2878 16.0124 12.0998 16.0845 11.9055 16.0811C11.7112 16.0776 11.5258 15.9989 11.3884 15.8615C11.251 15.7241 11.1723 15.5387 11.1688 15.3444C11.1654 15.1501 11.2375 14.9621 11.37 14.8199L13.44 12.7499H2.75C2.55109 12.7499 2.36032 12.6709 2.21967 12.5302C2.07902 12.3896 2 12.1988 2 11.9999C2 11.801 2.07902 11.6102 2.21967 11.4696C2.36032 11.3289 2.55109 11.2499 2.75 11.2499H13.44L11.37 9.1799C11.3002 9.1104 11.2448 9.0278 11.2071 8.93685C11.1693 8.8459 11.1498 8.74838 11.1498 8.6499C11.1498 8.55141 11.1693 8.45389 11.2071 8.36294C11.2448 8.27199 11.3002 8.1894 11.37 8.1199C11.4387 8.04877 11.5211 7.9922 11.6121 7.95356C11.7032 7.91493 11.8011 7.89502 11.9 7.89502C11.9989 7.89502 12.0968 7.91493 12.1879 7.95356C12.2789 7.9922 12.3613 8.04877 12.43 8.1199Z" fill="#15AB89"/>
</svg>
