<svg width="32" height="32" viewBox="0 0 32 32" fill="none" xmlns="http://www.w3.org/2000/svg">
<path d="M28.5067 15.2692L22.5067 11.8026C22.3538 11.7173 22.1817 11.6726 22.0067 11.6726C21.8317 11.6726 21.6596 11.7173 21.5067 11.8026L15.5067 15.2692C15.5067 15.2728 15.5053 15.2762 15.5028 15.2787C15.5003 15.2812 15.4969 15.2826 15.4934 15.2826L10 18.4559L5.00003 15.5599V9.77191L10 6.87857L15 9.77191V11.2919C15 11.5571 15.1054 11.8115 15.2929 11.999C15.4805 12.1865 15.7348 12.2919 16 12.2919C16.2652 12.2919 16.5196 12.1865 16.7071 11.999C16.8947 11.8115 17 11.5571 17 11.2919V9.19991C17.002 9.0231 16.9559 8.84908 16.8667 8.69644C16.7774 8.54379 16.6484 8.41825 16.4934 8.33324L10.4934 4.86924C10.3405 4.784 10.1684 4.73926 9.99336 4.73926C9.81834 4.73926 9.64622 4.784 9.49336 4.86924L3.49336 8.33591C3.34019 8.42309 3.2127 8.54911 3.12375 8.70126C3.0348 8.85342 2.98753 9.02633 2.98669 9.20257V16.1359C2.98472 16.3127 3.03082 16.4867 3.12006 16.6394C3.20929 16.792 3.33832 16.9176 3.49336 17.0026L9.49336 20.4692C9.64792 20.5566 9.82247 20.6026 10 20.6026C10.1776 20.6026 10.3521 20.5566 10.5067 20.4692L16.5067 17.0026C16.5067 16.999 16.5081 16.9956 16.5106 16.9931C16.5131 16.9906 16.5165 16.9892 16.52 16.9892L22.0134 13.8159L27.0134 16.7092V22.4826L22.0134 25.3759L17.0134 22.4826V20.8559C17.0134 20.5907 16.908 20.3363 16.7205 20.1488C16.5329 19.9613 16.2786 19.8559 16.0134 19.8559C15.7481 19.8559 15.4938 19.9613 15.3063 20.1488C15.1187 20.3363 15.0134 20.5907 15.0134 20.8559V23.0559C15.0114 23.2327 15.0575 23.4067 15.1467 23.5594C15.236 23.712 15.365 23.8376 15.52 23.9226L21.52 27.3892C21.6746 27.4766 21.8491 27.5226 22.0267 27.5226C22.2043 27.5226 22.3788 27.4766 22.5334 27.3892L28.5334 23.9226C28.6865 23.8354 28.814 23.7094 28.903 23.5572C28.9919 23.4051 29.0392 23.2322 29.04 23.0559V16.1226C29.0238 15.9486 28.9671 15.7809 28.8745 15.6327C28.7819 15.4846 28.6559 15.3601 28.5067 15.2692V15.2692Z" fill="#15AB89"/>
<path opacity="0.4" d="M6.00001 11.1332V14.2132C5.99908 14.4481 6.06024 14.6792 6.17731 14.8829C6.29439 15.0866 6.4632 15.2557 6.66668 15.3732L9.33334 16.9065C9.53572 17.0245 9.76577 17.0866 10 17.0866C10.2343 17.0866 10.4643 17.0245 10.6667 16.9065L13.3333 15.3732C13.5368 15.2557 13.7056 15.0866 13.8227 14.8829C13.9398 14.6792 14.0009 14.4481 14 14.2132V11.1332C14.0009 10.8982 13.9398 10.6672 13.8227 10.4635C13.7056 10.2598 13.5368 10.0907 13.3333 9.97319L10.6667 8.43986C10.4643 8.32191 10.2343 8.25977 10 8.25977C9.76577 8.25977 9.53572 8.32191 9.33334 8.43986L6.66668 9.97319C6.4632 10.0907 6.29439 10.2598 6.17731 10.4635C6.06024 10.6672 5.99908 10.8982 6.00001 11.1332V11.1332Z" fill="#15AB89"/>
<path opacity="0.4" d="M18 18.0668V21.1468C17.9991 21.3817 18.0602 21.6128 18.1773 21.8165C18.2944 22.0202 18.4632 22.1893 18.6667 22.3068L21.3333 23.8401C21.5357 23.9581 21.7658 24.0202 22 24.0202C22.2343 24.0202 22.4643 23.9581 22.6667 23.8401L25.3333 22.3068C25.5368 22.1893 25.7056 22.0202 25.8227 21.8165C25.9398 21.6128 26.0009 21.3817 26 21.1468V18.0668C26.0009 17.8318 25.9398 17.6008 25.8227 17.3971C25.7056 17.1934 25.5368 17.0243 25.3333 16.9068L22.6667 15.3734C22.4643 15.2555 22.2343 15.1934 22 15.1934C21.7658 15.1934 21.5357 15.2555 21.3333 15.3734L18.6667 16.9068C18.4632 17.0243 18.2944 17.1934 18.1773 17.3971C18.0602 17.6008 17.9991 17.8318 18 18.0668V18.0668Z" fill="#15AB89"/>
</svg>
