<svg width="32" height="32" viewBox="0 0 32 32" fill="none" xmlns="http://www.w3.org/2000/svg">
<path opacity="0.4" d="M24 4.00003H8.00002C6.59094 3.99507 5.23757 4.54989 4.23745 5.54251C3.23733 6.53513 2.67233 7.88429 2.66669 9.29337L2.66669 22.7067C2.67233 24.1158 3.23733 25.4649 4.23745 26.4576C5.23757 27.4502 6.59094 28.005 8.00002 28H24C25.4091 28.005 26.7625 27.4502 27.7626 26.4576C28.7627 25.4649 29.3277 24.1158 29.3334 22.7067V9.29337C29.3277 7.88429 28.7627 6.53513 27.7626 5.54251C26.7625 4.54989 25.4091 3.99507 24 4.00003V4.00003Z" fill="#15AB89"/>
<path d="M25.3334 11.6667H18.6667C18.402 11.665 18.1487 11.5591 17.9615 11.3719C17.7744 11.1848 17.6684 10.9314 17.6667 10.6667C17.6684 10.4021 17.7744 10.1487 17.9615 9.96157C18.1487 9.77441 18.402 9.6685 18.6667 9.66675H25.3334C25.598 9.6685 25.8514 9.77441 26.0385 9.96157C26.2257 10.1487 26.3316 10.4021 26.3334 10.6667C26.3316 10.9314 26.2257 11.1848 26.0385 11.3719C25.8514 11.5591 25.598 11.665 25.3334 11.6667V11.6667Z" fill="#15AB89"/>
<path d="M25.3333 17H20C19.7353 16.9983 19.482 16.8923 19.2948 16.7052C19.1077 16.518 19.0017 16.2647 19 16C19.0017 15.7353 19.1077 15.482 19.2948 15.2948C19.482 15.1077 19.7353 15.0017 20 15H25.3333C25.598 15.0017 25.8514 15.1077 26.0385 15.2948C26.2257 15.482 26.3316 15.7353 26.3333 16C26.3316 16.2647 26.2257 16.518 26.0385 16.7052C25.8514 16.8923 25.598 16.9983 25.3333 17V17Z" fill="#15AB89"/>
<path d="M25.3334 22.3333H22.6667C22.402 22.3315 22.1487 22.2256 21.9615 22.0384C21.7744 21.8513 21.6684 21.5979 21.6667 21.3333C21.6684 21.0686 21.7744 20.8152 21.9615 20.6281C22.1487 20.4409 22.402 20.335 22.6667 20.3333H25.3334C25.598 20.335 25.8514 20.4409 26.0385 20.6281C26.2257 20.8152 26.3316 21.0686 26.3334 21.3333C26.3316 21.5979 26.2257 21.8513 26.0385 22.0384C25.8514 22.2256 25.598 22.3315 25.3334 22.3333Z" fill="#15AB89"/>
<path d="M14.4134 12.6401C14.4134 13.2492 14.2327 13.8447 13.8943 14.3512C13.5558 14.8577 13.0748 15.2525 12.512 15.4856C11.9492 15.7187 11.3299 15.7797 10.7325 15.6609C10.135 15.542 9.58622 15.2487 9.15547 14.8179C8.72472 14.3872 8.43138 13.8384 8.31254 13.2409C8.1937 12.6435 8.25469 12.0242 8.48781 11.4614C8.72093 10.8986 9.1157 10.4176 9.6222 10.0791C10.1287 9.7407 10.7242 9.56006 11.3334 9.56006C12.1502 9.56006 12.9336 9.88456 13.5112 10.4622C14.0889 11.0398 14.4134 11.8232 14.4134 12.6401V12.6401Z" fill="#15AB89"/>
<path d="M12.3987 17.4814C11.6847 17.4147 10.966 17.4147 10.252 17.4814C9.16307 17.5838 8.14351 18.0613 7.36768 18.8323C6.59184 19.6032 6.10793 20.6198 5.99869 21.7081C5.98937 21.8 6.00003 21.8929 6.02995 21.9804C6.05987 22.0678 6.10833 22.1478 6.17203 22.2147C6.30008 22.3525 6.47743 22.434 6.66536 22.4414H15.9987C16.0912 22.4415 16.1827 22.4227 16.2675 22.386C16.3524 22.3493 16.4288 22.2955 16.492 22.2281C16.5531 22.1593 16.5998 22.0791 16.6296 21.9921C16.6593 21.9052 16.6715 21.8131 16.6654 21.7214C16.5558 20.6297 16.0704 19.6099 15.2921 18.8365C14.5139 18.0631 13.4911 17.5841 12.3987 17.4814V17.4814Z" fill="#15AB89"/>
</svg>
