<svg width="32" height="32" viewBox="0 0 32 32" fill="none" xmlns="http://www.w3.org/2000/svg">
<path opacity="0.4" d="M21.5867 2.66675H10.4134C5.56002 2.66675 2.66669 5.56008 2.66669 10.4134V21.5734C2.66669 26.4401 5.56002 29.3334 10.4134 29.3334H21.5734C26.4267 29.3334 29.32 26.4401 29.32 21.5867V10.4134C29.3334 5.56008 26.44 2.66675 21.5867 2.66675Z" fill="#15AB89"/>
<path d="M9.17334 25.2002C8.90866 25.1984 8.65532 25.0925 8.46816 24.9054C8.281 24.7182 8.17509 24.4649 8.17334 24.2002V21.4402C8.17509 21.1755 8.281 20.9222 8.46816 20.735C8.65532 20.5479 8.90866 20.4419 9.17334 20.4402C9.43802 20.4419 9.69136 20.5479 9.87852 20.735C10.0657 20.9222 10.1716 21.1755 10.1733 21.4402V24.2002C10.1735 24.3316 10.1478 24.4617 10.0976 24.5831C10.0474 24.7045 9.97373 24.8148 9.88084 24.9077C9.78794 25.0006 9.67764 25.0742 9.55623 25.1244C9.43483 25.1746 9.30471 25.2004 9.17334 25.2002Z" fill="#15AB89"/>
<path d="M16 25.2001C15.7353 25.1983 15.482 25.0924 15.2948 24.9053C15.1077 24.7181 15.0017 24.4648 15 24.2001V18.6667C15.0017 18.4021 15.1077 18.1487 15.2948 17.9616C15.482 17.7744 15.7353 17.6685 16 17.6667C16.2647 17.6685 16.518 17.7744 16.7052 17.9616C16.8923 18.1487 16.9983 18.4021 17 18.6667V24.2001C17.0002 24.3315 16.9744 24.4616 16.9242 24.583C16.874 24.7044 16.8004 24.8147 16.7075 24.9076C16.6146 25.0005 16.5043 25.0741 16.3829 25.1243C16.2615 25.1745 16.1314 25.2003 16 25.2001Z" fill="#15AB89"/>
<path d="M22.8267 25.2001C22.562 25.1983 22.3086 25.0924 22.1215 24.9052C21.9343 24.7181 21.8284 24.4647 21.8267 24.2001V15.9067C21.8284 15.6421 21.9343 15.3887 22.1215 15.2016C22.3086 15.0144 22.562 14.9085 22.8267 14.9067C23.0913 14.9085 23.3447 15.0144 23.5318 15.2016C23.719 15.3887 23.8249 15.6421 23.8267 15.9067V24.2001C23.8279 24.3317 23.8029 24.4623 23.7531 24.5842C23.7033 24.7061 23.6297 24.8168 23.5365 24.91C23.4434 25.0031 23.3327 25.0767 23.2108 25.1265C23.0889 25.1763 22.9583 25.2013 22.8267 25.2001Z" fill="#15AB89"/>
<path d="M23.8267 7.76005C23.8198 7.68788 23.8064 7.61647 23.7867 7.54672C23.7733 7.49338 23.76 7.42672 23.7467 7.37338C23.7333 7.32005 23.68 7.28005 23.6533 7.22672C23.6163 7.16761 23.5715 7.11379 23.52 7.06672C23.5067 7.05338 23.5067 7.04005 23.4933 7.04005C23.4533 7.01338 23.4133 7.00005 23.3733 6.97338C23.3159 6.93008 23.2532 6.89423 23.1867 6.86672C23.1214 6.84702 23.0545 6.83363 22.9867 6.82672C22.9383 6.81117 22.8881 6.8022 22.8373 6.80005H18.9333C18.6687 6.8018 18.4153 6.90771 18.2282 7.09487C18.041 7.28203 17.9351 7.53537 17.9333 7.80005C17.9351 8.06473 18.041 8.31807 18.2282 8.50522C18.4153 8.69238 18.6687 8.7983 18.9333 8.80005H20.6C17.4369 12.1328 13.3902 14.496 8.93334 15.6134C8.67598 15.6783 8.45462 15.8422 8.31732 16.0693C8.18003 16.2965 8.13787 16.5687 8.20001 16.8267C8.25332 17.0443 8.37833 17.2376 8.5549 17.3755C8.73148 17.5133 8.94932 17.5878 9.17334 17.5867C9.25394 17.5844 9.33421 17.5755 9.41334 17.56C14.1378 16.3849 18.4382 13.909 21.8267 10.4134V11.7067C21.8267 11.9719 21.932 12.2263 22.1196 12.4138C22.3071 12.6014 22.5615 12.7067 22.8267 12.7067C23.0919 12.7067 23.3462 12.6014 23.5338 12.4138C23.7213 12.2263 23.8267 11.9719 23.8267 11.7067V7.76005Z" fill="#15AB89"/>
</svg>
