<svg width="32" height="32" viewBox="0 0 32 32" fill="none" xmlns="http://www.w3.org/2000/svg">
<path opacity="0.4" d="M28.88 13.9201L27.5734 19.4934C26.4534 24.3067 24.24 26.2534 20.08 25.8534C19.3517 25.7899 18.6295 25.6695 17.92 25.4934L15.68 24.9601C10.12 23.6401 8.40002 20.8934 9.70668 15.3201L11.0133 9.73338C11.2325 8.72207 11.5635 7.73825 12 6.80005C13.5587 3.57338 16.2134 2.70672 20.6667 3.76005L22.8934 4.28005C28.48 5.58672 30.1867 8.34672 28.88 13.9201Z" fill="#15AB89"/>
<path d="M20.08 25.8534C19.1071 26.4759 18.0526 26.9605 16.9466 27.2934L14.84 27.9867C9.54663 29.6934 6.75997 28.2667 5.03997 22.9734L3.3333 17.7067C1.62663 12.4134 3.03997 9.61338 8.3333 7.90672L10.44 7.21338C10.9513 7.04492 11.4723 6.9069 12 6.80005C11.5634 7.73825 11.2325 8.72207 11.0133 9.73338L9.70663 15.32C8.39997 20.8934 10.12 23.64 15.68 24.96L17.92 25.4934C18.6295 25.6695 19.3517 25.7899 20.08 25.8534Z" fill="#15AB89"/>
<path d="M23.316 14.0134C23.231 14.0105 23.1464 14.0015 23.0626 13.9868L16.6 12.3468C16.473 12.3144 16.3537 12.2573 16.2488 12.1788C16.1439 12.1003 16.0555 12.0019 15.9887 11.8892C15.8537 11.6617 15.8146 11.3898 15.88 11.1334C15.9454 10.877 16.11 10.6572 16.3375 10.5221C16.5651 10.3871 16.8369 10.348 17.0933 10.4134L23.56 12.0534C23.7957 12.112 24.0019 12.2548 24.1396 12.4549C24.2773 12.655 24.337 12.8985 24.3075 13.1397C24.278 13.3808 24.1612 13.6027 23.9793 13.7637C23.7974 13.9246 23.5629 14.0135 23.32 14.0134H23.316Z" fill="#15AB89"/>
<path d="M19.4134 18.52C19.3284 18.517 19.2437 18.5081 19.16 18.4933L15.28 17.5067C15.1531 17.4743 15.0338 17.4172 14.9289 17.3387C14.824 17.2602 14.7356 17.1618 14.6687 17.0491C14.5337 16.8216 14.4946 16.5497 14.56 16.2933C14.6255 16.037 14.79 15.8171 15.0176 15.682C15.2451 15.547 15.517 15.5079 15.7734 15.5733L19.6534 16.56C19.9096 16.6257 20.1293 16.7903 20.2643 17.0178C20.3993 17.2452 20.4385 17.517 20.3734 17.7733C20.3224 17.9885 20.1994 18.1799 20.0248 18.3157C19.8502 18.4514 19.6345 18.5235 19.4134 18.52Z" fill="#15AB89"/>
</svg>
