<svg width="32" height="32" viewBox="0 0 32 32" fill="none" xmlns="http://www.w3.org/2000/svg">
<path opacity="0.8" d="M17.2 3.36004L17.16 3.45337L13.2933 12.4267H9.49335C8.61325 12.4213 7.74159 12.5984 6.93335 12.9467L9.26668 7.37337L9.32002 7.25337L9.40002 7.04004C9.43056 6.9579 9.46619 6.87775 9.50668 6.80004C11.2533 2.76004 13.2267 1.84004 17.2 3.36004Z" fill="#15AB89"/>
<path d="M24.3867 12.6934C23.7757 12.5163 23.1428 12.4265 22.5067 12.4268H13.2933L17.16 3.45344L17.2 3.36011C17.3867 3.42677 17.5867 3.52011 17.7867 3.58677L20.7333 4.82677C22.0593 5.28507 23.2569 6.05298 24.2267 7.06677C24.3467 7.22677 24.4533 7.37344 24.56 7.54677C24.6783 7.72278 24.7683 7.91624 24.8267 8.12011C24.8785 8.23123 24.9187 8.3474 24.9467 8.46677C25.2458 9.89836 25.0482 11.3891 24.3867 12.6934Z" fill="#15AB89"/>
<path opacity="0.4" d="M29.0133 18.9333V21.5333C29.0133 21.8 29 22.0666 28.9866 22.32C28.7333 26.9866 26.1333 29.3333 21.2 29.3333H10.8C10.4833 29.3319 10.167 29.3097 9.8533 29.2666C5.6133 28.9866 3.34663 26.7244 3.0533 22.48C3.0112 22.1661 2.98893 21.8499 2.98663 21.5333L2.98663 18.9333C2.98811 17.6591 3.36262 16.4131 4.06396 15.3493C4.7653 14.2854 5.76278 13.4502 6.9333 12.9466C7.74154 12.5983 8.6132 12.4212 9.4933 12.4266H22.5066C23.1427 12.4264 23.7757 12.5162 24.3866 12.6933C25.7241 13.1014 26.8953 13.9278 27.7281 15.051C28.5609 16.1742 29.0114 17.535 29.0133 18.9333V18.9333Z" fill="#15AB89"/>
<path opacity="0.6" d="M9.26663 7.37329L6.9333 12.9466C5.76278 13.4502 4.7653 14.2854 4.06396 15.3493C3.36262 16.4131 2.98811 17.6591 2.98663 18.9333V15.0266C2.98572 13.2212 3.61124 11.4714 4.75649 10.0757C5.90174 8.67998 7.49577 7.72487 9.26663 7.37329V7.37329Z" fill="#15AB89"/>
<path opacity="0.6" d="M29.0133 15.0268V18.9334C29.0114 17.5352 28.5609 16.1744 27.7281 15.0511C26.8953 13.9279 25.7241 13.1015 24.3867 12.6935C25.0482 11.3891 25.2457 9.89837 24.9467 8.46678C24.9187 8.34741 24.8785 8.23124 24.8267 8.12012C26.0893 8.77847 27.1473 9.77047 27.8855 10.9882C28.6236 12.2059 29.0137 13.6028 29.0133 15.0268V15.0268Z" fill="#15AB89"/>
</svg>
